<svg width="233" height="61" viewBox="0 0 233 61" fill="none" xmlns="http://www.w3.org/2000/svg">
<path d="M224.519 0C225.138 0.1256 225.773 0.2198 226.384 0.3925C230.599 1.59355 233.302 5.50286 232.973 9.88316C232.652 14.0908 229.118 17.7332 224.903 18.2042C219.677 18.7772 215.102 14.915 214.796 9.66336C214.514 4.87485 217.789 0.839951 222.545 0.10205C222.733 0.0706501 222.921 0.03925 223.109 0C223.579 0 224.049 0 224.519 0ZM216.442 9.08246C216.449 13.2351 219.748 16.6106 223.806 16.6106C228.006 16.6106 231.335 13.2587 231.335 9.02751C231.328 4.93765 227.912 1.5543 223.791 1.56215C219.795 1.56215 216.434 5.00045 216.442 9.08246Z" fill="white"/>
<path d="M52.8058 60.6964C50.1264 60.6964 47.4547 60.6964 44.7439 60.6964C44.7439 48.1285 44.7439 35.5763 44.7439 23.032C44.7126 23.0163 44.6812 23.0006 44.6499 22.9849C38.5702 29.8066 32.4983 36.6282 26.3951 43.4734C20.3389 36.6204 14.3061 29.8066 8.21076 22.9143C8.21076 35.5606 8.21076 48.1049 8.21076 60.6885C5.46078 60.6885 2.74214 60.6885 0 60.6885C0 43.1751 0 25.6539 0 8.08561C0.125355 8.08561 0.25071 8.08561 0.376065 8.08561C2.31123 8.08561 4.23857 8.08561 6.17374 8.07776C6.41661 8.07776 6.58114 8.14056 6.74567 8.32896C12.6452 15.0643 18.5447 21.7996 24.4521 28.5349C25.0945 29.2728 25.737 30.0028 26.4029 30.7564C27.5389 29.469 28.6593 28.2052 29.7718 26.9492C34.6528 21.4228 39.5339 15.8885 44.4149 10.3621C45.0181 9.67916 45.6214 8.98836 46.2325 8.31326C46.3344 8.20336 46.5067 8.10131 46.6478 8.09346C48.6456 8.07776 50.6434 8.08561 52.6413 8.08561C52.6883 8.08561 52.7431 8.10131 52.8137 8.11701C52.8058 25.6461 52.8058 43.1594 52.8058 60.6964Z" fill="white"/>
<path d="M119.416 60.7198C119.416 43.1515 119.416 25.646 119.416 8.08549C119.573 8.08549 119.706 8.08549 119.847 8.08549C125.708 8.08549 131.568 8.01484 137.428 8.10904C143.868 8.21109 149.509 10.4797 154.257 14.8365C158.935 19.1305 161.732 24.4685 162.531 30.7563C163.581 38.9753 161.41 46.2993 155.816 52.4616C151.868 56.8105 146.924 59.4402 141.111 60.3587C139.685 60.5863 138.227 60.6962 136.786 60.7041C131.176 60.7433 125.559 60.7198 119.949 60.7198C119.785 60.7198 119.62 60.7198 119.416 60.7198ZM127.502 52.2025C127.596 52.2104 127.674 52.2182 127.745 52.2182C130.965 52.2182 134.193 52.2339 137.413 52.2104C139.207 52.2025 140.97 51.8964 142.67 51.3076C149.588 48.9212 154.375 42.4214 154.555 35.066C154.688 29.5867 152.769 24.9159 148.749 21.1715C145.655 18.2905 141.957 16.7283 137.718 16.6263C134.365 16.5478 131.012 16.6106 127.658 16.6106C127.611 16.6106 127.564 16.6263 127.494 16.6341C127.502 28.4877 127.502 40.3176 127.502 52.2025Z" fill="white"/>
<path d="M206.569 52.344C206.569 55.17 206.569 57.9253 206.569 60.6964C194.903 60.6964 183.252 60.6964 171.571 60.6964C171.571 43.1673 171.571 25.6461 171.571 8.10132C183.245 8.10132 194.895 8.10132 206.561 8.10132C206.561 10.9352 206.561 13.7455 206.561 16.5872C197.598 16.5872 188.643 16.5872 179.664 16.5872C179.664 21.1794 179.664 25.7403 179.664 30.3404C187.326 30.3404 194.981 30.3404 202.659 30.3404C202.659 33.0957 202.659 35.804 202.659 38.5593C195.004 38.5593 187.35 38.5593 179.664 38.5593C179.664 43.1673 179.664 47.7281 179.664 52.3361C188.619 52.344 197.574 52.344 206.569 52.344Z" fill="white"/>
<path d="M110.656 60.7199C110.46 60.7199 110.319 60.7199 110.178 60.7199C107.553 60.7199 104.929 60.712 102.304 60.7277C101.983 60.7277 101.826 60.6414 101.709 60.3274C100.62 57.572 99.5228 54.8245 98.4181 52.077C98.3633 51.9436 98.3085 51.8101 98.2458 51.6688C98.1048 51.6688 97.9794 51.6688 97.8462 51.6688C90.0664 51.6688 82.2865 51.6688 74.5067 51.661C74.1776 51.661 74.0366 51.763 73.9191 52.0613C72.8222 54.8402 71.7097 57.6113 70.605 60.3823C70.5266 60.5864 70.4561 60.7356 70.1741 60.7356C67.3928 60.7199 64.6114 60.7277 61.8301 60.7277C61.7596 60.7277 61.6813 60.712 61.5559 60.7042C61.6264 60.5158 61.6813 60.3588 61.7518 60.2096C68.9519 42.971 76.1519 25.7245 83.3442 8.47807C83.4617 8.19547 83.5871 8.08557 83.9083 8.08557C85.4126 8.10127 86.909 8.10127 88.4132 8.08557C88.6953 8.08557 88.8442 8.15622 88.9617 8.43882C96.1304 25.7481 103.315 43.0574 110.499 60.3588C110.546 60.453 110.585 60.5472 110.656 60.7199ZM86.1725 23.0241C83.3834 29.8065 80.6334 36.5183 77.8599 43.2693C83.3755 43.2693 88.8363 43.2693 94.3441 43.2693C91.6255 36.5183 88.9147 29.8065 86.1725 23.0241Z" fill="white"/>
<path d="M224.794 14.6403C224.12 14.6403 223.501 14.6403 222.835 14.6403C222.835 14.0516 222.835 13.4785 222.835 12.9055C222.835 12.4109 222.843 11.9085 222.835 11.414C222.819 10.5583 222.326 10.0559 221.464 10.0481C220.602 10.0402 219.74 10.0481 218.878 10.0481C218.737 10.0481 218.596 10.0481 218.424 10.0481C218.424 9.38867 218.424 8.76067 218.424 8.08557C219.035 8.08557 219.638 8.08557 220.234 8.08557C220.649 8.08557 221.072 8.08557 221.487 8.08557C222.326 8.07772 222.827 7.59102 222.835 6.74322C222.843 5.87187 222.835 4.99267 222.835 4.11347C222.835 3.97217 222.835 3.83087 222.835 3.66602C223.493 3.66602 224.112 3.66602 224.778 3.66602C224.786 3.80732 224.794 3.94862 224.794 4.08207C224.794 4.92202 224.794 5.75412 224.794 6.59407C224.794 7.62242 225.256 8.07772 226.274 8.08557C227.293 8.08557 228.304 8.08557 229.353 8.08557C229.353 8.73712 229.353 9.36512 229.353 10.0481C228.86 10.0481 228.366 10.0481 227.873 10.0481C227.309 10.0481 226.752 10.0481 226.188 10.0481C225.303 10.0559 224.802 10.5505 224.794 11.4297C224.786 12.3403 224.794 13.2587 224.794 14.1772C224.794 14.3185 224.794 14.4598 224.794 14.6403Z" fill="white"/>
</svg>
