<svg width="13" height="25" viewBox="0 0 13 25" fill="none" xmlns="http://www.w3.org/2000/svg">
<rect x="5.92273" y="21.5319" width="1.11957" height="3.07881" rx="0.559784" fill="#0D0D30"/>
<rect x="10.3665" y="23.212" width="1.39946" height="7.767" rx="0.69973" transform="rotate(90 10.3665 23.212)" fill="#0D0D30"/>
<rect x="1.68835" y="0.895508" width="9.60988" height="18.7869" rx="4.80494" fill="#0D0D30"/>
<path fill-rule="evenodd" clip-rule="evenodd" d="M0.997833 12.7308C0.997833 12.4553 0.77446 12.2319 0.498916 12.2319V12.2319C0.223372 12.2319 0 12.4553 0 12.7308V15.059C0 18.6409 2.90372 21.5446 6.48563 21.5446C10.0675 21.5446 12.9713 18.6409 12.9713 15.059V12.7308C12.9713 12.4553 12.7479 12.2319 12.4724 12.2319V12.2319C12.1969 12.2319 11.9735 12.4553 11.9735 12.7308V14.976C11.9735 18.0069 9.51652 20.4638 6.48567 20.4638C3.45482 20.4638 0.997833 18.0069 0.997833 14.976V12.7308Z" fill="#0D0D30"/>
<rect x="7.60059" y="6.60309" width="3.35002" height="0.402002" rx="0.201001" fill="#0D0D30"/>
<rect x="7.60059" y="8.13147" width="3.35002" height="0.402002" rx="0.201001" fill="#0D0D30"/>
<rect x="7.60059" y="9.65918" width="3.35002" height="0.402002" rx="0.201001" fill="#0D0D30"/>
<rect x="7.60059" y="11.1869" width="3.35002" height="0.402002" rx="0.201001" fill="#0D0D30"/>
<rect x="3.80042" y="13.2463" width="5.62803" height="0.777204" rx="0.388602" fill="#0D0D30"/>
</svg>
