<svg width="158" height="152" version="1.1" viewBox="0 0 158 152" xmlns="http://www.w3.org/2000/svg">
 <g fill="#fff">
  <path d="m59.954 150.92c-0.5695 0-1.0577-0.488-1.0577-1.057v-13.625c0-0.57 0.4882-1.058 1.0577-1.058s1.0577 0.488 1.0577 1.058v13.625c0 0.569-0.4882 1.057-1.0577 1.057z"/>
  <path d="m71.018 150.88c-0.5695 0-1.0577-0.488-1.0577-1.058v-8.419c0-0.569 0.4882-1.057 1.0577-1.057s1.0577 0.488 1.0577 1.057v8.419c0 0.61-0.4475 1.058-1.0577 1.058z"/>
  <path d="m99.249 150.92c-0.1627 0-0.2847-0.041-0.4475-0.081-0.5288-0.245-0.7729-0.895-0.4881-1.424l6.4277-13.707c0.244-0.528 0.895-0.772 1.424-0.488 0.529 0.285 0.773 0.895 0.488 1.424l-6.428 13.706c-0.203 0.367-0.5693 0.57-0.9761 0.57z"/>
  <path d="m71.017 142.46c-0.5695 0-1.0577-0.489-1.0577-1.058 0-2.603-1.6679-4.393-4.1088-4.393-0.4068 0-1.1391 0.204-1.5459 0.448-0.5288 0.285-1.139 0.081-1.4238-0.448-0.2848-0.528-0.0814-1.138 0.4475-1.423 0.6509-0.326 1.7086-0.692 2.5629-0.692 3.5392 0 6.2242 2.807 6.2242 6.508-0.0407 0.569-0.4882 1.058-1.0984 1.058z"/>
  <path d="m89.69 142.18c-0.6102 0-0.9763-0.284-1.0984-0.772-0.7322-2.563-3.0918-4.352-5.736-4.352-0.5696 0-1.0577-0.488-1.0577-1.058 0-0.569 0.4881-1.057 1.0577-1.057 3.5799 0 6.7937 2.399 7.7701 5.897 0.1627 0.529-0.2848 1.342-0.9357 1.342z"/>
  <path d="m76.061 142.18c-0.8543 0-1.1798-0.772-1.017-1.342 0.9763-3.457 4.1901-5.897 7.7701-5.897 0.5695 0 1.0577 0.488 1.0577 1.057 0 0.57-0.4882 1.058-1.0577 1.058-2.6443 0-5.0038 1.789-5.7361 4.352-0.122 0.447-0.5288 0.772-1.017 0.772z"/>
  <path d="m129.88 129c-1.179 0-2.115 0.935-2.115 2.115 0 1.179 0.936 2.115 2.115 2.115 1.18 0 2.116-0.936 2.116-2.115 0-1.18-0.936-2.115-2.116-2.115z"/>
  <path d="m129.88 150.88c-0.57 0-1.058-0.488-1.058-1.057v-13.626c0-0.569 0.488-1.057 1.058-1.057s1.058 0.488 1.058 1.057v13.626c0 0.569-0.488 1.057-1.058 1.057z"/>
  <path d="m99.206 150.92c-0.4068 0-0.773-0.244-0.9764-0.61l-6.4276-13.666c-0.2441-0.528-0.0407-1.179 0.4882-1.423 0.5288-0.244 1.1797-0.041 1.4238 0.488l6.4277 13.666c0.244 0.529 0.041 1.179-0.4882 1.423-0.1221 0.082-0.2848 0.122-0.4475 0.122z"/>
  <path d="m124.76 151.04c-1.708-0.854-3.336-2.888-3.336-6.06 0-0.57 0.488-1.058 1.058-1.058s1.058 0.488 1.058 1.058c0 1.911 0.813 3.538 2.237 4.189 0.529 0.244 0.814 0.895 0.488 1.505-0.244 0.325-0.773 0.732-1.505 0.366z"/>
  <path d="m54.949 144.13h-10.74c-0.5696 0-1.0577-0.488-1.0577-1.057 0-0.57 0.4881-1.058 1.0577-1.058h10.74c0.5695 0 1.0577 0.488 1.0577 1.058 0 0.569-0.4882 1.057-1.0577 1.057z"/>
  <path d="m54.948 144.13c-0.5696 0-1.0578-0.488-1.0578-1.058 0-3.376-2.6849-6.019-6.1428-6.019-0.5695 0-1.0577-0.488-1.0577-1.058 0-0.569 0.4882-1.057 1.0577-1.057 4.6376 0 8.2583 3.579 8.2583 8.134 0 0.57-0.4882 1.058-1.0577 1.058z"/>
  <path d="m40.792 144.13c-0.5695 0-1.0577-0.488-1.0577-1.058 0-4.474 3.6206-8.134 8.0141-8.134 0.5696 0 1.0577 0.488 1.0577 1.057 0 0.57-0.4881 1.058-1.0577 1.058-3.2138 0-5.8987 2.765-5.8987 6.019 0 0.57-0.4882 1.058-1.0577 1.058z"/>
  <path d="m47.748 151.17c-4.4342 0-8.0141-3.661-8.0141-8.135 0-0.569 0.4882-1.057 1.0577-1.057s1.0577 0.488 1.0577 1.057c0 3.701 3.0511 6.02 5.8987 6.02 0.5696 0 1.0577 0.488 1.0577 1.057 0 0.61-0.4881 1.058-1.0577 1.058z"/>
  <path d="m47.747 151.17c-0.5695 0-1.0577-0.488-1.0577-1.058 0-0.569 0.4882-1.057 1.0577-1.057 3.5393 0 5.0038-2.481 5.0851-2.563 0.2848-0.488 0.9357-0.691 1.4239-0.406 0.4882 0.284 0.6916 0.935 0.4068 1.423-0.0814 0.163-2.0747 3.661-6.9158 3.661z"/>
  <path d="m31.067 142.06c-0.5696 0-1.0577 0.488-1.0577 1.058v6.792c0 0.57 0.4881 1.058 1.0577 1.058 0.5695 0 1.0577-0.488 1.0577-1.058v-6.792c0-0.61-0.4882-1.058-1.0577-1.058z"/>
  <path d="m38.758 135.59c-1.1391-0.57-2.4002-0.773-3.6613-0.61-2.3188 0.325-4.3122 1.993-5.0445 4.23-0.2034 0.61 0.2034 1.383 1.0171 1.383 0.4475 0 0.8543-0.285 1.017-0.732 0.4882-1.505 1.7493-2.563 3.3359-2.766 0.8136-0.122 1.6679 0.04 2.4001 0.407 0.5289 0.284 1.1798 0.04 1.4239-0.448 0.2441-0.529 0.0407-1.179-0.4882-1.464z"/>
  <path d="m75.982 143.93c0.6102 0 0.9763 0.285 1.0984 0.773 0.7322 2.562 3.0918 4.352 5.736 4.352 0.5696 0 1.0577 0.488 1.0577 1.057 0 0.57-0.4881 1.058-1.0577 1.058-3.5799 0-6.7937-2.4-7.7701-5.898-0.1627-0.569 0.2848-1.342 0.9357-1.342z"/>
  <path d="m89.609 143.93c0.8543 0 1.1797 0.773 1.017 1.342-0.9764 3.458-4.1902 5.898-7.7701 5.898-0.5696 0-1.0577-0.488-1.0577-1.058 0-0.569 0.4881-1.057 1.0577-1.057 2.6442 0 5.0038-1.79 5.736-4.352 0.1221-0.488 0.5289-0.773 1.0171-0.773z"/>
  <path d="m122.56 142.18c-0.61 0-0.976-0.284-1.098-0.772-0.732-2.563-3.092-4.352-5.736-4.352-0.57 0-1.058-0.488-1.058-1.058 0-0.569 0.488-1.057 1.058-1.057 3.58 0 6.794 2.399 7.77 5.897 0.163 0.529-0.285 1.342-0.936 1.342z"/>
  <path d="m108.93 142.18c-0.854 0-1.18-0.772-1.017-1.342 0.976-3.457 4.19-5.897 7.77-5.897 0.57 0 1.058 0.488 1.058 1.057 0 0.57-0.488 1.058-1.058 1.058-2.644 0-5.004 1.789-5.736 4.352-0.122 0.447-0.529 0.772-1.017 0.772z"/>
  <path d="m108.85 143.93c0.61 0 0.977 0.285 1.099 0.773 0.732 2.562 3.091 4.352 5.736 4.352 0.569 0 1.057 0.488 1.057 1.057 0 0.57-0.488 1.058-1.057 1.058-3.58 0-6.794-2.4-7.77-5.898-0.163-0.569 0.284-1.342 0.935-1.342z"/>
  <path d="m122.44 143.93c0.854 0 1.18 0.773 1.017 1.342-0.976 3.458-4.19 5.898-7.77 5.898-0.57 0-1.058-0.488-1.058-1.058 0-0.569 0.488-1.057 1.058-1.057 2.644 0 5.004-1.79 5.736-4.352 0.163-0.488 0.569-0.773 1.017-0.773z"/>
 </g>
 <path d="m29 40.344h-1e-4v0.0902c0-0.0301 0-0.0601 1e-4 -0.0902zm-1e-4 12.998v62.814c0 1.298 0.5157 2.543 1.4336 3.461s2.1628 1.434 3.461 1.434h30.485c0.6427 0 1.2792-0.127 1.8731-0.373 0.5938-0.246 1.1334-0.606 1.5879-1.061 0.4545-0.454 0.815-0.994 1.061-1.588s0.3726-1.23 0.3726-1.873v-75.722h-28.322c-11.198 0-11.952 12.908-11.952 12.908z" clip-rule="evenodd" fill="#611aba" fill-rule="evenodd"/>
 <path d="m69.275 1.0954e-4c0.0183-4.8916e-5 0.0366-8.5432e-5 0.0548-1.0954e-4h-0.0548zm0.0548 40.327h55.541c0.643 0 1.279-0.1266 1.873-0.3726s1.133-0.6065 1.588-1.061c0.454-0.4545 0.815-0.9941 1.061-1.5879 0.246-0.5939 0.372-1.2303 0.372-1.8731v-30.538c0-1.2981-0.515-2.5431-1.433-3.461-0.918-0.9179-2.163-1.4336-3.461-1.4336h-42.773s-12.768 0.79803-12.768 11.864c0.03 0.4428 0.03 0.8872 0 1.33z" clip-rule="evenodd" fill="#ff86dd" fill-rule="evenodd"/>
</svg>
