<svg width="78" height="63" viewBox="0 0 78 63" fill="none" xmlns="http://www.w3.org/2000/svg">
<rect x="22.3069" y="5.55835" width="48.1751" height="48.1751" rx="5.82336" fill="#611ABA"/>
<rect x="37.1294" width="40.7635" height="37.0578" rx="5.82336" fill="#611ABA" fill-opacity="0.6"/>
<rect x="9.3374" y="11.1194" width="51.8809" height="51.8809" rx="7.41155" fill="#61C0FA"/>
<circle cx="9.33613" cy="14.8945" r="9.33613" fill="#FF86DD"/>
<path d="M8.94249 8.84809C9.0667 8.46581 9.60754 8.46581 9.73175 8.84809L10.8743 12.3644C10.9298 12.5353 11.0891 12.6511 11.2689 12.6511L14.9661 12.6511C15.3681 12.6511 15.5352 13.1654 15.21 13.4017L12.2189 15.5749C12.0735 15.6805 12.0126 15.8678 12.0682 16.0388L13.2107 19.5551C13.3349 19.9373 12.8973 20.2552 12.5721 20.019L9.58102 17.8458C9.43559 17.7401 9.23866 17.7401 9.09323 17.8458L6.10211 20.019C5.77692 20.2552 5.33937 19.9373 5.46359 19.5551L6.60609 16.0388C6.66164 15.8678 6.60079 15.6805 6.45535 15.5749L3.46424 13.4017C3.13905 13.1654 3.30617 12.6511 3.70813 12.6511L7.40536 12.6511C7.58512 12.6511 7.74444 12.5353 7.79999 12.3644L8.94249 8.84809Z" fill="white"/>
</svg>
