<svg width="32" height="32" fill="none" version="1.1" viewBox="0 0 32 32" xmlns="http://www.w3.org/2000/svg">
 <g transform="translate(-1.748 2.252)" fill="#0d0d30">
  <path d="m5.4705 27.352c0.06713 0.094 0.17286 0.1442 0.28026 0.1442 0.06797 0 0.13661-0.0202 0.19652-0.062l2.0907-1.4609 2.0909 1.4609c0.1183 0.0828 0.2756 0.0826 0.3939-1e-4l2.089-1.4606 2.0899 1.4607c0.1181 0.0826 0.2754 0.0828 0.3939-1e-4l2.089-1.4606 2.0884 1.4606c0.1185 0.0829 0.2755 0.0829 0.394 0l2.0884-1.4606 2.0882 1.4606c0.1185 0.0829 0.2759 0.0829 0.394 0l2.0874-1.4606 2.0889 1.4606c0.1238 0.0864 0.2891 0.0825 0.4078-0.0103l2.5413-1.9739c0.1447-0.1123 0.1759-0.3182 0.071-0.4682l-1.4609-2.0909 1.4609-2.0907c0.0826-0.1183 0.0826-0.2756-2e-4 -0.3939l-1.4605-2.089 1.4607-2.0899c0.0826-0.1182 0.0826-0.2756-2e-4 -0.3939l-1.4605-2.089 1.4605-2.0884c0.0828-0.1183 0.0828-0.2757 0-0.3941l-1.4605-2.0883 1.4605-2.0884c0.0828-0.11831 0.0828-0.27573 0-0.39404l-1.4605-2.0874 1.4605-2.0889c0.0834-0.11932 0.0828-0.27808-0.0017-0.39656l-1.4066-1.9739c-0.1095-0.15339-0.3218-0.18964-0.4768-0.082233l-2.0907 1.4609-2.0909-1.4609c-0.1182-0.082736-0.2754-0.082568-0.3939 1.679e-4l-2.089 1.4606-2.0899-1.4607c-0.1182-0.082568-0.2754-0.082736-0.3939 1.679e-4l-2.089 1.4606-2.0884-1.4606c-0.1185-0.082904-0.2756-0.082904-0.3941 0l-2.0883 1.4606-2.0882-1.4606c-0.1185-0.082904-0.2759-0.082904-0.3941 0l-2.0873 1.4606-2.0889-1.4606c-0.12368-0.086428-0.28899-0.0824-0.40781 0.010237l-2.5413 1.9739c-0.14467 0.11227-0.17588 0.31819-0.07099 0.46822l1.4609 2.0909-1.4609 2.0907c-0.08257 0.11832-0.08257 0.27556 1.7e-4 0.39388l1.4605 2.089-1.4607 2.0899c-0.08257 0.1181-0.08257 0.2755 1.7e-4 0.3938l1.4605 2.0891-1.4605 2.0884c-0.08274 0.1183-0.08274 0.2757 0 0.394l1.4605 2.0884-1.4605 2.0883c-0.08274 0.1184-0.08274 0.2758 0 0.3941l1.4605 2.0873-1.4605 2.0889c-0.08341 0.1193-0.08274 0.2781 0.00167 0.3966zm0.75318-4.2623c0.08274-0.1183 0.08274-0.2758 0-0.3941l-1.4606-2.0873 1.4606-2.0884c0.08274-0.1183 0.08274-0.2757 0-0.3941l-1.4606-2.0883 1.4606-2.0884c0.08274-0.1183 0.08274-0.2757 0-0.394l-1.4606-2.0891 1.4607-2.0899c0.08257-0.11815 0.08257-0.27557-1.7e-4 -0.39388l-1.4606-2.089 1.4607-2.0907c0.08257-0.11832 0.08257-0.2754 0-0.39371l-1.4112-2.0199 2.0832-1.618 2.0781 1.453c0.11848 0.0829 0.2759 0.0829 0.39404 0l2.0874-1.4606 2.0882 1.4606c0.1184 0.0829 0.2755 0.0829 0.394 0l2.0884-1.4606 2.0883 1.4606c0.1185 0.0829 0.2756 0.0829 0.3941 0l2.089-1.4606 2.0899 1.4607c0.1182 0.08256 0.2754 0.08273 0.3939-1.7e-4l2.089-1.4606 2.0909 1.4607c0.1182 0.08256 0.2756 0.08256 0.3937 0l2.0085-1.4033 1.0682 1.499-1.4592 2.087c-0.0828 0.11832-0.0828 0.27573 0 0.39405l1.4605 2.0874-1.4605 2.0884c-0.0828 0.11832-0.0828 0.27573 0 0.39405l1.4605 2.0884-1.4605 2.0883c-0.0828 0.1184-0.0828 0.2758 0 0.3941l1.4605 2.089-1.4607 2.0899c-0.0826 0.1182-0.0826 0.2756 2e-4 0.3939l1.4605 2.089-1.4607 2.0907c-0.0826 0.1184-0.0826 0.2754 0 0.3938l1.4112 2.0199-2.0831 1.6179-2.0782-1.453c-0.1185-0.0829-0.2759-0.0829-0.394 0l-2.0874 1.4606-2.0882-1.4606c-0.1185-0.0829-0.2755-0.0829-0.394 0l-2.0884 1.4606-2.0884-1.4606c-0.1184-0.0829-0.2755-0.0829-0.394 0l-2.0891 1.4606-2.0898-1.4607c-0.1182-0.0826-0.2754-0.0828-0.3939 1e-4l-2.089 1.4606-2.0909-1.4607c-0.05908-0.0413-0.12805-0.062-0.19686-0.062s-0.13778 0.0207-0.19685 0.062l-2.0085 1.4033-1.0682-1.499z"/>
  <path d="m18.034 5.2381c0.1898 0 0.3437-0.15389 0.3437-0.3437v-0.51555c0-0.1898-0.1539-0.34369-0.3437-0.34369s-0.3437 0.15389-0.3437 0.34369v0.51555c0 0.18981 0.1539 0.3437 0.3437 0.3437z"/>
  <path d="m18.034 8.3599c0.1898 0 0.3437-0.15389 0.3437-0.34369v-1.0416c0-0.1898-0.1539-0.34369-0.3437-0.34369s-0.3437 0.15389-0.3437 0.34369v1.0416c0 0.1898 0.1539 0.34369 0.3437 0.34369z"/>
  <path d="m18.034 16.006c-0.1898 0-0.3437 0.1539-0.3437 0.3437v1.0416c0 0.1898 0.1539 0.3437 0.3437 0.3437s0.3437-0.1539 0.3437-0.3437v-1.0416c0-0.1898-0.1539-0.3437-0.3437-0.3437z"/>
  <path d="m18.034 19.135c-0.1898 0-0.3437 0.1539-0.3437 0.3437v1.0416c0 0.1898 0.1539 0.3437 0.3437 0.3437s0.3437-0.1539 0.3437-0.3437v-1.0416c0-0.1898-0.1539-0.3437-0.3437-0.3437z"/>
  <path d="m18.034 11.489c0.1898 0 0.3437-0.1539 0.3437-0.3437v-1.0416c0-0.18984-0.1539-0.34373-0.3437-0.34373s-0.3437 0.15389-0.3437 0.34373v1.0416c0 0.1898 0.1539 0.3437 0.3437 0.3437z"/>
  <path d="m18.034 22.258c-0.1898 0-0.3437 0.1539-0.3437 0.3437v0.5156c0 0.1898 0.1539 0.3437 0.3437 0.3437s0.3437-0.1539 0.3437-0.3437v-0.5156c0-0.1898-0.1539-0.3437-0.3437-0.3437z"/>
  <path d="m26.888 14.094h0.5156c0.1898 0 0.3437-0.1541 0.3437-0.3441 0-0.1901-0.1539-0.3442-0.3437-0.3442h-0.5156c-0.1898 0-0.3437 0.1541-0.3437 0.3442 0 0.19 0.1539 0.3441 0.3437 0.3441z"/>
  <path d="m14.389 14.094h1.0417c0.1898 0 0.3437-0.1541 0.3437-0.3441 0-0.1901-0.1539-0.3442-0.3437-0.3442h-1.0417c-0.1898 0-0.3437 0.1541-0.3437 0.3442 0 0.19 0.1539 0.3441 0.3437 0.3441z"/>
  <path d="m17.514 14.091h0.1771v0.1771c0 0.1898 0.1539 0.3437 0.3437 0.3437s0.3437-0.1539 0.3437-0.3437v-0.1771h0.177c0.1898 0 0.3437-0.1538 0.3437-0.3436 0-0.1899-0.1539-0.3437-0.3437-0.3437h-0.177v-0.1771c0-0.1898-0.1539-0.3437-0.3437-0.3437s-0.3437 0.1539-0.3437 0.3437v0.1771h-0.1771c-0.1898 0-0.3437 0.1538-0.3437 0.3437 0 0.1898 0.1539 0.3436 0.3437 0.3436z"/>
  <path d="m20.639 14.094h1.0417c0.1898 0 0.3437-0.1541 0.3437-0.3441 0-0.1901-0.1539-0.3442-0.3437-0.3442h-1.0417c-0.1898 0-0.3437 0.1541-0.3437 0.3442 0 0.19 0.1539 0.3441 0.3437 0.3441z"/>
  <path d="m11.264 14.094h1.0417c0.1898 0 0.3437-0.1541 0.3437-0.3441 0-0.1901-0.1539-0.3442-0.3437-0.3442h-1.0417c-0.1898 0-0.3437 0.1541-0.3437 0.3442 0 0.19 0.1539 0.3441 0.3437 0.3441z"/>
  <path d="m23.764 14.094h1.0417c0.1898 0 0.3437-0.1541 0.3437-0.3441 0-0.1901-0.1539-0.3442-0.3437-0.3442h-1.0417c-0.1898 0-0.3437 0.1541-0.3437 0.3442 0 0.19 0.1539 0.3441 0.3437 0.3441z"/>
  <path d="m8.665 14.094h0.51554c0.18981 0 0.3437-0.1541 0.3437-0.3441 0-0.1901-0.15389-0.3442-0.3437-0.3442h-0.51554c-0.18981 0-0.3437 0.1541-0.3437 0.3442 0 0.19 0.15389 0.3441 0.3437 0.3441z"/>
 </g>
</svg>
