<svg width="32" height="32" fill="none" version="1.1" viewBox="0 0 32 32" xmlns="http://www.w3.org/2000/svg">
 <path d="m2.36 16.374 3.8504 1.7305c0.00902 0.0041 0.018568 0.0028 0.027714 6e-3v11.388c0 0.19113 0.15498 0.34609 0.34611 0.34609h18.832c0.19113 0 0.34609-0.15496 0.34609-0.34609v-11.388c0.0092-0.0032 0.01876-2e-3 0.02778-6e-3l3.8504-1.7305c0.12424-0.05591 0.20417-0.17943 0.20417-0.31563v-6.3453c0-1.1941-1.2048-2.4045-3.5809-3.5972-1.3952-0.70032-2.7689-1.1821-3.2563-1.3448l0.01143-0.020051c0.08467-0.14804 0.04885-0.33546-0.08431-0.44192l-2.5928-2.0741c-7e-3 -0.00558-0.01402-0.010985-0.02135-0.016055l-8.9e-5 -1.69e-4c-3.57e-4 -3.38e-4 -8.93e-4 -6.76e-4 -0.0015-0.00101-3.58e-4 -1.69e-4 -5.36e-4 -3.38e-4 -8.94e-4 -6.76e-4 -3.57e-4 -1.689e-4 -6.25e-4 -3.38e-4 -8.03e-4 -5.07e-4h-1.79e-4v-1.69e-4c-1.79e-4 0-5.36e-4 -3.379e-4 -7.14e-4 -3.379e-4 -1.78e-4 -1.691e-4 -3.58e-4 -3.381e-4 -6.26e-4 -5.071e-4h-1.77e-4c-7.15e-4 -6.759e-4 -5.37e-4 -6.759e-4 -8.94e-4 -6.759e-4 0 0-1.78e-4 -1.691e-4 -3.58e-4 -1.691e-4 -0.06011-0.040221-0.13075-0.064049-0.19595-0.057965h-8.3221c-0.06466 5.07e-4 -0.13567 0.017913-0.19604 0.057965-2.68e-4 0-6.25e-4 1.691e-4 -6.25e-4 5.071e-4 -3.57e-4 1.69e-4 -5.36e-4 5.069e-4 -7.14e-4 3.379e-4 -2.68e-4 1.69e-4 -4.47e-4 3.381e-4 -6.26e-4 3.381e-4 0 5.069e-4 -3.57e-4 5.069e-4 -7.14e-4 5.069e-4v1.69e-4h-1.79e-4c-1.78e-4 1.69e-4 -4.46e-4 3.381e-4 -8.03e-4 5.07e-4 -3.58e-4 3.38e-4 -5.36e-4 5.07e-4 -8.94e-4 6.76e-4 -6.25e-4 3.38e-4 -0.0012 6.76e-4 -0.0015 0.00101l-1.78e-4 1.69e-4c-0.0072 0.00507-0.01429 0.010478-0.02126 0.016055l-2.5928 2.0741c-0.13317 0.10646-0.169 0.29388-0.084329 0.44192l0.025436 0.044514c-0.53988 0.18256-1.851 0.65131-3.1838 1.3203-2.3761 1.1928-3.5809 2.4031-3.5809 3.5972v6.3453c0 0.1362 0.079935 0.25972 0.20415 0.31563zm17.838-13.367 2.0724 1.6577-3.5344 6.1847-2.1724-2.4893zm-0.72933-0.15801-3.5121 5.1728-3.5121-5.1728zm-7.7535 0.15801 3.6344 5.3531-2.1724 2.4893-3.5344-6.1847zm-8.8672 6.7061c0-1.8345 4.529-3.6918 6.4224-4.3051l3.5471 6.2074c0.05564 0.09735 0.15487 0.16157 0.26624 0.17264 0.11334 0.01268 0.2215-0.03242 0.295-0.11673l2.5778-2.9541 2.5779 2.9541c0.066 0.07574 0.16139 0.11843 0.2607 0.11843 0.01134 0 0.02286-4.47e-4 0.0343-0.0017 0.11137-0.01107 0.2106-0.07529 0.26624-0.17264l3.5606-6.2309c1.8474 0.58772 6.4955 2.4689 6.4955 4.3287v6.1214l-3.3901 1.5236v-3.7224c0-0.19113-0.15496-0.34618-0.34609-0.34618-0.19113 0-0.34609 0.15505-0.34609 0.34618v15.517h-18.139v-15.517c0-0.19113-0.15497-0.34618-0.34611-0.34618-0.19113 0-0.34611 0.15505-0.34611 0.34618v3.7224l-3.3901-1.5236z" fill="#0d0d30" stroke-width=".89313"/>
</svg>
