<svg width="95" height="85" fill="none" version="1.1" viewBox="0 0 95 85" xmlns="http://www.w3.org/2000/svg">
 <g transform="translate(-70.935 5.0221)" fill="#61C0FA">
  <path d="m118.3 13.481c0.518 0 0.938-0.419 0.938-0.9375v-5.6344c0-0.51844-0.42-0.9375-0.938-0.9375-0.517 0-0.937 0.41906-0.937 0.9375v5.6344c0 0.5175 0.42 0.9375 0.937 0.9375z"/>
  <path d="m96.034 15.192c-0.3665 0.3666-0.3665 0.9591 0 1.3257l3.9846 3.9843c0.183 0.1829 0.423 0.2747 0.663 0.2747s0.48-0.0918 0.662-0.2747c0.367-0.3665 0.367-0.959 0-1.3256l-3.9839-3.9844c-0.3657-0.3665-0.9591-0.3665-1.3257 0z"/>
  <path d="m140.56 15.192c-0.367-0.3665-0.959-0.3665-1.326 0l-3.984 3.9844c-0.367 0.3666-0.367 0.9591 0 1.3256 0.182 0.1829 0.422 0.2747 0.662 0.2747s0.48-0.0918 0.663-0.2747l3.985-3.9843c0.365-0.3666 0.365-0.9591 0-1.3257z"/>
  <path d="m123.86 2.241c0.048 0.0075 0.097 0.01125 0.144 0.01125 0.454 0 0.854-0.33188 0.925-0.79594 0.078-0.51188-0.273-0.99094-0.785-1.0688-1.239-0.18938-2.509-0.31875-3.776-0.38438-0.515-0.04125-0.957 0.37125-0.984 0.88782-0.028 0.51656 0.371 0.95812 0.887 0.98531 1.204 0.06094 2.411 0.18375 3.589 0.36469z"/>
  <path d="m116.58 0.0012844c-1.267 0.060938-2.538 0.1875-3.778 0.37594-0.512 0.076875-0.864 0.555-0.787 1.0669 0.071 0.465 0.47 0.79782 0.926 0.79782 0.046 0 0.094-0.00375 0.141-0.01125 1.178-0.17719 2.385-0.29719 3.588-0.35626 0.517-0.02531 0.916-0.465 0.892-0.9825-0.026-0.5175-0.471-0.91688-0.982-0.89063z"/>
  <path d="m105.78 4.0812c0.108 0 0.217-0.01875 0.324-0.05813 1.125-0.41437 2.283-0.77625 3.443-1.0744 0.501-0.12938 0.803-0.64032 0.674-1.1419-0.129-0.50063-0.638-0.80344-1.141-0.675-1.222 0.31406-2.441 0.69468-3.625 1.1316-0.486 0.17906-0.734 0.71907-0.555 1.2038 0.14 0.37969 0.498 0.61407 0.88 0.61407z"/>
  <path d="m137.3 7.2296c0.154 0.0975 0.326 0.1425 0.496 0.1425 0.312 0 0.617-0.15562 0.796-0.44062 0.274-0.43876 0.141-1.0172-0.298-1.2919-1.07-0.66938-2.186-1.2909-3.317-1.8478-0.465-0.22688-1.025-0.0375-1.255 0.4275-0.229 0.46406-0.037 1.0266 0.428 1.2553 1.073 0.52875 2.132 1.1194 3.15 1.755z"/>
  <path d="m90.021 12.984c-0.8231 0.9553-1.6078 1.9641-2.3307 2.9972-0.2962 0.4238-0.194 1.0088 0.2307 1.3059 0.1631 0.1144 0.3515 0.1697 0.5362 0.1697 0.2953 0 0.5869-0.1387 0.7688-0.4003 0.6872-0.9825 1.4325-1.9397 2.2144-2.8472 0.3384-0.3928 0.2943-0.9844-0.0975-1.3228-0.3929-0.3366-0.9844-0.2944-1.3219 0.0975z"/>
  <path d="m143.64 11.905c0.247 0 0.495-0.0975 0.679-0.2916 0.357-0.375 0.342-0.9684-0.033-1.3256-0.915-0.87003-1.883-1.7025-2.878-2.475-0.408-0.31781-0.999-0.24375-1.316 0.16688-0.317 0.40875-0.242 0.9975 0.166 1.3144 0.946 0.73308 1.866 1.5244 2.735 2.3522 0.182 0.1725 0.414 0.2588 0.647 0.2588z"/>
  <path d="m95.524 7.7677c-0.9994 0.77156-1.9697 1.6031-2.8838 2.4703-0.375 0.3563-0.3909 0.9506-0.0347 1.3256 0.1847 0.1941 0.4322 0.2925 0.6806 0.2925 0.2316 0 0.4641-0.0853 0.645-0.2568 0.8682-0.8241 1.7897-1.6135 2.7394-2.3475 0.4097-0.31593 0.4856-0.90469 0.1688-1.3144-0.3178-0.41063-0.9066-0.48563-1.3153-0.16969z"/>
  <path d="m130.84 4.0485c0.108 0.04031 0.218 0.05812 0.327 0.05812 0.38 0 0.738-0.23344 0.879-0.61031 0.18-0.48657-0.067-1.0256-0.552-1.2056-1.178-0.43782-2.396-0.82032-3.622-1.1391-0.503-0.135-1.013 0.17157-1.143 0.67219-0.13 0.50063 0.171 1.0125 0.672 1.1428 1.163 0.30187 2.321 0.66656 3.439 1.0819z"/>
  <path d="m99.138 7.3334c0.1697 0 0.3403-0.04594 0.495-0.14156 1.0184-0.63469 2.0794-1.2234 3.1544-1.7484 0.465-0.22782 0.657-0.78938 0.43-1.2544-0.228-0.46407-0.789-0.65813-1.255-0.43032-1.131 0.55501-2.2478 1.1738-3.3203 1.8422-0.4397 0.27375-0.5738 0.85125-0.3 1.2909 0.1762 0.285 0.4828 0.44156 0.7959 0.44156z"/>
  <path d="m145.58 12.94c-0.393 0.3366-0.438 0.9291-0.1 1.3219 0.78 0.9094 1.523 1.8684 2.208 2.8519 0.182 0.2615 0.474 0.4022 0.77 0.4022 0.185 0 0.371-0.0554 0.535-0.1688 0.425-0.2953 0.529-0.8794 0.234-1.305-0.721-1.035-1.504-2.0456-2.324-3.0019-0.339-0.3937-0.931-0.4397-1.323-0.1003z"/>
  <path d="m93.385 36.518h-5.6344c-0.5175 0-0.9375 0.4191-0.9375 0.9375 0 0.5185 0.42 0.9375 0.9375 0.9375h5.6344c0.5175 0 0.9375-0.419 0.9375-0.9375 0-0.5184-0.42-0.9375-0.9375-0.9375z"/>
  <path d="m96.697 59.993c0.24 0 0.48-0.0919 0.6628-0.2747l3.9839-3.9844c0.367-0.3665 0.367-0.9591 0-1.3256-0.366-0.3666-0.959-0.3666-1.325 0l-3.9846 3.9844c-0.3665 0.3665-0.3665 0.959 0 1.3256 0.1829 0.1828 0.4229 0.2747 0.6629 0.2747z"/>
  <path d="m117.36 62.368v5.6344c0 0.5184 0.42 0.9375 0.937 0.9375 0.518 0 0.938-0.4191 0.938-0.9375v-5.6344c0-0.5185-0.42-0.9375-0.938-0.9375-0.517 0-0.937 0.42-0.937 0.9375z"/>
  <path d="m139.24 59.718c0.183 0.1828 0.423 0.2747 0.663 0.2747s0.48-0.0919 0.663-0.2747c0.366-0.3666 0.366-0.9591 0-1.3256l-3.985-3.9844c-0.366-0.3666-0.959-0.3666-1.325 0-0.367 0.3665-0.367 0.9591 0 1.3256z"/>
  <path d="m148.84 38.393c0.518 0 0.938-0.419 0.938-0.9375 0-0.5184-0.42-0.9375-0.938-0.9375h-5.634c-0.518 0-0.938 0.4191-0.938 0.9375 0 0.5185 0.42 0.9375 0.938 0.9375z"/>
  <path d="m140.14 65.705c-0.947 0.7294-1.945 1.4203-2.966 2.0531-0.44 0.2728-0.576 0.8503-0.303 1.291 0.177 0.2859 0.484 0.4434 0.798 0.4434 0.168 0 0.339-0.0459 0.493-0.1406 1.074-0.6656 2.125-1.3931 3.122-2.1619 0.411-0.3159 0.487-0.9047 0.171-1.3144-0.317-0.4125-0.906-0.4884-1.315-0.1706z"/>
  <path d="m145.38 60.757c-0.787 0.9085-1.627 1.7851-2.496 2.6063-0.376 0.3553-0.394 0.9488-0.038 1.3247 0.184 0.195 0.433 0.2934 0.681 0.2934 0.232 0 0.462-0.0853 0.644-0.2559 0.915-0.8635 1.798-1.785 2.626-2.7403 0.339-0.3919 0.296-0.9844-0.094-1.3228-0.392-0.3385-0.985-0.2944-1.323 0.0946z"/>
  <path d="m150.8 54.504c-0.45-0.2531-1.022-0.0918-1.275 0.3591-0.586 1.0444-1.233 2.0719-1.922 3.0525-0.298 0.4238-0.195 1.0088 0.228 1.3069 0.164 0.1153 0.352 0.1706 0.539 0.1706 0.295 0 0.585-0.1387 0.767-0.3984 0.726-1.0331 1.407-2.1141 2.023-3.2138 0.253-0.4528 0.091-1.0237-0.36-1.2769z"/>
  <path d="m120.13 73.04c-1.194 0.0572-2.412 0.0534-3.606-0.0113-0.508-0.015-0.958 0.3694-0.986 0.886-0.029 0.5165 0.369 0.9581 0.885 0.9872 0.667 0.0356 1.338 0.0534 2.014 0.0534 0.598 0 1.192-0.0141 1.783-0.0422 0.517-0.0244 0.917-0.4641 0.892-0.9816s-0.459-0.9346-0.982-0.8915z"/>
  <path d="m153.57 47.646c-0.493-0.1565-1.02 0.1163-1.177 0.6094-0.363 1.141-0.79 2.2772-1.267 3.3769-0.206 0.4753 0.012 1.0275 0.487 1.2328 0.122 0.0535 0.248 0.0778 0.373 0.0778 0.362 0 0.707-0.2109 0.861-0.5643 0.502-1.1569 0.951-2.3541 1.333-3.556 0.156-0.4922-0.117-1.0191-0.61-1.1766z"/>
  <path d="m112.93 72.658c-1.183-0.1828-2.371-0.4294-3.531-0.7322-0.501-0.1265-1.014 0.1707-1.144 0.6704-0.13 0.5015 0.17 1.0134 0.67 1.1446 1.221 0.3188 2.472 0.5775 3.718 0.7707 0.049 0.0075 0.097 0.0112 0.145 0.0112 0.454 0 0.853-0.3319 0.925-0.794 0.08-0.5119-0.271-0.991-0.783-1.0707z"/>
  <path d="m127.26 71.98c-1.16 0.2944-2.35 0.5344-3.535 0.7107-0.512 0.0759-0.866 0.5531-0.79 1.0659 0.07 0.465 0.47 0.7997 0.927 0.7997 0.046 0 0.092-0.0037 0.138-0.0103 1.248-0.1856 2.501-0.4378 3.722-0.7491 0.502-0.1275 0.806-0.6375 0.678-1.139-0.128-0.5035-0.641-0.8091-1.14-0.6779z"/>
  <path d="m134.02 69.501c-1.074 0.525-2.191 0.9994-3.318 1.4119-0.486 0.1781-0.736 0.7172-0.558 1.2028 0.139 0.3797 0.498 0.615 0.881 0.615 0.107 0 0.215-0.0187 0.322-0.0571 1.187-0.435 2.363-0.9357 3.495-1.4888 0.466-0.2269 0.659-0.7884 0.432-1.2534-0.228-0.465-0.788-0.66-1.254-0.4304z"/>
  <path d="m154.72 32.826c-0.514 0.0525-0.89 0.5118-0.839 1.0265 0.12 1.1907 0.18 2.4019 0.18 3.5953v0.1594c0 0.5185 0.42 0.9375 0.938 0.9375 0.517 0 0.937-0.419 0.937-0.9375v-0.1509c0-1.2638-0.063-2.5388-0.189-3.7903-0.051-0.5157-0.503-0.8794-1.027-0.84z"/>
  <path d="m154.9 40.369c-0.516-0.0581-0.976 0.3197-1.03 0.8353-0.124 1.1916-0.311 2.3916-0.556 3.5634-0.106 0.5072 0.22 1.0032 0.727 1.1091 0.065 0.0141 0.128 0.0197 0.192 0.0197 0.435 0 0.824-0.3038 0.917-0.7463 0.257-1.2337 0.454-2.4965 0.585-3.7518 0.053-0.5147-0.32-0.976-0.835-1.0294z"/>
  <path d="m105.96 70.837c-1.118-0.4172-2.231-0.8991-3.309-1.4325-0.465-0.2297-1.027-0.0403-1.256 0.4247-0.229 0.464-0.039 1.0265 0.424 1.2562 1.135 0.5616 2.308 1.0697 3.486 1.5075 0.107 0.0403 0.218 0.0591 0.328 0.0591 0.379 0 0.738-0.2325 0.878-0.6094 0.181-0.4847-0.066-1.0247-0.551-1.2056z"/>
  <path d="m83.842 25.548c-0.4931-0.1537-1.021 0.1191-1.1756 0.6122-0.3797 1.2028-0.7013 2.4394-0.9563 3.6741-0.1041 0.5072 0.2212 1.0022 0.7284 1.1081 0.0638 0.0131 0.1275 0.0197 0.1904 0.0197 0.435 0 0.8259-0.3047 0.9178-0.7481 0.2418-1.1729 0.5475-2.3466 0.9075-3.4894 0.1556-0.4941-0.1182-1.021-0.6122-1.1766z"/>
  <path d="m85.714 23.345c0.4753-1.1015 1.0125-2.189 1.5956-3.2334 0.2532-0.4519 0.091-1.0228-0.3618-1.275-0.4519-0.2531-1.0238-0.0919-1.275 0.3619-0.6141 1.0996-1.1794 2.2453-1.68 3.404-0.2054 0.4753 0.014 1.0275 0.4884 1.2319 0.1209 0.0525 0.2475 0.0769 0.3712 0.0769 0.3629 0 0.7088-0.2119 0.8616-0.5663z"/>
  <path d="m151.19 23.413c0.153 0.3553 0.498 0.5671 0.861 0.5671 0.123 0 0.25-0.0243 0.37-0.0759 0.475-0.2044 0.695-0.7556 0.491-1.2309-0.497-1.1569-1.059-2.3035-1.674-3.4079-0.251-0.4518-0.82-0.6178-1.275-0.3646-0.452 0.2521-0.615 0.8221-0.363 1.274 0.583 1.051 1.117 2.1403 1.59 3.2382z"/>
  <path d="m153.34 30.287c0.091 0.4444 0.481 0.7501 0.917 0.7501 0.062 0 0.126-0.0066 0.189-0.0197 0.507-0.1032 0.834-0.5991 0.73-1.1063-0.253-1.2356-0.572-2.4731-0.949-3.6769-0.154-0.494-0.68-0.7678-1.174-0.614-0.494 0.1546-0.769 0.6806-0.614 1.1747 0.357 1.1446 0.66 2.3193 0.901 3.4921z"/>
  <path d="m85.657 51.43c-0.4706-1.1006-0.8897-2.2388-1.245-3.3835-0.1537-0.495-0.6825-0.7687-1.1737-0.6168-0.4941 0.1537-0.7707 0.6796-0.6169 1.1737 0.375 1.2056 0.8166 2.4047 1.3116 3.5644 0.1518 0.3563 0.4987 0.5691 0.8625 0.5691 0.1228 0 0.2484-0.0235 0.3684-0.075 0.4763-0.2044 0.6975-0.7547 0.4931-1.2319z"/>
  <path d="m81.871 38.319h0.0019c0.5166 0 0.9366-0.4182 0.9375-0.9357 0.0028-1.2028 0.0656-2.415 0.1875-3.6037 0.0534-0.5147-0.3216-0.975-0.8372-1.0285-0.5222-0.0487-0.9759 0.3235-1.0284 0.8382-0.1285 1.2497-0.195 2.5247-0.1969 3.7903 0 0.5175 0.4181 0.9384 0.9356 0.9394z"/>
  <path d="m91.346 60.593c-0.3375-0.3929-0.9291-0.4397-1.3219-0.1022-0.3938 0.3356-0.4397 0.9281-0.1031 1.3218 0.8193 0.9572 1.6969 1.8844 2.609 2.7563 0.1819 0.1744 0.4144 0.2597 0.6479 0.2597 0.2465 0 0.4931-0.0975 0.6778-0.2897 0.3581-0.3741 0.345-0.9675-0.03-1.3256-0.8682-0.8288-1.7016-1.711-2.4797-2.6203z"/>
  <path d="m99.509 67.643c-1.0162-0.6394-2.01-1.3369-2.9531-2.0719-0.4069-0.315-0.9966-0.2456-1.3153 0.1631-0.3188 0.4088-0.2456 0.9975 0.1631 1.3163 0.9919 0.7725 2.0372 1.5065 3.1078 2.1797 0.1547 0.0975 0.3272 0.1434 0.4978 0.1434 0.3122 0 0.616-0.1547 0.7951-0.4387 0.2746-0.4369 0.1425-1.0163-0.2954-1.2919z"/>
  <path d="m87.239 54.671c-0.2503-0.4509-0.8203-0.6169-1.2741-0.3665-0.4528 0.2512-0.6178 0.8212-0.3666 1.274 0.6094 1.1025 1.2844 2.1872 2.0035 3.225 0.1819 0.2616 0.4744 0.4032 0.7716 0.4032 0.1837 0 0.3703-0.0544 0.5334-0.1678 0.4256-0.2944 0.5306-0.8794 0.2362-1.3051-0.6843-0.9843-1.3246-2.0156-1.904-3.0628z"/>
  <path d="m82.785 45.657c0.5072-0.1031 0.8353-0.5981 0.7322-1.1053-0.2362-1.1691-0.4162-2.3681-0.5344-3.5663-0.0506-0.5147-0.4978-0.8822-1.0247-0.8409-0.5156 0.0506-0.8925 0.509-0.8409 1.0247 0.1238 1.2609 0.3131 2.5237 0.5625 3.7547 0.09 0.4453 0.4809 0.7519 0.9178 0.7519 0.0619 0 0.1247-0.0066 0.1875-0.0188z"/>
  <path d="m137.39 37.455c0-10.449-8.501-18.95-18.95-18.95-10.448 0-18.95 8.5004-18.95 18.95s8.5014 18.95 18.949 18.95c10.449 0 18.951-8.5003 18.951-18.95zm-36.025 0c0-1.8685 0.312-3.6619 0.869-5.3457h6.548c-0.401 1.5985-0.642 3.3291-0.642 5.19 0 1.98 0.273 3.8091 0.704 5.5013h-6.61c-0.557-1.6838-0.869-3.4772-0.869-5.3456zm8.65-0.1557c0-1.8703 0.282-3.599 0.731-5.19h6.757v10.691h-6.716c-0.479-1.6791-0.772-3.5185-0.772-5.5013zm15.504-7.065h-6.141v-8.7497c1.612 1.4522 4.458 4.4447 6.141 8.7497zm-8.016-8.7685v8.7685h-6.136c1.675-4.2769 4.5-7.2816 6.136-8.7685zm0 23.21v8.9222c-1.471-1.3744-4.348-4.4662-6.079-8.9222zm1.875 8.9607v-8.9607h6.086c-1.735 4.4935-4.634 7.6041-6.086 8.9607zm0-10.836v-10.691h6.759c0.447 1.5891 0.728 3.3188 0.728 5.191 0 1.9828-0.292 3.8212-0.766 5.5003zm8.722-10.691h6.546c0.557 1.6838 0.869 3.4772 0.869 5.3457 0 1.8684-0.312 3.6618-0.869 5.3456h-6.607c0.43-1.6913 0.701-3.5213 0.701-5.5003 0-1.8629-0.239-3.5935-0.64-5.191zm5.791-1.875h-6.352c-1.583-4.5309-4.388-7.785-6.297-9.6038 5.615 0.9328 10.304 4.606 12.649 9.6038zm-18.269-9.601c-1.921 1.846-4.702 5.101-6.276 9.601h-6.357c2.343-4.9931 7.024-8.6635 12.633-9.601zm-12.633 24.042h6.417c1.572 4.5066 4.26 7.7663 6.062 9.5775-5.54-0.9778-10.157-4.6303-12.479-9.5775zm18.464 9.571c1.795-1.8122 4.465-5.0691 6.029-9.571h6.409c-2.316 4.935-6.916 8.5819-12.438 9.571z"/>
 </g>
</svg>
