<svg width="32" height="32" fill="none" version="1.1" viewBox="0 0 32 32" xmlns="http://www.w3.org/2000/svg">
 <g transform="translate(0 2.1406)" fill="#0d0d30" stroke-width="1.0787">
  <path d="m18.874 9.9598c-0.09471 3.991e-4 -0.18662-0.031703-0.26051-0.090957-0.73557-0.59455-1.643-0.93649-2.5879-0.97522-0.94506-0.038726-1.8774 0.22783-2.6591 0.76021-0.0904 0.062511-0.20204 0.086513-0.31024 0.06674-0.10809-0.019773-0.20398-0.081701-0.26655-0.17217-0.06246-0.090471-0.08651-0.20206-0.06666-0.31023 0.01974-0.10817 0.08166-0.20406 0.17216-0.26656 0.92974-0.6326 2.0384-0.94923 3.162-0.90306 1.1236 0.046169 2.2026 0.45267 3.0773 1.1594 0.06526 0.054097 0.1124 0.12696 0.13484 0.20871 0.02255 0.081755 0.01931 0.16845-0.0092 0.24833-0.02837 0.079878-0.08069 0.14909-0.14972 0.19825-0.06914 0.049157-0.15167 0.075887-0.23645 0.076556z"/>
  <path d="m13.059 10.055c-0.08359-9.5e-4 -0.16492-0.02721-0.23328-0.075316-0.06836-0.04811-0.12052-0.11581-0.14963-0.19417-0.0291-0.078357-0.03378-0.16369-0.0134-0.24476 0.02038-0.081065 0.06484-0.15405 0.12755-0.20933 0.87379-0.75798 1.9748-1.2039 3.1298-1.2675 1.155-0.063622 2.2984 0.25864 3.2501 0.91606 0.0905 0.0625 0.15242 0.15839 0.17216 0.26656 0.01974 0.10816-0.0042 0.21977-0.06677 0.31023-0.06246 0.090471-0.15835 0.1524-0.26655 0.17217-0.10819 0.019773-0.21973-0.00423-0.31024-0.06674-0.80127-0.5552-1.7646-0.82774-2.7379-0.77458-0.97335 0.053159-1.9013 0.42898-2.6373 1.0681-0.07381 0.063126-0.16749 0.09826-0.26462 0.099231z"/>
  <path d="m15.942 18.557c-0.57463 6.47e-4 -1.1411-0.13646-1.6518-0.39977-0.51077-0.26331-0.95099-0.64518-1.2839-1.1136-0.58013-0.87516-1.26-1.68-2.026-2.3982 0.22621 0.56287 0.36558 1.1568 0.41347 1.7614 0.0065 0.13894-0.01553 0.27766-0.06461 0.40775-0.04897 0.1302-0.12416 0.24886-0.2207 0.34896-0.09503 0.10356-0.21078 0.18618-0.33968 0.24239-0.1288 0.05631-0.26806 0.085-0.40872 0.08425h-1.2404c-0.28024-0.0014-0.55769 0.05566-0.81468 0.16742s-0.48789 0.27583-0.67797 0.48175c-0.051713 0.05534-0.11762 0.09536-0.19053 0.11574-0.07291 0.02039-0.15003 0.02039-0.22295 0-1.1719-0.38715-2.169-1.1766-2.8147-2.2284s-0.89827-2.2982-0.71306-3.5184c0.18521-1.2202 0.79629-2.3356 1.725-3.1485 0.92871-0.81287 2.1151-1.2708 3.3491-1.2928v-0.49618c0-1.9125 0.75973-3.7467 2.1121-5.099 1.3523-1.3523 3.1865-2.1121 5.0989-2.1121 1.9126 0 3.7467 0.75974 5.0991 2.1121 1.3523 1.3523 2.112 3.1865 2.112 5.099v0.49618c1.2441 0.00732 2.4447 0.45856 3.3856 1.2724 0.94085 0.81387 1.5604 1.937 1.7469 3.1669 0.1864 1.2301-0.07227 2.4863-0.72975 3.5425-0.65747 1.0562-1.6704 1.843-2.8563 2.2187-0.0726 0.02093-0.1494 0.02157-0.22232 0.0019-0.07292-0.01974-0.13905-0.05901-0.19115-0.11359-0.18953-0.20528-0.41983-0.3687-0.67614-0.4797-0.2563-0.11111-0.5331-0.16742-0.81238-0.16526h-1.2404c-0.13937 0.0012-0.27744-0.02654-0.40549-0.08133-0.12815-0.0548-0.24346-0.13548-0.33882-0.2371-0.09665-0.10312-0.17152-0.22491-0.21984-0.35781-0.04833-0.1329-0.06914-0.27421-0.06138-0.41541 0.04703-0.60613 0.1864-1.2016 0.41358-1.7655-0.76621 0.71766-1.4474 1.5209-2.0302 2.3941-0.33925 0.47733-0.79015 0.86448-1.3134 1.1275-0.52317 0.2631-1.1029 0.39416-1.6884 0.38165zm-5.3752-5.0858c0.12006 8.63e-4 0.23742 0.03527 0.33904 0.09924 0.99651 0.59955 1.9268 1.7903 2.7785 2.9894 0.25652 0.36104 0.59566 0.65542 0.98907 0.85854 0.39351 0.20301 0.82985 0.30905 1.2727 0.30905s0.87926-0.10604 1.2727-0.30905c0.39351-0.20312 0.73266-0.4975 0.98907-0.85854 0.80634-1.1247 1.7449-2.3734 2.7911-2.9976 0.11726-0.07217 0.2549-0.10442 0.39211-0.09169 0.1371 0.01262 0.26655 0.06947 0.36859 0.16192 0.10582 0.09309 0.17864 0.2179 0.20776 0.35565 0.02902 0.13786 0.01273 0.28144-0.04649 0.40926-0.32696 0.64442-0.52371 1.347-0.57884 2.0675-2e-3 0.02816 0.0021 0.05642 0.01208 0.08284 0.01003 0.02643 0.02557 0.05038 0.04584 0.07012 0.01748 0.01996 0.03905 0.03592 0.06343 0.0466 0.02427 0.01068 0.05059 0.01597 0.07713 0.01543h1.2404c0.69738-3.24e-4 1.3707 0.25414 1.8938 0.71529 0.95509-0.37032 1.751-1.0624 2.2504-1.9568 0.49944-0.89446 0.67106-1.9351 0.48542-2.9425-0.18575-1.0074-0.71723-1.9185-1.5027-2.576-0.78552-0.65753-1.7758-1.0203-2.8002-1.0258-0.13225 0-0.26461 0-0.39276 0.020668-0.09752 0.00913-0.19503-0.016612-0.27529-0.07264-0.08026-0.056028-0.13797-0.13871-0.16299-0.23334-0.02373-0.078185-0.02373-0.16163 0-0.23982 0.03527-0.26454 0.05329-0.53112 0.05372-0.79802 0-1.6932-0.67258-3.317-1.8698-4.5143-1.1973-1.1972-2.8211-1.8699-4.5143-1.8699-1.6931 0-3.3169 0.67262-4.5142 1.8699-1.1973 1.1973-1.8699 2.8211-1.8699 4.5143 5.4e-5 0.26678 0.016623 0.53329 0.049621 0.79802 0.025393 0.080752 0.025393 0.16734 0 0.24809-0.025006 0.089433-0.079405 0.16784-0.15441 0.2226-0.075013 0.054755-0.16626 0.082661-0.25907 0.079231-0.13722-0.016288-0.27529-0.024573-0.41348-0.0248-1.029 8.846e-4 -2.0252 0.36249-2.8153 1.0219-0.79002 0.6594-1.3239 1.5749-1.5088 2.5872-0.18486 1.0124-0.00901 2.0574 0.49697 2.9535 0.50598 0.89608 1.3101 1.5865 2.2724 1.951 0.52498-0.46708 1.2035-0.72457 1.9061-0.7236h1.2405c0.02707 6.47e-4 0.05404-0.0046 0.07907-0.01532 0.02492-0.01068 0.04736-0.02664 0.06559-0.04671 0.01996-0.02125 0.03452-0.04692 0.04239-0.07508 8e-3 -0.02805 9e-3 -0.0576 0.0031-0.08608-0.05663-0.71982-0.25177-1.4217-0.57476-2.0675-0.04425-0.09795-0.06368-0.20528-0.05655-0.3125 0.0071-0.10712 0.0406-0.211 0.09744-0.30215 0.05685-0.09115 0.1353-0.16698 0.22842-0.2206 0.09316-0.05361 0.19801-0.08338 0.30545-0.08684z"/>
  <path d="m21.116 11.604c-0.09557 0.0024-0.18899-0.02848-0.26439-0.08738-0.0754-0.05879-0.12804-0.14185-0.14908-0.23516-0.62846-2.7992-2.5595-4.7756-4.6971-4.7756s-4.0479 1.9764-4.6846 4.7756c-0.01197 0.05437-0.03452 0.10571-0.06634 0.15134s-0.07227 0.08446-0.11909 0.11445c-0.04692 0.02988-0.09913 0.05038-0.15393 0.06008-0.05469 0.0097-0.11078 0.0086-0.16515-0.0033-0.05426-0.01197-0.10571-0.03452-0.15124-0.06623-0.04563-0.03182-0.08446-0.07238-0.11445-0.1192-0.02999-0.04682-0.05038-0.09913-0.06008-0.15382-0.0098-0.0548-0.0086-0.11089 0.0033-0.16515 0.75661-3.2417 2.9646-5.4207 5.5116-5.4207 2.547 0 4.7675 2.179 5.4993 5.4207 0.0123 0.05286 0.01392 0.10776 5e-3 0.16137-9e-3 0.05361-0.02837 0.10485-0.05717 0.15091-0.0288 0.04617-0.06634 0.08608-0.11068 0.11758-0.04423 0.03161-0.09428 0.05404-0.14724 0.06623-0.02578 0.0057-0.0521 0.0085-0.07853 0.0083z"/>
  <path d="m16.912 22.034h-1.811c-0.25188 0-0.49362-0.09957-0.67247-0.2769-0.17896-0.17734-0.28046-0.41811-0.28273-0.66999h-0.54993c-1.4638-0.001187-2.8817-0.51142-4.0107-1.4431l-0.62021-0.52091c-0.12886-0.10399-0.28929-0.16084-0.45483-0.16127h-1.5092c-0.099705-1.08e-4 -0.19726-0.02913-0.2809-0.08338-0.083632-0.05426-0.14978-0.1316-0.19047-0.22265-0.040419-0.09061-0.054108-0.19093-0.039459-0.28909 0.014649-0.09816 0.057031-0.19007 0.12216-0.26493l0.41347-0.4673c0.2707-0.30107 0.60156-0.54205 0.97122-0.7072 0.36964-0.16526 0.76984-0.25112 1.1747-0.25199h1.2405c0.02708 5.39e-4 0.05404-0.0046 0.07907-0.01543 0.02492-0.01068 0.04735-0.02654 0.06558-0.0466 0.02093-0.01942 0.03732-0.04315 0.04811-0.06958 0.01068-0.02643 0.01543-0.05491 0.01392-0.08349-0.0576-0.72004-0.25425-1.4221-0.57884-2.0673-0.05417-0.12567-0.06752-0.26515-0.03813-0.39891 0.02938-0.13365 0.1-0.25468 0.20188-0.34605 0.10187-0.09137 0.22987-0.14843 0.3659-0.16321 0.13613-0.01467 0.27334 0.0137 0.39243 0.08123 1.0047 0.60774 1.9351 1.7986 2.7868 2.9977 0.26018 0.36288 0.60505 0.65661 1.0047 0.85585 0.5935 0.307 1.2779 0.38952 1.9274 0.23225 0.64949-0.15728 1.2203-0.54367 1.6078-1.0881 0.85175-1.1991 1.7779-2.3941 2.7826-2.9977 0.11909-0.06753 0.2563-0.0959 0.39243-0.08123 0.13602 0.01478 0.26407 0.07184 0.3659 0.16321 0.10194 0.09137 0.17249 0.2124 0.20194 0.34605 0.02934 0.13376 0.01596 0.27324-0.03819 0.39891-0.32394 0.64528-0.51918 1.3475-0.57474 2.0673-0.0015 0.02783 0.0024 0.05566 0.01165 0.08187 0.0092 0.02632 0.02352 0.05048 0.04218 0.07119 0.01823 0.02006 0.04067 0.03592 0.06558 0.0466 0.02492 0.01079 0.05189 0.01596 0.07907 0.01543h1.2404c0.40419 0.0014 0.80364 0.08759 1.1726 0.25274 0.36881 0.16526 0.69911 0.40592 0.96933 0.70645l0.37625 0.41358c0.0713 0.07713 0.11801 0.17378 0.13419 0.27755 0.01629 0.10388 0.0012 0.21013-0.04326 0.30538-0.04293 0.09579-0.11262 0.17712-0.20053 0.2344-0.08802 0.05717-0.19072 0.08781-0.29567 0.08813h-1.4595c-0.16558 4.31e-4 -0.32599 0.05739-0.45489 0.16127l-0.62845 0.52922c-1.1307 0.93168-2.5499 1.4418-4.0148 1.4431h-0.54992c0 0.1247-0.0247 0.2481-0.07249 0.36331-0.04789 0.1151-0.11801 0.21973-0.20636 0.30765-0.08835 0.08802-0.1932 0.15771-0.30851 0.20496-0.11542 0.04735-0.23893 0.07152-0.36363 0.07098zm-9.2164-3.8992h0.80215c0.35745 4.31e-4 0.70373 0.12459 0.97994 0.35155l0.63262 0.52091c0.98372 0.80364 2.2154 1.2419 3.4856 1.2405h0.9634c0.1097 0 0.21488 0.04347 0.29244 0.12103 0.07756 0.07756 0.12114 0.18273 0.12114 0.29244v0.41347c-1.08e-4 0.01661 0.0032 0.03312 0.0098 0.04843 0.0065 0.01532 0.01597 0.02913 0.02794 0.04078 0.01197 0.01154 0.02611 0.0206 0.04164 0.02654 0.01553 6e-3 0.03215 0.0088 0.04876 0.0083h1.811c0.0164 5.4e-4 0.03279-0.0023 0.04811-0.0083s0.02923-0.0151 0.04088-0.02675 0.02071-0.02557 0.02675-0.04088c6e-3 -0.01532 0.0088-0.03171 0.0083-0.04811v-0.41347c0-0.1097 0.04347-0.21488 0.12103-0.29244 0.07756-0.07756 0.18273-0.12103 0.29244-0.12103h0.96339c1.2704 0.0022 2.5022-0.43623 3.4856-1.2405l0.63258-0.52092c0.27626-0.22696 0.62252-0.35112 0.98001-0.35155h0.80213c-0.1919-0.19902-0.42178-0.35759-0.67603-0.46622-0.25425-0.10873-0.5277-0.16526-0.80428-0.16634h-1.2404c-0.14066-0.0027-0.27917-0.0342-0.40721-0.09245-0.12804-0.05836-0.24271-0.14228-0.33699-0.24659-0.09622-0.10345-0.17033-0.22523-0.21801-0.35824-0.04757-0.1329-0.06764-0.2741-0.05911-0.41498 0.048-0.60472 0.18748-1.1986 0.41347-1.7614-0.76988 0.71562-1.4514 1.5207-2.0301 2.3982-0.33289 0.46848-0.77311 0.85045-1.2839 1.1141-0.51066 0.26364-1.0771 0.40117-1.6518 0.40117s-1.1411-0.13754-1.6518-0.40117c-0.51066-0.26364-0.95088-0.64561-1.2839-1.1141-0.58746-0.87311-1.2758-1.6739-2.0508-2.3858 0.22826 0.56503 0.36773 1.162 0.41347 1.7696 0.0091 0.14012-0.01068 0.28068-0.05814 0.41282s-0.12157 0.25317-0.21768 0.35543c-0.09622 0.10237-0.21229 0.18392-0.3412 0.23947-0.12901 0.05566-0.26795 0.08425-0.4084 0.08392h-1.2404c-0.27721 5.39e-4 -0.55146 0.05685-0.80646 0.16547-0.25501 0.10873-0.48555 0.26752-0.67793 0.46708z"/>
  <path d="m16.494 27.359h-0.97159c-0.2399-0.0011-0.46956-0.09676-0.63914-0.26633s-0.26536-0.39934-0.26644-0.63914v-4.8459c-6.47e-4 -0.05998 0.01176-0.1193 0.03624-0.174 0.02459-0.05469 0.06073-0.10345 0.10593-0.14271 0.0452-0.03937 0.09849-0.06839 0.15598-0.08511 0.0576-0.01672 0.11812-0.02071 0.17734-0.01165h1.8318c0.05663-0.0054 0.1138 0.0011 0.16785 0.01888 0.05415 0.0178 0.10388 0.04649 0.14638 0.08446 0.04541 0.03883 0.08177 0.08694 0.10679 0.1412 0.02503 0.05426 0.03786 0.11326 0.03786 0.17302v4.8418c1.08e-4 0.23732-0.09309 0.46514-0.25932 0.6345-0.16623 0.16936-0.39233 0.26666-0.62964 0.27097zm-1.0502-5.3255v4.42c0.0011 0.0205 0.0096 0.03991 0.02416 0.05448 0.01456 0.01445 0.03398 0.02308 0.05448 0.02406h0.97159c0.02082 0 0.04088-0.0082 0.05555-0.02298 0.01478-0.01478 0.02308-0.03473 0.02308-0.05555v-4.42z"/>
 </g>
</svg>
