<svg width="95" height="85" fill="none" version="1.1" viewBox="0 0 95 85" xmlns="http://www.w3.org/2000/svg">
 <g transform="translate(-69.36 5.655)" fill="#61C0FA">
  <path d="m113.19 37.591c0.055-0.2328 0.014-0.4777-0.112-0.6807-0.126-0.2029-0.328-0.3475-0.561-0.4017-0.233-0.0543-0.478-0.0138-0.681 0.1124-0.203 0.1263-0.347 0.328-0.401 0.5609-0.38 1.634-0.218 3.3475 0.463 4.8809 0.68 1.5335 1.842 2.8036 3.308 3.6181 1.467 0.8146 3.159 1.1292 4.82 0.8965 1.662-0.2328 3.202-1.0003 4.389-2.1865 1.186-1.1862 1.954-2.7265 2.187-4.3879s-0.082-3.3536-0.896-4.8203c-0.815-1.4668-2.085-2.6284-3.618-3.3091s-3.247-0.8434-4.881-0.4636c-0.231 0.0552-0.432 0.1999-0.557 0.4026-0.126 0.2026-0.166 0.4466-0.112 0.6787 0.054 0.232 0.198 0.4332 0.4 0.5596s0.446 0.1677 0.678 0.1148c1.253-0.2913 2.566-0.1667 3.742 0.355 1.175 0.5217 2.149 1.412 2.773 2.5362 0.624 1.1243 0.865 2.4215 0.687 3.695-0.179 1.2736-0.767 2.4544-1.676 3.3638-0.91 0.9093-2.09 1.4978-3.364 1.6762-1.274 0.1785-2.571-0.0628-3.695-0.6872-1.124-0.6243-2.014-1.5977-2.536-2.7731-0.522-1.1755-0.646-2.489-0.355-3.7416z"/>
  <path d="m104.74 30.104c-2.166 3.4884-2.974 7.6512-2.27 11.696 0.705 4.0454 2.871 7.6908 6.089 10.242 3.217 2.5515 7.26 3.831 11.359 3.5951 4.1-0.2359 7.969-1.9709 10.872-4.8746 2.904-2.9037 4.638-6.7734 4.873-10.873 0.236-4.0993-1.044-8.1422-3.596-11.359s-6.197-5.3833-10.243-6.0869c-4.045-0.7036-8.208 0.1047-11.696 2.2711-0.202 0.1269-0.345 0.3283-0.398 0.5603-0.053 0.2319-0.013 0.4757 0.113 0.6779 0.125 0.2022 0.326 0.3466 0.557 0.4016 0.232 0.0549 0.476 0.016 0.679-0.1083 3.112-1.9328 6.827-2.6537 10.437-2.0256 3.609 0.628 6.862 2.5612 9.139 5.4317 2.276 2.8705 3.418 6.4779 3.208 10.136s-1.758 7.1107-4.349 9.7014c-2.591 2.5908-6.043 4.1385-9.701 4.3488s-7.265-0.9316-10.136-3.2084c-2.87-2.2767-4.804-5.5295-5.432-9.1391-0.628-3.6095 0.093-7.324 2.026-10.436 0.121-0.2029 0.157-0.4448 0.101-0.6741s-0.2-0.4276-0.4-0.5521c-0.201-0.1246-0.442-0.1655-0.672-0.114-0.231 0.0514-0.431 0.1912-0.56 0.3892z"/>
  <path d="m103.59 18.276c-0.192 0.1427-0.319 0.3558-0.354 0.5923-0.034 0.2365 0.027 0.4773 0.169 0.669 0.143 0.1918 0.356 0.319 0.593 0.3537 0.236 0.0347 0.477-0.026 0.669-0.1687 4.852-3.6114 10.892-5.2523 16.905-4.593 6.013 0.6592 11.553 3.57 15.508 8.1471s6.031 10.481 5.811 16.526-2.72 11.782-6.997 16.06c-4.278 4.2773-10.015 6.7773-16.06 6.9975s-11.95-1.8557-16.527-5.8105c-4.5769-3.9548-7.4876-9.4953-8.1469-15.508-0.6593-6.0129 0.9816-12.053 4.5929-16.905 0.1379-0.192 0.1948-0.4304 0.1586-0.664-0.0363-0.2336-0.1628-0.4436-0.3524-0.5848s-0.427-0.2021-0.6612-0.1699c-0.2342 0.0323-0.4463 0.1552-0.5907 0.3423-3.8829 5.2182-5.647 11.713-4.9377 18.178 0.7094 6.4656 3.8396 12.423 8.7614 16.675 4.922 4.2522 11.271 6.484 17.771 6.2469 6.5-0.2372 12.67-2.9257 17.269-7.5253s7.286-10.77 7.523-17.27c0.236-6.5001-1.997-12.849-6.25-17.77-4.253-4.9213-10.211-8.0507-16.676-8.7591-6.466-0.7085-12.96 1.0564-18.178 4.9401z"/>
  <path d="m98.744 12.901c6.6215-5.1427 14.954-7.5683 23.302-6.783 8.347 0.78537 16.082 4.7226 21.628 11.01 5.547 6.2875 8.488 14.453 8.226 22.833s-3.708 16.345-9.637 22.274c-5.928 5.9286-13.893 9.3749-22.274 9.6371-8.38 0.2621-16.545-2.6794-22.833-8.2258-6.2876-5.5465-10.225-13.281-11.01-21.628-0.7854-8.3475 1.64-16.68 6.7827-23.302 0.1416-0.1892 0.2032-0.4264 0.1717-0.6606-0.0315-0.2341-0.1537-0.4464-0.3403-0.5913-0.1865-0.145-0.4225-0.2109-0.6572-0.1836s-0.4492 0.1457-0.5975 0.3297c-5.4236 6.9844-7.9813 15.773-7.1525 24.577s4.9818 16.961 11.614 22.811c6.6315 5.8495 15.244 8.9514 24.082 8.6745 8.838-0.2769 17.239-3.912 23.492-10.165 6.252-6.2532 9.886-14.654 10.162-23.493s-2.827-17.45-8.677-24.081c-5.85-6.6311-14.008-10.783-22.812-11.611-8.804-0.82787-17.592 1.7308-24.576 7.1551-0.187 0.1473-0.3081 0.3625-0.337 0.5987-0.0289 0.2363 0.0368 0.4743 0.1828 0.6623s0.3604 0.3106 0.5964 0.3411 0.4746-0.0335 0.6635-0.1782z"/>
  <path d="m80.903 5.6866c-0.1807-4.2e-4 -0.3574 0.05352-0.5071 0.1548-0.1498 0.10128-0.2655 0.24524-0.3324 0.41317-0.0668 0.16793-0.0817 0.35189-0.0425 0.52835 0.0391 0.17646 0.1304 0.33719 0.262 0.4611l8.6988 8.189 5.2447 0.0685 23.455 23.456c0.169 0.169 0.398 0.264 0.637 0.264s0.468-0.0951 0.638-0.2642c0.169-0.169 0.264-0.3981 0.264-0.6371s-0.095-0.4683-0.264-0.6374l-23.455-23.456-0.0682-5.2447-8.1892-8.6987c-0.1239-0.13158-0.2845-0.22291-0.4609-0.26205-0.1765-0.03914-0.3606-0.024328-0.5285 0.042515-0.168 0.066843-0.3119 0.18251-0.4132 0.3322s-0.1552 0.32655-0.1548 0.50729v3.9091c0 0.11837-0.0233 0.2356-0.0686 0.34496s-0.1117 0.20869-0.1954 0.29239-0.1831 0.15008-0.2924 0.19538c-0.1094 0.04529-0.2266 0.06861-0.345 0.0686z"/>
 </g>
</svg>
