<svg width="32" height="32" fill="none" version="1.1" viewBox="0 0 32 32" xmlns="http://www.w3.org/2000/svg">
 <path d="m29.171 9.4252c-0.0027-0.022932-0.0067-0.044104-0.01331-0.065714-0.0066-0.019851-0.01407-0.038372-0.02424-0.056901-0.0097-0.01852-0.02158-0.035282-0.0348-0.051606-0.01455-0.017636-0.02957-0.032192-0.04725-0.04631-0.0087-0.0075-0.01407-0.017646-0.02424-0.023816l-5.2258-3.3989c-0.0087-0.0053-0.01806-0.00618-0.02691-0.010591-0.01455-0.00794-0.02824-0.01543-0.04449-0.020726-0.0067-0.00221-0.01103-0.00705-0.01768-0.00926l-4.4861-1.2972c-0.18168-1.1084-1.5322-1.9442-3.2259-1.9442-1.6937 0-3.0442 0.83583-3.226 1.9447l-4.4865 1.2967c-0.00662 0.00176-0.011029 0.00705-0.017646 0.00926-0.015877 0.00573-0.029549 0.012787-0.044104 0.020726-0.00882 0.00441-0.01852 0.0053-0.026468 0.010591l-5.2262 3.3984c-0.0097 0.00662-0.014993 0.016324-0.023816 0.023378-0.018083 0.014556-0.033523 0.029111-0.047632 0.046757-0.013671 0.016315-0.025137 0.033076-0.034844 0.051606-0.00971 0.01852-0.017646 0.036603-0.023816 0.056892-0.00706 0.02162-0.011029 0.04323-0.013672 0.066161-8.842e-4 0.011029-0.00662 0.020735-0.00662 0.032639v6.661c0 0.18264 0.1482 0.33076 0.3308 0.33076h4.895v12.72c0 0.18264 0.1482 0.33085 0.33081 0.33085h15.241c0.18264 0 0.33085-0.14822 0.33085-0.33085v-12.72h4.8954c0.18254 0 0.33076-0.14812 0.33076-0.33076v-6.661c0-0.011466-0.0057-0.02161-0.0066-0.032639zm-20.461-3.117 4.1006-1.1856c0.26421 0.95314 1.4061 1.6712 2.8582 1.766v21.949h-6.9587zm7.6207 0.58089c1.4524-0.095273 2.5948-0.81288 2.859-1.7665l4.1001 1.1856v22.53h-6.9592zm-0.33076-3.7275c1.4021 0 2.5873 0.70439 2.5873 1.538 0 0.83406-1.1852 1.5384-2.5873 1.5384-1.4021 0-2.5868-0.70483-2.5868-1.5384 0-0.83362 1.1842-1.538 2.5868-1.538zm-12.516 12.626v-6.1507l4.5642-2.9679v9.1187zm20.467-9.1187 4.5646 2.9679v6.1507h-4.5646z" fill="#0d0d30" stroke-width=".95073"/>
</svg>
