<svg width="40" height="39" fill="none" version="1.1" viewBox="0 0 40 39" xmlns="http://www.w3.org/2000/svg">
 <g stroke="#00B9EB" stroke-linecap="round" stroke-linejoin="round">
  <path d="m23.586 12h-7.7243c-2.1331 0-3.8622 1.7291-3.8622 3.8622v7.7243c0 2.133 1.7291 3.8621 3.8622 3.8621h7.7243c2.133 0 3.8621-1.7291 3.8621-3.8621v-7.7243c0-2.1331-1.7291-3.8622-3.8621-3.8622z"/>
  <path d="m22.814 19.237c0.0953 0.6429-0.0145 1.2994-0.3138 1.8763-0.2993 0.5768-0.7729 1.0446-1.3534 1.3368s-1.2383 0.3939-1.88 0.2906c-0.6416-0.1032-1.2343-0.4061-1.6939-0.8657-0.4595-0.4595-0.7624-1.0522-0.8657-1.6939-0.1032-0.6416-0.0015-1.2995 0.2906-1.8799 0.2922-0.5805 0.76-1.0541 1.3369-1.3535 0.5768-0.2993 1.2334-0.4091 1.8762-0.3137 0.6557 0.0972 1.2628 0.4027 1.7316 0.8715 0.4687 0.4687 0.7743 1.0758 0.8715 1.7315z"/>
  <path d="m23.973 15.476h9e-3"/>
 </g>
</svg>
