<svg width="13" height="24" viewBox="0 0 13 24" fill="none" xmlns="http://www.w3.org/2000/svg">
<rect x="5.92285" y="20.6364" width="1.11957" height="3.07881" rx="0.559784" fill="white"/>
<rect x="10.3667" y="22.3165" width="1.39946" height="7.767" rx="0.69973" transform="rotate(90 10.3667 22.3165)" fill="white"/>
<rect x="1.68848" width="9.60988" height="18.7869" rx="4.80494" fill="white"/>
<path fill-rule="evenodd" clip-rule="evenodd" d="M0.997833 11.8353C0.997833 11.5598 0.77446 11.3364 0.498916 11.3364C0.223372 11.3364 0 11.5598 0 11.8353V14.1635C0 17.7454 2.90372 20.6491 6.48563 20.6491C10.0675 20.6491 12.9713 17.7454 12.9713 14.1635V11.8353C12.9713 11.5598 12.7479 11.3364 12.4724 11.3364C12.1969 11.3364 11.9735 11.5598 11.9735 11.8353V14.0805C11.9735 17.1113 9.51652 19.5683 6.48567 19.5683C3.45482 19.5683 0.997833 17.1113 0.997833 14.0805V11.8353Z" fill="white"/>
<rect x="1.90039" y="5.70764" width="3.35002" height="0.402002" rx="0.201001" fill="#0D0D30"/>
<rect x="1.90039" y="7.23596" width="3.35002" height="0.402002" rx="0.201001" fill="#0D0D30"/>
<rect x="1.90039" y="8.76367" width="3.35002" height="0.402002" rx="0.201001" fill="#0D0D30"/>
<rect x="1.90039" y="10.2914" width="3.35002" height="0.402002" rx="0.201001" fill="#0D0D30"/>
<rect x="7.60059" y="5.70764" width="3.35002" height="0.402002" rx="0.201001" fill="#0D0D30"/>
<rect x="7.60059" y="7.23596" width="3.35002" height="0.402002" rx="0.201001" fill="#0D0D30"/>
<rect x="7.60059" y="8.76367" width="3.35002" height="0.402002" rx="0.201001" fill="#0D0D30"/>
<rect x="7.60059" y="10.2914" width="3.35002" height="0.402002" rx="0.201001" fill="#0D0D30"/>
<rect x="3.80029" y="12.3507" width="5.62803" height="0.777204" rx="0.388602" fill="#0D0D30"/>
</svg>
