<svg width="100" height="27" viewBox="0 0 100 27" fill="none" xmlns="http://www.w3.org/2000/svg">
<path d="M82.2539 0.473389V26.5269H99.0538V22.3917H86.1216V15.5658H97.1876V11.5005H86.1216V4.67457H99.0538V0.473389H82.2539Z" fill="white"/>
<path d="M65.7915 22.3218H61.124V4.67457H65.7915C70.3914 4.67457 74.1239 8.67384 74.1239 13.4963C74.1239 18.3925 70.3914 22.3218 65.7915 22.3218ZM65.6563 0.473389H57.2563V26.5269H65.6563C72.5881 26.5269 78.0554 20.7377 78.0554 13.5001C78.0554 6.32863 72.5881 0.473389 65.6563 0.473389Z" fill="white"/>
<path d="M40.0621 0.473389L29.5293 26.5269H33.795L35.5298 22.0462H47.1253L48.8601 26.5269H53.0582L42.593 0.473389H40.0621ZM41.3275 7.8468L45.2591 17.911H37.3285L41.3275 7.8468Z" fill="white"/>
<path d="M22.2635 0.473267L12.6657 11.7062L3.13168 0.473267H0V26.5268H3.9315V7.77679L12.6657 17.9769L21.4637 7.77679V26.5268H25.3313V0.473267H22.2635Z" fill="white"/>
</svg>
