<svg width="76" height="20" viewBox="0 0 76 20" fill="none" xmlns="http://www.w3.org/2000/svg">
<path d="M73.1689 0C73.3706 0.040932 73.5774 0.071631 73.7765 0.127912C75.1502 0.519325 76.0311 1.79333 75.9238 3.22084C75.8191 4.59206 74.6676 5.77908 73.294 5.93258C71.5909 6.11933 70.0998 4.86067 70.0003 3.1492C69.9084 1.58867 70.9756 0.273733 72.5254 0.0332572C72.5867 0.0230242 72.648 0.0127912 72.7093 0C72.8625 0 73.0157 0 73.1689 0ZM70.5365 2.95989C70.539 4.31321 71.6139 5.41326 72.9365 5.41326C74.3051 5.41326 75.3902 4.32088 75.3902 2.94199C75.3876 1.60914 74.2744 0.506533 72.9314 0.509092C71.6292 0.509092 70.5339 1.6296 70.5365 2.95989Z" fill="#0D0D30"/>
<path d="M17.2089 19.7804C16.3357 19.7804 15.4651 19.7804 14.5816 19.7804C14.5816 15.6846 14.5816 11.594 14.5816 7.50591C14.5714 7.50079 14.5612 7.49568 14.551 7.49056C12.5697 9.71368 10.5909 11.9368 8.6019 14.1676C6.62823 11.9342 4.66223 9.71368 2.67579 7.46754C2.67579 11.5889 2.67579 15.677 2.67579 19.7778C1.7796 19.7778 0.893617 19.7778 -2.28882e-05 19.7778C-2.28882e-05 14.0704 -2.28882e-05 8.36036 -2.28882e-05 2.635C0.0408292 2.635 0.0816814 2.635 0.122533 2.635C0.753188 2.635 1.38129 2.635 2.01194 2.63245C2.0911 2.63245 2.14471 2.65291 2.19833 2.71431C4.12093 4.90929 6.04354 7.10426 7.96869 9.29924C8.17806 9.53972 8.38743 9.77763 8.60445 10.0232C8.97468 9.60367 9.33979 9.1918 9.70236 8.78248C11.293 6.98147 12.8837 5.1779 14.4744 3.3769C14.671 3.15433 14.8676 2.9292 15.0667 2.70919C15.0999 2.67338 15.1561 2.64012 15.2021 2.63756C15.8532 2.63245 16.5042 2.635 17.1553 2.635C17.1706 2.635 17.1885 2.64012 17.2115 2.64524C17.2089 8.35781 17.2089 14.0653 17.2089 19.7804Z" fill="#0D0D30"/>
<path d="M38.9168 19.7881C38.9168 14.0627 38.9168 8.3578 38.9168 2.635C38.9679 2.635 39.0113 2.635 39.0572 2.635C40.9671 2.635 42.8769 2.61197 44.7867 2.64267C46.8855 2.67593 48.7239 3.41526 50.2711 4.83509C51.7954 6.23445 52.7069 7.97406 52.9674 10.0232C53.3095 12.7017 52.6023 15.0885 50.7792 17.0968C49.4924 18.514 47.8813 19.3711 45.9868 19.6704C45.5221 19.7446 45.0472 19.7804 44.5774 19.7829C42.7492 19.7957 40.9186 19.7881 39.0904 19.7881C39.0368 19.7881 38.9832 19.7881 38.9168 19.7881ZM41.5518 17.0124C41.5824 17.0149 41.6079 17.0175 41.6309 17.0175C42.6803 17.0175 43.7322 17.0226 44.7816 17.0149C45.3663 17.0124 45.9408 16.9126 46.4949 16.7207C48.7494 15.943 50.3094 13.8248 50.3682 11.4277C50.4116 9.64204 49.786 8.11988 48.4762 6.8996C47.4677 5.96072 46.2625 5.45163 44.8812 5.41837C43.7884 5.39279 42.6956 5.41326 41.6028 5.41326C41.5875 5.41326 41.5722 5.41837 41.5492 5.42093C41.5518 9.28389 41.5518 13.1392 41.5518 17.0124Z" fill="#0D0D30"/>
<path d="M67.3188 17.0584C67.3188 17.9794 67.3188 18.8773 67.3188 19.7804C63.517 19.7804 59.7203 19.7804 55.9134 19.7804C55.9134 14.0678 55.9134 8.35782 55.9134 2.64014C59.7178 2.64014 63.5145 2.64014 67.3163 2.64014C67.3163 3.56366 67.3163 4.47952 67.3163 5.4056C64.3953 5.4056 61.477 5.4056 58.5509 5.4056C58.5509 6.90218 58.5509 8.38852 58.5509 9.88765C61.048 9.88765 63.5425 9.88765 66.0447 9.88765C66.0447 10.7856 66.0447 11.6682 66.0447 12.5661C63.5502 12.5661 61.0557 12.5661 58.5509 12.5661C58.5509 14.0678 58.5509 15.5542 58.5509 17.0559C61.4693 17.0584 64.3877 17.0584 67.3188 17.0584Z" fill="#0D0D30"/>
<path d="M36.0619 19.7881C35.998 19.7881 35.9521 19.7881 35.9061 19.7881C35.0508 19.7881 34.1954 19.7855 33.3401 19.7906C33.2354 19.7906 33.1843 19.7625 33.146 19.6602C32.7911 18.7622 32.4337 17.8668 32.0737 16.9714C32.0558 16.9279 32.0379 16.8845 32.0175 16.8384C31.9715 16.8384 31.9307 16.8384 31.8873 16.8384C29.3519 16.8384 26.8165 16.8384 24.2811 16.8358C24.1739 16.8358 24.1279 16.8691 24.0896 16.9663C23.7322 17.8719 23.3696 18.775 23.0096 19.6781C22.9841 19.7446 22.9611 19.7932 22.8692 19.7932C21.9628 19.7881 21.0564 19.7906 20.1499 19.7906C20.127 19.7906 20.1014 19.7855 20.0606 19.7829C20.0836 19.7216 20.1014 19.6704 20.1244 19.6218C22.4709 14.0039 24.8173 8.38339 27.1612 2.76292C27.1995 2.67083 27.2403 2.63501 27.345 2.63501C27.8353 2.64013 28.3229 2.64013 28.8132 2.63501C28.9051 2.63501 28.9536 2.65803 28.9919 2.75013C31.3281 8.39107 33.6695 14.032 36.0108 19.6704C36.0261 19.7011 36.0389 19.7318 36.0619 19.7881ZM28.0829 7.50336C27.174 9.71368 26.2778 11.901 25.3739 14.1011C27.1714 14.1011 28.951 14.1011 30.746 14.1011C29.86 11.901 28.9766 9.71368 28.0829 7.50336Z" fill="#0D0D30"/>
<path d="M73.2583 4.77113C73.0387 4.77113 72.837 4.77113 72.62 4.77113C72.62 4.57927 72.62 4.39251 72.62 4.20576C72.62 4.04459 72.6225 3.88086 72.62 3.71969C72.6149 3.44084 72.454 3.27712 72.1732 3.27456C71.8923 3.272 71.6114 3.27456 71.3306 3.27456C71.2846 3.27456 71.2387 3.27456 71.1825 3.27456C71.1825 3.05967 71.1825 2.85501 71.1825 2.635C71.3816 2.635 71.5783 2.635 71.7723 2.635C71.9076 2.635 72.0455 2.635 72.1808 2.635C72.454 2.63244 72.6174 2.47383 72.62 2.19754C72.6225 1.91357 72.62 1.62705 72.62 1.34052C72.62 1.29447 72.62 1.24843 72.62 1.1947C72.8345 1.1947 73.0362 1.1947 73.2532 1.1947C73.2557 1.24075 73.2583 1.2868 73.2583 1.33029C73.2583 1.60402 73.2583 1.8752 73.2583 2.14893C73.2583 2.48406 73.4089 2.63244 73.7409 2.635C74.0728 2.635 74.4022 2.635 74.7443 2.635C74.7443 2.84733 74.7443 3.05199 74.7443 3.27456C74.5834 3.27456 74.4226 3.27456 74.2617 3.27456C74.0779 3.27456 73.8966 3.27456 73.7128 3.27456C73.4243 3.27712 73.2608 3.43829 73.2583 3.72481C73.2557 4.02157 73.2583 4.32088 73.2583 4.6202C73.2583 4.66625 73.2583 4.71229 73.2583 4.77113Z" fill="#0D0D30"/>
</svg>
