<svg width="80" height="19" viewBox="0 0 80 19" fill="none" xmlns="http://www.w3.org/2000/svg">
<path d="M23.9633 17.9236C23.5221 17.9236 23.144 17.5456 23.144 17.1046V6.5516C23.144 6.11057 23.5221 5.73254 23.9633 5.73254C24.4044 5.73254 24.7825 6.11057 24.7825 6.5516V17.1046C24.7825 17.5456 24.4044 17.9236 23.9633 17.9236Z" fill="white"/>
<path d="M32.533 17.8923C32.0919 17.8923 31.7137 17.5143 31.7137 17.0732V10.5524C31.7137 10.1114 32.0919 9.7334 32.533 9.7334C32.9741 9.7334 33.3522 10.1114 33.3522 10.5524V17.0732C33.3522 17.5458 33.0056 17.8923 32.533 17.8923Z" fill="white"/>
<path d="M54.3974 17.9239C54.2714 17.9239 54.1769 17.8923 54.0508 17.8608C53.6412 17.6718 53.4522 17.1678 53.6727 16.7583L58.651 6.1423C58.8401 5.73278 59.3442 5.54377 59.7538 5.76428C60.1634 5.98479 60.3525 6.45731 60.1319 6.86683L55.1536 17.4828C54.9961 17.7664 54.7125 17.9239 54.3974 17.9239Z" fill="white"/>
<path d="M32.5321 11.3721C32.091 11.3721 31.7129 10.9941 31.7129 10.5531C31.7129 8.537 30.4211 7.15091 28.5306 7.15091C28.2155 7.15091 27.6484 7.30843 27.3333 7.49744C26.9237 7.71795 26.451 7.56043 26.2305 7.15091C26.0099 6.74139 26.1675 6.26887 26.5771 6.04836C27.0812 5.79635 27.9004 5.51285 28.5621 5.51285C31.3033 5.51285 33.3828 7.68645 33.3828 10.5531C33.3513 10.9941 33.0047 11.3721 32.5321 11.3721Z" fill="white"/>
<path d="M46.9945 11.1503C46.5219 11.1503 46.2383 10.9298 46.1438 10.5517C45.5767 8.56715 43.7492 7.18108 41.7012 7.18108C41.26 7.18108 40.882 6.80305 40.882 6.36203C40.882 5.92101 41.26 5.543 41.7012 5.543C44.4739 5.543 46.963 7.40159 47.7192 10.1107C47.8452 10.5202 47.4986 11.1503 46.9945 11.1503Z" fill="white"/>
<path d="M36.4389 11.1503C35.7773 11.1503 35.5252 10.5517 35.6512 10.1107C36.4074 7.43309 38.8966 5.543 41.6693 5.543C42.1104 5.543 42.4885 5.92101 42.4885 6.36203C42.4885 6.80305 42.1104 7.18108 41.6693 7.18108C39.6213 7.18108 37.7938 8.56715 37.2266 10.5517C37.1321 10.8983 36.817 11.1503 36.4389 11.1503Z" fill="white"/>
<path d="M78.1257 0.944458C77.212 0.944458 76.4873 1.669 76.4873 2.58254C76.4873 3.49609 77.212 4.22062 78.1257 4.22062C79.0395 4.22062 79.7641 3.49609 79.7641 2.58254C79.7641 1.669 79.0395 0.944458 78.1257 0.944458Z" fill="white"/>
<path d="M78.125 17.8924C77.6839 17.8924 77.3058 17.5144 77.3058 17.0733V6.52033C77.3058 6.0793 77.6839 5.70129 78.125 5.70129C78.5661 5.70129 78.9442 6.0793 78.9442 6.52033V17.0733C78.9442 17.5144 78.5661 17.8924 78.125 17.8924Z" fill="white"/>
<path d="M54.3663 17.9229C54.0513 17.9229 53.7677 17.7339 53.6101 17.4504L48.6319 6.8659C48.4428 6.45638 48.6004 5.95235 49.01 5.76334C49.4196 5.57434 49.9237 5.73185 50.1127 6.14137L55.091 16.7259C55.2801 17.1354 55.1225 17.6394 54.7129 17.8284C54.6184 17.8914 54.4924 17.9229 54.3663 17.9229Z" fill="white"/>
<path d="M74.1539 18.0189C72.8305 17.3573 71.5702 15.7823 71.5702 13.3252C71.5702 12.8841 71.9483 12.5061 72.3894 12.5061C72.8305 12.5061 73.2086 12.8841 73.2086 13.3252C73.2086 14.8057 73.8388 16.0658 74.9416 16.5698C75.3512 16.7588 75.5717 17.2628 75.3197 17.7354C75.1306 17.9874 74.721 18.3024 74.1539 18.0189Z" fill="white"/>
<path d="M20.0884 12.6628H11.7703C11.3291 12.6628 10.951 12.2848 10.951 11.8438C10.951 11.4028 11.3291 11.0247 11.7703 11.0247H20.0884C20.5295 11.0247 20.9076 11.4028 20.9076 11.8438C20.9076 12.2848 20.5295 12.6628 20.0884 12.6628Z" fill="white"/>
<path d="M20.0873 12.6623C19.6462 12.6623 19.2681 12.2843 19.2681 11.8433C19.2681 9.22867 17.1885 7.18108 14.5104 7.18108C14.0693 7.18108 13.6912 6.80305 13.6912 6.36203C13.6912 5.92101 14.0693 5.543 14.5104 5.543C18.1023 5.543 20.9065 8.31513 20.9065 11.8433C20.9065 12.2843 20.5284 12.6623 20.0873 12.6623Z" fill="white"/>
<path d="M9.12244 12.6623C8.68133 12.6623 8.30322 12.2843 8.30322 11.8433C8.30322 8.37813 11.1074 5.543 14.5103 5.543C14.9514 5.543 15.3295 5.92101 15.3295 6.36203C15.3295 6.80305 14.9514 7.18108 14.5103 7.18108C12.0212 7.18108 9.94164 9.32318 9.94164 11.8433C9.94164 12.2843 9.56355 12.6623 9.12244 12.6623Z" fill="white"/>
<path d="M14.5103 18.1126C11.0759 18.1126 8.30322 15.2775 8.30322 11.8123C8.30322 11.3713 8.68133 10.9933 9.12244 10.9933C9.56355 10.9933 9.94164 11.3713 9.94164 11.8123C9.94164 14.6789 12.3047 16.4745 14.5103 16.4745C14.9514 16.4745 15.3295 16.8525 15.3295 17.2936C15.3295 17.7661 14.9514 18.1126 14.5103 18.1126Z" fill="white"/>
<path d="M14.5104 18.113C14.0693 18.113 13.6912 17.735 13.6912 17.294C13.6912 16.8529 14.0693 16.4749 14.5104 16.4749C17.2516 16.4749 18.3859 14.5533 18.4489 14.4903C18.6694 14.1123 19.1736 13.9548 19.5517 14.1753C19.9298 14.3958 20.0873 14.8998 19.8667 15.2779C19.8037 15.4039 18.2598 18.113 14.5104 18.113Z" fill="white"/>
<path d="M1.5902 11.0569C1.14909 11.0569 0.770996 11.4349 0.770996 11.8759V17.1367C0.770996 17.5777 1.14909 17.9557 1.5902 17.9557C2.03131 17.9557 2.4094 17.5777 2.4094 17.1367V11.8759C2.4094 11.4034 2.03131 11.0569 1.5902 11.0569Z" fill="white"/>
<path d="M7.54681 6.04755C6.66459 5.60652 5.68783 5.44902 4.71108 5.57502C2.91512 5.82703 1.37121 7.11861 0.804063 8.85119C0.646522 9.32371 0.961604 9.92225 1.59177 9.92225C1.93836 9.92225 2.25344 9.70172 2.37947 9.35521C2.75757 8.18965 3.73432 7.37061 4.96314 7.21311C5.59331 7.1186 6.25496 7.24461 6.82211 7.52812C7.23172 7.74863 7.73585 7.55963 7.9249 7.18161C8.11395 6.77209 7.95642 6.26806 7.54681 6.04755Z" fill="white"/>
<path d="M36.3768 12.5061C36.8494 12.5061 37.133 12.7266 37.2275 13.1046C37.7947 15.0892 39.6221 16.4753 41.6702 16.4753C42.1113 16.4753 42.4894 16.8533 42.4894 17.2943C42.4894 17.7354 42.1113 18.1134 41.6702 18.1134C38.8975 18.1134 36.4083 16.2548 35.6521 13.5457C35.5261 13.1046 35.8727 12.5061 36.3768 12.5061Z" fill="white"/>
<path d="M46.9315 12.5061C47.5932 12.5061 47.8453 13.1046 47.7192 13.5457C46.963 16.2233 44.4739 18.1134 41.7012 18.1134C41.26 18.1134 40.882 17.7354 40.882 17.2943C40.882 16.8533 41.26 16.4753 41.7012 16.4753C43.7492 16.4753 45.5767 15.0892 46.1438 13.1046C46.2383 12.7266 46.5534 12.5061 46.9315 12.5061Z" fill="white"/>
<path d="M72.4544 11.1503C71.9817 11.1503 71.6982 10.9298 71.6036 10.5517C71.0365 8.56715 69.209 7.18108 67.161 7.18108C66.7199 7.18108 66.3418 6.80305 66.3418 6.36203C66.3418 5.92101 66.7199 5.543 67.161 5.543C69.9337 5.543 72.4228 7.40159 73.179 10.1107C73.3051 10.5202 72.9585 11.1503 72.4544 11.1503Z" fill="white"/>
<path d="M61.8954 11.1503C61.2337 11.1503 60.9816 10.5517 61.1077 10.1107C61.8638 7.43309 64.353 5.543 67.1257 5.543C67.5668 5.543 67.9449 5.92101 67.9449 6.36203C67.9449 6.80305 67.5668 7.18108 67.1257 7.18108C65.0777 7.18108 63.2502 8.56715 62.6831 10.5517C62.5885 10.8983 62.2735 11.1503 61.8954 11.1503Z" fill="white"/>
<path d="M61.8368 12.5061C62.3094 12.5061 62.5929 12.7266 62.6875 13.1046C63.2546 15.0892 65.0821 16.4753 67.1301 16.4753C67.5712 16.4753 67.9493 16.8533 67.9493 17.2943C67.9493 17.7354 67.5712 18.1134 67.1301 18.1134C64.3574 18.1134 61.8683 16.2548 61.1121 13.5457C60.986 13.1046 61.3326 12.5061 61.8368 12.5061Z" fill="white"/>
<path d="M72.3568 12.5061C73.0185 12.5061 73.2705 13.1046 73.1445 13.5457C72.3883 16.2233 69.8992 18.1134 67.1265 18.1134C66.6853 18.1134 66.3073 17.7354 66.3073 17.2943C66.3073 16.8533 66.6853 16.4753 67.1265 16.4753C69.1745 16.4753 71.0019 15.0892 71.5691 13.1046C71.6951 12.7266 72.0102 12.5061 72.3568 12.5061Z" fill="white"/>
</svg>
