<svg width="14" height="14" viewBox="0 0 14 14" fill="none" xmlns="http://www.w3.org/2000/svg">
<path fill-rule="evenodd" clip-rule="evenodd" d="M6.70599 1.31425C5.27601 1.31425 3.90458 1.88232 2.89343 2.89347C1.88227 3.90463 1.31421 5.27605 1.31421 6.70604C1.31421 8.13602 1.88227 9.50745 2.89343 10.5186C3.90458 11.5298 5.27601 12.0978 6.70599 12.0978C8.13598 12.0978 9.50741 11.5298 10.5186 10.5186C11.5297 9.50745 12.0978 8.13602 12.0978 6.70604C12.0978 5.27605 11.5297 3.90463 10.5186 2.89347C9.50741 1.88232 8.13598 1.31425 6.70599 1.31425ZM3.60829 3.60833C4.42985 2.78676 5.54413 2.32521 6.70599 2.32521C7.86786 2.32521 8.98214 2.78676 9.8037 3.60833C10.6253 4.42989 11.0868 5.54417 11.0868 6.70604C11.0868 7.8679 10.6253 8.98218 9.8037 9.80375C8.98214 10.6253 7.86786 11.0869 6.70599 11.0869C5.54413 11.0869 4.42985 10.6253 3.60829 9.80375C2.78672 8.98218 2.32517 7.8679 2.32517 6.70604C2.32517 5.54417 2.78672 4.42989 3.60829 3.60833ZM7.53727 4.42574C7.53727 4.14657 7.31096 3.92026 7.03179 3.92026C6.75262 3.92026 6.52631 4.14657 6.52631 4.42574V7.03177C6.52631 7.31094 6.75262 7.53725 7.03179 7.53725H8.98631C9.26548 7.53725 9.49179 7.31094 9.49179 7.03177C9.49179 6.7526 9.26548 6.52629 8.98631 6.52629H7.53727V4.42574Z" fill="#676879"/>
</svg>
