<svg width="32" height="32" fill="none" version="1.1" viewBox="0 0 32 32" xmlns="http://www.w3.org/2000/svg">
 <g transform="matrix(.96429 0 0 .96429 -1.3571 2.5)" fill="#0d0d30">
  <path d="m4 0v28h28v-28zm0.945 1.68c0.14-0.105 0.245-0.245 0.385-0.385s0.245-0.245 0.35-0.35h1.54c-0.35 0.35-0.77 0.7-1.155 1.12-0.42 0.42-0.77 0.805-1.12 1.155zm0 2.695c0.525-0.455 1.155-1.05 1.785-1.68s1.19-1.26 1.68-1.785h1.89c-0.665 0.455-1.715 1.4-2.835 2.52-1.12 1.12-2.065 2.17-2.52 2.835zm26.11 1.05c-0.98-0.875-1.715-1.4-1.855-1.26s0.63 1.155 1.855 2.485v1.54c-1.645-1.61-3.08-2.765-3.255-2.59s1.085 1.75 2.835 3.5l0.42 0.42v1.54c-0.35-0.385-0.735-0.805-1.155-1.225-1.75-1.75-3.325-3.01-3.5-2.835s1.085 1.75 2.835 3.5c0.665 0.665 1.295 1.225 1.82 1.715v1.925c-0.455-0.63-1.4-1.715-2.555-2.905-1.75-1.75-3.325-3.01-3.5-2.835s1.085 1.75 2.835 3.5c1.4 1.4 2.695 2.485 3.22 2.765v6.405c-1.015-0.91-1.785-1.47-1.925-1.33s0.665 1.225 1.925 2.555v1.505c-1.68-1.68-3.15-2.835-3.325-2.66s1.085 1.75 2.835 3.5l0.49 0.49v1.575c-0.385-0.42-0.805-0.84-1.26-1.295-1.75-1.75-3.325-3.01-3.5-2.835s1.085 1.75 2.835 3.5c0.35 0.35 0.735 0.7 1.05 1.015h-1.54l-0.28-0.28c-1.75-1.75-3.325-3.01-3.5-2.835s0.91 1.54 2.45 3.115h-1.54c-1.225-1.12-2.17-1.855-2.31-1.715-0.105 0.105 0.35 0.77 1.155 1.715h-6.195c-0.385-0.595-1.4-1.785-2.695-3.08-1.75-1.75-3.325-3.01-3.5-2.835s1.085 1.75 2.835 3.5c1.05 1.05 2.03 1.925 2.695 2.415h-1.855c-0.455-0.49-0.98-1.085-1.575-1.68-1.75-1.75-3.325-3.01-3.5-2.835s1.085 1.75 2.835 3.5c0.35 0.35 0.7 0.7 1.05 1.015h-1.54l-0.28-0.28c-1.75-1.75-3.325-3.01-3.5-2.835s0.91 1.505 2.45 3.115h-1.54c-1.225-1.12-2.17-1.82-2.31-1.68-0.105 0.105 0.35 0.77 1.155 1.68h-4.2v-4.725c0.595-0.35 1.82-1.4 3.15-2.73 1.75-1.75 3.01-3.325 2.835-3.5s-1.75 1.085-3.5 2.835c-1.12 1.12-2.03 2.135-2.485 2.8v-1.89c0.525-0.455 1.12-1.015 1.75-1.645 1.75-1.75 3.01-3.325 2.835-3.5s-1.75 1.085-3.5 2.835c-0.385 0.385-0.77 0.77-1.085 1.12v-1.54l0.35-0.35c1.75-1.75 3.01-3.325 2.835-3.5s-1.575 0.945-3.185 2.52v-1.54c1.155-1.26 1.925-2.24 1.75-2.38-0.105-0.105-0.805 0.385-1.75 1.19v-6.23c0.56-0.315 1.82-1.4 3.185-2.765 1.365-1.365 2.415-2.59 2.765-3.185h6.23c-0.805 0.945-1.295 1.61-1.19 1.75 0.14 0.14 1.12-0.595 2.345-1.75h1.54c-1.575 1.61-2.66 2.975-2.485 3.15s1.75-1.085 3.5-2.835c0.105-0.105 0.21-0.21 0.315-0.315h1.54c-0.35 0.315-0.735 0.665-1.085 1.05-1.75 1.75-3.01 3.325-2.835 3.5s1.75-1.085 3.5-2.835c0.63-0.63 1.155-1.19 1.61-1.715h1.89c-0.665 0.49-1.68 1.4-2.765 2.45-1.75 1.75-3.01 3.325-2.835 3.5s1.75-1.085 3.5-2.835c1.33-1.33 2.38-2.52 2.73-3.115h4.69v4.515z"/>
  <path d="m27.1 12.638c1.75 1.75 3.01 3.325 2.835 3.5s-1.75-1.085-3.5-2.835-3.01-3.325-2.835-3.4999c0.175-0.175 1.75 1.0849 3.5 2.8349zm-5.53-4.3399c0.175 0.175 1.75-1.085 3.5-2.835 1.75-1.75 3.01-3.325 2.835-3.5s-1.75 1.085-3.5 2.835-3.01 3.325-2.835 3.5zm-7.91 11.445c-0.175 0.175 1.085 1.75 2.835 3.5s3.325 3.01 3.5 2.835-1.085-1.75-2.835-3.5-3.325-3.01-3.5-2.835zm-4.83 0.63c-1.75 1.75-3.01 3.325-2.835 3.5s1.75-1.085 3.5-2.835c1.75-1.75 3.01-3.325 2.835-3.5s-1.75 1.085-3.5 2.835zm11.2-9.8349c0.175-0.175-1.085-1.75-2.835-3.5s-3.325-3.01-3.5-2.835 1.085 1.75 2.835 3.5c1.75 1.75 3.29 3.045 3.5 2.835zm-1.435 1.4349c0.175-0.175-1.085-1.7499-2.835-3.4999-1.75-1.75-3.325-3.01-3.5-2.835-0.175 0.175 1.085 1.75 2.835 3.5 1.75 1.7499 3.325 3.0099 3.5 2.8349zm-7.735-4.9349c-0.175 0.175 1.085 1.75 2.835 3.5 1.75 1.7499 3.325 3.0099 3.5 2.8349s-1.085-1.75-2.835-3.4999c-1.75-1.75-3.325-3.01-3.5-2.835zm-1.4 1.4c-0.175 0.175 1.085 1.75 2.835 3.4999 1.75 1.75 3.325 3.01 3.5 2.835s-1.085-1.75-2.835-3.5c-1.75-1.7499-3.325-3.0099-3.5-2.8349zm4.935 7.7349c0.175-0.175-1.085-1.75-2.835-3.5-1.75-1.7499-3.325-3.0099-3.5-2.835-0.175 0.17505 1.085 1.75 2.835 3.5 1.75 1.75 3.29 3.045 3.5 2.835zm1.4 2.1c0.175 0.175 1.75-1.085 3.5-2.835s3.01-3.325 2.835-3.5-1.75 1.085-3.5 2.835-3.045 3.325-2.835 3.5zm4.235-2.065c-1.75 1.75-3.01 3.325-2.835 3.5s1.75-1.085 3.5-2.835 3.01-3.325 2.835-3.5c-0.175-0.21-1.75 1.085-3.5 2.835zm-1.435 4.9c0.175 0.175 1.75-1.085 3.5-2.835s3.01-3.325 2.835-3.5-1.75 1.085-3.5 2.835-3.01 3.325-2.835 3.5zm7.735-4.935c-0.175-0.175-1.75 1.085-3.5 2.835s-3.01 3.325-2.835 3.5 1.75-1.085 3.5-2.835 3.045-3.325 2.835-3.5zm-2.065 4.235c-1.75 1.75-3.01 3.325-2.835 3.5s1.75-1.085 3.5-2.835 3.01-3.325 2.835-3.5c-0.21-0.175-1.75 1.085-3.5 2.835zm-11.9-18.375c-0.175-0.175-1.75 1.085-3.5 2.835-1.75 1.75-3.01 3.325-2.835 3.5s1.75-1.085 3.5-2.835c1.75-1.75 3.01-3.325 2.835-3.5z"/>
 </g>
</svg>
