<svg width="32" height="32" fill="none" version="1.1" viewBox="0 0 32 32" xmlns="http://www.w3.org/2000/svg">
 <path d="m27.009 19.836h-1.0536l2.4148 9.2153 0.30816 6e-3 -1.6699-9.2213zm-18.461-16.305c0.075811 0 0.1368 0.061524 0.1368 0.13678 0 0.075811-0.061524 0.13678-0.1368 0.13678-0.62238-0.0022-1.0844 0.068668-1.3804 0.29663-0.28893 0.22248-0.4323 0.61139-0.43011 1.2524 0 0.075802-0.061524 0.13678-0.13678 0.13678-0.075802 0-0.13678-0.061524-0.13678-0.13678-0.0027413-0.73498 0.17633-1.1915 0.53613-1.4689 0.35266-0.27191 0.86736-0.35596 1.548-0.35376zm14.591 0.24994c-0.07581 0-0.1368-0.061524-0.1368-0.13678 0-0.075802 0.06152-0.13678 0.1368-0.13678 0.6806-0.00274 1.1953 0.081847 1.548 0.35376 0.3603 0.2774 0.5388 0.73443 0.53612 1.4689 0 0.075802-0.06152 0.13677-0.1368 0.13677-0.07581 0-0.1368-0.061515-0.1368-0.13677 0.002233-0.64106-0.14117-1.03-0.43013-1.2524-0.29664-0.22851-0.75802-0.29882-1.3804-0.29663zm3.1657 19.113-20.611 0.0038-1.6831 6.4231c-0.024172 0.09287-0.10712 0.16207-0.20765 0.16368l-0.74102 0.01429c-0.014287 0-0.028565-0.0011-0.042844-0.0033-0.11921-0.0214-0.19831-0.13507-0.17688-0.25428l1.9188-10.595c5.447e-4 -0.0021 0.0011-0.0049 0.00164-0.0071-0.19445-0.079695-0.36199-0.20489-0.50536-0.36642-0.35596-0.40102-0.55151-1.0289-0.61633-1.7265-0.063176-0.6773-0.0043933-1.426 0.14886-2.0924 0.17523-0.7624 0.47845-1.4276 0.87121-1.7759 0.29553-0.26262 0.70971-0.50978 1.2239-0.73775-0.49602-0.63664-0.49877-1.7616-0.50317-3.3733-0.0010983-0.33013-0.0016519-0.68115-0.0071436-1.0558-0.0043933-0.3175-0.010983-0.62567-0.017573-0.9179-0.00989-0.43726-0.01868-0.84045-0.01868-1.1574 0-1.9314 0.24774-2.9361 1.8973-2.9361h17.121c1.9314 0 1.9347 1.3574 1.9414 3.9501 0.0011 0.33014 0.0016 0.68115 0.0071 1.0558 0.0044 0.3175 0.01098 0.62566 0.0175 0.9179 0.03849 1.7551 0.06483 2.9542-0.50702 3.593 0.31646 0.14394 0.58943 0.29387 0.8141 0.44933 0.60649 0.41968 1.1064 1.4194 1.3525 2.4911 0.1318 0.57354 0.19279 1.1712 0.16091 1.7145-0.03295 0.5597-0.16591 1.0662-0.42299 1.4376-0.13126 0.18948-0.29333 0.34387-0.48942 0.45264-0.0033 0.0088-0.0071 0.01759-0.01098 0.02634 0.0088 0.01813 0.01536 0.03795 0.0192 0.05875l1.9188 10.595c0.02143 0.11921-0.05768 0.23297-0.17689 0.2544-0.01429 0.0027-0.02849 0.0038-0.04277 0.0032l-0.74106-0.01429c-0.10054-0.0021-0.1835-0.07135-0.20761-0.16368l-1.6842-6.427zm-20.496-0.43397 20.382-0.003304-0.092331-0.35155h-20.197l-0.092831 0.35548zm0.20819-0.79481h19.966l-0.47951-1.8297h-19.007l-0.47956 1.8297zm-0.82342-2.9565c-5.447e-4 5e-3 -0.0011 0.0099-0.0022 0.01491l-0.12195 0.6723h21.86l-0.12144-0.67176c-0.0011-5e-3 -0.0016-0.01045-0.0021-0.01545zm-0.20324 1.1256-1.6699 9.2219 0.30816-0.0061 2.4148-9.2147h-1.0316c-0.00714 0-0.014832-6.25e-4 -0.021975-0.0012zm22.436-5.2563c-0.10492 0.08233-0.23734 0.15984-0.39495 0.23234-1.6661 0.76686-6.4671 1.1502-11.261 1.1502v-5.36e-4c-4.7949 0-9.5959-0.38343-11.261-1.1497-0.1181-0.05438-0.22247-0.11153-0.31091-0.17145-0.12909 0.60211-0.17688 1.2667-0.12085 1.8677 0.056577 0.61033 0.21863 1.1492 0.50811 1.476 0.1247 0.14064 0.27466 0.24056 0.45209 0.28672h21.752c0.24279-0.06206 0.4312-0.20654 0.57131-0.40924 0.20868-0.30101 0.31744-0.73007 0.34602-1.2145 0.02973-0.50103-0.02795-1.0558-0.151-1.5909-0.03741-0.16198-0.08028-0.32128-0.12858-0.47674zm-23.16-0.2269c0.087348 0.07143 0.20709 0.14117 0.35651 0.21038 1.6298 0.74981 6.3852 1.125 11.147 1.125v-5.36e-4c4.762 0 9.5179-0.37468 11.147-1.1245 0.1868-0.08572 0.32735-0.17359 0.41584-0.26315-0.24002-0.65971-0.57461-1.2101-0.95143-1.471-0.79597-0.55095-2.2709-1.0398-4.1736-1.3892-1.8364-0.33778-4.0622-0.54322-6.4545-0.54872-2.5328-0.0061-4.8674 0.21369-6.7538 0.58775-1.9176 0.38066-3.3563 0.91572-4.0484 1.5293-0.28894 0.25645-0.5257 0.75249-0.6839 1.3452zm21.108-2.5197c0.57515-0.45427 0.54988-1.6172 0.51032-3.3991-0.0066-0.28949-0.01313-0.59436-0.01759-0.9212-0.0049-0.37354-6e-3 -0.72784-0.0071-1.0613-6e-3 -2.3044-0.0088-3.5107-1.5035-3.5107h-17.121c-1.2673 0-1.4579 0.85419-1.4579 2.4966 0 0.38617 0.00823 0.75201 0.017029 1.1486 0.00659 0.28948 0.01318 0.59435 0.017573 0.9212 0.00495 0.37353 0.00605 0.72784 0.00714 1.0613 0.00385 1.6232 0.00714 2.7131 0.49493 3.1964 0.72234-0.27681 1.6013-0.51908 2.601-0.71793 1.9083-0.37848 4.272-0.60094 6.8378-0.59491 2.4214 0.0054 4.6741 0.21369 6.5336 0.55536 1.2134 0.22302 2.2637 0.50424 3.0882 0.82507z" fill="#0d0d30" stroke-width=".89295"/>
</svg>
