<svg width="32" height="32" fill="none" version="1.1" viewBox="0 0 32 32" xmlns="http://www.w3.org/2000/svg">
  <path d="m27.478 3.9507c-6e-4 -0.00233-0.0013-0.00499-2e-3 -0.00732-0.0505-0.12308-0.1487-0.22122-0.2714-0.27145-0.0027-9.98e-4 -0.0053-0.00133-0.0077-0.00233-0.0565-0.022288-0.1177-0.035263-0.1819-0.035263h-7.2235c-0.2754 0-0.499 0.22322-0.499 0.49899s0.2236 0.49899 0.499 0.49899h6.0186l-6.6227 6.622c-1.5891-1.2012-3.5658-1.9155-5.7068-1.9155-5.2278 0-9.4809 4.2531-9.4809 9.4809 0 5.2278 4.2531 9.4809 9.4809 9.4809 5.2278 0 9.4809-4.2531 9.4809-9.4809 0-2.7272-1.1597-5.1879-3.0096-6.9191l6.5634-6.5631v6.0182c0 0.27578 0.2236 0.499 0.499 0.499s0.499-0.22322 0.499-0.499v-7.2231c3e-4 -0.064536-0.0133-0.12541-0.0353-0.18197zm-5.5142 14.869c0 4.6775-3.8053 8.4829-8.4829 8.4829-4.6776 0-8.4829-3.8054-8.4829-8.4829 0-4.6773 3.8053-8.4829 8.4829-8.4829 4.6773 3.3e-4 8.4829 3.8056 8.4829 8.4829z" fill="#0d0d30"/>
</svg>
