<svg width="40" height="39" fill="none" version="1.1" viewBox="0 0 40 39" xmlns="http://www.w3.org/2000/svg">
 <g stroke="#00B9EB" stroke-linecap="round" stroke-linejoin="round">
  <path d="m23.383 15.879c1.2939 0 2.5347 0.5139 3.4496 1.4288s1.4289 2.1558 1.4289 3.4497v5.6916h-3.2523v-5.6916c0-0.4313-0.1714-0.8449-0.4763-1.1499-0.305-0.305-0.7186-0.4763-1.1499-0.4763s-0.8449 0.1713-1.1499 0.4763c-0.3049 0.305-0.4763 0.7186-0.4763 1.1499v5.6916h-3.2523v-5.6916c0-1.2939 0.514-2.5348 1.4289-3.4497s2.1557-1.4288 3.4496-1.4288z"/>
  <path d="m15.252 16.692h-3.2523v9.757h3.2523v-9.757z"/>
  <path d="m13.627 14.252c0.8982 0 1.6262-0.728 1.6262-1.6261s-0.728-1.6262-1.6262-1.6262c-0.8981 0-1.6261 0.7281-1.6261 1.6262s0.728 1.6261 1.6261 1.6261z"/>
 </g>
</svg>
