<svg width="32" height="32" fill="none" version="1.1" viewBox="0 0 32 32" xmlns="http://www.w3.org/2000/svg">
 <g transform="translate(4.2874 2.1555)" fill="#0d0d30">
  <path d="m23.331 21.887c-0.0446-0.0293-4.4483-2.9844-4.3596-7.5672 0.1002-5.2403 4.0355-5.9962 4.2032-6.0258 0.0584-0.0103 0.1099-0.04496 0.1411-0.09522 0.0319-0.05027 0.0406-0.11177 0.0241-0.1689l-1.079-3.7739c-0.0256-0.08991-0.108-0.15204-0.2017-0.15204-5.9715 0-6.9075-3.7795-6.9446-3.9406-0.0216-0.095222-0.1068-0.16297-0.2042-0.16297h-6.3952c-0.09803 0-0.18295 0.06806-0.20449 0.1636-0.00906 0.039337-0.95535 3.94-6.945 3.94-0.09366 0-0.17577 0.06213-0.20168 0.15204l-1.079 3.7739c-0.016235 0.05713-0.0074927 0.11863 0.02404 0.16921 0.031845 0.05027 0.083358 0.08492 0.14174 0.09522 0.040899 0.00687 4.1024 0.77239 4.2029 6.0258 0.08866 4.5832-4.315 7.5382-4.3596 7.5672-0.049016 0.0325-0.082422 0.0837-0.091476 0.1418-0.0093661 0.058 0.006244 0.117 0.04246 0.1629l2.7583 3.4876c0.07056 0.0896 0.19981 0.1062 0.29097 0.0372 0.01436-0.0109 1.4658-1.0883 3.8701-1.0883 0.31908 0 0.64533 0.0193 0.9694 0.0571 2.0643 0.241 3.5813 2.871 3.5962 2.8975 0.0375 0.0656 0.1068 0.1062 0.1824 0.1062 0.0755 0 0.1451-0.0406 0.1823-0.1062 0.015-0.0265 1.5285-2.6562 3.5966-2.8975 0.324-0.0378 0.65-0.0571 0.9691-0.0571 2.3955 0 3.856 1.0777 3.8703 1.0886 0.0906 0.0678 0.2198 0.0521 0.2907-0.0375l2.7583-3.4876c0.0365-0.0459 0.0518-0.1052 0.0428-0.1629-0.0091-0.0584-0.0425-0.1096-0.0915-0.1421zm-2.9169 3.3796c-0.4667-0.2975-1.8629-1.0577-3.9534-1.0577-0.3353 0-0.6778 0.0199-1.0181 0.0596-1.8601 0.2173-3.2482 2.0761-3.7299 2.8126-0.4817-0.7362-1.8701-2.595-3.7299-2.8126-0.33999-0.0397-0.68279-0.0596-1.0181-0.0596-2.0905 0-3.4867 0.7602-3.9534 1.0577l-2.5004-3.1617c0.86543-0.6375 4.4445-3.5363 4.3624-7.7932-0.09335-4.8566-3.4196-6.1214-4.3253-6.3758l0.97595-3.4136c5.4732-0.06181 6.8884-3.3272 7.147-4.1027h6.0836c0.2585 0.77551 1.6737 4.0409 7.1466 4.1027l0.976 3.4136c-0.906 0.25445-4.2319 1.5198-4.3247 6.3758-0.0827 4.2569 3.4964 7.1557 4.3621 7.7932z"/>
  <path d="m3.7637 23.381c-3.1e-4 0-3.1e-4 3e-4 -6.3e-4 3e-4 -0.00124 3e-4 -0.00249 0-0.00405 6e-4 -0.12863 0.0469-0.2507 0.0949-0.36591 0.1427l-0.24102-0.3047c-3.1e-4 -3e-4 0-9e-4 -3.1e-4 -0.0012-0.02154-0.0275-0.05495-0.0353-0.08866-0.0325-0.0203 0.0012-0.0409 0.0028-0.05807 0.0162-0.00656 0.0053-0.00625 0.0138-0.01124 0.02-0.01312 0.0159-0.02592 0.0318-0.02748 0.0515-0.0025 0.0262 0.00406 0.0534 0.02154 0.0756l0.29035 0.3674c0.0203 0.0259 0.05089 0.04 0.08211 0.04 0.01374 0 0.02779-0.0028 0.04121-0.0084 0.13331-0.0575 0.27662-0.114 0.42928-0.1699 6.3e-4 -3e-4 0.00125-9e-4 0.00188-0.0012h0.00249 0.00313c0.00624-0.0028 0.00936-0.0088 0.01498-0.0125 0.00687-5e-3 0.01311-0.0097 0.01842-0.0156 0.01873-0.0197 0.03216-0.0434 0.03216-0.0715 0-0.0125 0-0.025-0.00625-0.0344-0.01842-0.053-0.08086-0.0843-0.13393-0.0624z"/>
  <path d="m5.5307 22.934h-0.00312c-0.29659 0.0437-0.59631 0.1031-0.88978 0.178-0.04683 0.0125-0.08117 0.0531-0.08117 0.0996 0 0.0094 0.00312 0.019 0.00312 0.0281 0.01249 0.0468 0.0562 0.078 0.10303 0.078 0.00937 0 0.01561 0 0.02498-0.0031 0.2841-0.0715 0.57757-0.1311 0.87416-0.1748 0.05308-0.0066 0.09054-0.05 0.09054-0.103v-0.0157c-0.00936-0.0562-0.05931-0.0936-0.12176-0.0871z"/>
  <path d="m7.3533 22.836c-0.32782-0.0125-0.62129-0.0093-0.91476 0.0063-0.05307 0.0031-0.09678 0.0468-0.09678 0.103v0.0062c0.00312 0.0566 0.04683 0.1 0.10302 0.1h0.00625c0.00312 0 0.00624 0 0.00936-0.0032 0.31533-0.0156 0.61505-0.0156 0.88354-0.0031h0.00312c0.0562 0 0.10303-0.0468 0.10615-0.103v-0.0035c0-0.0558-0.04683-0.1027-0.0999-0.1027z"/>
  <path d="m9.1582 23.132c-0.2966-0.103-0.59631-0.1777-0.89603-0.2217-0.05619-0.0062-0.10927 0.0316-0.11864 0.0906v0.0156c0 0.0499 0.03435 0.094 0.0843 0.103h0.00312 0.01249c0.28098 0.0406 0.56509 0.1124 0.84607 0.2126 0.00937 0.0031 0.02186 0.0031 0.03122 0.0031 0.04683 0 0.08742-0.0281 0.09991-0.0686 0.00624-0.0125 0.00624-0.025 0.00624-0.0375 0-0.044-0.0281-0.0812-0.06868-0.0971z"/>
  <path d="m10.008 23.52c-0.0032-0.0031-0.00941-0.0062-0.01253-0.0062 0-0.0035-0.00312-0.0035-0.00312-0.0035-0.04996-0.0249-0.1124-0.0031-0.14049 0.0441-0.00625 0.0156-0.01249 0.0312-0.01249 0.0499 0 0.0372 0.02185 0.0715 0.05307 0.0906 0.24976 0.1401 0.49956 0.3028 0.74306 0.487 0.0187 0.0156 0.0406 0.0218 0.0624 0.0218 0.0312 0 0.0656-0.0159 0.0843-0.0405 0.0344-0.0469 0.025-0.1124-0.0187-0.1471-0.2498-0.187-0.5058-0.3556-0.7555-0.4961z"/>
  <path d="m2.7048 21.903c-3.1e-4 0 0-6e-4 -3.1e-4 -1e-3 -0.01218-0.0121-0.02872-0.0134-0.04402-0.0184-0.03559-0.0115-0.07399-0.0109-0.10303 0.0169v-0.0016c-6.2e-4 6e-4 -3.1e-4 0.0016-9.3e-4 0.0022-0.11614 0.1124-0.22947 0.2182-0.33843 0.3169-0.0409 0.0368-0.04621 0.0993-0.01187 0.1427l0.29035 0.3674c0.02061 0.0263 0.0512 0.04 0.08211 0.04 0.02279 0 0.04558-0.0072 0.06494-0.0225 0.04558-0.0359 0.05307-0.1018 0.01717-0.1473l-0.22978-0.291c0.08804-0.0809 0.17889-0.1661 0.27131-0.2557 0.04214-0.0403 0.04308-0.1068 0.00249-0.1486 3.1e-4 3e-4 0 3e-4 0 0z"/>
  <path d="m6.249 14.115c-0.00312-0.0562-0.04683-0.103-0.10302-0.103h-0.00625c-0.05619 0.0031-0.0999 0.05-0.0999 0.1062v0.0031c0.00312 0.0565 0.00312 0.1124 0.00312 0.1686v0.025c0.00312 0.0499 0.00312 0.0971 0.00312 0.147 0 0.1842-0.00624 0.3653-0.01561 0.537v0.0062c-0.00312 0.0565 0.04059 0.0999 0.09366 0.1031 0.00312 0.0034 0.00625 0.0034 0.00937 0.0034 0.05619 0 0.0999-0.044 0.10615-0.0999 0.00936-0.1842 0.01561-0.3684 0.01561-0.5495v-0.1751l-0.00312-0.0281c0-0.0475-1e-5 -0.0971-0.00313-0.144z"/>
  <path d="m4.9095 9.9329 0.00313 0.00312c0.01873 0.0281 0.05307 0.04683 0.08741 0.04683 0.01874 0 0.03747-0.00312 0.05308-0.01249 0.03122-0.01873 0.04995-0.05307 0.05307-0.09054 0-0.01873-0.00624-0.03746-0.01561-0.05619-0.1561-0.25913-0.32469-0.50889-0.50577-0.74305-0.03434-0.04371-0.10302-0.05307-0.14673-0.01873-0.02498 0.01873-0.04059 0.05307-0.04059 0.0843 0 0.02185 0.00624 0.0437 0.02186 0.06244 0.17795 0.23103 0.3403 0.47142 0.48703 0.71806 0 0 0.00312 0.00313 0.00312 0.00625z"/>
  <path d="m3.4322 7.9036c-0.04058-0.03122-0.07805-0.06244-0.11864-0.09366-0.0437-0.03435-0.11239-0.02498-0.14673 0.01873-0.01561 0.01873-0.02185 0.04059-0.02185 0.06244-0.00313 0.03434 0.01248 0.06556 0.04058 0.0843l0.02186 0.01873c0.03122 0.02497 0.06244 0.04995 0.09366 0.07493 0.1842 0.14673 0.36527 0.3122 0.54011 0.48391 0.01873 0.01873 0.04683 0.03122 0.07493 0.03122s0.05307-0.01249 0.07493-0.03122c0.01873-0.01873 0.02809-0.04683 0.02809-0.07493s-0.00936-0.05307-0.02809-0.0718c-0.18108-0.18108-0.3684-0.34967-0.55885-0.50265z"/>
  <path d="m6.0796 13.336h0.01249c0.05307-0.0062 0.09366-0.0531 0.09054-0.1061v-0.0094-0.0031c-0.03435-0.2997-0.08118-0.5963-0.1405-0.8836-0.01248-0.053-0.06868-0.0936-0.12488-0.0811-0.04683 0.0125-0.08429 0.053-0.08117 0.103v0.0219c0.05932 0.2841 0.10615 0.5775 0.14049 0.8679 0.00312 0.0499 0.04995 0.0905 0.10303 0.0905z"/>
  <path d="m5.8212 11.498c0-0.0094 0-0.0218-0.00312-0.0312-0.09054-0.2904-0.19669-0.5713-0.31532-0.8398-0.02498-0.0531-0.08742-0.0781-0.14049-0.0531-0.03747 0.0156-0.06245 0.0531-0.06245 0.0968 0 0.0125 0.00313 0.0281 0.00937 0.0406 0.11552 0.2622 0.21854 0.537 0.30908 0.8179 0.01249 0.0437 0.05308 0.075 0.09991 0.075 0.00936 0 0.01873-0.0032 0.03122-0.0063 0.04371-0.0125 0.0718-0.0531 0.0718-0.0999z"/>
  <path d="m4.9308 19.199c-0.00313-0.0374-0.02186-0.0718-0.05308-0.0874-0.04995-0.0281-0.11551-0.0125-0.14361 0.0375-0.14362 0.2466-0.29972 0.4964-0.46831 0.743-0.01249 0.0191-0.01873 0.0375-0.01873 0.0594 0 0.034 0.01561 0.0655 0.04371 0.0871 0.01873 0.0093 0.03746 0.019 0.05932 0.019 0.03434 0 0.06556-0.019 0.08741-0.0468 0.17172-0.2529 0.33406-0.5089 0.47768-0.7556 0.00936-0.0187 0.01561-0.0377 0.01561-0.0562z"/>
  <path d="m5.6177 17.502c-0.05307-0.0216-0.11239 0.0065-0.13424 0.0565v0.0062c-0.00313 0.0031-0.00313 0.0066-0.00313 0.0094-0.0999 0.2654-0.21229 0.5339-0.33717 0.7992-0.00625 0.0125-0.00937 0.0281-0.00937 0.044 0 0.0406 0.02185 0.0781 0.05932 0.0937 0.01249 0.0094 0.0281 0.0125 0.04371 0.0125 0.04058 0 0.07805-0.025 0.09678-0.0593v-0.0031c0.128-0.2717 0.24352-0.5495 0.34654-0.8243 0.00313-0.0125 0.00625-0.0249 0.00625-0.0374 0-0.0444-0.0281-0.0849-0.06869-0.0974z"/>
  <path d="m3.742 20.599c-0.17796 0.2279-0.37152 0.4527-0.57133 0.6712-0.01874 0.0219-0.0281 0.05-0.0281 0.0781 0.00312 0.0281 0.01249 0.0531 0.03434 0.0718 0.01873 0.0156 0.04371 0.0281 0.07181 0.0281s0.05619-0.0125 0.07805-0.0343v-0.0032c0.20293-0.2248 0.3965-0.4527 0.57757-0.6806 0.01561-0.019 0.02498-0.0409 0.02498-0.0658 0-0.0313-0.01561-0.0622-0.04059-0.0812-0.0437-0.0337-0.11239-0.0247-0.14673 0.0159z"/>
  <path d="m6.0522 15.781c-0.05932-0.0093-0.11239 0.0316-0.12176 0.0875-0.04371 0.2841-0.10615 0.5744-0.18108 0.8585-0.00312 0.0063-0.00312 0.0156-0.00312 0.025-0.00312 0.0465 0.03122 0.0905 0.07493 0.0996 0.00937 0.0034 0.01873 0.0065 0.0281 0.0065 0.04683 0 0.09054-0.0343 0.10303-0.078 0.07492-0.2904 0.13736-0.5838 0.18732-0.8776v-0.0156c0-0.0528-0.03747-0.0965-0.08742-0.1059z"/>
  <path d="m2.5605 7.305c-0.00125-6.2e-4 -0.00125-0.00249-0.0025-0.00312-0.11583-0.06743-0.22916-0.12987-0.33999-0.1867l0.10396-0.36371c3.1e-4 -0.00125 0.00156-0.00156 0.00219-0.00281 0.01561-0.0562-0.01873-0.11552-0.07181-0.13113-0.00218-6.2e-4 -0.00406 9.4e-4 -0.00624 6.3e-4 -0.02467-0.00594-0.04871-0.0025-0.06994 0.0078-0.00249 0.00125-0.00468 0.00187-0.00718 0.00344-0.02091 0.01248-0.03746 0.03247-0.04558 0.05713-3.1e-4 0.00125-0.00187 0.00156-0.0025 0.00312 0 3.1e-4 3.2e-4 9.4e-4 0 0.00156l-0.12862 0.44989c-0.01374 0.04839 0.00874 0.0999 0.05401 0.12269 0.13081 0.06557 0.26662 0.13831 0.40555 0.21979 9.4e-4 3.2e-4 0.00187 3.2e-4 0.00281 6.3e-4 0.00125 3.1e-4 0.00312 0.00156 0.00312 0.00156l0.00312 0.00312c0.01561 0.00937 0.03435 0.01249 0.05308 0.01249 0.03746 0 0.0718-0.01873 0.09054-0.04995 0.00936-0.01561 0.01249-0.03435 0.01249-0.0562 0-0.03434-0.01874-0.06868-0.04996-0.08742-0.00187-0.00281-0.00406-0.00249-0.00655-0.00281z"/>
  <path d="m2.9528 5.607h-6.2e-4v-0.00156c-0.00219 3.1e-4 -0.00438 0.00187-0.00656 0.0025-0.14861 0.01654-0.30034 0.03122-0.45551 0.04308-0.0437 0.00343-0.08054 0.03341-0.09272 0.07555l-0.12863 0.4502c-0.01592 0.05557 0.01624 0.11364 0.07181 0.12956 0.00968 0.00281 0.01936 0.00406 0.02872 0.00406 0.04558 0 0.08773-0.02997 0.10084-0.07617l0.10865-0.38058c0.13487-0.01093 0.26725-0.02404 0.39712-0.03871 0.05776-0.00656 0.09897-0.05839 0.09242-0.11583-0.00625-0.05713-0.05776-0.09866-0.11552-0.0921z"/>
  <path d="m8.2349 3.5144c0.0281 0 0.05308-0.00937 0.07493-0.0281v-0.00312c0.20293-0.19669 0.39338-0.40899 0.56821-0.62753 0.01561-0.01873 0.02186-0.04371 0.02186-0.06868 0-0.03122-0.01561-0.05932-0.03747-0.07805-0.04371-0.03747-0.11239-0.0281-0.14986 0.01561-0.16859 0.21229-0.35591 0.41835-0.54947 0.61191-0.02186 0.01874-0.03122 0.04684-0.03122 0.07493 0 0.0281 0.00936 0.05308 0.02809 0.07181 0.02186 0.02186 0.04683 0.03122 0.07493 0.03122z"/>
  <path d="m7.5411 3.8802c-0.21854 0.16859-0.44645 0.32469-0.6806 0.4683-0.03122 0.01874-0.04995 0.05308-0.04995 0.09054 0 0.01874 0.00624 0.03747 0.01561 0.05308 0.01873 0.03122 0.05307 0.04995 0.09054 0.04995 0.01873 0 0.03746-0.00624 0.05307-0.01561 0.24352-0.14674 0.47767-0.30908 0.69934-0.48079 0.02497-0.02186 0.04058-0.05308 0.04058-0.0843 0-0.02497-0.00936-0.04683-0.02185-0.06244-0.03434-0.04371-0.10303-0.05307-0.14674-0.01873z"/>
  <path d="m6.1363 4.7427c-0.24352 0.11552-0.49953 0.22166-0.7649 0.31533-0.04059 0.01561-0.06869 0.05619-0.06869 0.0999 0 0.01249 0.00313 0.02498 0.00625 0.03434 0.01561 0.04371 0.0562 0.07181 0.0999 0.07181 0.01249 0 0.02186-0.00312 0.03435-0.00624 0.26849-0.09991 0.53386-0.20918 0.7805-0.32782 0.03747-0.01561 0.06245-0.05307 0.06245-0.09366 0-0.01561-0.00313-0.03122-0.01249-0.04371-0.02186-0.05307-0.08742-0.07493-0.13737-0.04995z"/>
  <path d="m3.7913 5.6936h0.02185c0.28411-0.05307 0.56197-0.11551 0.82422-0.18732 0.04371-0.00936 0.07805-0.05307 0.07493-0.0999 0-0.00937 0-0.01874-0.00312-0.0281-0.01249-0.05308-0.07181-0.08742-0.12176-0.07493h-0.00625c-0.00312 0.00312-0.00624 0.00312-0.00936 0.00312-0.26538 0.07181-0.53387 0.13113-0.79924 0.18108-0.02498 0.00312-0.04996 0.01873-0.06557 0.04371-0.01561 0.02185-0.02185 0.04995-0.01873 0.07805 0.00937 0.04995 0.05308 0.08429 0.10303 0.08429z"/>
  <path d="m9.9751 1.799c3.2e-4 0 6.3e-4 6.2e-4 0.00125 6.2e-4 0.04462 0 0.07462-0.03028 0.09082-0.06837 0.0053-0.01249 0.0153-0.02248 0.0153-0.03684v-6.2e-4c0-0.01686-0.0109-0.02935-0.0184-0.04371-0.0175-0.03372-0.0459-0.06026-0.08647-0.06026h-0.4683c-0.03903 0-0.07493 0.02155-0.09273 0.0562-0.06556 0.12519-0.13986 0.25757-0.22354 0.39431 0 0.00313-0.00312 0.00625-0.00624 0.00937-0.00968 0.0153-0.01592 0.03403-0.01592 0.05276 0 0.03747 0.01873 0.07181 0.04995 0.09054 0.01873 0.00937 0.03747 0.01561 0.0562 0.01561 0.03434 0 0.06868-0.01561 0.08741-0.04683 0 0 0-0.00312 0.00313-0.00312 0-0.00156 6.2e-4 -0.00312 0.00156-0.00468 0.07524-0.12239 0.14299-0.24103 0.20324-0.35498z"/>
  <path d="m12.29 1.5918h-1.1551c-0.0593 0-0.1062 0.04683-0.1062 0.10302 0 0.05932 0.0469 0.10615 0.1062 0.10615h1.1551c0.0593 0 0.1062-0.04683 0.1062-0.10615 0-0.05619-0.0469-0.10302-0.1062-0.10302z"/>
  <path d="m14.234 2.1443c0.0038-0.00718 0.0122-0.01187 0.0141-0.01936 0.0065-0.02591 0.0028-0.05464-0.0125-0.0793-0.0853-0.13862-0.1605-0.27255-0.2267-0.39962-0.0184-0.03465-0.054-0.0562-0.093-0.0562h-0.4683c-0.0581 0-0.1049 0.04683-0.1049 0.10459s0.0468 0.10459 0.1049 0.10459h0.4052c0.0609 0.11427 0.1286 0.23353 0.2039 0.35622v3.2e-4c0.0106 0.01748 0.0268 0.02966 0.0453 0.0384 0.014 0.00655 0.0287 0.01155 0.0443 0.01155h3e-4 9e-4c0.0181 0 0.0356-0.00625 0.0509-0.01499 1e-3 -3.1e-4 0.0019-3.1e-4 0.0028-6.2e-4 0.0172-0.01093 0.0244-0.02872 0.0328-0.04558z"/>
  <path d="m16.504 4.5388c0.0344 0 0.0687-0.01874 0.0875-0.04996 0.0124-0.01561 0.0156-0.03434 0.0156-0.05307 0-0.03747-0.0188-0.07181-0.05-0.09054-0.2341-0.14361-0.4589-0.29972-0.6709-0.46518-0.0035 0-0.0035-0.00313-0.0066-0.00313 0 0 0-0.00312-0.0031-0.00312-0.044-0.03122-0.1096-0.02185-0.1436 0.02186-0.0156 0.01561-0.0219 0.03746-0.0219 0.06244 0 0.03434 0.0156 0.06244 0.0406 0.08429 0.2154 0.16859 0.4527 0.33094 0.6962 0.4808 0.0188 0.00936 0.0375 0.01561 0.0562 0.01561z"/>
  <path d="m17.194 4.9293c0.2467 0.11551 0.5089 0.22478 0.7837 0.32469 0.0093 0.00312 0.0218 0.00624 0.0343 0.00624 0.0437 0 0.0843-0.02809 0.0968-0.06868 0.0065-0.01249 0.0065-0.02498 0.0065-0.03747 0-0.0437-0.028-0.08117-0.0686-0.09678-0.2626-0.09678-0.5183-0.20293-0.7618-0.31845-0.05-0.02497-0.1155-0.00312-0.1405 0.04996-0.0062 0.01248-0.0091 0.0281-0.0091 0.04371 0 0.04058 0.0216 0.07492 0.0562 0.09366 0.0025 0 0.0025 0 0.0025 0.00312z"/>
  <path d="m14.708 2.7212c-0.0343-0.04371-0.1061-0.05308-0.1467-0.01873-0.0219 0.01873-0.0375 0.0437-0.0406 0.0718-0.0034 0.0281 0.0062 0.05308 0.0215 0.07805 0.178 0.22167 0.3688 0.43084 0.5683 0.63065 0.0218 0.01874 0.0468 0.0281 0.0749 0.0281s0.0531-0.00936 0.0749-0.03122c0.0187-0.01873 0.0281-0.04683 0.0281-0.07493 0-0.02497-0.0094-0.05307-0.0315-0.0718-0.1961-0.19669-0.3803-0.40275-0.5489-0.61192z"/>
  <path d="m18.783 5.5064c0.2623 0.0718 0.5401 0.13112 0.8245 0.1842 0.0063 0.00312 0.0125 0.00312 0.0188 0.00312 0.0499 0 0.0936-0.03747 0.103-0.08742 0.0031-0.00624 0.0031-0.01249 0.0031-0.01873-0.0031-0.04995-0.0374-0.09366-0.0871-0.10303-0.2782-0.04995-0.5498-0.11239-0.8089-0.18108-0.0531-0.01248-0.1121 0.01874-0.1277 0.07493-0.0034 0.00625-0.0034 0.01561-0.0034 0.02498-3e-4 0.04995 0.0309 0.09054 0.0777 0.10303z"/>
  <path d="m20.37 5.7603c0.0063 0.01062 0.0113 0.01905 0.0203 0.02685 0.0122 0.01155 0.0269 0.01936 0.0437 0.02404 0.0028 6.3e-4 0.0047 0.00375 0.0072 0.00406h0.0053c1e-3 0 0.0016 6.2e-4 0.0025 6.2e-4 0.1302 0.01468 0.2626 0.02779 0.3971 0.03903l0.1068 0.37371c3e-4 0.00156 0 0.00343 3e-4 0.00499 6e-3 0.01749 0.0181 0.02997 0.0297 0.04215 0.0159 0.01655 0.0346 0.02685 0.0577 0.0306 0.0057 9.3e-4 0.01 0.0053 0.016 0.0053 0.0093 0 0.0187-0.00312 0.0281-0.00312 0.0021-6.2e-4 0.0025-0.00281 0.0046-0.00375 0.0528-0.01779 0.0831-0.07336 0.0678-0.12737l-0.1286-0.4502c-0.0122-0.04215-0.049-0.07212-0.0931-0.07555-0.1564-0.01218-0.3091-0.02654-0.4592-0.04371-0.0013-3.2e-4 -0.0022-0.00156-0.0035-0.00188h-0.0062c-0.0565-0.00624-0.1096 0.03747-0.1155 0.09366v0.00937c0 0.00874 0.0065 0.01467 0.0084 0.0231 0.0019 0.00999 0.0056 0.01936 0.0106 0.0281z"/>
  <path d="m21.101 6.749 0.1052 0.36716c-0.1102 0.0565-0.2232 0.11832-0.3378 0.18544-9e-4 6.3e-4 -0.0021 0-0.0031 3.2e-4 -0.0496 0.03122-0.0655 0.09366-0.0374 0.14361 3e-4 3.1e-4 3e-4 3.1e-4 6e-4 6.2e-4 0 0 3e-4 0 3e-4 3.2e-4 0.019 0.0334 0.0559 0.05213 0.0896 0.05213 0.0047 0 0.0084-0.00312 0.0128-0.00374 0.014-0.00156 0.0281-0.00375 0.0406-0.01093 0.1389-0.08117 0.2747-0.15423 0.4058-0.21979 0.0453-0.02248 0.0678-0.07399 0.0541-0.1227l-0.1287-0.45019c-0.0162-0.05558-0.0746-0.08804-0.1295-0.07181-0.0559 0.01561-0.0881 0.07368-0.0725 0.12956z"/>
  <path d="m18.181 18.513c0.0156 0 0.0313-0.0031 0.0469-0.0125 0.034-0.0156 0.059-0.0531 0.059-0.0936 0-0.0157-0.0031-0.0313-0.0094-0.0438-0.1246-0.2656-0.2404-0.5373-0.3403-0.812-0.0187-0.0531-0.0843-0.0812-0.1342-0.059-0.0437 0.0125-0.0687 0.0531-0.0687 0.0968 0 0.0125 0 0.025 0.0062 0.0375 0.103 0.2809 0.2186 0.5588 0.3466 0.8242 0.0159 0.0374 0.0534 0.0624 0.0939 0.0624z"/>
  <path d="m17.809 11.52c0.0905-0.281 0.1935-0.5558 0.309-0.818 0.0066-0.0125 0.0094-0.0281 0.0094-0.0406 0-0.0437-0.0218-0.0812-0.0624-0.0968-0.05-0.0249-0.1155 0-0.1371 0.0531-0.1221 0.2747-0.2279 0.5557-0.3187 0.8398-0.0029 0.0094-0.0029 0.0188-0.0029 0.0312 0 0.0469 0.0281 0.0875 0.0715 0.1 0.0125 0.0031 0.0219 0.0062 0.0316 0.0062 0.0465 0 0.0871-0.0312 0.0996-0.0749z"/>
  <path d="m20.17 21.438c0.0249 0 0.0499-0.0094 0.0715-0.0281 0.0218-0.0191 0.0343-0.0469 0.0343-0.075s-0.0094-0.0531-0.0281-0.0715c-0.1967-0.2154-0.3902-0.4436-0.5713-0.6712-0.0344-0.0437-0.103-0.0531-0.1468-0.0156-0.0249 0.0187-0.0405 0.0465-0.0405 0.078 0 0.025 9e-3 0.05 0.0215 0.0687 0.0031 0 0.0031 0.0031 0.0031 0.0031 0.1811 0.2251 0.3747 0.4559 0.5779 0.6775 0.0222 0.0216 0.0503 0.0341 0.0784 0.0341z"/>
  <path d="m17.49 15.86c-0.0093-0.0561-0.0593-0.0967-0.1217-0.0874-0.05 0.0094-0.0875 0.0531-0.0875 0.1031 0 0.0065 1e-4 0.0124 0.0032 0.019v0.0031c0.0468 0.2935 0.1092 0.587 0.1842 0.8742 0.0125 0.044 0.0565 0.078 0.103 0.078 0.0094 0 0.019-0.0031 0.0281-0.0031 0.044-0.0125 0.078-0.0562 0.0749-0.103 0-0.0094 0-0.0187-0.0031-0.025-0.0749-0.2875-0.1342-0.5747-0.1811-0.8589z"/>
  <path d="m18.683 19.139c-0.0284-0.0497-0.094-0.0656-0.1436-0.0375-0.0315 0.019-0.0499 0.0499-0.0499 0.0874 0 0.0191 0.0031 0.0375 0.0124 0.0565 0.1468 0.2529 0.3088 0.5089 0.4774 0.7556 0.0219 0.0281 0.0531 0.0465 0.0874 0.0465 0.0219 0 0.0406-0.0063 0.0593-0.0188 0.0281-0.019 0.0466-0.053 0.0437-0.0874 0-0.0218-0.0062-0.0406-0.0156-0.0593-0.1714-0.2463-0.3275-0.4964-0.4711-0.743z"/>
  <path d="m19.411 8.4722c0 0.0281 0.0091 0.05308 0.0313 0.07493 0.0187 0.01873 0.0468 0.03122 0.0749 0.03122 0.025 0 0.0531-0.01249 0.0715-0.03122 0.1686-0.16547 0.3465-0.32781 0.5338-0.47767 0.0406-0.03434 0.0812-0.06556 0.1249-0.0999 0.0437-0.03435 0.0531-0.09991 0.0188-0.14674-0.0341-0.04371-0.0996-0.05307-0.1437-0.01873h-0.0031c-0.0437 0.03434-0.0843 0.06556-0.128 0.10302-0.1901 0.15298-0.3746 0.31845-0.5495 0.49016-0.0187 0.02186-0.0309 0.04683-0.0309 0.07493z"/>
  <path d="m17.295 15.098h0.0031c0.0531-0.0034 0.0968-0.05 0.0968-0.103v-0.0063c-9e-3 -0.1811-0.0156-0.3587-0.0156-0.5273 0-0.0565 0-0.1096 0.0034-0.1655v-0.0065c0-0.059 0.0032-0.1187 0.0032-0.1777v-0.0065c0-0.0562-0.0441-0.0996-0.1-0.103h-0.0031c-0.0593 0-0.103 0.044-0.1061 0.103 0 0.0593-0.0035 0.1186-0.0035 0.1811-0.0031 0.0562-0.0031 0.1155-0.0031 0.1751 0 0.1842 0.0066 0.3653 0.0156 0.5398 0.0035 0.0531 0.05 0.0971 0.1065 0.0971h0.0028z"/>
  <path d="m18.378 9.9606c0.0156 0.00937 0.0343 0.01249 0.0531 0.01249 0.0374 0 0.0718-0.01874 0.0905-0.04996 0.1499-0.25288 0.3153-0.4964 0.4902-0.72431 0.0156-0.01561 0.0215-0.03746 0.0215-0.05932 0-0.03434-0.0156-0.06556-0.0406-0.08429-0.0437-0.03434-0.1092-0.0281-0.1436 0.01561h-0.0031c-0.1842 0.23727-0.3528 0.48704-0.5058 0.74617-0.0093 0.01561-0.0156 0.03434-0.0156 0.05307 3e-4 0.03746 0.0188 0.07181 0.0534 0.09054z"/>
  <path d="m17.385 12.326v0.0031c-0.0593 0.2872-0.1096 0.5838-0.1436 0.8835v0.0094c0 0.0531 0.0406 0.0999 0.0937 0.1061h0.0125c0.053 0 0.0967-0.0405 0.103-0.0936 0.034-0.3029 0.0812-0.5932 0.1405-0.8648v-0.0219c0-0.0499-0.0344-0.0936-0.0815-0.103-0.059-0.0125-0.1155 0.025-0.1246 0.0812z"/>
  <path d="m20.866 21.902c-0.0012-1e-3 -0.0028-6e-4 -0.0037-0.0016-0.0013-0.0015-0.0019-0.0037-0.0038-0.0037-0.0374-0.0406-0.1061-0.0375-0.1467 0-0.019 0.0218-0.0315 0.0468-0.0315 0.0749 0.0031 0.0281 0.0125 0.0531 0.0315 0.0718l0.0031 0.0031s0 0.0031 0.0031 0.0063c0.0013 9e-4 0.0029 6e-4 0.0041 0.0015 0.0921 0.089 0.1823 0.1739 0.2697 0.2539l-0.2301 0.2909c-0.0371 0.044-0.028 0.1096 0.016 0.1471 0.0043 0.0031 0.0087 0.0018 0.0131 0.0043 0.0168 0.0103 0.0343 0.0188 0.0534 0.0188 0.0309 0 0.0615-0.0138 0.0824-0.04l0.2907-0.3674c0.034-0.0434 0.029-0.1056-0.0119-0.1427-0.1093-0.0987-0.2229-0.2048-0.3394-0.3172z"/>
  <path d="m20.272 23.22-0.2407 0.3047c-0.1131-0.0469-0.2336-0.094-0.3597-0.1402-0.0019-9e-4 -0.0034-0.0025-0.0053-0.0034h-0.0031c-1e-3 -4e-4 -0.0022 6e-4 -0.0032 3e-4 -0.0259-0.0081-0.0524-0.0066-0.0752 4e-3 -6e-4 3e-4 -9e-4 7e-4 -0.0012 1e-3 -0.0213 0.01-0.0384 0.0284-0.0487 0.0512-0.0013 0.0028-0.0047 0.0034-6e-3 0.0062-9e-4 0.0028 0.0013 0.0053 6e-4 0.0078-0.0068 0.0244-0.0059 0.049 0.0038 0.0712 6e-4 9e-4 9e-4 0.0022 0.0016 0.0031 0.0112 0.0241 0.0315 0.0437 0.0583 0.0534 0.153 0.0559 0.296 0.1124 0.4296 0.1698 0.0131 6e-3 0.0272 0.0085 0.0412 0.0085 0.0316 0 0.0619-0.0141 0.0825-0.04l0.2906-0.3675c0.0356-0.0455 0.0281-0.1111-0.0175-0.1473-0.0455-0.0362-0.1114-0.0287-0.1476 0.0172z"/>
  <path d="m15.168 22.911c-0.2997 0.044-0.6025 0.1187-0.896 0.2217-0.0406 0.0125-0.0687 0.0531-0.0687 0.0971 0 0.0125 0 0.025 0.0031 0.034 0.016 0.044 0.0566 0.0718 0.1 0.0718 0.0124 0 0.0218-0.0031 0.0343-0.0065 0.2807-0.0996 0.5679-0.1686 0.8554-0.2092 0.0497-0.0091 0.0903-0.0531 0.0903-0.103v-0.0156c-0.0088-0.0559-0.0619-0.0996-0.1184-0.0903z"/>
  <path d="m13.436 23.51c-0.256 0.1405-0.5089 0.306-0.7587 0.4933-0.0031 0.0034-0.0066 0.0066-0.0094 0.0094-0.0031 0-0.0031 0.0031-0.0031 0.0031-0.025 0.019-0.0374 0.0499-0.0374 0.0812 0 0.0218 0.0062 0.044 0.0187 0.0624 0.0218 0.025 0.0534 0.0406 0.0846 0.0406 0.0218 0 0.0437-0.0062 0.0624-0.0215 0.2404-0.1811 0.4899-0.3438 0.7365-0.4808 0.0035 0 0.0066-0.0032 0.0094-0.0066 0.0312-0.0187 0.0499-0.0531 0.0499-0.0905 0-0.0188-0.0031-0.0341-0.0124-0.05-0.025-0.0465-0.0937-0.0684-0.1405-0.0406z"/>
  <path d="m16.988 22.843c-0.2903-0.0156-0.6119-0.0188-0.8991-0.0094h-0.0063c-0.0034 0-0.0065 0-0.0094 0.0034-0.053 0.0031-0.0967 0.0465-0.0967 0.1027v0.0035c0.0031 0.059 0.0465 0.103 0.1061 0.103h0.0031c0.3091-0.0125 0.6054-0.0094 0.8898 0.0062h0.0094c0.0562 0 0.0999-0.0437 0.103-0.0999v-0.0062c0-0.0565-0.0437-0.1002-0.0999-0.1033z"/>
  <path d="m11.971 24.606s0 0.0032-0.0031 0.0032c-0.0022 0.0021-0.0031 0.0056-0.0053 0.0078-0.0865 0.0833-0.1701 0.167-0.2504 0.2503-0.0821-0.0852-0.1676-0.1714-0.2563-0.2563v-0.0018c-0.0272-0.0253-0.0653-0.0266-0.1008-0.016-0.0169 0.0053-0.0344 0.0072-0.0475 0.0206 0 3e-4 0 3e-4 -3e-4 7e-4 -3e-4 3e-4 -9e-4 3e-4 -0.0013 6e-4 -0.0374 0.0406-0.0374 0.1061 0.0032 0.147 6e-4 7e-4 0.0018 3e-4 0.0025 1e-3 0.1136 0.1092 0.2216 0.2191 0.3243 0.3281 0.0197 0.0212 0.0475 0.0331 0.0765 0.0331 0.0291 0 0.0565-0.0119 0.0765-0.0331 0.1027-0.109 0.2108-0.2192 0.3247-0.3284 3e-4 -4e-4 0.0013-4e-4 0.0016-7e-4l0.0031-0.0034c0.0187-0.0187 0.0312-0.0465 0.0312-0.0746 0-0.0284-9e-3 -0.0531-0.0281-0.0718-0.0412-0.0406-0.1099-0.0437-0.1505-0.0063z"/>
  <path d="m18.796 23.114-0.0031-0.0032c-0.2935-0.0718-0.5901-0.1311-0.8929-0.1779h-0.0031c-0.0562-0.0094-0.1093 0.0312-0.1187 0.0874v0.0156c0 0.0531 0.0344 0.0937 0.0843 0.103l0.0034 0.0032h0.0091c0.2966 0.0437 0.5873 0.103 0.8651 0.1717 0.0094 0.0031 0.0187 0.0031 0.0281 0.0031 0.0468 0 0.0874-0.0312 0.0999-0.0781 0.0063-0.0281 0.0031-0.053-0.0125-0.078-0.0128-0.0219-0.0346-0.0409-0.0596-0.0468z"/>
 </g>
</svg>
