<svg width="311" height="370" fill="none" version="1.1" viewBox="0 0 311 370" xmlns="http://www.w3.org/2000/svg">
 <defs>
  <filter id="filter0_dddddd-0" x="0" y="0" width="450.86" height="470.86" color-interpolation-filters="sRGB" filterUnits="userSpaceOnUse">
   <feFlood flood-opacity="0" result="BackgroundImageFix"/>
   <feColorMatrix in="SourceAlpha" values="0 0 0 0 0 0 0 0 0 0 0 0 0 0 0 0 0 0 127 0"/>
   <feOffset dy="2.76726"/>
   <feGaussianBlur stdDeviation="1.1069"/>
   <feColorMatrix values="0 0 0 0 0.196078 0 0 0 0 0.0156863 0 0 0 0 0.454902 0 0 0 0.0196802 0"/>
   <feBlend in2="BackgroundImageFix" result="effect1_dropShadow"/>
   <feColorMatrix in="SourceAlpha" values="0 0 0 0 0 0 0 0 0 0 0 0 0 0 0 0 0 0 127 0"/>
   <feOffset dy="6.6501"/>
   <feGaussianBlur stdDeviation="2.66004"/>
   <feColorMatrix values="0 0 0 0 0.196078 0 0 0 0 0.0156863 0 0 0 0 0.454902 0 0 0 0.0282725 0"/>
   <feBlend in2="effect1_dropShadow" result="effect2_dropShadow"/>
   <feColorMatrix in="SourceAlpha" values="0 0 0 0 0 0 0 0 0 0 0 0 0 0 0 0 0 0 127 0"/>
   <feOffset dy="12.5216"/>
   <feGaussianBlur stdDeviation="5.00862"/>
   <feColorMatrix values="0 0 0 0 0.196078 0 0 0 0 0.0156863 0 0 0 0 0.454902 0 0 0 0.035 0"/>
   <feBlend in2="effect2_dropShadow" result="effect3_dropShadow"/>
   <feColorMatrix in="SourceAlpha" values="0 0 0 0 0 0 0 0 0 0 0 0 0 0 0 0 0 0 127 0"/>
   <feOffset dy="22.3363"/>
   <feGaussianBlur stdDeviation="8.93452"/>
   <feColorMatrix values="0 0 0 0 0.196078 0 0 0 0 0.0156863 0 0 0 0 0.454902 0 0 0 0.0417275 0"/>
   <feBlend in2="effect3_dropShadow" result="effect4_dropShadow"/>
   <feColorMatrix in="SourceAlpha" values="0 0 0 0 0 0 0 0 0 0 0 0 0 0 0 0 0 0 127 0"/>
   <feOffset dy="41.7776"/>
   <feGaussianBlur stdDeviation="16.711"/>
   <feColorMatrix values="0 0 0 0 0.196078 0 0 0 0 0.0156863 0 0 0 0 0.454902 0 0 0 0.0503198 0"/>
   <feBlend in2="effect4_dropShadow" result="effect5_dropShadow"/>
   <feColorMatrix in="SourceAlpha" values="0 0 0 0 0 0 0 0 0 0 0 0 0 0 0 0 0 0 127 0"/>
   <feOffset dy="100"/>
   <feGaussianBlur stdDeviation="40"/>
   <feColorMatrix values="0 0 0 0 0.196078 0 0 0 0 0.0156863 0 0 0 0 0.454902 0 0 0 0.07 0"/>
   <feBlend in2="effect5_dropShadow" result="effect6_dropShadow"/>
   <feBlend in="SourceGraphic" in2="effect6_dropShadow" result="shape"/>
  </filter>
  <linearGradient id="paint0_linear-5" x1="287.97" x2="188.32" y1="301.9" y2="53.527" gradientUnits="userSpaceOnUse">
   <stop stop-color="#6900AA" offset="0"/>
   <stop stop-color="#61C0FA" offset="1"/>
  </linearGradient>
 </defs>
 <g transform="translate(-60.775 4.5705)" filter="url(#filter0_dddddd-0)">
  <path d="m206.19 289.59c6.219 0.83 12.506 1.259 18.822 1.277h0.48c38.557-0.048 75.52-15.395 102.77-42.67 27.257-27.278 42.574-64.258 42.589-102.82v-1e-3c0-0.917-9e-3 -1.834-0.027-2.752-0.212-10.968-1.663-21.827-4.295-32.38-0.174-0.412-0.394-0.804-0.655-1.169-0.472-0.66-1.071-1.22-1.761-1.647-0.69-0.426-1.458-0.712-2.26-0.84-0.801-0.127-1.62-0.094-2.408 0.097-0.789 0.191-1.532 0.538-2.185 1.018-0.654 0.481-1.206 1.087-1.624 1.783-0.417 0.696-0.692 1.467-0.809 2.271-0.04 0.275-0.062 0.551-0.064 0.828 6.768 26.562 5.221 54.734-4.691 80.617-12.178 31.8-36.059 57.736-66.748 72.492-30.689 14.755-65.86 17.211-98.302 6.864-11.969-3.817-23.232-9.27-33.508-16.128-18.114-12.033-33.002-28.312-43.372-47.39-0.775-0.901-1.802-1.565-2.962-1.897-1.558-0.445-3.229-0.256-4.647 0.528-0.7239 0.359-1.3639 0.866-1.8793 1.488-0.5153 0.622-0.8946 1.345-1.1134 2.123-0.2188 0.777-0.2721 1.592-0.1567 2.392 0.0826 0.571 0.2501 1.126 0.4959 1.645 0.1853 0.338 0.3721 0.676 0.5602 1.013 12.622 22.608 31.052 41.436 53.385 54.539 16.749 9.827 35.239 16.167 54.361 18.719zm-120.31-103.2c0.1914 0.404 0.427 0.786 0.703 1.141 0.4988 0.64 1.1198 1.174 1.8269 1.572 0.7071 0.399 1.4862 0.652 2.2922 0.747s1.6227 0.028 2.4028-0.196c0.78-0.223 1.5079-0.6 2.1413-1.107 0.6335-0.507 1.1598-1.135 1.5485-1.847 0.3887-0.713 0.632-1.495 0.7159-2.302 0.0299-0.289 0.0393-0.579 0.0283-0.867-8.9412-29.916-7.1206-62.12 5.3005-90.949 13.475-31.273 38.402-56.206 69.671-69.688 31.27-13.482 66.512-14.491 98.501-2.8199 10.069 3.6733 19.575 8.5151 28.35 14.375 19.585 13.018 35.453 31.037 45.884 52.285 0.735 0.9146 1.723 1.6067 2.853 1.9809 1.538 0.5091 3.216 0.3882 4.665-0.3363 0.737-0.3294 1.398-0.8097 1.938-1.41 0.541-0.6003 0.949-1.3071 1.2-2.0751 0.251-0.7679 0.337-1.5798 0.255-2.3833-0.059-0.5746-0.204-1.1358-0.428-1.6653-1.937-3.9067-4.053-7.734-6.344-11.469-13.541-22.07-32.729-40.125-55.581-52.3-22.67-12.077-48.132-17.933-73.793-16.977-0.166 0.006172-0.331 0.012626-0.497 0.019363-0.042 0.001699-0.084 0.003416-0.125 0.005151-38.526 1.6313-74.83 18.484-100.94 46.858-26.112 28.375-39.898 65.953-38.328 104.48 8e-4 0.02 0.0016 0.039 0.0024 0.059 0.4966 11.842 2.4376 23.549 5.7595 34.867z" clip-rule="evenodd" fill="url(#paint0_linear-5)" fill-rule="evenodd"/>
 </g>
</svg>
