<svg width="24" height="24" fill="none" version="1.1" viewBox="0 0 24 24" xmlns="http://www.w3.org/2000/svg">
 <path d="m21 10c0 7-9 13-9 13s-9-6-9-13c0-2.387 0.94821-4.6761 2.636-6.364s3.977-2.636 6.364-2.636c2.3869 0 4.6761 0.94821 6.364 2.636 1.6878 1.6878 2.636 3.977 2.636 6.364z" stroke="#0d0d30" stroke-linecap="round" stroke-linejoin="round" stroke-width="2"/>
 <path d="m12 13c1.6569 0 3-1.3431 3-3 0-1.6568-1.3431-3-3-3-1.6568 0-3 1.3432-3 3 0 1.6569 1.3432 3 3 3z" stroke="#0d0d30" stroke-linecap="round" stroke-linejoin="round" stroke-width="2"/>
</svg>
