<svg width="32" height="32" fill="none" version="1.1" viewBox="0 0 32 32" xmlns="http://www.w3.org/2000/svg">
 <g fill="#0d0d30">
  <path d="m16 1.9169c-2.7853 0-5.5081 0.82596-7.8241 2.3734-2.3159 1.5475-4.121 3.7469-5.1869 6.3203s-1.3448 5.405-0.80141 8.1368c0.5434 2.7319 1.8847 5.2413 3.8542 7.2108 1.9696 1.9696 4.4789 3.3108 7.2108 3.8542 2.7318 0.5434 5.5635 0.2645 8.1368-0.8014s4.7728-2.8709 6.3203-5.1869c1.5475-2.3159 2.3734-5.0388 2.3734-7.8241-0.0041-3.7338-1.4892-7.3135-4.1294-9.9537s-6.2199-4.1253-9.9537-4.1294zm0 26.914c-2.5377 0-5.0185-0.7525-7.1286-2.1624-2.1101-1.41-3.7547-3.4139-4.7259-5.7585-0.97117-2.3446-1.2253-4.9246-0.73018-7.4136 0.4951-2.489 1.7172-4.7753 3.5116-6.5698 1.7945-1.7945 4.0808-3.0165 6.5698-3.5116 2.489-0.49509 5.0689-0.24099 7.4135 0.73017 2.3446 0.97117 4.3486 2.6158 5.7585 4.7259s2.1625 4.5909 2.1625 7.1287c0 1.685-0.3319 3.3535-0.9767 4.9103-0.6449 1.5567-1.59 2.9712-2.7815 4.1627s-2.606 2.1367-4.1628 2.7815c-1.5567 0.6448-3.2252 0.9767-4.9103 0.9767z"/>
  <path d="m20.349 8.7707c-1.0184-0.68445-2.2156-1.0545-3.4426-1.064-3.383 0-6.2122 2.8166-6.885 6.5721h-2.0467c-0.1661 0-0.3253 0.066-0.4426 0.1833-0.1174 0.1174-0.1834 0.2766-0.1834 0.4426s0.066 0.3252 0.1834 0.4426c0.1173 0.1174 0.2765 0.1833 0.4426 0.1833h1.8777v0.4695c0 0.2629 0 0.5257 0.0313 0.7824h-1.909c-0.1661 0-0.3253 0.0659-0.4426 0.1833-0.1174 0.1174-0.1834 0.2766-0.1834 0.4426s0.066 0.3252 0.1834 0.4426c0.1173 0.1174 0.2765 0.1833 0.4426 0.1833h2.0936c0.7699 3.5927 3.5396 6.2591 6.8256 6.2591 1.133-0.0048 2.2431-0.3186 3.211-0.9075 0.0705-0.0426 0.1319-0.0986 0.1807-0.1648 0.0488-0.0663 0.0842-0.1416 0.1039-0.2215 0.0198-0.0799 0.0236-0.1629 0.0113-0.2443s-0.0406-0.1596-0.0831-0.2301c-0.0426-0.0704-0.0986-0.1319-0.1648-0.1807-0.0663-0.0488-0.1415-0.0842-0.2215-0.1039-0.0799-0.0198-0.1629-0.0236-0.2443-0.0113-0.0814 0.0124-0.1596 0.0406-0.2301 0.0831-0.7702 0.4759-1.6576 0.7284-2.5631 0.7292-2.61 0-4.8226-2.1124-5.5424-5.0073h6.6378c0.166 0 0.3252-0.0659 0.4426-0.1833 0.1173-0.1174 0.1833-0.2766 0.1833-0.4426s-0.066-0.3252-0.1833-0.4426c-0.1174-0.1174-0.2766-0.1833-0.4426-0.1833h-6.8475c-0.0376-0.2567-0.0376-0.5164-0.0376-0.7824v-0.4695h6.8851c0.166 0 0.3252-0.0659 0.4426-0.1833 0.1173-0.1174 0.1833-0.2766 0.1833-0.4426s-0.066-0.3252-0.1833-0.4426c-0.1174-0.1173-0.2766-0.1833-0.4426-0.1833h-6.7098c0.6259-3.0544 2.9105-5.3202 5.6144-5.3202 0.9853 0.00563 1.9469 0.30292 2.7634 0.85437 0.0684 0.0495 0.146 0.08467 0.2282 0.10342 0.0823 0.01874 0.1675 0.02066 0.2505 0.00564 0.083-0.01501 0.1621-0.04665 0.2326-0.09302 0.0705-0.04636 0.1308-0.1065 0.1775-0.17679 0.0466-0.07029 0.0786-0.14928 0.0939-0.23223 0.0154-0.08296 0.0138-0.16816-0.0046-0.25048-0.0184-0.08233-0.0533-0.16009-0.1025-0.2286s-0.1118-0.12637-0.1839-0.17009z"/>
 </g>
</svg>
