<svg width="28" height="29" viewBox="0 0 28 29" fill="none" xmlns="http://www.w3.org/2000/svg">
<g filter="url(#filter0_d)">
<path d="M14.0007 0.47998C8.26848 0.47998 3.60498 5.14348 3.60498 10.8757C3.60498 16.6079 8.26848 21.2714 14.0007 21.2714C19.7329 21.2714 24.3964 16.6079 24.3964 10.8757C24.3964 5.14348 19.7329 0.47998 14.0007 0.47998ZM14.0007 20.6414C8.6158 20.6414 4.23502 16.2606 4.23502 10.8757C4.23502 5.4908 8.6158 1.11002 14.0007 1.11002C19.3856 1.11002 23.7664 5.4908 23.7664 10.8757C23.7664 16.2606 19.3856 20.6414 14.0007 20.6414Z" fill="#0D0D30"/>
<path d="M14.0002 7.00991C14.9791 7.00991 15.7755 7.80608 15.7755 8.78499C15.7755 8.95911 15.9164 9.10001 16.0906 9.10001C16.2647 9.10001 16.4056 8.95911 16.4056 8.78499C16.4056 7.56662 15.4916 6.56788 14.3152 6.41171V5.83504C14.3152 5.66092 14.1743 5.52002 14.0002 5.52002C13.826 5.52002 13.6851 5.66092 13.6851 5.83504V6.41171C12.5087 6.56788 11.5947 7.56662 11.5947 8.78499C11.5947 10.1112 12.6739 11.1904 14.0002 11.1904C14.9791 11.1904 15.7755 11.9869 15.7755 12.9658C15.7755 13.9447 14.9791 14.7409 14.0002 14.7409C13.0212 14.7409 12.2248 13.9447 12.2248 12.9658C12.2248 12.7917 12.0839 12.6508 11.9097 12.6508C11.7356 12.6508 11.5947 12.7917 11.5947 12.9658C11.5947 14.1842 12.5087 15.1829 13.6851 15.3391V15.9157C13.6851 16.0899 13.826 16.2308 14.0002 16.2308C14.1743 16.2308 14.3152 16.0899 14.3152 15.9157V15.3391C15.4916 15.1829 16.4056 14.1842 16.4056 12.9658C16.4056 11.6396 15.3264 10.5604 14.0002 10.5604C13.0212 10.5604 12.2248 9.7639 12.2248 8.78499C12.2248 7.80608 13.0212 7.00991 14.0002 7.00991Z" fill="#0D0D30"/>
</g>
<defs>
<filter id="filter0_d" x="0.161915" y="0.47998" width="27.6776" height="27.6776" filterUnits="userSpaceOnUse" color-interpolation-filters="sRGB">
<feFlood flood-opacity="0" result="BackgroundImageFix"/>
<feColorMatrix in="SourceAlpha" type="matrix" values="0 0 0 0 0 0 0 0 0 0 0 0 0 0 0 0 0 0 127 0" result="hardAlpha"/>
<feOffset dy="3.44307"/>
<feGaussianBlur stdDeviation="1.72153"/>
<feComposite in2="hardAlpha" operator="out"/>
<feColorMatrix type="matrix" values="0 0 0 0 0 0 0 0 0 0 0 0 0 0 0 0 0 0 0.25 0"/>
<feBlend mode="normal" in2="BackgroundImageFix" result="effect1_dropShadow"/>
<feBlend mode="normal" in="SourceGraphic" in2="effect1_dropShadow" result="shape"/>
</filter>
</defs>
</svg>
