<svg width="40" height="39" fill="none" version="1.1" viewBox="0 0 40 39" xmlns="http://www.w3.org/2000/svg">
    <path d="m29.477 15.076c-0.1018-0.4071-0.3094-0.7801-0.6016-1.0813-0.2921-0.3012-0.6586-0.52-1.0624-0.6342-1.4754-0.3603-7.3768-0.3603-7.3768-0.3603s-5.9015 0-7.3769 0.3946c-0.4038 0.1142-0.7703 0.333-1.0624 0.6342-0.2922 0.3012-0.4997 0.6742-0.6016 1.0813-0.27 1.4973-0.4021 3.0162-0.3946 4.5376-0.0096 1.5329 0.1225 3.0634 0.3946 4.5719 0.1123 0.3945 0.3245 0.7533 0.616 1.0418s0.6525 0.4969 1.048 0.6051c1.4754 0.3946 7.3769 0.3946 7.3769 0.3946s5.9014 0 7.3768-0.3946c0.4038-0.1142 0.7703-0.333 1.0624-0.6342 0.2922-0.3012 0.4998-0.6742 0.6016-1.0813 0.268-1.486 0.4-2.9933 0.3946-4.5033 0.0096-1.5329-0.1224-3.0633-0.3946-4.5719v0z" stroke="#FF7882" stroke-linecap="round" stroke-linejoin="round"/>
    <path d="m18.507 22.453 4.9322-2.8049-4.9322-2.8049v5.6098z" stroke="#FF7882" stroke-linecap="round" stroke-linejoin="round"/>
</svg>
