<svg width="32" height="32" fill="none" version="1.1" viewBox="0 0 32 32" xmlns="http://www.w3.org/2000/svg">
 <path d="m18.429 6.05c-4.1492 0-7.5341 3.3849-7.5341 7.5342 0 1.8835 0.68245 3.6032 1.829 4.9135l-2.7844 2.8117-2.9754-2.9482c-0.21838-0.2183-0.54595-0.2183-0.76434 0-0.21838 0.2184-0.21838 0.546 0 0.7644l2.9481 2.9481-2.3476 2.3476c-0.21838 0.2184-0.21838 0.546 0 0.7644 0.10919 0.1092 0.24568 0.1638 0.38217 0.1638s0.27298-0.0546 0.38217-0.1638l2.3476-2.3476 2.9482 2.9481c0.10919 0.1092 0.24568 0.1638 0.38217 0.1638 0.13648 0 0.27297-0.0546 0.38216-0.1638 0.21838-0.2184 0.21838-0.5459 0-0.7643l-2.9208-2.9482 2.8117-2.7843c1.3103 1.1465 3.03 1.8289 4.9135 1.8289 4.1493 0 7.5342-3.3849 7.5342-7.5341 0-4.1492-3.3849-7.5342-7.5342-7.5342zm0 13.976c-3.5486 0-6.4422-2.8935-6.4422-6.4422 0-3.5487 2.8936-6.4422 6.4422-6.4422 3.5487 0 6.4423 2.8936 6.4423 6.4422 0 3.5487-2.8936 6.4422-6.4423 6.4422z" fill="#0d0d30"/>
</svg>
