<svg width="27" height="25" viewBox="0 0 27 25" fill="none" xmlns="http://www.w3.org/2000/svg">
<path d="M16.6195 10.7855C16.6936 10.9887 16.732 11.1804 16.7398 11.3616C16.7535 11.3479 16.7673 11.336 16.7801 11.3259C17.6074 10.6643 18.5285 10.6624 19.5099 10.6611C20.1432 10.6602 20.8035 10.6592 21.4652 10.468C21.1641 10.2346 20.9289 9.9555 20.6955 9.67821C20.3038 9.21332 19.9172 8.75391 19.224 8.58781C18.7765 8.96119 18.3029 9.23162 17.832 9.50067C17.6321 9.61506 17.4326 9.729 17.2555 9.83836C17.2088 9.93719 17.1589 10.0342 17.1063 10.128C16.9672 10.3746 16.8075 10.5993 16.6195 10.7855ZM13.3108 13.3035L13.6306 12.727H12.9909L13.3108 13.3035ZM13.6672 13.131L13.411 13.5927C13.4009 13.6115 13.3858 13.6275 13.3657 13.6385C13.3108 13.6691 13.2412 13.6495 13.2106 13.5941L12.7013 12.6762C12.6889 12.6579 12.6821 12.6364 12.6821 12.6126C12.6821 12.5495 12.7333 12.4982 12.7965 12.4982H13.8242V12.4987C13.8429 12.4987 13.8621 12.5033 13.8795 12.5129C13.9344 12.5435 13.9546 12.6131 13.9239 12.668L13.6672 13.131ZM9.19399 12.2251C9.25668 12.2319 9.30198 12.2882 9.29511 12.3509C9.28825 12.4136 9.23197 12.4589 9.16928 12.452C8.44861 12.371 8.03222 12.0649 7.58608 11.7368L7.58288 11.7345C7.53209 11.6975 7.52111 11.6256 7.55817 11.5748C7.59524 11.5241 7.66707 11.5131 7.71786 11.5501L7.72107 11.5524C8.14203 11.8622 8.53463 12.1505 9.19445 12.2246L9.19399 12.2251ZM17.3914 12.5055C17.3287 12.5124 17.2724 12.4671 17.2656 12.4044C17.2587 12.3417 17.304 12.2855 17.3667 12.2786C18.0265 12.2045 18.4191 11.9157 18.8401 11.6064L18.8433 11.6041C18.8941 11.5671 18.9654 11.578 19.003 11.6288C19.04 11.6796 19.029 11.751 18.9783 11.7885L18.975 11.7908C18.5289 12.1189 18.1125 12.425 17.3918 12.506L17.3914 12.5055ZM0.704661 15.6486C0.835526 15.7333 0.928871 15.9625 0.994304 16.2434C1.10504 16.7198 1.17779 17.3878 1.17779 17.5338C1.17779 17.6962 1.1119 17.8436 1.00529 17.9502C0.898671 18.0568 0.751791 18.1227 0.588895 18.1227C0.426457 18.1227 0.279119 18.0568 0.172505 17.9502C0.0658903 17.8436 0 17.6967 0 17.5338C0 17.3878 0.0736691 16.7202 0.185317 16.2439C0.251207 15.9625 0.345467 15.7328 0.476332 15.6481L0.477705 13.8288C0.361024 13.806 0.256698 13.7483 0.175708 13.6678C0.0690933 13.5612 0.003203 13.4143 0.003203 13.2514C0.003203 13.0889 0.0690933 12.9416 0.175708 12.835C0.256698 12.754 0.361482 12.6964 0.47862 12.6735L0.479535 11.724C0.36377 11.7007 0.259901 11.6435 0.179368 11.5629C0.0727539 11.4563 0.00686358 11.3095 0.00686358 11.1466C0.00686358 10.9841 0.0727539 10.8368 0.179368 10.7302C0.259901 10.6496 0.36377 10.592 0.479993 10.5691L0.481366 8.96897C0.481366 8.95525 0.483653 8.94243 0.488229 8.93008C0.485484 8.92276 0.483196 8.91498 0.481823 8.90674C0.478163 8.88981 0.477247 8.87334 0.478163 8.85687C0.47496 8.79189 0.506074 8.72783 0.565559 8.69168C0.930244 8.46976 1.14027 8.176 1.35029 7.88315C1.36585 7.86165 1.35716 7.874 1.35029 7.88315L1.38004 7.84197L1.34984 7.79988C1.14118 7.5084 0.932074 7.21647 0.57105 6.99501C0.502871 6.95703 0.463978 6.87787 0.481366 6.79734C0.502414 6.6985 0.599419 6.63536 0.697797 6.6564C1.1938 6.76302 1.70903 6.69804 2.22426 6.63261C3.33753 6.49168 4.4508 6.35075 5.52243 7.73627C5.53067 7.74634 5.53753 7.75686 5.54348 7.76785C5.54531 7.77151 5.54714 7.77471 5.54852 7.77837C5.55813 7.79988 5.56316 7.82321 5.56407 7.84609C5.56407 7.85021 5.56407 7.85387 5.56407 7.85799C5.56316 7.88087 5.55813 7.90374 5.54852 7.92571C5.54669 7.92937 5.54531 7.93303 5.54348 7.93623C5.53753 7.94721 5.53067 7.95774 5.52243 7.9678C4.4508 9.35333 3.33753 9.2124 2.22426 9.07147C1.71269 9.00649 1.20113 8.94198 0.708779 9.04539L0.707406 10.5686C0.825002 10.5915 0.929786 10.6492 1.01123 10.7302C1.11785 10.8368 1.18374 10.9837 1.18374 11.1466C1.18374 11.309 1.11785 11.4563 1.01123 11.5629C0.929786 11.6444 0.824544 11.702 0.706491 11.7249L0.705576 12.6739C0.822257 12.6968 0.926583 12.7545 1.00757 12.835C1.11419 12.9416 1.18008 13.0885 1.18008 13.2514C1.18008 13.4138 1.11419 13.5612 1.00757 13.6678C0.926583 13.7488 0.821799 13.8064 0.704661 13.8293L0.703288 15.6486H0.704661ZM0.638313 16.3263C0.592556 16.1295 0.614977 15.9794 0.590725 15.9794C0.566474 15.9794 0.58798 16.13 0.541765 16.3267C0.436524 16.777 0.366515 17.3993 0.366515 17.5333C0.366515 17.5947 0.391224 17.6505 0.43149 17.6907C0.471757 17.731 0.52758 17.7557 0.588895 17.7557C0.65021 17.7557 0.706033 17.731 0.7463 17.6907C0.786566 17.6505 0.811275 17.5947 0.811275 17.5333C0.811275 17.3988 0.742639 16.7761 0.637855 16.3258L0.638313 16.3263ZM0.74996 13.0944C0.709694 13.0542 0.65387 13.0295 0.592556 13.0295C0.531241 13.0295 0.475417 13.0542 0.435151 13.0944C0.394884 13.1347 0.370176 13.1905 0.370176 13.2518C0.370176 13.3132 0.394884 13.369 0.435151 13.4092C0.475417 13.4495 0.531241 13.4742 0.592556 13.4742C0.65387 13.4742 0.709694 13.4495 0.74996 13.4092C0.790227 13.369 0.814935 13.3132 0.814935 13.2518C0.814935 13.1905 0.790227 13.1347 0.74996 13.0944ZM0.753621 10.9901C0.713355 10.9498 0.657531 10.9251 0.596216 10.9251C0.534901 10.9251 0.479078 10.9498 0.438811 10.9901C0.398545 11.0303 0.373836 11.0862 0.373836 11.1475C0.373836 11.2088 0.398545 11.2646 0.438811 11.3049C0.479078 11.3451 0.534901 11.3699 0.596216 11.3699C0.657531 11.3699 0.713355 11.3451 0.753621 11.3049C0.793887 11.2646 0.818596 11.2088 0.818596 11.1475C0.818596 11.0862 0.793887 11.0303 0.753621 10.9901ZM26.3685 15.4853C26.4994 15.5699 26.5927 15.7991 26.6581 16.0801C26.7689 16.5564 26.8416 17.2245 26.8416 17.3704C26.8416 17.5329 26.7757 17.6802 26.6691 17.7868C26.5625 17.8935 26.4156 17.9593 26.2527 17.9593C26.0903 17.9593 25.943 17.8935 25.8363 17.7868C25.7297 17.6802 25.6638 17.5333 25.6638 17.3704C25.6638 17.2245 25.7375 16.5569 25.8491 16.0806C25.915 15.7991 26.0093 15.5694 26.1402 15.4848L26.1415 13.6655C26.0249 13.6426 25.9205 13.585 25.8395 13.5044C25.7329 13.3978 25.667 13.2509 25.667 13.088C25.667 12.9256 25.7329 12.7783 25.8395 12.6716C25.9205 12.5907 26.0253 12.533 26.1425 12.5101L26.1434 11.5607C26.0276 11.5373 25.9237 11.4801 25.8432 11.3996C25.7366 11.293 25.6707 11.1461 25.6707 10.9832C25.6707 10.8208 25.7366 10.6734 25.8432 10.5668C25.9237 10.4863 26.0276 10.4286 26.1438 10.4057L26.1447 9.03395C25.6501 8.92825 25.1363 8.99368 24.6224 9.05866C23.5091 9.19959 22.3959 9.34052 21.3242 7.95499C21.316 7.94493 21.3091 7.9344 21.3032 7.92342C21.3013 7.91976 21.2995 7.91656 21.2981 7.9129C21.2885 7.89139 21.2835 7.86805 21.2826 7.84518C21.2826 7.84106 21.2826 7.8374 21.2826 7.83328C21.2835 7.8104 21.2885 7.78752 21.2981 7.76556C21.3 7.7619 21.3013 7.75824 21.3032 7.75503C21.3091 7.74405 21.316 7.73353 21.3242 7.72346C22.3959 6.33793 23.5091 6.47887 24.6224 6.6198C25.1376 6.68523 25.6533 6.75021 26.1489 6.64359C26.2477 6.62254 26.3447 6.68569 26.3653 6.78452C26.3822 6.86506 26.3438 6.94422 26.2756 6.9822C25.915 7.20366 25.7055 7.49559 25.4968 7.78706L25.4666 7.82916L25.4964 7.87034C25.49 7.86119 25.4808 7.84884 25.4964 7.87034C25.7064 8.16319 25.9169 8.45695 26.2811 8.67887C26.2953 8.68756 26.3076 8.69763 26.3186 8.70907C26.3506 8.7292 26.3722 8.76489 26.3722 8.80562L26.3708 10.4053C26.4884 10.4282 26.5932 10.4858 26.6746 10.5668C26.7812 10.6734 26.8471 10.8203 26.8471 10.9832C26.8471 11.1456 26.7812 11.293 26.6746 11.3996C26.5932 11.481 26.4879 11.5387 26.3699 11.5616L26.3689 12.5106C26.4856 12.5335 26.59 12.5911 26.6709 12.6716C26.7776 12.7783 26.8435 12.9251 26.8435 13.088C26.8435 13.2505 26.7776 13.3978 26.6709 13.5044C26.59 13.5854 26.4852 13.6431 26.368 13.6659L26.3667 15.4853H26.3685ZM26.3021 16.1629C26.2564 15.9662 26.2788 15.8161 26.2546 15.8161C26.2303 15.8161 26.2518 15.9666 26.2056 16.1638C26.1004 16.6141 26.0303 17.2364 26.0303 17.3704C26.0303 17.4318 26.0551 17.4876 26.0953 17.5279C26.1356 17.5681 26.1914 17.5928 26.2527 17.5928C26.314 17.5928 26.3699 17.5681 26.4101 17.5279C26.4504 17.4876 26.4751 17.4318 26.4751 17.3704C26.4751 17.2359 26.4065 16.6132 26.3017 16.1629H26.3021ZM26.4138 12.9311C26.3735 12.8908 26.3177 12.8661 26.2564 12.8661C26.1951 12.8661 26.1392 12.8908 26.099 12.9311C26.0587 12.9714 26.034 13.0272 26.034 13.0885C26.034 13.1498 26.0587 13.2056 26.099 13.2459C26.1392 13.2862 26.1951 13.3109 26.2564 13.3109C26.3177 13.3109 26.3735 13.2862 26.4138 13.2459C26.4541 13.2056 26.4788 13.1498 26.4788 13.0885C26.4788 13.0272 26.4541 12.9714 26.4138 12.9311ZM26.4175 10.8267C26.3772 10.7864 26.3214 10.7617 26.26 10.7617C26.1987 10.7617 26.1429 10.7864 26.1026 10.8267C26.0624 10.867 26.0377 10.9228 26.0377 10.9841C26.0377 11.0454 26.0624 11.1013 26.1026 11.1415C26.1429 11.1818 26.1987 11.2065 26.26 11.2065C26.3214 11.2065 26.3772 11.1818 26.4175 11.1415C26.4577 11.1013 26.4824 11.0454 26.4824 10.9841C26.4824 10.9228 26.4577 10.867 26.4175 10.8267ZM17.2843 16.8708C17.223 16.8708 17.1672 16.8955 17.1269 16.9358C17.0866 16.976 17.0619 17.0318 17.0619 17.0932C17.0619 17.1545 17.0866 17.2103 17.1269 17.2506C17.1672 17.2908 17.223 17.3155 17.2843 17.3155C17.3456 17.3155 17.4015 17.2908 17.4417 17.2506C17.482 17.2103 17.5067 17.1545 17.5067 17.0932C17.5067 17.0318 17.482 16.976 17.4417 16.9358C17.4015 16.8955 17.3456 16.8708 17.2843 16.8708ZM16.8679 16.6772C16.9745 16.5706 17.1214 16.5047 17.2843 16.5047C17.4207 16.5047 17.5461 16.5509 17.6458 16.6287C18.2269 16.0462 18.7563 15.2006 19.2253 14.2901C19.7099 13.3484 20.13 12.3376 20.4768 11.4728C20.3139 11.6005 20.156 11.7345 19.9982 11.8686C18.9947 12.7197 17.9958 13.5667 15.8613 12.9947C15.5744 13.2386 15.2394 13.4655 14.8898 13.6888C14.7681 13.7666 14.6771 13.8224 14.5933 13.8741C14.0658 14.1981 13.8109 14.3546 13.4924 15.165V15.1654C14.1133 16.2311 14.705 16.8699 15.2641 17.1815C15.778 17.4679 16.2667 17.4748 16.727 17.2831C16.7069 17.2236 16.6959 17.16 16.6959 17.0936C16.6959 16.9312 16.7618 16.7838 16.8684 16.6772H16.8679ZM17.7954 16.8017C17.8444 16.8877 17.8728 16.987 17.8728 17.0932C17.8728 17.2556 17.8069 17.4029 17.7003 17.5096C17.5936 17.6162 17.4468 17.6821 17.2839 17.6821C17.1214 17.6821 16.9741 17.6162 16.8675 17.5096C16.8588 17.5009 16.8501 17.4917 16.8418 17.4821C16.3106 17.7127 15.746 17.7113 15.1525 17.3801C14.6016 17.0726 14.0269 16.4768 13.4329 15.5109L13.432 16.5148C13.5496 16.5377 13.6544 16.5953 13.7358 16.6763C13.8425 16.7829 13.9084 16.9298 13.9084 17.0927C13.9084 17.2551 13.8425 17.4025 13.7358 17.5091C13.6544 17.5905 13.5492 17.6482 13.4311 17.6711L13.4302 18.6201C13.5469 18.643 13.6512 18.7006 13.7322 18.7811C13.8388 18.8878 13.9047 19.0346 13.9047 19.1975C13.9047 19.36 13.8388 19.5073 13.7322 19.6139C13.6512 19.6949 13.5464 19.7526 13.4293 19.7754L13.4279 21.4973C13.6045 21.5938 13.7358 21.9224 13.831 22.3314C13.9935 23.0288 14.0996 24.0048 14.0996 24.2176C14.0996 24.4335 14.0122 24.6289 13.8704 24.7708C13.729 24.9121 13.5331 25 13.3172 25C13.1012 25 12.9058 24.9126 12.764 24.7708C12.6226 24.6294 12.5347 24.4335 12.5347 24.2176C12.5347 24.0048 12.6427 23.0292 12.8056 22.3324C12.8994 21.9315 13.028 21.6076 13.1991 21.5037L13.2005 19.775C13.0838 19.7521 12.9795 19.6945 12.8985 19.6139C12.7919 19.5073 12.726 19.3604 12.726 19.1975C12.726 19.0351 12.7919 18.8878 12.8985 18.7811C12.9795 18.7002 13.0843 18.6425 13.2014 18.6196L13.2023 17.6702C13.0866 17.6468 12.9827 17.5896 12.9022 17.5091C12.7955 17.4025 12.7296 17.2556 12.7296 17.0927C12.7296 16.9303 12.7955 16.7829 12.9022 16.6763C12.9827 16.5958 13.0866 16.5381 13.2028 16.5152L13.2037 15.5191C12.6116 16.4805 12.0387 17.0735 11.4892 17.3801C10.8957 17.7113 10.3311 17.7123 9.79982 17.4821C9.79158 17.4912 9.78289 17.5004 9.77419 17.5096C9.66758 17.6162 9.5207 17.6821 9.3578 17.6821C9.19536 17.6821 9.04803 17.6162 8.94141 17.5096C8.8348 17.4029 8.76891 17.2561 8.76891 17.0932C8.76891 16.987 8.79682 16.8877 8.84624 16.8017C8.24133 16.1991 7.69499 15.3292 7.21362 14.3944C6.80684 13.6046 6.44627 12.7686 6.13558 12.0091L6.13512 12.7911C6.25272 12.8139 6.3575 12.8716 6.43895 12.9526C6.54557 13.0592 6.61146 13.2061 6.61146 13.369C6.61146 13.5314 6.54557 13.6788 6.43895 13.7854C6.3575 13.8668 6.25226 13.9245 6.13421 13.9474L6.13329 14.8964C6.24997 14.9192 6.3543 14.9769 6.43529 15.0574C6.5419 15.164 6.6078 15.3109 6.6078 15.4738C6.6078 15.6363 6.5419 15.7836 6.43529 15.8902C6.3543 15.9712 6.24952 16.0288 6.13238 16.0517L6.13101 17.871C6.26187 17.9557 6.35522 18.1849 6.42065 18.4659C6.53138 18.9422 6.60413 19.6103 6.60413 19.7562C6.60413 19.9187 6.53824 20.066 6.43163 20.1726C6.32502 20.2792 6.17813 20.3451 6.01524 20.3451C5.8528 20.3451 5.70546 20.2792 5.59885 20.1726C5.49223 20.066 5.42634 19.9191 5.42634 19.7562C5.42634 19.6103 5.50001 18.9427 5.61166 18.4663C5.67755 18.1849 5.77181 17.9552 5.90268 17.8706L5.90405 16.0513C5.78737 16.0284 5.68304 15.9707 5.60205 15.8902C5.49544 15.7836 5.42955 15.6367 5.42955 15.4738C5.42955 15.3114 5.49544 15.164 5.60205 15.0574C5.68304 14.9764 5.78783 14.9188 5.90496 14.8959L5.90588 13.9464C5.79011 13.9231 5.68625 13.8659 5.60571 13.7854C5.4991 13.6788 5.43321 13.5319 5.43321 13.369C5.43321 13.2065 5.4991 13.0592 5.60571 12.9526C5.68625 12.8721 5.79011 12.8144 5.90634 12.7915L5.90725 11.4298C5.9068 11.4257 5.90725 11.4216 5.90725 11.4174V11.2806C5.62447 11.0807 5.32202 10.9072 4.97792 10.7901C4.95322 10.7823 4.92851 10.7746 4.9038 10.7659C4.83882 10.7457 4.77202 10.7274 4.70384 10.7114C4.60546 10.6885 4.5446 10.5901 4.56748 10.4918C4.58029 10.4378 4.61553 10.3948 4.66128 10.371C5.08088 10.1385 5.3751 9.7894 5.66657 9.44347C6.05459 8.9827 6.43804 8.52787 7.10014 8.30046C6.37947 7.58848 5.75076 6.52737 5.3481 4.6527C5.23599 4.24454 5.22089 3.94529 5.27397 3.73801C5.31607 3.57283 5.39981 3.45798 5.51328 3.38751C5.62585 3.31796 5.75946 3.29691 5.90451 3.31796C6.10767 3.34725 6.34057 3.46347 6.56433 3.64101C6.64257 3.69683 6.76062 3.78285 6.87914 3.86933C6.95372 3.92333 7.0283 3.97778 7.10289 4.03177C7.18983 3.45249 7.45568 2.98897 7.71832 2.53094C7.7714 2.43851 7.82448 2.34608 7.84965 2.30078C8.00476 2.02303 8.06836 1.82628 8.137 1.61442C8.17727 1.48996 8.21936 1.36093 8.28297 1.20352C8.38226 0.957805 8.52273 0.849818 8.68654 0.831515C8.83754 0.814585 8.9858 0.882763 9.12902 0.989378C9.36787 1.16783 9.74216 1.46937 10.1068 1.88439C10.2574 1.40851 10.6669 1.09416 11.0549 0.796282C11.346 0.572987 11.6232 0.360216 11.7184 0.116788C11.7358 0.0719463 11.771 0.0335103 11.8191 0.0138347C11.9124 -0.0246014 12.019 0.0202407 12.057 0.113128C12.1678 0.381722 12.3942 0.548736 12.6244 0.718953C12.8871 0.913421 13.1538 1.11063 13.3185 1.45198C13.4833 1.11109 13.75 0.913421 14.0127 0.718953C14.2428 0.548736 14.4689 0.381265 14.5801 0.113128C14.6185 0.0197831 14.7251 -0.0246014 14.818 0.0138347C14.8661 0.0335103 14.9013 0.0719463 14.9187 0.116788C15.0134 0.360216 15.2907 0.572987 15.5822 0.796282C15.9706 1.09416 16.3802 1.40851 16.5307 1.88485C16.8954 1.46937 17.2692 1.16783 17.5081 0.989378C17.6513 0.882763 17.7995 0.814585 17.9505 0.831515C18.1148 0.850276 18.2553 0.957805 18.3541 1.20352C18.4177 1.36093 18.4598 1.49042 18.5001 1.61442C18.5687 1.82582 18.6328 2.02257 18.7874 2.30078C18.8126 2.34608 18.8657 2.43851 18.9188 2.53094C19.1814 2.98897 19.4473 3.45294 19.5342 4.03177C19.6088 3.97778 19.6834 3.92333 19.758 3.86933C19.8765 3.78285 19.9945 3.69683 20.0728 3.64101C20.2965 3.46347 20.5294 3.34725 20.7326 3.31796C20.8776 3.29691 21.0112 3.3175 21.1238 3.38751C21.2373 3.45798 21.321 3.57283 21.3631 3.73801C21.4162 3.94529 21.4011 4.24454 21.289 4.6527C20.8863 6.52691 20.2572 7.58848 19.5369 8.30046C20.1995 8.52787 20.583 8.98316 20.971 9.44347C21.2624 9.7894 21.5567 10.139 21.9763 10.371C22.022 10.3948 22.0573 10.4378 22.0701 10.4918C22.0929 10.5901 22.0316 10.6885 21.9337 10.7114C21.8655 10.7274 21.7987 10.7457 21.7337 10.7659C21.709 10.7741 21.6843 10.7823 21.6596 10.7901C21.3746 10.8871 21.1183 11.0226 20.8781 11.18L20.8767 12.7645C20.9943 12.7874 21.0991 12.8451 21.1805 12.9261C21.2872 13.0327 21.353 13.1795 21.353 13.3424C21.353 13.5049 21.2872 13.6522 21.1805 13.7588C21.0991 13.8403 20.9939 13.8979 20.8758 13.9208L20.8749 14.8698C20.9916 14.8927 21.0959 14.9504 21.1769 15.0309C21.2835 15.1375 21.3494 15.2844 21.3494 15.4473C21.3494 15.6097 21.2835 15.757 21.1769 15.8637C21.0959 15.9447 20.9911 16.0023 20.874 16.0252L20.8726 17.8445C21.0035 17.9291 21.0968 18.1584 21.1622 18.4393C21.273 18.9157 21.3457 19.5837 21.3457 19.7297C21.3457 19.8921 21.2798 20.0395 21.1732 20.1461C21.0666 20.2527 20.9197 20.3186 20.7568 20.3186C20.5944 20.3186 20.4471 20.2527 20.3404 20.1461C20.2338 20.0395 20.1679 19.8926 20.1679 19.7297C20.1679 19.5837 20.2416 18.9161 20.3533 18.4398C20.4191 18.1584 20.5134 17.9287 20.6443 17.844L20.6456 16.0247C20.529 16.0019 20.4246 15.9442 20.3436 15.8637C20.237 15.757 20.1711 15.6102 20.1711 15.4473C20.1711 15.2848 20.237 15.1375 20.3436 15.0309C20.4246 14.9499 20.5294 14.8922 20.6466 14.8694L20.6475 13.9199C20.5317 13.8966 20.4278 13.8394 20.3473 13.7588C20.2407 13.6522 20.1748 13.5053 20.1748 13.3424C20.1748 13.18 20.2407 13.0327 20.3473 12.9261C20.4278 12.8455 20.5317 12.7879 20.6479 12.765L20.6488 11.6467C20.307 12.4964 19.8966 13.4765 19.4244 14.3939C18.943 15.3288 18.3967 16.1986 17.7918 16.8012L17.7954 16.8017ZM9.35963 16.5047C9.52207 16.5047 9.66941 16.5706 9.77602 16.6772C9.88264 16.7838 9.94853 16.9307 9.94853 17.0936C9.94853 17.16 9.93755 17.2236 9.91741 17.2831C10.3777 17.4743 10.8664 17.4679 11.3803 17.1815C11.9394 16.8694 12.5311 16.2306 13.152 15.165V15.1645C12.8335 14.3546 12.5787 14.1981 12.0511 13.8737C11.9669 13.822 11.8763 13.7662 11.7546 13.6884C11.4054 13.4651 11.07 13.2386 10.7831 12.9942C8.64857 13.5662 7.64969 12.7192 6.64623 11.8681C6.48837 11.7341 6.33051 11.6 6.16761 11.4723C6.51445 12.3372 6.9345 13.3479 7.41907 14.2896C7.88808 15.2002 8.41703 16.0458 8.99861 16.6283C9.09836 16.5505 9.22373 16.5043 9.36009 16.5043L9.35963 16.5047ZM9.51704 16.9358C9.47677 16.8955 9.42095 16.8708 9.35963 16.8708C9.29832 16.8708 9.24249 16.8955 9.20223 16.9358C9.16196 16.976 9.13725 17.0318 9.13725 17.0932C9.13725 17.1545 9.16196 17.2103 9.20223 17.2506C9.24249 17.2908 9.29832 17.3155 9.35963 17.3155C9.42095 17.3155 9.47677 17.2908 9.51704 17.2506C9.5573 17.2103 9.58201 17.1545 9.58201 17.0932C9.58201 17.0318 9.5573 16.976 9.51704 16.9358ZM6.0674 18.5478C6.02165 18.351 6.04407 18.2009 6.01982 18.2009C5.99556 18.2009 6.01707 18.3515 5.97086 18.5487C5.86561 18.9989 5.79561 19.6212 5.79561 19.7553C5.79561 19.8166 5.82031 19.8724 5.86058 19.9127C5.90085 19.953 5.95667 19.9777 6.01798 19.9777C6.0793 19.9777 6.13512 19.953 6.17539 19.9127C6.21566 19.8724 6.24037 19.8166 6.24037 19.7553C6.24037 19.6208 6.17173 18.998 6.06695 18.5478H6.0674ZM6.17905 15.316C6.13878 15.2757 6.08296 15.251 6.02165 15.251C5.96033 15.251 5.90451 15.2757 5.86424 15.316C5.82397 15.3562 5.79927 15.412 5.79927 15.4734C5.79927 15.5347 5.82397 15.5905 5.86424 15.6308C5.90451 15.671 5.96033 15.6957 6.02165 15.6957C6.08296 15.6957 6.13878 15.671 6.17905 15.6308C6.21932 15.5905 6.24403 15.5347 6.24403 15.4734C6.24403 15.412 6.21932 15.3562 6.17905 15.316ZM6.18271 13.2116C6.14244 13.1713 6.08662 13.1466 6.02531 13.1466C5.96399 13.1466 5.90817 13.1713 5.8679 13.2116C5.82764 13.2518 5.80293 13.3077 5.80293 13.369C5.80293 13.4303 5.82764 13.4861 5.8679 13.5264C5.90817 13.5667 5.96399 13.5914 6.02531 13.5914C6.08662 13.5914 6.14244 13.5667 6.18271 13.5264C6.22298 13.4861 6.24769 13.4303 6.24769 13.369C6.24769 13.3077 6.22298 13.2518 6.18271 13.2116ZM20.8099 18.5212C20.7642 18.3245 20.7866 18.1744 20.7623 18.1744C20.7381 18.1744 20.7596 18.3249 20.7134 18.5222C20.6081 18.9724 20.5381 19.5947 20.5381 19.7288C20.5381 19.7901 20.5628 19.8459 20.6031 19.8862C20.6434 19.9264 20.6992 19.9512 20.7605 19.9512C20.8218 19.9512 20.8776 19.9264 20.9179 19.8862C20.9582 19.8459 20.9829 19.7901 20.9829 19.7288C20.9829 19.5942 20.9142 18.9715 20.8095 18.5212H20.8099ZM20.9216 15.2894C20.8813 15.2491 20.8255 15.2244 20.7642 15.2244C20.7028 15.2244 20.647 15.2491 20.6067 15.2894C20.5665 15.3297 20.5418 15.3855 20.5418 15.4468C20.5418 15.5081 20.5665 15.564 20.6067 15.6042C20.647 15.6445 20.7028 15.6692 20.7642 15.6692C20.8255 15.6692 20.8813 15.6445 20.9216 15.6042C20.9618 15.564 20.9865 15.5081 20.9865 15.4468C20.9865 15.3855 20.9618 15.3297 20.9216 15.2894ZM20.9252 13.185C20.885 13.1448 20.8291 13.1201 20.7678 13.1201C20.7065 13.1201 20.6507 13.1448 20.6104 13.185C20.5701 13.2253 20.5454 13.2811 20.5454 13.3424C20.5454 13.4038 20.5701 13.4596 20.6104 13.4998C20.6507 13.5401 20.7065 13.5648 20.7678 13.5648C20.8291 13.5648 20.885 13.5401 20.9252 13.4998C20.9655 13.4596 20.9902 13.4038 20.9902 13.3424C20.9902 13.2811 20.9655 13.2253 20.9252 13.185ZM13.4769 22.4138C13.4114 22.1319 13.3551 21.9068 13.3309 21.8487C13.3259 21.8492 13.3208 21.8496 13.3158 21.8496C13.3144 21.8496 13.3131 21.8496 13.3117 21.8496C13.287 21.9091 13.2302 22.1338 13.1643 22.4147C13.0069 23.086 12.9035 24.0158 12.9035 24.2171C12.9035 24.3319 12.9502 24.4358 13.0252 24.5113C13.1007 24.5868 13.2046 24.633 13.3195 24.633C13.4343 24.633 13.5382 24.5864 13.6137 24.5113C13.6892 24.4358 13.7354 24.3319 13.7354 24.2171C13.7354 24.0158 13.6329 23.0851 13.4769 22.4138ZM13.475 19.0397C13.4348 18.9994 13.3789 18.9747 13.3176 18.9747C13.2563 18.9747 13.2005 18.9994 13.1602 19.0397C13.12 19.0799 13.0952 19.1358 13.0952 19.1971C13.0952 19.2584 13.12 19.3142 13.1602 19.3545C13.2005 19.3947 13.2563 19.4195 13.3176 19.4195C13.3789 19.4195 13.4348 19.3947 13.475 19.3545C13.5153 19.3142 13.54 19.2584 13.54 19.1971C13.54 19.1358 13.5153 19.0799 13.475 19.0397ZM13.4787 16.9353C13.4384 16.895 13.3826 16.8703 13.3213 16.8703C13.26 16.8703 13.2042 16.895 13.1639 16.9353C13.1236 16.9756 13.0989 17.0314 13.0989 17.0927C13.0989 17.154 13.1236 17.2098 13.1639 17.2501C13.2042 17.2904 13.26 17.3151 13.3213 17.3151C13.3826 17.3151 13.4384 17.2904 13.4787 17.2501C13.519 17.2098 13.5437 17.154 13.5437 17.0927C13.5437 17.0314 13.519 16.9756 13.4787 16.9353ZM5.15043 7.85295C4.23117 6.74746 3.25196 6.87146 2.27276 6.99547C1.93187 7.03848 1.59098 7.08195 1.24871 7.0792C1.40246 7.24255 1.52646 7.41506 1.65 7.58756C2.01194 8.09272 2.37297 8.59651 3.61024 8.76306C4.13508 8.69077 4.65168 8.45329 5.15089 7.85295H5.15043ZM1.22812 8.62671C1.56581 8.62259 1.90258 8.66377 2.2389 8.70587C1.9703 8.54343 1.77812 8.35125 1.61294 8.14809C1.4958 8.31098 1.37638 8.47296 1.22812 8.62625V8.62671ZM1.35258 7.88361C1.34755 7.89048 1.34389 7.89597 1.35258 7.88361V7.88361ZM24.5794 6.9822C23.6002 6.85819 22.6214 6.73419 21.7017 7.83968C22.2009 8.44002 22.7175 8.6775 23.2424 8.74979C24.4796 8.58324 24.8402 8.07945 25.2026 7.57429C25.3261 7.40179 25.4497 7.22928 25.6039 7.06593C25.2616 7.06822 24.9207 7.02521 24.5798 6.9822H24.5794ZM24.6137 8.69306C24.95 8.6505 25.2863 8.60932 25.6245 8.6139C25.4767 8.46061 25.3568 8.29863 25.2397 8.13573C25.0745 8.33844 24.8823 8.53062 24.6137 8.69351V8.69306ZM25.4996 7.8708C25.5083 7.88315 25.5046 7.87766 25.4996 7.8708V7.8708ZM11.1931 4.73048C11.2435 4.32919 11.3784 3.93614 11.566 3.57237C11.944 2.83888 12.5411 2.21933 13.087 1.89125C12.9918 1.441 12.699 1.22411 12.4126 1.01226C12.224 0.872697 12.0378 0.734968 11.8914 0.541415C11.7326 0.740916 11.5111 0.910675 11.2823 1.08638C10.8687 1.40348 10.4271 1.74254 10.4189 2.26783L10.4326 2.28705C10.8861 2.91987 11.2471 3.74121 11.194 4.73094L11.1931 4.73048ZM13.2998 2.18867C12.8006 2.47923 12.2442 3.05303 11.8905 3.73984C11.6109 4.28206 11.4617 4.89109 11.5747 5.4777C11.69 5.30977 11.8168 5.15191 11.9582 5.00228C12.2927 4.64812 12.7063 4.34338 13.2366 4.06563C13.2389 4.06426 13.2412 4.06334 13.2435 4.06197C13.2467 4.0606 13.2499 4.05877 13.2531 4.0574C13.2737 4.0487 13.2952 4.04413 13.3163 4.04321H13.3309C13.3524 4.04413 13.3735 4.0487 13.394 4.0574C13.3972 4.05877 13.4004 4.06014 13.4037 4.06197C13.4059 4.06289 13.4082 4.06426 13.4105 4.06563C13.9404 4.34338 14.354 4.64858 14.689 5.00228C14.8519 5.17433 14.9955 5.35782 15.1246 5.55503C15.2106 4.97574 15.0257 4.32874 14.7096 3.74533C14.3412 3.06584 13.7999 2.4806 13.3002 2.18822L13.2998 2.18867ZM13.5551 1.91733C14.0896 2.25456 14.6501 2.86862 15.0308 3.57146C15.2257 3.93065 15.3749 4.31409 15.4517 4.69891C15.411 3.79429 15.7171 3.03061 16.1207 2.42432C16.1559 2.37124 16.1921 2.31908 16.2287 2.26875C16.2205 1.74346 15.7789 1.4044 15.3653 1.08684C15.1365 0.911133 14.915 0.741374 14.7562 0.541873C14.6098 0.734968 14.4236 0.873154 14.2351 1.01226C13.9431 1.22823 13.6443 1.44924 13.5551 1.91733ZM17.7588 7.48415L16.9736 7.50154L16.97 7.3176C16.678 7.94584 16.1706 8.42172 15.4856 8.7141C15.4215 8.74156 15.3534 8.7681 15.2811 8.79372C15.1598 8.89073 15.0184 8.97629 14.8551 9.0495C14.4725 9.22064 13.9688 9.32359 13.3295 9.34784C13.3254 9.34784 13.3208 9.34784 13.3167 9.34784H13.3149C12.677 9.32359 12.1732 9.22064 11.7916 9.0495C11.6141 8.97034 11.4622 8.87609 11.3345 8.76856C11.3203 8.76718 11.3061 8.76444 11.2924 8.7594C11.2082 8.73012 11.1295 8.69992 11.0563 8.66881C10.4528 8.41119 9.99977 8.01493 9.71517 7.49742C9.70144 7.50017 9.68725 7.502 9.67261 7.50154L8.88742 7.48415C9.02789 7.77334 9.1464 8.12658 9.27178 8.50042C9.43513 8.98728 9.61038 9.51074 9.85747 9.94909C10.3837 10.8825 11.275 11.4312 13.2261 10.3316C13.2568 10.3142 13.2902 10.3069 13.3227 10.3083C13.3551 10.3069 13.389 10.3142 13.4192 10.3316C15.3703 11.4312 16.2616 10.8825 16.7879 9.94909C17.0349 9.51074 17.2102 8.98728 17.3735 8.50042C17.4989 8.12658 17.6174 7.77334 17.7579 7.48415H17.7588ZM17.0473 7.13502L18.0622 7.1126C18.102 7.1094 18.1436 7.11947 18.1793 7.14372C18.2626 7.20046 18.2841 7.31439 18.2274 7.39767C18.1418 7.52305 18.064 7.68137 17.9904 7.86119C18.4758 7.60724 18.9769 7.29884 19.4377 6.90075C19.9922 6.42167 20.491 5.81127 20.8355 5.00732C20.8708 4.86821 20.9042 4.72454 20.9362 4.57491C20.9376 4.56805 20.9394 4.56164 20.9417 4.55523C21.0355 4.21434 21.0515 3.97824 21.0131 3.8277C20.9961 3.76089 20.9691 3.71834 20.9353 3.69729C20.9005 3.67578 20.8497 3.67029 20.7889 3.67944C20.647 3.70003 20.4731 3.79063 20.297 3.93156C20.2942 3.93385 20.2915 3.93568 20.2887 3.93751L20.2892 3.93797C20.1588 4.03132 20.0682 4.09721 19.9776 4.16355C19.8179 4.28023 19.6573 4.39737 19.4948 4.51039C19.4916 4.51268 19.488 4.51543 19.4848 4.51726C18.7838 5.00457 18.0508 5.41593 17.2134 5.38344C17.2948 5.99887 17.2473 6.55254 17.0844 7.03207C17.0725 7.06639 17.0606 7.10071 17.0473 7.13411V7.13502ZM17.4911 9.27509C17.5447 9.24443 17.5982 9.21377 17.6513 9.18312C18.6131 8.63311 19.5891 8.07533 20.3015 6.55116C20.1048 6.78086 19.8948 6.9886 19.6765 7.17712C19.0844 7.68823 18.4351 8.05657 17.8316 8.35034C17.8233 8.35445 17.8151 8.35766 17.8069 8.3604C17.778 8.44414 17.7497 8.5297 17.7204 8.61664C17.6481 8.83216 17.5735 9.055 17.4911 9.27555V9.27509ZM13.3231 10.6958C11.8978 11.4792 10.9712 11.455 10.3288 11.0326C10.1947 11.5071 10.3086 11.9002 10.5672 12.247C10.671 12.3861 10.7978 12.5193 10.9419 12.6483C10.9479 12.6533 10.9538 12.6584 10.9593 12.6639C11.2421 12.9142 11.5875 13.1484 11.9509 13.3804C12.0419 13.4385 12.1458 13.5026 12.2419 13.5612C12.7447 13.87 13.0294 14.0448 13.3231 14.6406C13.6164 14.0448 13.901 13.87 14.4044 13.5612C14.5005 13.5021 14.6043 13.4381 14.6954 13.3804C15.0582 13.1484 15.4042 12.9137 15.6869 12.6639C15.6924 12.6584 15.6984 12.6529 15.7043 12.6483C15.8485 12.5193 15.9752 12.3861 16.0791 12.247C16.3376 11.9002 16.4515 11.5076 16.3175 11.0326C15.6755 11.455 14.7489 11.4792 13.3231 10.6958ZM15.7341 8.17463C16.2136 7.87492 16.5568 7.44846 16.7375 6.91539C16.9686 6.23361 16.9389 5.37429 16.5948 4.37907C16.5609 4.28115 16.5234 4.18048 16.4817 4.07707C16.3271 4.19421 16.204 4.46464 16.0704 4.75885C15.886 5.16381 15.6846 5.60673 15.3117 5.87167C15.3749 5.98789 15.4339 6.10823 15.4902 6.23407C15.6984 6.69942 15.8169 7.12908 15.8315 7.51252C15.8407 7.75229 15.8091 7.97375 15.7336 8.17509L15.7341 8.17463ZM14.9397 5.95312C14.92 5.9371 14.9031 5.91605 14.8912 5.8918C14.8839 5.87716 14.8789 5.8616 14.8761 5.84605C14.7439 5.63144 14.5947 5.43515 14.4222 5.25257C14.1326 4.946 13.7757 4.67832 13.3227 4.43215C12.8697 4.67786 12.5132 4.946 12.2231 5.25257C11.9161 5.57699 11.6827 5.94717 11.4883 6.38232C11.2988 6.80603 11.1908 7.19039 11.1785 7.52488C11.1684 7.79484 11.2206 8.03187 11.3427 8.22908C11.4654 8.42721 11.6617 8.59148 11.9399 8.71593C12.2794 8.86785 12.7361 8.95982 13.3231 8.98224C13.9102 8.95936 14.3668 8.86739 14.7064 8.71593C14.9846 8.59148 15.1809 8.42721 15.3035 8.22908C15.4257 8.03187 15.4778 7.79484 15.4678 7.52488C15.4549 7.19039 15.3474 6.80603 15.158 6.38232C15.0907 6.23178 15.0184 6.08902 14.9406 5.95312H14.9397ZM11.3341 5.87075C10.9598 5.60445 10.7589 5.16289 10.5749 4.7584C10.4409 4.46418 10.3182 4.19375 10.1631 4.07661C10.116 4.19375 10.0734 4.30769 10.035 4.41842C9.94624 4.67558 9.87715 4.92312 9.82773 5.1606C9.8323 5.20041 9.82407 5.23839 9.80577 5.27088C9.69 5.89501 9.7115 6.44455 9.85884 6.90898C10.035 7.46448 10.3956 7.90008 10.9186 8.19476C10.8376 7.98794 10.8037 7.75961 10.8129 7.51161C10.8275 7.12816 10.946 6.6985 11.1542 6.23315C11.2105 6.10732 11.27 5.98652 11.3331 5.8703L11.3341 5.87075ZM16.5426 3.65977C16.6231 3.64238 16.7069 3.68127 16.7444 3.75677C16.7448 3.75814 16.7458 3.75952 16.7462 3.76043V3.76089C16.7467 3.76226 16.7471 3.76318 16.748 3.76455V3.76501L16.749 3.76684C16.819 3.93111 16.8826 4.09583 16.9393 4.26056C17.029 4.52 17.0985 4.77167 17.1493 5.01464C17.8801 5.06909 18.5509 4.7131 19.1979 4.272C19.1562 3.67349 18.879 3.18984 18.6058 2.71259C18.5701 2.65036 18.5344 2.58813 18.4731 2.47786C18.2997 2.16671 18.231 1.95485 18.1569 1.72744C18.118 1.6071 18.0773 1.48218 18.0196 1.33942C17.9794 1.23921 17.9446 1.19803 17.9149 1.19483C17.8714 1.18979 17.806 1.22686 17.7309 1.28268C17.4175 1.5165 16.8583 1.97407 16.4245 2.62565C16.0955 3.11983 15.8379 3.72795 15.8151 4.4381C15.9972 4.04916 16.1857 3.72428 16.5426 3.66068V3.65977ZM16.4904 12.2882C16.4543 12.3477 16.4145 12.4067 16.3715 12.4639C16.3124 12.5431 16.2475 12.6199 16.177 12.695C17.9789 13.1008 18.8684 12.3468 19.7625 11.5886C20.0009 11.3863 20.2402 11.1836 20.496 10.9997C20.1615 11.0239 19.8325 11.0244 19.5104 11.0248C18.5943 11.0262 17.735 11.0276 17.0079 11.6096C16.9421 11.6627 16.8066 11.853 16.6863 12.0228C16.6121 12.1271 16.5431 12.2241 16.4909 12.2877L16.4904 12.2882ZM10.4679 12.6954C10.3979 12.6204 10.3324 12.5435 10.2734 12.4644C10.2304 12.4067 10.1906 12.3481 10.1544 12.2887C10.1018 12.2251 10.0332 12.128 9.95905 12.0237C9.83871 11.854 9.70327 11.6636 9.63738 11.6105C8.90984 11.0285 8.05052 11.0271 7.13492 11.0258C6.81279 11.0253 6.48379 11.0248 6.14931 11.0006C6.40509 11.1845 6.64394 11.3868 6.88234 11.5895C7.77643 12.3477 8.66595 13.1018 10.4679 12.6959V12.6954ZM9.90506 11.3616C9.91284 11.18 9.95127 10.9887 10.0254 10.7855C9.83688 10.5993 9.67764 10.3746 9.53854 10.128C9.48592 10.0342 9.43605 9.93765 9.38937 9.83836C9.21275 9.72946 9.01325 9.61506 8.81283 9.50067C8.34245 9.23162 7.86841 8.96119 7.4209 8.58781C6.72768 8.75391 6.34103 9.21286 5.94935 9.67821C5.71599 9.9555 5.4808 10.2346 5.17971 10.468C5.84136 10.6592 6.50164 10.6602 7.13492 10.6611C8.11687 10.6624 9.0375 10.6638 9.86479 11.3259C9.8776 11.336 9.89087 11.3483 9.90506 11.3616ZM8.58359 7.11306L9.54952 7.13411C9.5358 7.09659 9.52253 7.05815 9.51017 7.01926C9.36009 6.54521 9.32577 5.99704 9.41729 5.38481C8.58634 5.41135 7.85834 5.00228 7.16146 4.51771C7.1578 4.51543 7.15459 4.51314 7.15139 4.51085C6.98895 4.39783 6.82834 4.28069 6.66865 4.16401C6.57805 4.09766 6.487 4.03177 6.35705 3.93843L6.3575 3.93797C6.35476 3.93614 6.35201 3.93385 6.34927 3.93202C6.1731 3.79109 5.99922 3.70049 5.85738 3.6799C5.79652 3.67121 5.74573 3.67624 5.71095 3.69775C5.67709 3.71879 5.6501 3.76089 5.63317 3.82815C5.59473 3.97869 5.61075 4.2148 5.70455 4.55569C5.70684 4.5621 5.70821 4.5685 5.71004 4.57537C5.74207 4.72499 5.77593 4.86867 5.8107 5.00777C6.15571 5.81173 6.65401 6.42213 7.20859 6.90121C7.66936 7.29884 8.17086 7.6077 8.65589 7.86165C8.58222 7.68182 8.50443 7.5235 8.41886 7.39813C8.36213 7.31485 8.38363 7.20137 8.46691 7.14418C8.5026 7.11992 8.54378 7.10986 8.58405 7.11306H8.58359ZM8.99449 9.18357C9.04803 9.21423 9.1011 9.24443 9.15464 9.27555C9.07228 9.055 8.99769 8.83262 8.9254 8.61664C8.89611 8.5297 8.86774 8.44414 8.83892 8.3604C8.83068 8.35766 8.82199 8.35445 8.81421 8.35034C8.21067 8.05657 7.56137 7.68869 6.96928 7.17712C6.75102 6.9886 6.54099 6.78132 6.34423 6.55116C7.05667 8.07533 8.03222 8.63311 8.99449 9.18312V9.18357ZM7.44744 4.272C8.0917 4.71127 8.7593 5.06589 9.48638 5.01555C9.53763 4.78494 9.60535 4.54654 9.69046 4.29991C9.75177 4.12283 9.82041 3.94483 9.89636 3.76684C9.89774 3.76364 9.89957 3.75998 9.90094 3.75677C9.93846 3.68127 10.0222 3.64238 10.1027 3.65977C10.4596 3.72337 10.6486 4.04916 10.8307 4.43855C10.806 3.668 10.5036 3.01596 10.1338 2.49982C9.71425 1.91413 9.20726 1.50049 8.91487 1.28268C8.84029 1.22686 8.7744 1.19025 8.73139 1.19483C8.70119 1.19803 8.66687 1.23967 8.6266 1.33942C8.56895 1.48218 8.52822 1.6071 8.48933 1.72744C8.4152 1.95531 8.34657 2.16671 8.17315 2.47786C8.11183 2.58768 8.07614 2.64991 8.04045 2.71259C7.76682 3.18984 7.48954 3.67349 7.44835 4.272H7.44744Z" fill="#0D0D30"/>
</svg>
