<svg width="191" height="33" viewBox="0 0 191 33" fill="none" xmlns="http://www.w3.org/2000/svg">
<path d="M27.8353 0.439453H6.55894C3.337 0.439453 0.725098 3.05136 0.725098 6.2733V26.7261C0.725098 29.948 3.337 32.5599 6.55894 32.5599H27.8353C31.0573 32.5599 33.6692 29.948 33.6692 26.7261V6.2733C33.6692 3.05136 31.0573 0.439453 27.8353 0.439453Z" fill="#828282"/>
<path d="M26.34 24.5916H22.4271C22.2571 24.5947 22.09 24.5472 21.9471 24.4551C21.8041 24.363 21.6919 24.2304 21.6245 24.0743L17.3765 14.1417C17.3654 14.1031 17.3422 14.069 17.3102 14.0446C17.2782 14.0202 17.2393 14.0067 17.199 14.0062C17.1588 14.0057 17.1195 14.0181 17.0869 14.0417C17.0543 14.0653 17.0302 14.0987 17.0181 14.1371L14.3707 20.4435C14.3564 20.4776 14.3507 20.5147 14.3541 20.5516C14.3576 20.5884 14.3701 20.6239 14.3906 20.6547C14.4111 20.6855 14.4388 20.7108 14.4715 20.7283C14.5041 20.7458 14.5405 20.755 14.5775 20.755H17.4875C17.5756 20.755 17.6618 20.7809 17.7353 20.8296C17.8088 20.8783 17.8663 20.9475 17.9007 21.0287L19.1748 23.8639C19.2085 23.9434 19.2221 24.0301 19.2141 24.1162C19.2062 24.2022 19.1771 24.285 19.1295 24.3571C19.0818 24.4292 19.017 24.4883 18.9409 24.5292C18.8647 24.5702 18.7797 24.5916 18.6933 24.5916H8.09959C8.01992 24.5912 7.94159 24.571 7.8716 24.5329C7.80162 24.4948 7.74214 24.44 7.69848 24.3734C7.65481 24.3067 7.62832 24.2303 7.62135 24.1509C7.61439 24.0715 7.62718 23.9917 7.65857 23.9184L14.3969 7.87162C14.4658 7.70178 14.5843 7.55665 14.7369 7.45518C14.8895 7.35371 15.0692 7.30061 15.2524 7.30281H19.139C19.3223 7.30039 19.502 7.3534 19.6547 7.45489C19.8074 7.55639 19.9258 7.70164 19.9945 7.87162L26.7796 23.9184C26.8109 23.9916 26.8238 24.0713 26.8169 24.1506C26.81 24.2298 26.7837 24.3062 26.7402 24.3728C26.6967 24.4394 26.6374 24.4943 26.5676 24.5324C26.4978 24.5706 26.4196 24.591 26.34 24.5916Z" fill="white"/>
<path d="M46.4787 18.2095C46.8891 16.8611 47.2604 15.4151 47.5926 14.0081H47.6707C48.042 15.3955 48.4133 16.8611 48.8237 18.2095L49.2536 19.7337H46.0488L46.4787 18.2095ZM42.1797 24.9707H44.5441L45.5212 21.551H49.7616L50.7387 24.9707H53.2009L49.0582 12.1908H46.3224L42.1797 24.9707ZM57.941 25.2052C58.9571 25.2052 59.9342 24.6385 60.6377 23.935H60.7158L60.8917 24.9707H62.7676V11.1747H60.4618V14.6334L60.5595 16.1772C59.8169 15.5323 59.133 15.122 58.0582 15.122C55.9478 15.122 53.9937 17.037 53.9937 20.1831C53.9937 23.3488 55.5374 25.2052 57.941 25.2052ZM58.5077 23.2902C57.1398 23.2902 56.3581 22.2154 56.3581 20.144C56.3581 18.1704 57.3547 17.037 58.5468 17.037C59.1916 17.037 59.8169 17.2324 60.4618 17.8186V22.2349C59.856 22.9775 59.2307 23.2902 58.5077 23.2902ZM69.5764 25.2052C71.9604 25.2052 74.149 23.3683 74.149 20.1831C74.149 16.9784 71.9604 15.122 69.5764 15.122C67.1728 15.122 64.9842 16.9784 64.9842 20.1831C64.9842 23.3683 67.1728 25.2052 69.5764 25.2052ZM69.5764 23.3292C68.1889 23.3292 67.3682 22.0786 67.3682 20.1831C67.3682 18.2681 68.1889 17.0175 69.5764 17.0175C70.9638 17.0175 71.7845 18.2681 71.7845 20.1831C71.7845 22.0786 70.9638 23.3292 69.5764 23.3292ZM81.0437 25.2052C83.1736 25.2052 85.1278 23.3097 85.1278 20.0073C85.1278 17.0565 83.7403 15.122 81.3368 15.122C80.3597 15.122 79.3827 15.6105 78.5815 16.314L78.6596 14.7311V11.1747H76.3342V24.9707H78.1516L78.3665 23.9546H78.4251C79.2263 24.7558 80.1643 25.2052 81.0437 25.2052ZM80.5356 23.2902C79.9884 23.2902 79.3045 23.0948 78.6596 22.5281V18.0922C79.3631 17.3692 80.0275 17.037 80.7115 17.037C82.138 17.037 82.7633 18.1508 82.7633 20.0463C82.7633 22.1959 81.7862 23.2902 80.5356 23.2902ZM91.4679 25.2052C92.7186 25.2052 93.891 24.8535 94.7899 24.1891L94.0083 22.743C93.3439 23.1729 92.6013 23.4074 91.7806 23.4074C90.2564 23.4074 89.2402 22.4694 89.0058 20.8671H95.0635C95.1417 20.5153 95.1808 20.1636 95.1808 19.6946C95.1808 16.9979 93.7738 15.122 91.1748 15.122C88.9276 15.122 86.739 17.037 86.739 20.1636C86.739 23.3683 88.8103 25.2052 91.4679 25.2052ZM89.0058 19.1474C89.2012 17.7014 90.1391 16.9197 91.2334 16.9197C92.4841 16.9197 93.1485 17.7405 93.1485 19.1474H89.0058ZM106.515 25.2052C108.156 25.2052 109.485 24.5799 110.56 23.3488L109.309 21.9614C108.606 22.743 107.726 23.1925 106.612 23.1925C104.482 23.1925 103.134 21.4338 103.134 18.5612C103.134 15.7082 104.619 13.9886 106.652 13.9886C107.648 13.9886 108.41 14.3599 109.075 15.0047L110.306 13.5782C109.505 12.6989 108.215 11.9563 106.612 11.9563C103.369 11.9563 100.75 14.438 100.75 18.6198C100.75 22.8603 103.31 25.2052 106.515 25.2052ZM116.445 25.2052C118.829 25.2052 121.017 23.3683 121.017 20.1831C121.017 16.9784 118.829 15.122 116.445 15.122C114.041 15.122 111.852 16.9784 111.852 20.1831C111.852 23.3683 114.041 25.2052 116.445 25.2052ZM116.445 23.3292C115.057 23.3292 114.236 22.0786 114.236 20.1831C114.236 18.2681 115.057 17.0175 116.445 17.0175C117.832 17.0175 118.653 18.2681 118.653 20.1831C118.653 22.0786 117.832 23.3292 116.445 23.3292ZM123.202 24.9707H125.528V18.2876C126.251 17.4864 126.915 17.1152 127.502 17.1152C128.479 17.1152 128.948 17.6819 128.948 19.2451V24.9707H131.253V18.2876C131.976 17.4864 132.641 17.1152 133.227 17.1152C134.224 17.1152 134.673 17.6819 134.673 19.2451V24.9707H136.999V18.952C136.999 16.5289 136.061 15.122 134.028 15.122C132.797 15.122 131.859 15.8645 130.941 16.8416C130.491 15.7668 129.69 15.122 128.283 15.122C127.072 15.122 126.153 15.8254 125.332 16.6657H125.274L125.098 15.3565H123.202V24.9707ZM139.709 24.9707H142.035V18.2876C142.758 17.4864 143.422 17.1152 144.008 17.1152C144.985 17.1152 145.454 17.6819 145.454 19.2451V24.9707H147.76V18.2876C148.483 17.4864 149.148 17.1152 149.734 17.1152C150.731 17.1152 151.18 17.6819 151.18 19.2451V24.9707H153.505V18.952C153.505 16.5289 152.567 15.122 150.535 15.122C149.304 15.122 148.366 15.8645 147.448 16.8416C146.998 15.7668 146.197 15.122 144.79 15.122C143.579 15.122 142.66 15.8254 141.839 16.6657H141.781L141.605 15.3565H139.709V24.9707ZM160.32 25.2052C161.571 25.2052 162.743 24.8535 163.642 24.1891L162.86 22.743C162.196 23.1729 161.453 23.4074 160.633 23.4074C159.108 23.4074 158.092 22.4694 157.858 20.8671H163.916C163.994 20.5153 164.033 20.1636 164.033 19.6946C164.033 16.9979 162.626 15.122 160.027 15.122C157.78 15.122 155.591 17.037 155.591 20.1636C155.591 23.3683 157.662 25.2052 160.32 25.2052ZM157.858 19.1474C158.053 17.7014 158.991 16.9197 160.085 16.9197C161.336 16.9197 162 17.7405 162 19.1474H157.858ZM166.14 24.9707H168.465V19.1474C169.032 17.6819 169.95 17.1738 170.712 17.1738C171.103 17.1738 171.337 17.2129 171.631 17.291L172.1 15.3174C171.806 15.2001 171.494 15.122 171.005 15.122C169.989 15.122 168.973 15.8254 168.27 17.0761H168.211L168.035 15.3565H166.14V24.9707ZM177.321 25.2052C178.416 25.2052 179.549 24.8339 180.467 24.0327L179.529 22.5671C178.982 23.0166 178.318 23.3292 177.556 23.3292C176.09 23.3292 175.054 22.0786 175.054 20.1831C175.054 18.2681 176.11 17.0175 177.634 17.0175C178.24 17.0175 178.728 17.2129 179.217 17.6428L180.331 16.1967C179.627 15.5714 178.728 15.122 177.517 15.122C174.937 15.122 172.67 16.9784 172.67 20.1831C172.67 23.3683 174.703 25.2052 177.321 25.2052ZM185.93 25.2052C187.18 25.2052 188.353 24.8535 189.252 24.1891L188.47 22.743C187.805 23.1729 187.063 23.4074 186.242 23.4074C184.718 23.4074 183.702 22.4694 183.467 20.8671H189.525C189.603 20.5153 189.642 20.1636 189.642 19.6946C189.642 16.9979 188.235 15.122 185.636 15.122C183.389 15.122 181.201 17.037 181.201 20.1636C181.201 23.3683 183.272 25.2052 185.93 25.2052ZM183.467 19.1474C183.663 17.7014 184.601 16.9197 185.695 16.9197C186.946 16.9197 187.61 17.7405 187.61 19.1474H183.467Z" fill="#828282"/>
</svg>
