<svg width="1920" height="725" viewBox="0 0 1920 725" fill="none" xmlns="http://www.w3.org/2000/svg">
<path d="M666.31 1348.26C622.694 1348.22 580.297 1333.86 545.631 1307.39C510.965 1280.92 485.946 1243.8 474.416 1201.74C445.54 1095.71 507.871 986.213 613.902 957.176C936.906 868.835 1218.25 666.18 1406.22 386.624C1467.49 295.404 1591.17 271.15 1682.29 332.53C1773.41 393.909 1797.88 517.551 1736.51 608.736C1495.41 967.444 1134.07 1227.71 718.993 1341.23C701.823 1345.9 684.105 1348.27 666.31 1348.26Z" fill="#FF7882"/>
<path d="M871.305 720.449C871.312 694.307 866.168 668.42 856.167 644.267C846.165 620.114 831.502 598.168 813.015 579.685C794.528 561.201 772.58 546.542 748.426 536.544C724.271 526.547 698.383 521.407 672.241 521.419H-648.503C-701.02 521.818 -751.25 542.96 -788.244 580.236C-825.239 617.513 -845.999 667.902 -845.999 720.42C-845.999 772.938 -825.239 823.327 -788.244 860.604C-751.25 897.88 -701.02 919.022 -648.503 919.421H672.241C698.377 919.43 724.258 914.29 748.407 904.295C772.556 894.3 794.499 879.645 812.984 861.168C831.468 842.691 846.132 820.754 856.137 796.609C866.141 772.464 871.292 746.585 871.293 720.449" fill="#00B9EB"/>
<path d="M1140.26 1585.33C1170.97 1585.32 1201.24 1578.12 1228.66 1564.31C1716.35 1320.14 2008.81 810.619 1973.82 266.352C1966.83 157.418 1872.86 74.8483 1763.8 81.7205C1654.74 88.5926 1572.06 182.818 1579.08 291.741C1603.85 677.134 1396.84 1037.83 1051.65 1210.71C1011.82 1230.66 979.896 1263.47 961.044 1303.83C942.191 1344.19 937.514 1389.73 947.771 1433.08C958.028 1476.43 982.617 1515.04 1017.56 1542.67C1052.5 1570.3 1095.74 1585.33 1140.29 1585.32" fill="#6900AA"/>
</svg>
