<svg width="169" height="39" viewBox="0 0 169 39" fill="none" xmlns="http://www.w3.org/2000/svg">
<g clip-path="url(#clip0)">
<path fill-rule="evenodd" clip-rule="evenodd" d="M49.4414 22.922C48.7811 22.0264 47.6584 21.2939 46.2988 21.2939C43.7805 21.2939 41.9644 23.2158 41.9644 25.8192C41.9644 28.4235 43.7805 30.3451 46.2988 30.3451C47.4753 30.3451 48.575 29.8434 49.1502 29.3435C49.1888 29.3099 49.2086 29.2615 49.2086 29.2104V27.7983C49.2086 27.7098 49.1368 27.6375 49.048 27.6375H45.8092C45.6804 27.6375 45.5759 27.5329 45.5759 27.4044V25.3088C45.5759 25.1798 45.6804 25.0752 45.8092 25.0752H51.6164V21.965L49.7414 22.992C49.6416 23.0468 49.5091 23.0137 49.4414 22.922ZM22.1803 24.3935H25.6395C26.6301 24.3935 27.2495 23.8351 27.2495 22.9469C27.2495 22.0993 26.6301 21.5004 25.6395 21.5004H22.1803C22.0615 21.5004 21.9658 21.5967 21.9658 21.7151V24.179C21.9658 24.2974 22.0615 24.3935 22.1803 24.3935ZM36.2442 32.5086C36.2442 32.6151 36.1582 32.7007 36.0523 32.7007H33.5056C33.3993 32.7007 33.3132 32.6151 33.3132 32.5086V19.1098C33.3132 19.0038 33.3993 18.9177 33.5056 18.9177H36.0523C36.1582 18.9177 36.2442 19.0038 36.2442 19.1098V32.5086ZM50.8845 0.42847L25.6273 18.9177H26.2793C28.9006 18.9177 30.2419 20.591 30.2419 22.43C30.2419 23.8609 29.4951 24.9178 28.4929 25.3849C28.3264 25.4628 28.3324 25.6986 28.5026 25.7682C29.6709 26.2469 30.5106 27.4985 30.5106 28.9603C30.5106 31.0477 29.1482 32.7007 26.5066 32.7007H19.2495C19.1308 32.7007 19.0346 32.6049 19.0346 32.486V23.7434L0.299252 37.4587C-0.0596456 37.7217 0.125785 38.2912 0.571186 38.2912H51.1564C51.4104 38.2912 51.6165 38.0847 51.6165 37.8304V30.8938C50.2628 32.1575 48.4831 32.949 46.2984 32.949C42.2534 32.949 38.9511 30.1595 38.9511 25.8193C38.9511 21.4589 42.2534 18.6902 46.2984 18.6902C48.842 18.6902 50.5458 19.8438 51.6165 21.2531V0.80021C51.6165 0.423368 51.1886 0.205962 50.8845 0.42847ZM22.1803 30.1174H25.7633C26.857 30.1174 27.5173 29.5389 27.5173 28.5471C27.5173 27.6796 26.8988 26.9765 25.7633 26.9765H22.1803C22.0615 26.9765 21.9658 27.0728 21.9658 27.1912V29.9029C21.9658 30.0213 22.0615 30.1174 22.1803 30.1174ZM66.2969 29.6994L64.7182 28.8798C64.6165 28.8268 64.4882 28.8655 64.4265 28.9623C63.7589 30.0104 62.5271 30.7886 61.1886 30.7886C58.5608 30.7886 56.6099 28.6808 56.6099 25.808C56.6099 22.8946 58.5608 20.8278 61.1886 20.8278C62.5262 20.8278 63.7575 21.5866 64.4256 22.649C64.4877 22.748 64.6175 22.7863 64.7205 22.7305L66.2872 21.876C66.4064 21.8111 66.4483 21.6622 66.3751 21.547C65.384 19.9852 63.7428 18.6788 61.1886 18.6788C57.2665 18.6788 54.2205 21.5516 54.2205 25.808C54.2205 30.0445 57.2665 32.9376 61.1886 32.9376C63.74 32.9376 65.3624 31.5965 66.3871 30.0339C66.4649 29.9155 66.4221 29.7643 66.2969 29.6994ZM74.5258 30.7886C71.8354 30.7886 70.1215 28.6395 70.1215 25.8081C70.1215 22.9569 71.8354 20.828 74.5258 20.828C77.1959 20.828 78.9296 22.9569 78.9296 25.8081C78.9296 28.6395 77.1959 30.7886 74.5258 30.7886ZM72.6439 18.9199C69.6839 19.7118 67.7302 22.3792 67.7302 25.8081C67.7302 29.9207 70.5402 32.9378 74.5258 32.9378C77.9197 32.9378 80.4816 30.7278 81.1497 27.5121C82.2379 22.2755 77.6464 17.582 72.6439 18.9199ZM97.8534 18.9065H94.8322C94.6978 18.9065 94.5773 18.9884 94.528 19.1137L90.8742 28.5712L87.1996 19.1128C87.1504 18.9884 87.0298 18.9065 86.8955 18.9065H83.8738C83.7846 18.9065 83.7119 18.9793 83.7119 19.0686V32.5277C83.7119 32.617 83.7846 32.6898 83.8738 32.6898H85.9651C86.0544 32.6898 86.1271 32.617 86.1271 32.5277V22.0474L90.3294 32.6165C90.3469 32.6608 90.3897 32.6898 90.4371 32.6898H91.3113C91.3587 32.6898 91.4015 32.6608 91.419 32.6165L95.6006 22.0474V32.5277C95.6006 32.617 95.6728 32.6898 95.7625 32.6898H97.8534C97.9431 32.6898 98.0153 32.617 98.0153 32.5277V19.0686C98.0153 18.9793 97.9431 18.9065 97.8534 18.9065ZM128.736 18.9065H119.801C119.664 18.9065 119.552 19.0179 119.552 19.1556V32.4407C119.552 32.5784 119.664 32.6898 119.801 32.6898H128.736C128.873 32.6898 128.985 32.5784 128.985 32.4407V30.8107C128.985 30.673 128.873 30.5614 128.736 30.5614H122.216C122.079 30.5614 121.967 30.4499 121.967 30.3122V26.9667C121.967 26.829 122.079 26.7174 122.216 26.7174H128.592C128.729 26.7174 128.841 26.6055 128.841 26.4682V24.8382C128.841 24.7005 128.729 24.5891 128.592 24.5891H122.216C122.079 24.5891 121.967 24.4776 121.967 24.3399V21.2841C121.967 21.1464 122.079 21.0348 122.216 21.0348H128.736C128.873 21.0348 128.985 20.9229 128.985 20.7856V19.1556C128.985 19.0179 128.873 18.9065 128.736 18.9065ZM138.155 25.4156H135.079C134.942 25.4156 134.832 25.3052 134.832 25.1688V21.2814C134.832 21.1451 134.942 21.0346 135.079 21.0346H138.155C139.516 21.0346 140.508 21.8822 140.508 23.2049C140.508 24.5478 139.516 25.4156 138.155 25.4156ZM140.05 27.204C141.591 26.8152 142.984 25.494 142.984 23.2251C142.984 20.6628 141.189 18.9066 138.464 18.9066H132.663C132.527 18.9066 132.417 19.0172 132.417 19.1536V32.4427C132.417 32.579 132.527 32.69 132.663 32.69H134.585C134.721 32.69 134.832 32.579 134.832 32.4427V27.7909C134.832 27.6546 134.942 27.5441 135.079 27.5441H137.106C137.193 27.5441 137.274 27.5902 137.318 27.6653L140.209 32.5684C140.253 32.6434 140.334 32.69 140.422 32.69H142.642C142.836 32.69 142.955 32.4776 142.852 32.3131C142.215 31.2936 140.465 28.4945 139.889 27.5736C139.798 27.428 139.883 27.2459 140.05 27.204ZM161.951 21.0346H168.483C168.617 21.0346 168.725 20.9259 168.725 20.7914V19.1496C168.725 19.0155 168.617 18.9063 168.483 18.9063H159.535C159.402 18.9063 159.293 19.0155 159.293 19.1496V32.4464C159.293 32.5809 159.402 32.6897 159.535 32.6897H168.483C168.617 32.6897 168.725 32.5809 168.725 32.4464V30.8045C168.725 30.6704 168.617 30.5617 168.483 30.5617H161.951C161.816 30.5617 161.708 30.4525 161.708 30.3184V26.9606C161.708 26.8261 161.816 26.7174 161.951 26.7174H168.338C168.473 26.7174 168.581 26.6086 168.581 26.4741V24.8322C168.581 24.6981 168.473 24.5889 168.338 24.5889H161.951C161.816 24.5889 161.708 24.4802 161.708 24.3456V21.2779C161.708 21.1433 161.816 21.0346 161.951 21.0346ZM156.829 29.6422L155.25 28.8226C155.148 28.7696 155.02 28.8083 154.958 28.9051C154.29 29.9531 153.059 30.7312 151.72 30.7312C149.092 30.7312 147.142 28.6236 147.142 25.7507C147.142 22.8373 149.092 20.7706 151.72 20.7706C153.058 20.7706 154.289 21.5294 154.957 22.5917C155.019 22.6908 155.149 22.729 155.252 22.6733L156.819 21.8186C156.938 21.7537 156.98 21.6045 156.907 21.4898C155.916 19.928 154.274 18.6214 151.72 18.6214C147.798 18.6214 144.752 21.4944 144.752 25.7507C144.752 29.9872 147.798 32.8804 151.72 32.8804C154.271 32.8804 155.894 31.5393 156.919 29.9766C156.996 29.8582 156.954 29.7071 156.829 29.6422ZM115.684 18.9065H112.662C112.528 18.9065 112.407 18.9884 112.358 19.1137L108.704 28.5712L105.03 19.1128C104.981 18.9884 104.86 18.9065 104.726 18.9065H101.704C101.615 18.9065 101.542 18.9793 101.542 19.0686V32.5277C101.542 32.617 101.615 32.6898 101.704 32.6898H103.795C103.885 32.6898 103.957 32.617 103.957 32.5277V22.0474L108.16 32.6165C108.177 32.6608 108.22 32.6898 108.267 32.6898H109.141C109.189 32.6898 109.232 32.6608 109.249 32.6165L113.431 22.0474V32.5277C113.431 32.617 113.503 32.6898 113.593 32.6898H115.684C115.773 32.6898 115.845 32.617 115.845 32.5277V19.0686C115.845 18.9793 115.773 18.9065 115.684 18.9065Z" fill="#828282"/>
<g clip-path="url(#clip1)">
<path d="M101.02 99.7255L-169.915 886.998C-87.083 911.409 -1.17598 923.803 85.178 923.803C190.335 923.803 291.18 905.606 385.049 872.616C382.531 868.674 380.379 864.51 378.622 860.176L101.02 99.7255ZM877.536 -412.505C881.419 -383.741 883.619 -352.847 883.619 -319.65C883.619 -228.015 866.505 -125.006 814.957 3.79501L539.125 801.291C807.586 644.74 988.158 353.89 988.158 20.737C988.399 -130.694 950.345 -279.726 877.536 -412.505Z" fill="#828282"/>
<path d="M85.1793 -1031.87C-495.232 -1031.87 -967.461 -559.673 -967.461 20.7375C-967.461 601.217 -495.249 1073.41 85.1793 1073.41C665.573 1073.41 1137.87 601.234 1137.87 20.7375C1137.85 -559.673 665.573 -1031.87 85.1793 -1031.87ZM85.1793 1025.15C-468.616 1025.15 -919.195 574.567 -919.195 20.7375C-919.195 -533.04 -468.633 -983.585 85.1793 -983.585C638.957 -983.585 1089.5 -533.04 1089.5 20.7375C1089.5 574.567 638.94 1025.15 85.1793 1025.15Z" fill="#828282"/>
</g>
</g>
<defs>
<clipPath id="clip0">
<rect width="168.615" height="38.3216" fill="white" transform="translate(0.109985 0.338867)"/>
</clipPath>
<clipPath id="clip1">
<rect width="2105.26" height="2105.26" fill="white" transform="translate(-967.469 -1031.87)"/>
</clipPath>
</defs>
</svg>
