<svg width="6" height="10" viewBox="0 0 6 10" fill="none" xmlns="http://www.w3.org/2000/svg">
<path fill-rule="evenodd" clip-rule="evenodd" d="M5.1182 4.6817L4.8 4.9999L5.1182 5.3181C5.29393 5.14236 5.29393 4.85744 5.1182 4.6817ZM4.1636 4.9999L0.281802 8.8817C0.106066 9.05744 0.106066 9.34236 0.281802 9.5181C0.457538 9.69384 0.742462 9.69384 0.918198 9.5181L5.1182 5.3181C5.11822 5.31808 5.1182 5.3181 4.8 4.9999C5.1182 4.6817 5.11822 4.68172 5.1182 4.6817L0.918198 0.481704C0.742461 0.305968 0.457538 0.305968 0.281802 0.481704C0.106066 0.65744 0.106066 0.942365 0.281802 1.1181L4.1636 4.9999Z" fill="#676879"/>
</svg>
