<svg width="182" height="29" viewBox="0 0 182 29" fill="none" xmlns="http://www.w3.org/2000/svg">
<path d="M113.749 14.2015C113.749 14.2015 112.197 14.5708 110.887 14.8848L108.892 15.3391C108.886 15.3391 108.877 15.3391 108.875 15.3391C108.875 14.8018 108.914 14.2347 109.042 13.7129C109.208 13.0429 109.57 12.2602 110.198 11.9164C110.883 11.5427 111.717 11.4985 112.443 11.7881C113.193 12.0855 113.536 12.8097 113.684 13.5603C113.725 13.7693 113.754 13.9793 113.773 14.1927L113.749 14.2015ZM118.948 15.3369C118.948 10.1331 115.671 7.89551 111.485 7.89551C106.751 7.89551 103.787 11.1746 103.787 15.3624C103.787 19.9161 106.31 22.8812 111.745 22.8812C114.683 22.8812 116.348 22.3616 118.324 21.3721L117.57 17.9626C116.061 18.6392 114.658 19.0549 112.784 19.0549C110.731 19.0549 109.559 18.2744 109.118 16.8172H118.817C118.896 16.4281 118.948 15.987 118.948 15.3369Z" fill="#828282"/>
<path d="M70.491 14.2015C70.491 14.2015 68.9388 14.5708 67.6287 14.8848L65.6343 15.3391C65.6277 15.3391 65.6189 15.3391 65.6166 15.3391C65.6166 14.8018 65.6553 14.2347 65.7836 13.7129C65.9494 13.0429 66.312 12.2602 66.94 11.9164C67.6243 11.5427 68.459 11.4985 69.1842 11.7881C69.9349 12.0855 70.2776 12.8097 70.4258 13.5603C70.4667 13.7693 70.4954 13.9793 70.5153 14.1927L70.491 14.2015ZM75.6893 15.3369C75.6893 10.1331 72.4124 7.89551 68.2268 7.89551C63.4929 7.89551 60.5289 11.1746 60.5289 15.3624C60.5289 19.9161 63.0518 22.8812 68.4866 22.8812C71.4252 22.8812 73.0901 22.3616 75.0657 21.3721L74.3117 17.9626C72.8038 18.6392 71.3997 19.0549 69.5258 19.0549C67.4729 19.0549 66.301 18.2744 65.8599 16.8172H75.5588C75.6373 16.4281 75.6893 15.987 75.6893 15.3369Z" fill="#828282"/>
<path d="M58.7579 4.07129H53.9554V22.3614H58.7579V4.07129Z" fill="#828282"/>
<path d="M119.963 8.36308H125.008L126.07 11.5968C126.734 10.0004 128.229 7.94629 130.881 7.94629C134.521 7.94629 136.498 9.79255 136.498 14.5541V22.3604H131.455C131.455 20.733 131.457 19.1068 131.458 17.4805C131.458 16.7354 131.446 15.9891 131.457 15.2429C131.465 14.5541 131.513 13.8433 131.148 13.2253C130.9 12.8085 130.494 12.5011 130.055 12.2922C129.164 11.8665 128.199 11.8798 127.326 12.3342C127.11 12.4447 126.071 13.0075 126.071 13.2684V22.3604H121.027V12.1407L119.963 8.36308Z" fill="#828282"/>
<path d="M140.582 12.0314H138.267V8.36319H140.582V6.06919L145.625 4.88184V8.36319H150.695V12.0314H145.625V16.1429C145.625 17.7559 146.406 18.511 147.576 18.511C148.771 18.511 149.448 18.354 150.461 18.0168L151.059 21.8155C149.681 22.4136 147.965 22.6999 146.221 22.6999C142.555 22.6999 140.578 20.9564 140.578 17.5757V12.0314H140.582Z" fill="#828282"/>
<path d="M160.403 18.7192C162.248 18.7192 163.341 17.3925 163.341 15.2577C163.341 13.1229 162.3 11.9002 160.481 11.9002C158.634 11.9002 157.569 13.1229 157.569 15.3362C157.569 17.4168 158.61 18.7192 160.403 18.7192ZM160.455 7.81738C165.188 7.81738 168.645 10.7825 168.645 15.3881C168.645 20.0193 165.188 22.803 160.403 22.803C155.643 22.803 152.262 19.9408 152.262 15.3881C152.265 10.7825 155.62 7.81738 160.455 7.81738Z" fill="#828282"/>
<path d="M99.2669 8.3191C98.3736 7.95206 97.3631 7.81497 96.4002 7.95316C95.9094 8.02502 95.4295 8.16653 94.984 8.38653C93.7624 8.99127 92.8083 10.3677 92.2953 11.5959C91.9604 10.1819 90.9808 8.90835 89.5503 8.3191C88.657 7.95206 87.6465 7.81497 86.6847 7.95316C86.1927 8.02502 85.7129 8.16653 85.2674 8.38653C84.048 8.98906 83.0961 10.361 82.5831 11.5849V11.4953L81.5561 8.36221H76.5115L77.5739 12.1399V22.3606H82.5853V13.2288C82.603 13.1614 82.8274 13.0353 82.8661 13.0044C83.4532 12.5876 84.1442 12.1564 84.8782 12.1023C85.6278 12.0459 86.3674 12.4284 86.8151 13.0243C86.8627 13.0895 86.908 13.1547 86.95 13.2244C87.3171 13.8424 87.2673 14.5533 87.2585 15.242C87.2496 15.9883 87.2618 16.7334 87.2607 17.4796C87.2585 19.1059 87.2563 20.7321 87.2563 22.3584H92.302V14.5533C92.302 14.5135 92.302 14.4748 92.302 14.435V13.231C92.313 13.1658 92.543 13.0331 92.585 13.0044C93.1709 12.5876 93.8619 12.1564 94.5971 12.1023C95.3466 12.0459 96.0851 12.4284 96.5329 13.0243C96.5815 13.0895 96.6268 13.1547 96.6678 13.2244C97.0348 13.8424 96.985 14.5533 96.9784 15.242C96.9696 15.9883 96.9828 16.7334 96.9806 17.4796C96.9784 19.1059 96.9762 20.7321 96.9762 22.3584H102.021V14.5533C102.019 12.2659 101.69 9.3174 99.2669 8.3191Z" fill="#828282"/>
<path d="M180.579 7.94824C177.928 7.94824 176.432 10.0023 175.768 11.5987L174.704 8.36503H169.659L170.721 12.1427V22.3634H175.768V12.9188C176.486 12.7927 180.388 13.5102 181.129 13.7822V7.96483C180.948 7.95488 180.766 7.94824 180.579 7.94824Z" fill="#828282"/>
<path d="M46.9851 13.7336C46.9851 13.7336 45.434 14.104 44.1229 14.4169L42.1285 14.8712C42.1218 14.8712 42.113 14.8712 42.1108 14.8712C42.1108 14.3339 42.1506 13.7668 42.2777 13.245C42.4435 12.575 42.8062 11.7923 43.4341 11.4485C44.1184 11.0748 44.9531 11.0306 45.6795 11.3202C46.429 11.6187 46.7729 12.3417 46.9199 13.0924C46.9619 13.3014 46.9895 13.5125 47.0094 13.7248L46.9851 13.7336ZM52.1856 14.869C52.1856 9.66523 48.9088 7.42871 44.7232 7.42871C39.9892 7.42871 37.0253 10.7066 37.0253 14.8945C37.0253 19.4482 39.5492 22.4144 44.9841 22.4144C47.9215 22.4144 49.5865 21.8937 51.5621 20.9053L50.8081 17.4958C49.3001 18.1713 47.8961 18.587 46.0222 18.587C43.9692 18.587 42.7973 17.8065 42.3562 16.3493H52.0551C52.1336 15.9624 52.1856 15.5191 52.1856 14.869Z" fill="#828282"/>
<path fill-rule="evenodd" clip-rule="evenodd" d="M0.924683 14.4992C0.924683 22.4616 7.3769 28.9174 15.3351 28.9174C23.2934 28.9174 29.7457 22.4616 29.7457 14.4992C29.7457 6.53671 23.2934 0.0810547 15.3351 0.0810547C7.3769 0.0810547 0.924683 6.53671 0.924683 14.4992ZM11.732 8.49147H9.3306V20.5069H11.732V8.49147ZM14.1334 8.49147H21.3376V10.8941H14.1334V8.49147ZM21.3376 13.2968H14.1334V15.6995H21.3376V13.2968ZM14.1334 18.1042H21.3376V20.5069H14.1334V18.1042Z" fill="#828282"/>
</svg>
