<svg width="154" height="122" viewBox="0 0 154 122" fill="none" xmlns="http://www.w3.org/2000/svg">
<g filter="url(#filter0_d)">
<rect x="2.05112" width="137.749" height="20.0961" rx="10.048" fill="white"/>
</g>
<path d="M29.0821 8.10726C29.8445 8.10726 30.4378 8.35691 30.8619 8.85622C31.2861 9.35016 31.4981 10.032 31.4981 10.9018C31.4981 11.7876 31.2861 12.4829 30.8619 12.9876C30.4378 13.4923 29.8445 13.7446 29.0821 13.7446H27.5278V8.10726H29.0821ZM29.0338 12.7943C29.4794 12.7943 29.8204 12.6306 30.0566 12.303C30.2928 11.9755 30.4109 11.5085 30.4109 10.9018C30.4109 9.67229 29.9519 9.05755 29.0338 9.05755H28.5828V12.7943H29.0338Z" fill="#0D0D30"/>
<path d="M34.3459 13.0037C34.8076 13.0037 35.0921 12.8265 35.1995 12.4722H36.182C36.1069 12.8909 35.9055 13.2211 35.578 13.4627C35.2505 13.7043 34.8398 13.8251 34.3459 13.8251C33.7499 13.8251 33.2614 13.6372 32.8802 13.2614C32.499 12.8802 32.3084 12.3836 32.3084 11.7715C32.3084 11.1273 32.499 10.6118 32.8802 10.2253C33.2667 9.83336 33.7419 9.63739 34.3056 9.63739C34.8371 9.63739 35.2827 9.81188 35.6425 10.1609C36.0022 10.5098 36.182 11.0253 36.182 11.7071C36.182 11.7554 36.1767 11.8547 36.1659 12.0051H33.307C33.3285 12.3004 33.4332 12.542 33.6211 12.7299C33.809 12.9124 34.0506 13.0037 34.3459 13.0037ZM34.3056 10.4588C34.0425 10.4588 33.8197 10.5394 33.6372 10.7004C33.46 10.8615 33.3526 11.0655 33.315 11.3125H35.1915C35.1861 11.0655 35.1002 10.8615 34.9338 10.7004C34.7673 10.5394 34.5579 10.4588 34.3056 10.4588Z" fill="#0D0D30"/>
<path d="M40.3586 9.63739C40.6216 9.63739 40.8337 9.72598 40.9948 9.90315C41.1558 10.0803 41.2364 10.3488 41.2364 10.7085V13.7446H40.278V10.8937C40.278 10.781 40.2485 10.6897 40.1894 10.6199C40.1304 10.5447 40.0525 10.5072 39.9559 10.5072C39.8485 10.5072 39.7599 10.5501 39.6901 10.636C39.6203 10.7165 39.5854 10.8266 39.5854 10.9662V13.7446H38.619V10.9179C38.619 10.7944 38.5895 10.6951 38.5305 10.6199C38.4714 10.5447 38.3936 10.5072 38.2969 10.5072C38.1895 10.5072 38.1009 10.5474 38.0312 10.628C37.9667 10.7031 37.9345 10.8105 37.9345 10.9501V13.7446H36.9762V9.71793H37.8459L37.9345 10.0481H37.9989C38.1654 9.7743 38.4097 9.63739 38.7318 9.63739C38.9197 9.63739 39.0754 9.68571 39.1989 9.78235C39.3277 9.87362 39.4163 9.981 39.4646 10.1045H39.5291C39.6955 9.79309 39.972 9.63739 40.3586 9.63739Z" fill="#0D0D30"/>
<path d="M45.3807 13.2453C45.0049 13.6318 44.5217 13.8251 43.9311 13.8251C43.3405 13.8251 42.8546 13.6292 42.4734 13.2372C42.0976 12.8453 41.9097 12.3406 41.9097 11.7232C41.9097 11.1058 42.0976 10.6038 42.4734 10.2172C42.8493 9.83067 43.3352 9.63739 43.9311 9.63739C44.5217 9.63739 45.0049 9.83336 45.3807 10.2253C45.7565 10.6118 45.9444 11.1112 45.9444 11.7232C45.9444 12.346 45.7565 12.8534 45.3807 13.2453ZM43.2063 12.6171C43.3835 12.8426 43.6251 12.9554 43.9311 12.9554C44.2371 12.9554 44.4787 12.8426 44.6559 12.6171C44.8331 12.3863 44.9217 12.0883 44.9217 11.7232C44.9217 11.3635 44.8331 11.0709 44.6559 10.8454C44.4787 10.6199 44.2371 10.5072 43.9311 10.5072C43.6197 10.5072 43.3754 10.6199 43.1983 10.8454C43.0264 11.0655 42.9405 11.3581 42.9405 11.7232C42.9405 12.0883 43.0291 12.3863 43.2063 12.6171Z" fill="#0D0D30"/>
<path d="M49.2351 12.8668C49.7452 12.8668 50.1344 12.9742 50.4028 13.1889C50.6713 13.3983 50.8055 13.6882 50.8055 14.0587C50.8055 14.4828 50.623 14.8184 50.2579 15.0653C49.8982 15.3123 49.415 15.4358 48.8083 15.4358C48.1586 15.4358 47.6567 15.3069 47.3023 15.0492C46.948 14.7915 46.7493 14.4667 46.7064 14.0748L47.3748 13.5433C47.0473 13.3822 46.8835 13.1352 46.8835 12.8024C46.8835 12.4749 47.0741 12.2118 47.4553 12.0131C47.1171 11.7662 46.948 11.436 46.948 11.0226C46.948 10.6199 47.1117 10.2897 47.4392 10.032C47.7667 9.76893 48.207 9.63739 48.76 9.63739C49.1143 9.63739 49.4338 9.7045 49.7183 9.83873C50.019 9.69913 50.2659 9.51122 50.4592 9.27499L50.9907 9.83067C50.8136 10.0078 50.5773 10.1582 50.282 10.2817C50.4646 10.5072 50.5559 10.7541 50.5559 11.0226C50.5559 11.4413 50.3867 11.7742 50.0485 12.0212C49.7103 12.2628 49.2807 12.3836 48.76 12.3836C48.4969 12.3836 48.2526 12.3514 48.0271 12.2869C47.8768 12.3514 47.8016 12.4426 47.8016 12.5608C47.8016 12.7648 48.0029 12.8668 48.4056 12.8668H49.2351ZM48.76 10.3783C48.5076 10.3783 48.3063 10.4374 48.156 10.5555C48.011 10.6736 47.9385 10.8266 47.9385 11.0145C47.9385 11.1971 48.011 11.3474 48.156 11.4655C48.3063 11.5836 48.5076 11.6427 48.76 11.6427C49.0069 11.6427 49.2029 11.5836 49.3479 11.4655C49.4928 11.3474 49.5653 11.1971 49.5653 11.0145C49.5653 10.8266 49.4928 10.6736 49.3479 10.5555C49.2029 10.4374 49.0069 10.3783 48.76 10.3783ZM48.8083 14.6627C49.0982 14.6627 49.3398 14.6144 49.5331 14.5177C49.7317 14.4264 49.8311 14.2922 49.8311 14.1151C49.8311 13.8198 49.5948 13.6721 49.1224 13.6721H48.3009L47.6969 14.1151C47.8311 14.4801 48.2016 14.6627 48.8083 14.6627Z" fill="#0D0D30"/>
<path d="M55.1512 10.636C54.7109 10.636 54.3781 10.7461 54.1526 10.9662C53.9271 11.1863 53.8143 11.4816 53.8143 11.8521V12.9795H55.2881V13.7446H51.6641V12.9795H52.7835V10.483H51.7043V9.71793H53.7096L53.7982 10.3702H53.8707C54.021 10.1125 54.1982 9.92731 54.4022 9.81457C54.6116 9.69645 54.9176 9.63739 55.3203 9.63739H55.6344V10.6682C55.4894 10.6467 55.3283 10.636 55.1512 10.636Z" fill="#0D0D30"/>
<path d="M60.3827 12.9715H60.4793V13.7446H60.0445C59.6203 13.7446 59.3492 13.5835 59.2311 13.2614C58.9411 13.6372 58.5063 13.8251 57.9264 13.8251C57.5023 13.8251 57.1587 13.7258 56.8956 13.5272C56.6379 13.3231 56.509 13.0305 56.509 12.6493C56.509 12.2789 56.6298 11.9917 56.8714 11.7876C57.1184 11.5782 57.4432 11.4548 57.8459 11.4172L59.0619 11.2803V11.1192C59.0619 10.8991 59.0002 10.7326 58.8767 10.6199C58.7532 10.5072 58.5895 10.4508 58.3855 10.4508C57.9935 10.4508 57.7627 10.6548 57.6929 11.0628H56.6621C56.6996 10.6387 56.8741 10.2951 57.1855 10.032C57.4969 9.76893 57.905 9.63739 58.4096 9.63739C58.9036 9.63739 59.3062 9.76893 59.6176 10.032C59.9344 10.2897 60.0928 10.6763 60.0928 11.1917V12.6735C60.0928 12.8722 60.1894 12.9715 60.3827 12.9715ZM59.0619 12.1984V11.997L58.2083 12.0937C57.7627 12.1366 57.5399 12.303 57.5399 12.593C57.5399 12.8883 57.7305 13.0359 58.1117 13.0359C58.3586 13.0359 58.5787 12.9688 58.772 12.8346C58.9653 12.695 59.0619 12.4829 59.0619 12.1984Z" fill="#0D0D30"/>
<path d="M63.4559 9.63739C63.9875 9.63739 64.4304 9.83067 64.7847 10.2172C65.1391 10.6038 65.3163 11.1112 65.3163 11.7393C65.3163 12.3782 65.1391 12.8856 64.7847 13.2614C64.4304 13.6372 63.9875 13.8251 63.4559 13.8251C62.9727 13.8251 62.5915 13.6748 62.3124 13.3741V15.3553H61.2896V9.71793H62.1191L62.2077 10.1931H62.2801C62.5486 9.82262 62.9405 9.63739 63.4559 9.63739ZM62.5781 12.6252C62.7553 12.8453 62.9915 12.9554 63.2868 12.9554C63.5821 12.9554 63.821 12.8453 64.0036 12.6252C64.1915 12.3997 64.2854 12.1044 64.2854 11.7393C64.2854 11.3689 64.1915 11.0709 64.0036 10.8454C63.821 10.6199 63.5821 10.5072 63.2868 10.5072C62.9915 10.5072 62.7553 10.6199 62.5781 10.8454C62.4009 11.0655 62.3124 11.3635 62.3124 11.7393C62.3124 12.1098 62.4009 12.4051 62.5781 12.6252Z" fill="#0D0D30"/>
<path d="M68.4781 9.63739C68.9344 9.63739 69.2941 9.78235 69.5572 10.0723C69.8257 10.3568 69.9599 10.7541 69.9599 11.2642V13.7446H68.9291V11.4333C68.9291 11.1326 68.8512 10.9045 68.6955 10.7488C68.5452 10.5877 68.3465 10.5072 68.0996 10.5072C67.8472 10.5072 67.6378 10.5904 67.4714 10.7568C67.305 10.9179 67.2217 11.1595 67.2217 11.4816V13.7446H66.1909V8.02672H67.2217V10.2011H67.2862C67.5546 9.8253 67.9519 9.63739 68.4781 9.63739Z" fill="#0D0D30"/>
<path d="M72.9123 9.20251C72.7405 9.20251 72.5902 9.14077 72.4613 9.01728C72.3378 8.8938 72.2761 8.74884 72.2761 8.5824C72.2761 8.40523 72.3378 8.25759 72.4613 8.13947C72.5902 8.01599 72.7405 7.95424 72.9123 7.95424C73.0841 7.95424 73.2291 8.01599 73.3472 8.13947C73.4707 8.25759 73.5324 8.40523 73.5324 8.5824C73.5324 8.74884 73.4707 8.8938 73.3472 9.01728C73.2237 9.14077 73.0788 9.20251 72.9123 9.20251ZM73.4197 12.9554H74.7565V13.7446H71.052V12.9554H72.3888V10.5072H71.1325V9.71793H73.4197V12.9554Z" fill="#0D0D30"/>
<path d="M79.6901 12.3514C79.6257 12.8024 79.419 13.1621 79.07 13.4305C78.721 13.6936 78.2888 13.8251 77.7734 13.8251C77.1613 13.8251 76.662 13.6318 76.2755 13.2453C75.8943 12.8587 75.7037 12.3594 75.7037 11.7474C75.7037 11.1246 75.8996 10.6172 76.2916 10.2253C76.6889 9.83336 77.1774 9.63739 77.7573 9.63739C78.2512 9.63739 78.678 9.77161 79.0378 10.0401C79.4029 10.3085 79.6122 10.6924 79.6659 11.1917H78.6351C78.5921 10.9877 78.4928 10.8239 78.3371 10.7004C78.1868 10.5716 77.9935 10.5072 77.7573 10.5072C77.462 10.5072 77.2177 10.6226 77.0244 10.8534C76.8311 11.0843 76.7345 11.3823 76.7345 11.7474C76.7345 12.1071 76.8285 12.3997 77.0164 12.6252C77.2097 12.8453 77.462 12.9554 77.7734 12.9554C78.0043 12.9554 78.1948 12.9017 78.3452 12.7943C78.5009 12.6869 78.6056 12.5393 78.6593 12.3514H79.6901Z" fill="#0D0D30"/>
<path d="M83.0452 10.8615C82.911 10.9957 82.7499 11.0628 82.562 11.0628C82.3741 11.0628 82.2103 10.9957 82.0707 10.8615C81.9365 10.7219 81.8694 10.5608 81.8694 10.3783C81.8694 10.185 81.9365 10.0213 82.0707 9.88705C82.2103 9.74746 82.3741 9.67766 82.562 9.67766C82.7499 9.67766 82.911 9.74746 83.0452 9.88705C83.1848 10.0213 83.2546 10.185 83.2546 10.3783C83.2546 10.5662 83.1848 10.7273 83.0452 10.8615ZM83.0452 13.5835C82.911 13.7178 82.7499 13.7849 82.562 13.7849C82.3741 13.7849 82.2103 13.7178 82.0707 13.5835C81.9365 13.4439 81.8694 13.2829 81.8694 13.1003C81.8694 12.907 81.9365 12.7433 82.0707 12.6091C82.2103 12.4695 82.3741 12.3997 82.562 12.3997C82.7499 12.3997 82.911 12.4695 83.0452 12.6091C83.1848 12.7433 83.2546 12.907 83.2546 13.1003C83.2546 13.2882 83.1848 13.4493 83.0452 13.5835Z" fill="#0D0D30"/>
<path d="M93.0009 11.087C93.2639 11.1675 93.4787 11.3205 93.6451 11.546C93.8116 11.7662 93.8948 12.0346 93.8948 12.3514C93.8948 12.7809 93.7337 13.1352 93.4116 13.4144C93.0948 13.6882 92.6814 13.8251 92.1714 13.8251C91.6882 13.8251 91.2989 13.7016 91.0036 13.4547C90.7137 13.2023 90.5473 12.848 90.5043 12.3916H91.052C91.0895 12.6708 91.1996 12.9017 91.3821 13.0842C91.5647 13.2668 91.8251 13.358 92.1633 13.358C92.5069 13.358 92.7888 13.2641 93.0089 13.0762C93.2291 12.8829 93.3391 12.6359 93.3391 12.3353C93.3391 12.0507 93.2425 11.8145 93.0492 11.6266C92.8559 11.4333 92.5875 11.3366 92.2439 11.3366H91.7687V10.8696H92.2036C92.4881 10.8696 92.719 10.7837 92.8962 10.6118C93.0734 10.4347 93.1619 10.2038 93.1619 9.91926C93.1619 9.63471 93.0707 9.40385 92.8881 9.22667C92.7056 9.0495 92.4667 8.96091 92.1714 8.96091C91.9029 8.96091 91.6721 9.03876 91.4788 9.19446C91.2855 9.35016 91.162 9.56491 91.1083 9.83873H90.5768C90.609 9.43606 90.7808 9.11393 91.0922 8.87233C91.409 8.62536 91.7768 8.50187 92.1955 8.50187C92.6304 8.50187 92.9901 8.63341 93.2747 8.89648C93.5646 9.15956 93.7096 9.50049 93.7096 9.91926C93.7096 10.4293 93.4733 10.8078 93.0009 11.0548V11.087Z" fill="#0D0D30"/>
<path d="M96.8472 11.9809C96.3157 12.3621 96.0312 12.7916 95.9936 13.2694H98.6029V13.7446H95.3815V13.4949C95.3815 13.1084 95.4835 12.7567 95.6875 12.44C95.8916 12.1178 96.1546 11.844 96.4768 11.6185L97.2338 11.087C97.4163 10.9581 97.5559 10.8534 97.6526 10.7729C97.7492 10.687 97.8458 10.5662 97.9425 10.4105C98.0391 10.2494 98.0874 10.0803 98.0874 9.90315C98.0874 9.63471 97.9962 9.41458 97.8136 9.24278C97.6365 9.07097 97.4002 8.98507 97.1049 8.98507C96.7506 8.98507 96.4741 9.1005 96.2754 9.33137C96.0768 9.56223 95.9667 9.81725 95.9453 10.0964H95.3896C95.4218 9.65618 95.5882 9.28036 95.8889 8.96897C96.1949 8.65757 96.6029 8.50187 97.113 8.50187C97.5693 8.50187 97.9371 8.63072 98.2163 8.88843C98.4955 9.14077 98.6351 9.47364 98.6351 9.88705C98.6351 10.4508 98.329 10.9447 97.717 11.3689L96.8472 11.9809Z" fill="#0D0D30"/>
<path d="M103.842 7.70459L100.46 14.1473H99.9124L103.311 7.70459H103.842Z" fill="#0D0D30"/>
<path d="M108.285 12.6896C108.285 13.0601 108.137 13.3419 107.842 13.5352C107.547 13.7285 107.168 13.8251 106.706 13.8251C106.164 13.8251 105.751 13.7097 105.466 13.4788C105.187 13.2426 105.039 12.9339 105.023 12.5527H105.555C105.608 13.1057 105.992 13.3822 106.706 13.3822C107.012 13.3822 107.267 13.3258 107.471 13.2131C107.675 13.1003 107.777 12.9285 107.777 12.6977C107.777 12.5151 107.697 12.3621 107.536 12.2386C107.375 12.1151 107.12 12.0104 106.771 11.9245L106.416 11.8521C105.992 11.7608 105.678 11.6346 105.474 11.4736C105.27 11.3071 105.168 11.0763 105.168 10.781C105.168 10.432 105.31 10.1555 105.595 9.95147C105.885 9.74209 106.242 9.63739 106.666 9.63739C107.138 9.63739 107.504 9.75014 107.761 9.97563C108.024 10.1958 108.164 10.4535 108.18 10.7488H107.649C107.627 10.5555 107.525 10.3971 107.342 10.2736C107.165 10.1448 106.94 10.0803 106.666 10.0803C106.392 10.0803 106.159 10.1394 105.965 10.2575C105.777 10.3702 105.684 10.5394 105.684 10.7649C105.684 10.9635 105.759 11.1058 105.909 11.1917C106.059 11.2776 106.309 11.3581 106.658 11.4333L106.98 11.5138C107.426 11.6105 107.753 11.7527 107.963 11.9406C108.177 12.1286 108.285 12.3782 108.285 12.6896Z" fill="#0D0D30"/>
<path d="M111.817 8.89648C111.742 8.97165 111.651 9.00923 111.543 9.00923C111.436 9.00923 111.345 8.97165 111.269 8.89648C111.194 8.82132 111.157 8.73005 111.157 8.62267C111.157 8.52066 111.194 8.43208 111.269 8.35691C111.345 8.28175 111.436 8.24416 111.543 8.24416C111.651 8.24416 111.742 8.28175 111.817 8.35691C111.892 8.42671 111.93 8.51529 111.93 8.62267C111.93 8.73005 111.892 8.82132 111.817 8.89648ZM111.809 13.3097H113.283V13.7446H109.796V13.3097H111.269V10.1528H109.876V9.71793H111.809V13.3097Z" fill="#0D0D30"/>
<path d="M116.541 9.63739C116.992 9.63739 117.355 9.76893 117.628 10.032C117.902 10.2951 118.039 10.6736 118.039 11.1675V13.7446H117.5V11.2803C117.5 10.8883 117.4 10.5957 117.202 10.4025C117.003 10.2092 116.742 10.1125 116.42 10.1125C116.071 10.1125 115.787 10.2172 115.567 10.4266C115.347 10.636 115.237 10.9501 115.237 11.3689V13.7446H114.697V9.71793H115.18L115.237 10.2333H115.285C115.569 9.83604 115.988 9.63739 116.541 9.63739Z" fill="#0D0D30"/>
<path d="M121.628 13.052C122.1 13.052 122.46 13.1486 122.707 13.3419C122.959 13.5352 123.085 13.809 123.085 14.1634C123.085 14.566 122.914 14.8774 122.57 15.0976C122.232 15.3231 121.8 15.4358 121.273 15.4358C120.656 15.4358 120.184 15.3069 119.856 15.0492C119.529 14.7915 119.341 14.4587 119.292 14.0506L120.073 13.4547C119.891 13.4064 119.746 13.3178 119.639 13.1889C119.531 13.0601 119.477 12.9044 119.477 12.7218C119.477 12.4051 119.655 12.1635 120.009 11.997C119.719 11.7393 119.574 11.4145 119.574 11.0226C119.574 10.6199 119.724 10.2897 120.025 10.032C120.331 9.76893 120.72 9.63739 121.193 9.63739C121.569 9.63739 121.899 9.73135 122.183 9.91926C122.452 9.80651 122.693 9.62129 122.908 9.36358L123.263 9.70987C123.032 9.93 122.777 10.0964 122.497 10.2092C122.685 10.4508 122.779 10.7219 122.779 11.0226C122.779 11.436 122.629 11.7688 122.328 12.0212C122.028 12.2682 121.649 12.3916 121.193 12.3916C120.887 12.3916 120.608 12.3326 120.355 12.2145C120.108 12.3218 119.985 12.4668 119.985 12.6493C119.985 12.9178 120.213 13.052 120.669 13.052H121.628ZM121.958 10.338C121.77 10.1609 121.515 10.0723 121.193 10.0723C120.871 10.0723 120.608 10.1609 120.404 10.338C120.205 10.5152 120.106 10.7434 120.106 11.0226C120.106 11.291 120.205 11.5138 120.404 11.691C120.608 11.8682 120.871 11.9568 121.193 11.9568C121.515 11.9568 121.77 11.8709 121.958 11.699C122.151 11.5219 122.248 11.2964 122.248 11.0226C122.248 10.7434 122.151 10.5152 121.958 10.338ZM121.273 14.9929C121.628 14.9929 121.931 14.9231 122.183 14.7835C122.436 14.6493 122.562 14.4479 122.562 14.1795C122.562 13.9594 122.476 13.7929 122.304 13.6802C122.132 13.5621 121.893 13.503 121.587 13.503H120.694L119.832 14.1312C119.902 14.3781 120.052 14.5821 120.283 14.7432C120.519 14.9096 120.849 14.9929 121.273 14.9929Z" fill="#0D0D30"/>
<path d="M126.215 13.3097H127.689V13.7446H124.194V13.3097H125.675V8.54214H124.274V8.10726H126.215V13.3097Z" fill="#0D0D30"/>
<path d="M132.63 11.6266C132.63 11.7125 132.628 11.785 132.622 11.844H129.522C129.538 12.3004 129.669 12.6681 129.916 12.9473C130.169 13.2265 130.499 13.3661 130.907 13.3661C131.197 13.3661 131.444 13.3043 131.648 13.1809C131.852 13.052 131.991 12.8668 132.067 12.6252H132.598C132.507 13.0064 132.308 13.3017 132.002 13.511C131.702 13.7204 131.336 13.8251 130.907 13.8251C130.343 13.8251 129.884 13.6372 129.53 13.2614C129.175 12.8802 128.998 12.3836 128.998 11.7715C128.998 11.1326 129.173 10.6172 129.522 10.2253C129.876 9.83336 130.327 9.63739 130.875 9.63739C131.385 9.63739 131.804 9.81188 132.131 10.1609C132.464 10.5098 132.63 10.9984 132.63 11.6266ZM130.875 10.0964C130.51 10.0964 130.204 10.2226 129.957 10.4749C129.71 10.7273 129.567 11.044 129.53 11.4252H132.107C132.096 11.0279 131.978 10.7085 131.753 10.4669C131.527 10.2199 131.234 10.0964 130.875 10.0964Z" fill="#0D0D30"/>
<g filter="url(#filter1_d)">
<rect x="2" y="32.9775" width="87.6676" height="20.1072" rx="10.0536" fill="white"/>
</g>
<path d="M31.2633 44.3547C31.2633 44.8755 31.0808 45.2755 30.7157 45.5547C30.356 45.8285 29.8862 45.9654 29.3064 45.9654C28.6782 45.9654 28.1896 45.8043 27.8407 45.4822C27.4917 45.1547 27.3064 44.7144 27.285 44.1614H28.3239C28.3507 44.4514 28.4473 44.6742 28.6138 44.8299C28.7856 44.9856 29.0191 45.0634 29.3144 45.0634C29.5668 45.0634 29.7761 45.0071 29.9426 44.8943C30.1144 44.7816 30.2003 44.6098 30.2003 44.3789C30.2003 44.2715 30.1788 44.1749 30.1359 44.089C30.0983 43.9977 30.0526 43.9252 29.9989 43.8715C29.9453 43.8178 29.8647 43.7642 29.7573 43.7105C29.65 43.6514 29.5587 43.6085 29.4835 43.5816C29.4084 43.5548 29.2983 43.5172 29.1533 43.4689L28.952 43.3964C28.4957 43.2407 28.1333 43.042 27.8648 42.8004C27.5964 42.5535 27.4621 42.2125 27.4621 41.7777C27.4621 41.2891 27.6393 40.8998 27.9937 40.6099C28.348 40.3146 28.7963 40.167 29.3386 40.167C29.8916 40.167 30.3399 40.3227 30.6835 40.6341C31.0271 40.9455 31.2043 41.3428 31.215 41.826H30.2244C30.1976 41.6005 30.1063 41.4179 29.9506 41.2784C29.8003 41.1388 29.5963 41.069 29.3386 41.069C29.0916 41.069 28.893 41.1334 28.7426 41.2622C28.5923 41.3857 28.5171 41.5495 28.5171 41.7535C28.5171 41.8072 28.5198 41.8582 28.5252 41.9065C28.5359 41.9495 28.5547 41.9897 28.5816 42.0273C28.6084 42.0649 28.6299 42.0998 28.646 42.132C28.6675 42.1589 28.7024 42.1884 28.7507 42.2206C28.8044 42.2528 28.842 42.277 28.8634 42.2931C28.8903 42.3092 28.9359 42.3307 29.0003 42.3575C29.0648 42.3843 29.1104 42.4031 29.1372 42.4139C29.1641 42.4246 29.2151 42.4434 29.2903 42.4702C29.3708 42.4971 29.4218 42.5159 29.4433 42.5266L29.6285 42.591C29.8379 42.6608 30.007 42.728 30.1359 42.7924C30.2701 42.8514 30.4365 42.9508 30.6352 43.0904C30.8392 43.2246 30.9949 43.3991 31.1023 43.6138C31.2096 43.8286 31.2633 44.0755 31.2633 44.3547Z" fill="#0D0D30"/>
<path d="M34.4896 44.3628C34.4896 44.8728 34.7768 45.1279 35.3513 45.1279C35.4962 45.1279 35.6627 45.1064 35.8506 45.0634V45.8688C35.5768 45.9332 35.3164 45.9654 35.0694 45.9654C33.9956 45.9654 33.4587 45.4876 33.4587 44.5319V42.6716H32.2266V41.8582H32.8547C33.1071 41.8582 33.2896 41.8018 33.4024 41.6891C33.5151 41.5763 33.5715 41.3911 33.5715 41.1334V40.7629H34.4896V41.8582H36.068V42.6716H34.4896V44.3628Z" fill="#0D0D30"/>
<path d="M41.0902 41.8582L39.5842 46.3842C39.5305 46.5452 39.4688 46.6848 39.399 46.8029C39.3345 46.9211 39.2406 47.0445 39.1171 47.1734C38.9936 47.3023 38.8272 47.4016 38.6178 47.4714C38.4138 47.5412 38.1749 47.5761 37.901 47.5761C37.6702 47.5761 37.4339 47.5412 37.1923 47.4714V46.7063C37.3642 46.7493 37.5413 46.7707 37.7239 46.7707C38.1749 46.7707 38.4755 46.5909 38.6258 46.2312L38.7627 45.8849H38.4326L36.8461 41.8582H37.9091L39.0527 44.8299H39.1251L40.0352 41.8582H41.0902Z" fill="#0D0D30"/>
<path d="M44.2842 45.0956H45.613V45.8849H41.9165V45.0956H43.2534V41.0368H41.997V40.2475H44.2842V45.0956Z" fill="#0D0D30"/>
<path d="M48.7023 45.144C49.1641 45.144 49.4486 44.9668 49.556 44.6124H50.5385C50.4633 45.0312 50.262 45.3614 49.9345 45.603C49.607 45.8446 49.1963 45.9654 48.7023 45.9654C48.1064 45.9654 47.6178 45.7775 47.2366 45.4017C46.8554 45.0205 46.6648 44.5239 46.6648 43.9118C46.6648 43.2675 46.8554 42.7521 47.2366 42.3656C47.6232 41.9736 48.0983 41.7777 48.6621 41.7777C49.1936 41.7777 49.6392 41.9521 49.9989 42.3011C50.3586 42.6501 50.5385 43.1655 50.5385 43.8474C50.5385 43.8957 50.5331 43.995 50.5224 44.1453H47.6635C47.6849 44.4406 47.7896 44.6822 47.9775 44.8701C48.1654 45.0527 48.407 45.144 48.7023 45.144ZM48.6621 42.5991C48.399 42.5991 48.1762 42.6796 47.9936 42.8407C47.8165 43.0018 47.7091 43.2058 47.6715 43.4528H49.5479C49.5426 43.2058 49.4567 43.0018 49.2902 42.8407C49.1238 42.6796 48.9144 42.5991 48.6621 42.5991Z" fill="#0D0D30"/>
<path d="M53.9419 43.0018C53.8077 43.136 53.6466 43.2031 53.4587 43.2031C53.2708 43.2031 53.1071 43.136 52.9675 43.0018C52.8332 42.8622 52.7661 42.7011 52.7661 42.5186C52.7661 42.3253 52.8332 42.1615 52.9675 42.0273C53.1071 41.8877 53.2708 41.8179 53.4587 41.8179C53.6466 41.8179 53.8077 41.8877 53.9419 42.0273C54.0815 42.1615 54.1513 42.3253 54.1513 42.5186C54.1513 42.7065 54.0815 42.8675 53.9419 43.0018ZM53.9419 45.7238C53.8077 45.858 53.6466 45.9251 53.4587 45.9251C53.2708 45.9251 53.1071 45.858 52.9675 45.7238C52.8332 45.5842 52.7661 45.4231 52.7661 45.2406C52.7661 45.0473 52.8332 44.8836 52.9675 44.7493C53.1071 44.6098 53.2708 44.54 53.4587 44.54C53.6466 44.54 53.8077 44.6098 53.9419 44.7493C54.0815 44.8836 54.1513 45.0473 54.1513 45.2406C54.1513 45.4285 54.0815 45.5896 53.9419 45.7238Z" fill="#0D0D30"/>
<path d="M60.309 45.8849H59.6808L58.1668 43.4286H57.0715V45.8849H56.5239V40.2475H58.3037C58.8352 40.2475 59.2567 40.3898 59.5681 40.6744C59.8795 40.9535 60.0351 41.332 60.0351 41.8099C60.0351 42.2179 59.9197 42.5562 59.6889 42.8246C59.458 43.0877 59.1385 43.2595 58.7305 43.34L60.309 45.8849ZM57.0715 40.7468V42.9373H58.2231C58.6151 42.9373 58.9211 42.838 59.1412 42.6394C59.3667 42.4354 59.4795 42.1642 59.4795 41.826C59.4795 41.4824 59.3667 41.2166 59.1412 41.0287C58.9211 40.8408 58.6151 40.7468 58.2231 40.7468H57.0715Z" fill="#0D0D30"/>
<path d="M64.8962 43.7668C64.8962 43.8527 64.8935 43.9252 64.8882 43.9843H61.7876C61.8037 44.4406 61.9353 44.8084 62.1822 45.0876C62.4346 45.3668 62.7648 45.5064 63.1728 45.5064C63.4627 45.5064 63.7097 45.4446 63.9137 45.3211C64.1177 45.1923 64.2573 45.0071 64.3325 44.7655H64.864C64.7727 45.1466 64.5741 45.4419 64.2681 45.6513C63.9674 45.8607 63.6023 45.9654 63.1728 45.9654C62.6091 45.9654 62.15 45.7775 61.7957 45.4017C61.4413 45.0205 61.2642 44.5239 61.2642 43.9118C61.2642 43.2729 61.4387 42.7575 61.7876 42.3656C62.142 41.9736 62.593 41.7777 63.1406 41.7777C63.6506 41.7777 64.0694 41.9521 64.3969 42.3011C64.7298 42.6501 64.8962 43.1387 64.8962 43.7668ZM63.1406 42.2367C62.7755 42.2367 62.4695 42.3629 62.2225 42.6152C61.9755 42.8675 61.8333 43.1843 61.7957 43.5655H64.3728C64.362 43.1682 64.2439 42.8488 64.0184 42.6072C63.7929 42.3602 63.5003 42.2367 63.1406 42.2367Z" fill="#0D0D30"/>
<path d="M68.0258 44.5883C68.0258 44.8943 68.0956 45.1225 68.2352 45.2728C68.3802 45.4231 68.6137 45.4983 68.9359 45.4983C69.1291 45.4983 69.3197 45.4768 69.5076 45.4339V45.8768C69.2821 45.9359 69.062 45.9654 68.8473 45.9654C67.9453 45.9654 67.4943 45.5386 67.4943 44.6849V42.3011H66.1494V41.8582H66.842C67.1051 41.8582 67.2849 41.8072 67.3816 41.7052C67.4836 41.5978 67.5346 41.4045 67.5346 41.1253V40.7629H68.0258V41.8582H69.7492V42.3011H68.0258V44.5883Z" fill="#0D0D30"/>
<path d="M74.264 42.3092C73.8345 42.3092 73.4721 42.43 73.1768 42.6716C72.8815 42.9132 72.7339 43.2595 72.7339 43.7105V45.458H74.3284V45.8849H70.946V45.458H72.1943V42.285H70.9863V41.8582H72.6695L72.7258 42.5427H72.7742C72.9191 42.2958 73.1151 42.1078 73.362 41.979C73.609 41.8448 73.9607 41.7777 74.417 41.7777H74.707V42.3253C74.5996 42.3146 74.4519 42.3092 74.264 42.3092Z" fill="#0D0D30"/>
<path d="M78.964 45.3695C78.615 45.7667 78.1587 45.9654 77.595 45.9654C77.0312 45.9654 76.5749 45.7667 76.2259 45.3695C75.8823 44.9668 75.7105 44.4648 75.7105 43.8635C75.7105 43.2622 75.8823 42.7655 76.2259 42.3736C76.5749 41.9763 77.0312 41.7777 77.595 41.7777C78.1533 41.7777 78.607 41.9763 78.956 42.3736C79.3103 42.7709 79.4875 43.2675 79.4875 43.8635C79.4875 44.4702 79.313 44.9722 78.964 45.3695ZM77.595 45.4903C78.0084 45.4903 78.3385 45.3346 78.5855 45.0232C78.8325 44.7118 78.956 44.3252 78.956 43.8635C78.956 43.4071 78.8325 43.0259 78.5855 42.7199C78.3385 42.4085 78.0084 42.2528 77.595 42.2528C77.1762 42.2528 76.846 42.4085 76.6044 42.7199C76.3628 43.0259 76.242 43.4071 76.242 43.8635C76.242 44.3252 76.3628 44.7118 76.6044 45.0232C76.846 45.3346 77.1762 45.4903 77.595 45.4903Z" fill="#0D0D30"/>
<g filter="url(#filter2_d)">
<rect x="2" y="65.9517" width="150" height="20.1072" rx="10.0536" fill="white"/>
</g>
<path d="M31.3689 73.8156V79.453H30.4347V75.7645H30.3703L29.8871 77.2705H29.0093L28.5181 75.7645H28.4536V79.453H27.5194V73.8156H28.6952L29.42 76.0383H29.4845L30.1931 73.8156H31.3689Z" fill="#0D0D30"/>
<path d="M36.2381 78.6798H36.3347V79.453H35.8998C35.4757 79.453 35.2046 79.2919 35.0864 78.9698C34.7965 79.3456 34.3616 79.5335 33.7818 79.5335C33.3577 79.5335 33.014 79.4342 32.751 79.2355C32.4933 79.0315 32.3644 78.7389 32.3644 78.3577C32.3644 77.9872 32.4852 77.7 32.7268 77.496C32.9738 77.2866 33.2986 77.1631 33.7013 77.1255L34.9173 76.9886V76.8276C34.9173 76.6074 34.8556 76.441 34.7321 76.3283C34.6086 76.2155 34.4449 76.1591 34.2408 76.1591C33.8489 76.1591 33.618 76.3632 33.5482 76.7712H32.5174C32.555 76.347 32.7295 76.0034 33.0409 75.7404C33.3523 75.4773 33.7603 75.3457 34.265 75.3457C34.7589 75.3457 35.1616 75.4773 35.473 75.7404C35.7898 75.9981 35.9481 76.3846 35.9481 76.9V78.3819C35.9481 78.5805 36.0448 78.6798 36.2381 78.6798ZM34.9173 77.9067V77.7054L34.0637 77.802C33.618 77.845 33.3952 78.0114 33.3952 78.3013C33.3952 78.5966 33.5858 78.7443 33.967 78.7443C34.214 78.7443 34.4341 78.6771 34.6274 78.5429C34.8207 78.4033 34.9173 78.1913 34.9173 77.9067Z" fill="#0D0D30"/>
<path d="M39.4482 77.9309C39.4482 78.4409 39.7354 78.6959 40.3099 78.6959C40.4549 78.6959 40.6213 78.6745 40.8092 78.6315V79.4368C40.5354 79.5013 40.275 79.5335 40.028 79.5335C38.9543 79.5335 38.4174 79.0557 38.4174 78.1V76.2397H37.1852V75.4263H37.8134C38.0657 75.4263 38.2483 75.3699 38.361 75.2572C38.4737 75.1444 38.5301 74.9592 38.5301 74.7015V74.331H39.4482V75.4263H41.0267V76.2397H39.4482V77.9309Z" fill="#0D0D30"/>
<path d="M44.0032 78.712C44.465 78.712 44.7495 78.5349 44.8569 78.1805H45.8394C45.7642 78.5993 45.5629 78.9295 45.2354 79.1711C44.9079 79.4127 44.4972 79.5335 44.0032 79.5335C43.4073 79.5335 42.9187 79.3456 42.5375 78.9698C42.1563 78.5886 41.9658 78.0919 41.9658 77.4799C41.9658 76.8356 42.1563 76.3202 42.5375 75.9336C42.9241 75.5417 43.3992 75.3457 43.963 75.3457C44.4945 75.3457 44.9401 75.5202 45.2998 75.8692C45.6595 76.2182 45.8394 76.7336 45.8394 77.4155C45.8394 77.4638 45.834 77.5631 45.8233 77.7134H42.9644C42.9858 78.0087 43.0905 78.2503 43.2784 78.4382C43.4664 78.6208 43.708 78.712 44.0032 78.712ZM43.963 76.1672C43.6999 76.1672 43.4771 76.2477 43.2946 76.4088C43.1174 76.5699 43.01 76.7739 42.9724 77.0208H44.8488C44.8435 76.7739 44.7576 76.5699 44.5911 76.4088C44.4247 76.2477 44.2153 76.1672 43.963 76.1672Z" fill="#0D0D30"/>
<path d="M50.322 76.3444C49.8817 76.3444 49.5489 76.4544 49.3234 76.6745C49.0979 76.8947 48.9851 77.19 48.9851 77.5604V78.6879H50.4589V79.453H46.8349V78.6879H47.9543V76.1913H46.8751V75.4263H48.8804L48.969 76.0786H49.0415C49.1918 75.8209 49.369 75.6357 49.573 75.5229C49.7824 75.4048 50.0884 75.3457 50.4911 75.3457H50.8052V76.3766C50.6602 76.3551 50.4991 76.3444 50.322 76.3444Z" fill="#0D0D30"/>
<path d="M53.5965 74.9109C53.4247 74.9109 53.2744 74.8491 53.1455 74.7256C53.0221 74.6022 52.9603 74.4572 52.9603 74.2908C52.9603 74.1136 53.0221 73.9659 53.1455 73.8478C53.2744 73.7243 53.4247 73.6626 53.5965 73.6626C53.7683 73.6626 53.9133 73.7243 54.0314 73.8478C54.1549 73.9659 54.2166 74.1136 54.2166 74.2908C54.2166 74.4572 54.1549 74.6022 54.0314 74.7256C53.9079 74.8491 53.763 74.9109 53.5965 74.9109ZM54.1039 78.6637H55.4408V79.453H51.7362V78.6637H53.0731V76.2155H51.8167V75.4263H54.1039V78.6637Z" fill="#0D0D30"/>
<path d="M60.3824 78.6798H60.479V79.453H60.0441C59.62 79.453 59.3488 79.2919 59.2307 78.9698C58.9408 79.3456 58.5059 79.5335 57.9261 79.5335C57.5019 79.5335 57.1583 79.4342 56.8953 79.2355C56.6376 79.0315 56.5087 78.7389 56.5087 78.3577C56.5087 77.9872 56.6295 77.7 56.8711 77.496C57.1181 77.2866 57.4429 77.1631 57.8456 77.1255L59.0616 76.9886V76.8276C59.0616 76.6074 58.9999 76.441 58.8764 76.3283C58.7529 76.2155 58.5891 76.1591 58.3851 76.1591C57.9932 76.1591 57.7623 76.3632 57.6925 76.7712H56.6617C56.6993 76.347 56.8738 76.0034 57.1852 75.7404C57.4966 75.4773 57.9046 75.3457 58.4093 75.3457C58.9032 75.3457 59.3059 75.4773 59.6173 75.7404C59.9341 75.9981 60.0924 76.3846 60.0924 76.9V78.3819C60.0924 78.5805 60.1891 78.6798 60.3824 78.6798ZM59.0616 77.9067V77.7054L58.208 77.802C57.7623 77.845 57.5395 78.0114 57.5395 78.3013C57.5395 78.5966 57.7301 78.7443 58.1113 78.7443C58.3583 78.7443 58.5784 78.6771 58.7717 78.5429C58.965 78.4033 59.0616 78.1913 59.0616 77.9067Z" fill="#0D0D30"/>
<path d="M63.7294 78.6637H65.0582V79.453H61.3617V78.6637H62.6986V74.6048H61.4423V73.8156H63.7294V78.6637Z" fill="#0D0D30"/>
<path d="M69.8065 78.3174C69.8065 78.7147 69.6455 79.0181 69.3233 79.2275C69.0012 79.4315 68.6012 79.5335 68.1234 79.5335C67.5221 79.5335 67.063 79.4127 66.7463 79.1711C66.4349 78.9295 66.2657 78.5939 66.2389 78.1644H67.2375C67.2858 78.5617 67.5811 78.7604 68.1234 78.7604C68.3381 78.7604 68.5153 78.7282 68.6549 78.6637C68.7945 78.5939 68.8643 78.4865 68.8643 78.3416C68.8643 78.2181 68.8052 78.1161 68.6871 78.0356C68.569 77.955 68.365 77.8825 68.0751 77.8181L67.6724 77.7295C67.2483 77.6383 66.9261 77.5121 66.706 77.351C66.4859 77.1846 66.3758 76.9296 66.3758 76.586C66.3758 76.194 66.5288 75.8907 66.8349 75.6759C67.1409 75.4558 67.5248 75.3457 67.9865 75.3457C68.518 75.3457 68.9314 75.4639 69.2267 75.7001C69.522 75.9363 69.6857 76.2289 69.7179 76.5779H68.7193C68.6979 76.4383 68.62 76.3283 68.4858 76.2477C68.3569 76.1618 68.1905 76.1189 67.9865 76.1189C67.7932 76.1189 67.6348 76.1564 67.5113 76.2316C67.3932 76.3014 67.3342 76.4007 67.3342 76.5296C67.3342 76.6584 67.3905 76.7524 67.5033 76.8115C67.616 76.8651 67.8227 76.9242 68.1234 76.9886L68.4777 77.0692C68.9233 77.1712 69.2562 77.3188 69.4763 77.5121C69.6965 77.7054 69.8065 77.9738 69.8065 78.3174Z" fill="#0D0D30"/>
<path d="M73.3871 76.5699C73.2529 76.7041 73.0918 76.7712 72.9039 76.7712C72.716 76.7712 72.5523 76.7041 72.4127 76.5699C72.2784 76.4303 72.2113 76.2692 72.2113 76.0867C72.2113 75.8934 72.2784 75.7296 72.4127 75.5954C72.5523 75.4558 72.716 75.386 72.9039 75.386C73.0918 75.386 73.2529 75.4558 73.3871 75.5954C73.5267 75.7296 73.5965 75.8934 73.5965 76.0867C73.5965 76.2746 73.5267 76.4356 73.3871 76.5699ZM73.3871 79.2919C73.2529 79.4261 73.0918 79.4932 72.9039 79.4932C72.716 79.4932 72.5523 79.4261 72.4127 79.2919C72.2784 79.1523 72.2113 78.9912 72.2113 78.8087C72.2113 78.6154 72.2784 78.4517 72.4127 78.3174C72.5523 78.1778 72.716 78.108 72.9039 78.108C73.0918 78.108 73.2529 78.1778 73.3871 78.3174C73.5267 78.4517 73.5965 78.6154 73.5965 78.8087C73.5965 78.9966 73.5267 79.1577 73.3871 79.2919Z" fill="#0D0D30"/>
<path d="M82.7549 73.8156C83.265 73.8156 83.673 73.9659 83.979 74.2666C84.2904 74.5673 84.4461 74.9646 84.4461 75.4585C84.4461 75.9739 84.2877 76.3819 83.971 76.6826C83.6542 76.9779 83.2274 77.1255 82.6905 77.1255H81.3375V79.453H80.806V73.8156H82.7549ZM82.6261 76.6182C83.018 76.6182 83.324 76.5162 83.5442 76.3121C83.7643 76.1081 83.8743 75.8236 83.8743 75.4585C83.8743 75.0988 83.7643 74.8196 83.5442 74.6209C83.324 74.4223 83.0395 74.323 82.6905 74.323H81.3375V76.6182H82.6261Z" fill="#0D0D30"/>
<path d="M87.5838 79.0181H89.0575V79.453H85.5624V79.0181H87.0442V74.2505H85.6429V73.8156H87.5838V79.0181Z" fill="#0D0D30"/>
<path d="M92.0422 79.5335C91.5912 79.5335 91.2288 79.4019 90.955 79.1389C90.6812 78.8758 90.5443 78.4973 90.5443 78.0033V75.4263H91.0838V77.8906C91.0838 78.2825 91.1832 78.5751 91.3818 78.7684C91.5805 78.9617 91.8408 79.0583 92.163 79.0583C92.512 79.0583 92.7965 78.9536 93.0166 78.7443C93.2368 78.5349 93.3468 78.2208 93.3468 77.802V75.4263H93.8864V79.453H93.4032L93.3468 78.9375H93.2985C93.0139 79.3348 92.5952 79.5335 92.0422 79.5335Z" fill="#0D0D30"/>
<path d="M98.6267 78.398C98.6267 78.7684 98.479 79.0503 98.1837 79.2436C97.8884 79.4368 97.5099 79.5335 97.0482 79.5335C96.506 79.5335 96.0926 79.4181 95.808 79.1872C95.5288 78.951 95.3812 78.6422 95.3651 78.2611H95.8966C95.9503 78.8141 96.3342 79.0906 97.0482 79.0906C97.3542 79.0906 97.6093 79.0342 97.8133 78.9214C98.0173 78.8087 98.1193 78.6369 98.1193 78.406C98.1193 78.2235 98.0388 78.0705 97.8777 77.947C97.7166 77.8235 97.4616 77.7188 97.1126 77.6329L96.7583 77.5604C96.3342 77.4691 96.0201 77.343 95.8161 77.1819C95.612 77.0155 95.51 76.7846 95.51 76.4893C95.51 76.1403 95.6523 75.8638 95.9369 75.6598C96.2268 75.4504 96.5838 75.3457 97.0079 75.3457C97.4804 75.3457 97.8455 75.4585 98.1032 75.684C98.3663 75.9041 98.5059 76.1618 98.522 76.4571H97.9905C97.969 76.2638 97.867 76.1054 97.6844 75.982C97.5073 75.8531 97.2818 75.7887 97.0079 75.7887C96.7341 75.7887 96.5006 75.8477 96.3073 75.9659C96.1194 76.0786 96.0254 76.2477 96.0254 76.4732C96.0254 76.6719 96.1006 76.8141 96.2509 76.9C96.4013 76.9859 96.6509 77.0665 96.9999 77.1416L97.322 77.2222C97.7677 77.3188 98.0952 77.4611 98.3045 77.649C98.5193 77.8369 98.6267 78.0866 98.6267 78.398Z" fill="#0D0D30"/>
<path d="M102.054 75.3457C102.505 75.3457 102.868 75.4773 103.141 75.7404C103.415 76.0034 103.552 76.3819 103.552 76.8759V79.453H103.013V76.9886C103.013 76.5967 102.913 76.3041 102.715 76.1108C102.516 75.9175 102.256 75.8209 101.933 75.8209C101.584 75.8209 101.3 75.9256 101.08 76.135C100.86 76.3444 100.75 76.6584 100.75 77.0772V79.453H100.21V73.7351H100.75V75.9417H100.798C101.082 75.5444 101.501 75.3457 102.054 75.3457Z" fill="#0D0D30"/>
<path d="M113.105 73.8156H113.709L111.881 79.453H111.172L109.36 73.8156H109.964L111.503 78.6718H111.559L113.105 73.8156Z" fill="#0D0D30"/>
<path d="M118.143 77.3349C118.143 77.4208 118.141 77.4933 118.135 77.5524H115.035C115.051 78.0087 115.182 78.3765 115.429 78.6557C115.682 78.9349 116.012 79.0744 116.42 79.0744C116.71 79.0744 116.957 79.0127 117.161 78.8892C117.365 78.7604 117.505 78.5751 117.58 78.3335H118.111C118.02 78.7147 117.821 79.01 117.515 79.2194C117.215 79.4288 116.85 79.5335 116.42 79.5335C115.856 79.5335 115.397 79.3456 115.043 78.9698C114.689 78.5886 114.511 78.0919 114.511 77.4799C114.511 76.841 114.686 76.3256 115.035 75.9336C115.389 75.5417 115.84 75.3457 116.388 75.3457C116.898 75.3457 117.317 75.5202 117.644 75.8692C117.977 76.2182 118.143 76.7068 118.143 77.3349ZM116.388 75.8048C116.023 75.8048 115.717 75.931 115.47 76.1833C115.223 76.4356 115.08 76.7524 115.043 77.1336H117.62C117.609 76.7363 117.491 76.4168 117.266 76.1752C117.04 75.9283 116.748 75.8048 116.388 75.8048Z" fill="#0D0D30"/>
<path d="M121.386 79.0181H122.86V79.453H119.364V79.0181H120.846V74.2505H119.445V73.8156H121.386V79.0181Z" fill="#0D0D30"/>
<path d="M127.358 75.4263H127.914L126.368 79.453H125.675L124.129 75.4263H124.685L125.997 78.8973H126.046L127.358 75.4263Z" fill="#0D0D30"/>
<path d="M132.63 77.3349C132.63 77.4208 132.627 77.4933 132.622 77.5524H129.521C129.538 78.0087 129.669 78.3765 129.916 78.6557C130.168 78.9349 130.499 79.0744 130.907 79.0744C131.197 79.0744 131.443 79.0127 131.648 78.8892C131.852 78.7604 131.991 78.5751 132.066 78.3335H132.598C132.507 78.7147 132.308 79.01 132.002 79.2194C131.701 79.4288 131.336 79.5335 130.907 79.5335C130.343 79.5335 129.884 79.3456 129.529 78.9698C129.175 78.5886 128.998 78.0919 128.998 77.4799C128.998 76.841 129.172 76.3256 129.521 75.9336C129.876 75.5417 130.327 75.3457 130.874 75.3457C131.384 75.3457 131.803 75.5202 132.131 75.8692C132.464 76.2182 132.63 76.7068 132.63 77.3349ZM130.874 75.8048C130.509 75.8048 130.203 75.931 129.956 76.1833C129.709 76.4356 129.567 76.7524 129.529 77.1336H132.107C132.096 76.7363 131.978 76.4168 131.752 76.1752C131.527 75.9283 131.234 75.8048 130.874 75.8048Z" fill="#0D0D30"/>
<path d="M135.76 78.1564C135.76 78.4624 135.829 78.6906 135.969 78.8409C136.114 78.9912 136.348 79.0664 136.67 79.0664C136.863 79.0664 137.054 79.0449 137.241 79.002V79.4449C137.016 79.504 136.796 79.5335 136.581 79.5335C135.679 79.5335 135.228 79.1067 135.228 78.253V75.8692H133.883V75.4263H134.576C134.839 75.4263 135.019 75.3753 135.115 75.2733C135.217 75.1659 135.268 74.9726 135.268 74.6934V74.331H135.76V75.4263H137.483V75.8692H135.76V78.1564Z" fill="#0D0D30"/>
<g filter="url(#filter3_d)">
<rect x="2.05112" y="98.564" width="114.107" height="20.471" rx="10.2355" fill="white"/>
</g>
<path d="M30.58 109.55C30.8324 109.636 31.0498 109.794 31.2324 110.025C31.4203 110.251 31.5142 110.562 31.5142 110.959C31.5142 111.453 31.3559 111.837 31.0391 112.111C30.7277 112.38 30.2821 112.514 29.7022 112.514H27.5278V106.876H29.6942C30.2364 106.876 30.6498 107.005 30.9344 107.263C31.2243 107.515 31.3693 107.856 31.3693 108.286C31.3693 108.844 31.1062 109.249 30.58 109.502V109.55ZM28.5667 107.73V109.188H29.5653C29.8016 109.188 29.9841 109.121 30.113 108.986C30.2418 108.852 30.3062 108.672 30.3062 108.447C30.3062 108.227 30.2391 108.052 30.1049 107.923C29.976 107.795 29.8042 107.73 29.5895 107.73H28.5667ZM29.6136 111.66C29.8821 111.66 30.0861 111.588 30.2257 111.443C30.3707 111.298 30.4431 111.107 30.4431 110.871C30.4431 110.629 30.368 110.431 30.2176 110.275C30.0673 110.119 29.8633 110.041 29.6056 110.041H28.5667V111.66H29.6136Z" fill="#0D0D30"/>
<path d="M33.8707 112.594C33.4144 112.594 33.052 112.452 32.7835 112.167C32.5204 111.878 32.3889 111.478 32.3889 110.968V108.487H33.4197V110.798C33.4197 111.099 33.4949 111.33 33.6452 111.491C33.8009 111.647 34.0023 111.725 34.2492 111.725C34.5016 111.725 34.711 111.644 34.8774 111.483C35.0438 111.317 35.127 111.072 35.127 110.75V108.487H36.1579V112.514H35.2156L35.127 112.031H35.0626C34.7942 112.406 34.3969 112.594 33.8707 112.594Z" fill="#0D0D30"/>
<path d="M40.0364 106.796H41.0592V112.514H40.2297L40.1411 112.039H40.0686C39.8002 112.409 39.4083 112.594 38.8929 112.594C38.3613 112.594 37.9184 112.401 37.5641 112.014C37.2097 111.628 37.0325 111.121 37.0325 110.492C37.0325 109.853 37.2097 109.346 37.5641 108.97C37.9184 108.594 38.3613 108.407 38.8929 108.407C39.3761 108.407 39.7573 108.557 40.0364 108.858V106.796ZM38.3372 111.386C38.5251 111.612 38.7667 111.725 39.062 111.725C39.3573 111.725 39.5935 111.614 39.7707 111.394C39.9478 111.169 40.0364 110.868 40.0364 110.492C40.0364 110.122 39.9478 109.827 39.7707 109.607C39.5935 109.386 39.3573 109.276 39.062 109.276C38.7667 109.276 38.5251 109.389 38.3372 109.615C38.1546 109.835 38.0634 110.127 38.0634 110.492C38.0634 110.863 38.1546 111.161 38.3372 111.386Z" fill="#0D0D30"/>
<path d="M44.4063 111.636C44.9163 111.636 45.3055 111.743 45.574 111.958C45.8424 112.167 45.9767 112.457 45.9767 112.828C45.9767 113.252 45.7941 113.588 45.429 113.835C45.0693 114.081 44.5861 114.205 43.9794 114.205C43.3298 114.205 42.8278 114.076 42.4734 113.818C42.1191 113.561 41.9205 113.236 41.8775 112.844L42.5459 112.312C42.2184 112.151 42.0547 111.904 42.0547 111.572C42.0547 111.244 42.2453 110.981 42.6265 110.782C42.2882 110.535 42.1191 110.205 42.1191 109.792C42.1191 109.389 42.2829 109.059 42.6104 108.801C42.9379 108.538 43.3781 108.407 43.9311 108.407C44.2855 108.407 44.6049 108.474 44.8895 108.608C45.1901 108.468 45.4371 108.28 45.6304 108.044L46.1619 108.6C45.9847 108.777 45.7485 108.927 45.4532 109.051C45.6357 109.276 45.727 109.523 45.727 109.792C45.727 110.211 45.5579 110.543 45.2196 110.79C44.8814 111.032 44.4519 111.153 43.9311 111.153C43.668 111.153 43.4237 111.121 43.1983 111.056C43.0479 111.121 42.9728 111.212 42.9728 111.33C42.9728 111.534 43.1741 111.636 43.5768 111.636H44.4063ZM43.9311 109.147C43.6788 109.147 43.4774 109.207 43.3271 109.325C43.1821 109.443 43.1097 109.596 43.1097 109.784C43.1097 109.966 43.1821 110.117 43.3271 110.235C43.4774 110.353 43.6788 110.412 43.9311 110.412C44.1781 110.412 44.374 110.353 44.519 110.235C44.664 110.117 44.7364 109.966 44.7364 109.784C44.7364 109.596 44.664 109.443 44.519 109.325C44.374 109.207 44.1781 109.147 43.9311 109.147ZM43.9794 113.432C44.2693 113.432 44.5109 113.384 44.7042 113.287C44.9029 113.196 45.0022 113.061 45.0022 112.884C45.0022 112.589 44.766 112.441 44.2935 112.441H43.4721L42.8681 112.884C43.0023 113.249 43.3727 113.432 43.9794 113.432Z" fill="#0D0D30"/>
<path d="M48.8324 111.773C49.2942 111.773 49.5787 111.596 49.6861 111.241H50.6686C50.5934 111.66 50.3921 111.99 50.0646 112.232C49.7371 112.474 49.3264 112.594 48.8324 112.594C48.2365 112.594 47.7479 112.406 47.3667 112.031C46.9855 111.649 46.7949 111.153 46.7949 110.541C46.7949 109.896 46.9855 109.381 47.3667 108.994C47.7533 108.603 48.2284 108.407 48.7922 108.407C49.3237 108.407 49.7693 108.581 50.129 108.93C50.4887 109.279 50.6686 109.794 50.6686 110.476C50.6686 110.525 50.6632 110.624 50.6525 110.774H47.7936C47.815 111.07 47.9197 111.311 48.1076 111.499C48.2956 111.682 48.5372 111.773 48.8324 111.773ZM48.7922 109.228C48.5291 109.228 48.3063 109.309 48.1238 109.47C47.9466 109.631 47.8392 109.835 47.8016 110.082H49.678C49.6727 109.835 49.5868 109.631 49.4203 109.47C49.2539 109.309 49.0445 109.228 48.7922 109.228Z" fill="#0D0D30"/>
<path d="M53.9351 110.992C53.9351 111.502 54.2224 111.757 54.7968 111.757C54.9418 111.757 55.1082 111.735 55.2961 111.692V112.498C55.0223 112.562 54.7619 112.594 54.515 112.594C53.4412 112.594 52.9043 112.116 52.9043 111.161V109.3H51.6721V108.487H52.3003C52.5526 108.487 52.7352 108.431 52.8479 108.318C52.9607 108.205 53.017 108.02 53.017 107.762V107.392H53.9351V108.487H55.5136V109.3H53.9351V110.992Z" fill="#0D0D30"/>
<path d="M58.9009 109.631C58.7667 109.765 58.6056 109.832 58.4177 109.832C58.2298 109.832 58.066 109.765 57.9264 109.631C57.7922 109.491 57.7251 109.33 57.7251 109.147C57.7251 108.954 57.7922 108.79 57.9264 108.656C58.066 108.517 58.2298 108.447 58.4177 108.447C58.6056 108.447 58.7667 108.517 58.9009 108.656C59.0405 108.79 59.1103 108.954 59.1103 109.147C59.1103 109.335 59.0405 109.496 58.9009 109.631ZM58.9009 112.353C58.7667 112.487 58.6056 112.554 58.4177 112.554C58.2298 112.554 58.066 112.487 57.9264 112.353C57.7922 112.213 57.7251 112.052 57.7251 111.87C57.7251 111.676 57.7922 111.512 57.9264 111.378C58.066 111.239 58.2298 111.169 58.4177 111.169C58.6056 111.169 58.7667 111.239 58.9009 111.378C59.0405 111.512 59.1103 111.676 59.1103 111.87C59.1103 112.057 59.0405 112.218 58.9009 112.353Z" fill="#0D0D30"/>
<path d="M65.131 111.741L65.284 112.167C64.9243 112.452 64.4707 112.594 63.923 112.594C63.3754 112.594 62.9217 112.439 62.562 112.127C62.2023 111.81 61.9607 111.378 61.8372 110.831H61.2171V110.388H61.7647C61.7486 110.248 61.7406 110.103 61.7406 109.953C61.7406 109.749 61.7513 109.572 61.7728 109.421H61.2171V108.978H61.8614C62.0063 108.452 62.2587 108.039 62.6184 107.738C62.9781 107.432 63.421 107.279 63.9472 107.279C64.4626 107.279 64.8894 107.405 65.2277 107.658L65.0505 108.068C64.7069 107.854 64.3445 107.746 63.9633 107.746C63.566 107.746 63.2331 107.856 62.9647 108.076C62.7016 108.291 62.511 108.592 62.3929 108.978H64.68L64.5915 109.421H62.2963C62.2748 109.566 62.264 109.738 62.264 109.937C62.264 110.092 62.2721 110.243 62.2882 110.388H64.3176L64.2371 110.831H62.3687C62.5996 111.684 63.1284 112.111 63.9552 112.111C64.4277 112.111 64.8196 111.988 65.131 111.741Z" fill="#0D0D30"/>
<path d="M68.3573 112.055H69.7102V112.514H66.4406V112.055H67.8016V108.68H66.6339V108.237H67.2217C67.6459 108.237 67.858 108.041 67.858 107.65V107.36H68.3573V112.055Z" fill="#0D0D30"/>
<path d="M72.9043 107.271C73.4626 107.271 73.9056 107.497 74.2331 107.948C74.5659 108.399 74.7324 109.064 74.7324 109.945C74.7324 110.825 74.5659 111.488 74.2331 111.934C73.9056 112.374 73.4653 112.594 72.9123 112.594C72.354 112.594 71.9056 112.371 71.5674 111.926C71.2345 111.475 71.0681 110.809 71.0681 109.929C71.0681 109.059 71.2345 108.399 71.5674 107.948C71.9056 107.497 72.3513 107.271 72.9043 107.271ZM72.9043 107.762C72.5284 107.762 72.2224 107.948 71.9862 108.318C71.7553 108.683 71.6399 109.223 71.6399 109.937C71.6399 110.372 71.6882 110.755 71.7848 111.088L73.8304 108.334C73.6103 107.953 73.3016 107.762 72.9043 107.762ZM72.9043 112.103C73.2801 112.103 73.5861 111.921 73.8223 111.555C74.0586 111.185 74.1767 110.645 74.1767 109.937C74.1767 109.486 74.1257 109.094 74.0237 108.761L71.9781 111.531C72.1983 111.912 72.507 112.103 72.9043 112.103Z" fill="#0D0D30"/>
<path d="M77.7331 107.271C78.2915 107.271 78.7344 107.497 79.0619 107.948C79.3948 108.399 79.5612 109.064 79.5612 109.945C79.5612 110.825 79.3948 111.488 79.0619 111.934C78.7344 112.374 78.2942 112.594 77.7412 112.594C77.1828 112.594 76.7345 112.371 76.3963 111.926C76.0634 111.475 75.897 110.809 75.897 109.929C75.897 109.059 76.0634 108.399 76.3963 107.948C76.7345 107.497 77.1801 107.271 77.7331 107.271ZM77.7331 107.762C77.3573 107.762 77.0513 107.948 76.815 108.318C76.5842 108.683 76.4687 109.223 76.4687 109.937C76.4687 110.372 76.5171 110.755 76.6137 111.088L78.6593 108.334C78.4391 107.953 78.1304 107.762 77.7331 107.762ZM77.7331 112.103C78.1089 112.103 78.415 111.921 78.6512 111.555C78.8874 111.185 79.0056 110.645 79.0056 109.937C79.0056 109.486 78.9545 109.094 78.8525 108.761L76.807 111.531C77.0271 111.912 77.3358 112.103 77.7331 112.103Z" fill="#0D0D30"/>
<path d="M81.0963 109.776H84.0277V110.243H81.0963V109.776Z" fill="#0D0D30"/>
<path d="M89.2753 111.741L89.4283 112.167C89.0686 112.452 88.6149 112.594 88.0673 112.594C87.5197 112.594 87.066 112.439 86.7063 112.127C86.3466 111.81 86.105 111.378 85.9815 110.831H85.3614V110.388H85.909C85.8929 110.248 85.8849 110.103 85.8849 109.953C85.8849 109.749 85.8956 109.572 85.9171 109.421H85.3614V108.978H86.0057C86.1506 108.452 86.403 108.039 86.7627 107.738C87.1224 107.432 87.5653 107.279 88.0915 107.279C88.6069 107.279 89.0337 107.405 89.372 107.658L89.1948 108.068C88.8512 107.854 88.4888 107.746 88.1076 107.746C87.7103 107.746 87.3774 107.856 87.109 108.076C86.8459 108.291 86.6553 108.592 86.5372 108.978H88.8243L88.7357 109.421H86.4405C86.4191 109.566 86.4083 109.738 86.4083 109.937C86.4083 110.092 86.4164 110.243 86.4325 110.388H88.4619L88.3814 110.831H86.513C86.7439 111.684 87.2727 112.111 88.0995 112.111C88.572 112.111 88.9639 111.988 89.2753 111.741Z" fill="#0D0D30"/>
<path d="M94.1042 110.879V111.314H93.2022V112.514H92.6868V111.314H90.3191V111.04L92.6063 107.36H93.2022V110.879H94.1042ZM90.9714 110.879H92.6868V108.109H92.6385L90.9714 110.879Z" fill="#0D0D30"/>
<path d="M97.0486 107.271C97.6069 107.271 98.0499 107.497 98.3774 107.948C98.7102 108.399 98.8767 109.064 98.8767 109.945C98.8767 110.825 98.7102 111.488 98.3774 111.934C98.0499 112.374 97.6096 112.594 97.0566 112.594C96.4983 112.594 96.0499 112.371 95.7117 111.926C95.3788 111.475 95.2124 110.809 95.2124 109.929C95.2124 109.059 95.3788 108.399 95.7117 107.948C96.0499 107.497 96.4956 107.271 97.0486 107.271ZM97.0486 107.762C96.6727 107.762 96.3667 107.948 96.1305 108.318C95.8996 108.683 95.7842 109.223 95.7842 109.937C95.7842 110.372 95.8325 110.755 95.9291 111.088L97.9747 108.334C97.7546 107.953 97.4459 107.762 97.0486 107.762ZM97.0486 112.103C97.4244 112.103 97.7304 111.921 97.9666 111.555C98.2029 111.185 98.321 110.645 98.321 109.937C98.321 109.486 98.27 109.094 98.168 108.761L96.1224 111.531C96.3426 111.912 96.6513 112.103 97.0486 112.103Z" fill="#0D0D30"/>
<path d="M101.877 107.271C102.436 107.271 102.879 107.497 103.206 107.948C103.539 108.399 103.706 109.064 103.706 109.945C103.706 110.825 103.539 111.488 103.206 111.934C102.879 112.374 102.438 112.594 101.885 112.594C101.327 112.594 100.879 112.371 100.541 111.926C100.208 111.475 100.041 110.809 100.041 109.929C100.041 109.059 100.208 108.399 100.541 107.948C100.879 107.497 101.324 107.271 101.877 107.271ZM101.877 107.762C101.502 107.762 101.196 107.948 100.959 108.318C100.728 108.683 100.613 109.223 100.613 109.937C100.613 110.372 100.661 110.755 100.758 111.088L102.804 108.334C102.583 107.953 102.275 107.762 101.877 107.762ZM101.877 112.103C102.253 112.103 102.559 111.921 102.796 111.555C103.032 111.185 103.15 110.645 103.15 109.937C103.15 109.486 103.099 109.094 102.997 108.761L100.951 111.531C101.171 111.912 101.48 112.103 101.877 112.103Z" fill="#0D0D30"/>
<g filter="url(#filter4_d)">
<path d="M14.9209 104C13.9477 104 12.9963 104.289 12.187 104.829C11.3778 105.37 10.747 106.139 10.3746 107.038C10.0021 107.937 9.90468 108.926 10.0946 109.881C10.2844 110.836 10.7531 111.712 11.4413 112.401C12.1295 113.089 13.0063 113.557 13.9609 113.747C14.9155 113.937 15.9049 113.84 16.8041 113.467C17.7033 113.095 18.4718 112.464 19.0125 111.655C19.5533 110.846 19.8419 109.894 19.8419 108.921C19.8404 107.616 19.3215 106.365 18.399 105.443C17.4764 104.52 16.2256 104.001 14.9209 104V104ZM14.9209 113.404C14.0342 113.404 13.1673 113.141 12.43 112.649C11.6927 112.156 11.1181 111.456 10.7787 110.637C10.4394 109.817 10.3506 108.916 10.5236 108.046C10.6966 107.177 11.1236 106.378 11.7506 105.751C12.3776 105.124 13.1765 104.697 14.0462 104.524C14.916 104.351 15.8175 104.439 16.6367 104.779C17.456 105.118 18.1562 105.693 18.6489 106.43C19.1415 107.167 19.4045 108.034 19.4045 108.921C19.4045 109.51 19.2885 110.093 19.0632 110.637C18.8379 111.181 18.5076 111.675 18.0913 112.091C17.6749 112.508 17.1807 112.838 16.6367 113.063C16.0927 113.288 15.5097 113.404 14.9209 113.404V113.404Z" fill="#0D0D30"/>
<path d="M16.838 106.34C16.4821 106.101 16.0638 105.972 15.6351 105.968C14.453 105.968 13.4644 106.952 13.2293 108.265H12.5141C12.4561 108.265 12.4005 108.288 12.3595 108.329C12.3185 108.37 12.2954 108.425 12.2954 108.483C12.2954 108.541 12.3185 108.597 12.3595 108.638C12.4005 108.679 12.4561 108.702 12.5141 108.702H13.1703C13.1703 108.757 13.1703 108.811 13.1703 108.866C13.1703 108.958 13.1703 109.05 13.1812 109.14H12.5141C12.4561 109.14 12.4005 109.163 12.3595 109.204C12.3185 109.245 12.2954 109.3 12.2954 109.358C12.2954 109.416 12.3185 109.472 12.3595 109.513C12.4005 109.554 12.4561 109.577 12.5141 109.577H13.2457C13.5147 110.832 14.4825 111.764 15.6307 111.764C16.0266 111.762 16.4145 111.653 16.7527 111.447C16.7773 111.432 16.7988 111.412 16.8159 111.389C16.8329 111.366 16.8453 111.34 16.8522 111.312C16.8591 111.284 16.8604 111.255 16.8561 111.227C16.8518 111.198 16.8419 111.171 16.8271 111.146C16.8122 111.122 16.7926 111.1 16.7695 111.083C16.7463 111.066 16.72 111.054 16.6921 111.047C16.6642 111.04 16.6352 111.038 16.6067 111.043C16.5783 111.047 16.551 111.057 16.5263 111.072C16.2572 111.238 15.9471 111.326 15.6307 111.327C14.7187 111.327 13.9456 110.588 13.6941 109.577H16.0135C16.0715 109.577 16.1271 109.554 16.1681 109.513C16.2091 109.472 16.2322 109.416 16.2322 109.358C16.2322 109.3 16.2091 109.245 16.1681 109.204C16.1271 109.163 16.0715 109.14 16.0135 109.14H13.6208C13.6077 109.05 13.6077 108.959 13.6077 108.866C13.6077 108.811 13.6077 108.757 13.6077 108.702H16.0135C16.0715 108.702 16.1271 108.679 16.1681 108.638C16.2091 108.597 16.2322 108.541 16.2322 108.483C16.2322 108.425 16.2091 108.37 16.1681 108.329C16.1271 108.288 16.0715 108.265 16.0135 108.265H13.6689C13.8876 107.197 14.6859 106.406 15.6307 106.406C15.975 106.408 16.311 106.512 16.5963 106.704C16.6202 106.722 16.6473 106.734 16.6761 106.74C16.7048 106.747 16.7346 106.748 16.7636 106.742C16.7926 106.737 16.8202 106.726 16.8449 106.71C16.8695 106.694 16.8906 106.673 16.9069 106.648C16.9232 106.623 16.9343 106.596 16.9397 106.567C16.9451 106.538 16.9445 106.508 16.9381 106.479C16.9317 106.451 16.9195 106.423 16.9023 106.399C16.8851 106.376 16.8632 106.355 16.838 106.34V106.34Z" fill="#0D0D30"/>
</g>
<g filter="url(#filter5_d)">
<path d="M19.2039 5.11054C19.2036 5.10973 19.2034 5.1088 19.2032 5.10799C19.1855 5.06498 19.1512 5.03069 19.1083 5.01314C19.1074 5.01279 19.1064 5.01267 19.1056 5.01232C19.0859 5.00453 19.0645 5 19.042 5H16.518C16.4218 5 16.3437 5.078 16.3437 5.17436C16.3437 5.27072 16.4218 5.34872 16.518 5.34872H18.621L16.3069 7.66259C15.7517 7.24285 15.061 6.99328 14.3128 6.99328C12.4861 6.99328 11 8.47941 11 10.3061C11 12.1328 12.4861 13.619 14.3128 13.619C16.1395 13.619 17.6257 12.1328 17.6257 10.3061C17.6257 9.35319 17.2205 8.49336 16.574 7.88845L18.8675 5.59515V7.69805C18.8675 7.79441 18.9456 7.87241 19.0418 7.87241C19.1381 7.87241 19.2162 7.79441 19.2162 7.69805V5.17413C19.2163 5.15158 19.2115 5.13031 19.2039 5.11054ZM17.2771 10.306C17.2771 11.9405 15.9474 13.2701 14.3129 13.2701C12.6785 13.2701 11.3488 11.9405 11.3488 10.306C11.3488 8.67167 12.6785 7.34189 14.3129 7.34189C15.9473 7.342 17.2771 8.67167 17.2771 10.306Z" fill="#0D0D30"/>
</g>
<g filter="url(#filter6_d)">
<path d="M10.5138 79.5573C10.5373 79.5902 10.5742 79.6077 10.6118 79.6077C10.6355 79.6077 10.6595 79.6007 10.6804 79.5861L11.411 79.0756L12.1416 79.5861C12.1829 79.615 12.2379 79.6149 12.2792 79.586L13.0092 79.0757L13.7394 79.5861C13.7807 79.6149 13.8356 79.615 13.877 79.586L14.607 79.0757L15.3367 79.586C15.3781 79.615 15.433 79.615 15.4744 79.586L16.2041 79.0757L16.9338 79.586C16.9752 79.615 17.0302 79.615 17.0715 79.586L17.8009 79.0757L18.5308 79.586C18.574 79.6162 18.6318 79.6149 18.6732 79.5824L19.5612 78.8927C19.6118 78.8535 19.6227 78.7815 19.586 78.7291L19.0756 77.9985L19.586 77.2679C19.6149 77.2266 19.6149 77.1717 19.586 77.1303L19.0756 76.4004L19.586 75.6701C19.6149 75.6288 19.6149 75.5738 19.586 75.5325L19.0756 74.8025L19.586 74.0728C19.6149 74.0315 19.6149 73.9764 19.586 73.9351L19.0756 73.2054L19.586 72.4757C19.6149 72.4343 19.6149 72.3793 19.586 72.338L19.0756 71.6086L19.586 70.8787C19.6151 70.837 19.6149 70.7815 19.5854 70.7401L19.0939 70.0504C19.0556 69.9968 18.9815 69.9841 18.9273 70.0217L18.1967 70.5321L17.4661 70.0217C17.4248 69.9928 17.3699 69.9928 17.3285 70.0217L16.5985 70.5321L15.8683 70.0217C15.827 69.9928 15.7721 69.9928 15.7307 70.0217L15.0007 70.5321L14.271 70.0217C14.2296 69.9928 14.1747 69.9928 14.1333 70.0217L13.4036 70.5321L12.6739 70.0217C12.6325 69.9928 12.5775 69.9928 12.5362 70.0217L11.8069 70.5321L11.077 70.0217C11.0337 69.9915 10.976 69.9929 10.9345 70.0253L10.0465 70.715C9.99592 70.7543 9.98501 70.8262 10.0217 70.8786L10.5321 71.6092L10.0217 72.3398C9.99281 72.3811 9.99281 72.4361 10.0217 72.4774L10.5321 73.2074L10.0217 73.9376C9.99281 73.9789 9.99281 74.0339 10.0217 74.0753L10.5321 74.8052L10.0217 75.5349C9.99281 75.5763 9.99281 75.6313 10.0217 75.6726L10.5321 76.4023L10.0217 77.1321C9.99281 77.1734 9.99281 77.2284 10.0217 77.2698L10.5321 77.9991L10.0217 78.729C9.99257 78.7707 9.99281 78.8262 10.0223 78.8676L10.5138 79.5573ZM10.777 78.068C10.8059 78.0266 10.8059 77.9716 10.777 77.9303L10.2667 77.2009L10.777 76.4712C10.8059 76.4299 10.8059 76.3748 10.777 76.3335L10.2667 75.6038L10.777 74.8741C10.8059 74.8327 10.8059 74.7777 10.777 74.7364L10.2667 74.0064L10.7771 73.2762C10.8059 73.2349 10.8059 73.1799 10.777 73.1385L10.2667 72.4086L10.7771 71.678C10.8059 71.6367 10.8059 71.5818 10.7771 71.5405L10.284 70.8347L11.0119 70.2693L11.738 70.777C11.7794 70.806 11.8344 70.806 11.8757 70.777L12.6051 70.2667L13.3347 70.777C13.3761 70.806 13.431 70.806 13.4724 70.777L14.2021 70.2667L14.9319 70.777C14.9733 70.806 15.0282 70.806 15.0696 70.777L15.7995 70.2667L16.5298 70.7771C16.571 70.8059 16.626 70.806 16.6674 70.777L17.3973 70.2667L18.1279 70.7771C18.1692 70.8059 18.2242 70.8059 18.2655 70.7771L18.9673 70.2867L19.3406 70.8105L18.8307 71.5398C18.8018 71.5811 18.8018 71.6361 18.8307 71.6774L19.341 72.4068L18.8307 73.1365C18.8018 73.1779 18.8018 73.2329 18.8307 73.2742L19.341 74.0039L18.8307 74.7337C18.8018 74.775 18.8018 74.83 18.8307 74.8714L19.341 75.6013L18.8306 76.3316C18.8018 76.3729 18.8018 76.4279 18.8307 76.4692L19.341 77.1992L18.8306 77.9297C18.8018 77.971 18.8018 78.0259 18.8306 78.0673L19.3237 78.7731L18.5958 79.3384L17.8697 78.8307C17.8283 78.8017 17.7733 78.8017 17.732 78.8307L17.0026 79.3411L16.273 78.8307C16.2316 78.8017 16.1767 78.8017 16.1353 78.8307L15.4056 79.3411L14.6758 78.8307C14.6344 78.8017 14.5796 78.8017 14.5382 78.8307L13.8082 79.3411L13.0779 78.8307C13.0367 78.8018 12.9817 78.8017 12.9403 78.8307L12.2104 79.3411L11.4798 78.8307C11.4591 78.8162 11.435 78.809 11.411 78.809C11.3869 78.809 11.3628 78.8162 11.3422 78.8307L10.6404 79.321L10.2671 78.7972L10.777 78.068Z" fill="#0D0D30"/>
<path d="M14.9029 71.831C14.9693 71.831 15.023 71.7772 15.023 71.7109V71.5307C15.023 71.4644 14.9693 71.4106 14.9029 71.4106C14.8366 71.4106 14.7829 71.4644 14.7829 71.5307V71.7109C14.7829 71.7772 14.8366 71.831 14.9029 71.831Z" fill="#0D0D30"/>
<path d="M14.9029 72.9211C14.9693 72.9211 15.023 72.8673 15.023 72.801V72.437C15.023 72.3707 14.9693 72.3169 14.9029 72.3169C14.8366 72.3169 14.7829 72.3707 14.7829 72.437V72.801C14.7829 72.8673 14.8366 72.9211 14.9029 72.9211Z" fill="#0D0D30"/>
<path d="M14.9029 75.5928C14.8366 75.5928 14.7829 75.6465 14.7829 75.7129V76.0769C14.7829 76.1432 14.8366 76.1969 14.9029 76.1969C14.9693 76.1969 15.023 76.1432 15.023 76.0769V75.7129C15.023 75.6465 14.9693 75.5928 14.9029 75.5928Z" fill="#0D0D30"/>
<path d="M14.9029 76.686C14.8366 76.686 14.7829 76.7398 14.7829 76.8061V77.1701C14.7829 77.2364 14.8366 77.2902 14.9029 77.2902C14.9693 77.2902 15.023 77.2364 15.023 77.1701V76.8061C15.023 76.7398 14.9693 76.686 14.9029 76.686Z" fill="#0D0D30"/>
<path d="M14.9029 74.0143C14.9693 74.0143 15.023 73.9605 15.023 73.8942V73.5303C15.023 73.4639 14.9693 73.4102 14.9029 73.4102C14.8366 73.4102 14.7829 73.4639 14.7829 73.5303V73.8942C14.7829 73.9605 14.8366 74.0143 14.9029 74.0143Z" fill="#0D0D30"/>
<path d="M14.9029 77.7778C14.8366 77.7778 14.7829 77.8316 14.7829 77.8979V78.0781C14.7829 78.1444 14.8366 78.1982 14.9029 78.1982C14.9693 78.1982 15.023 78.1444 15.023 78.0781V77.8979C15.023 77.8316 14.9693 77.7778 14.9029 77.7778Z" fill="#0D0D30"/>
<path d="M18.0005 74.9246H18.1806C18.2469 74.9246 18.3007 74.8707 18.3007 74.8043C18.3007 74.7379 18.2469 74.6841 18.1806 74.6841H18.0005C17.9341 74.6841 17.8804 74.7379 17.8804 74.8043C17.8804 74.8707 17.9341 74.9246 18.0005 74.9246Z" fill="#0D0D30"/>
<path d="M13.6308 74.9246H13.9947C14.0611 74.9246 14.1148 74.8707 14.1148 74.8043C14.1148 74.7379 14.0611 74.6841 13.9947 74.6841H13.6308C13.5644 74.6841 13.5107 74.7379 13.5107 74.8043C13.5107 74.8707 13.5644 74.9246 13.6308 74.9246Z" fill="#0D0D30"/>
<path d="M14.7268 74.9241H14.7887V74.986C14.7887 75.0523 14.8424 75.1061 14.9088 75.1061C14.9751 75.1061 15.0289 75.0523 15.0289 74.986V74.9241H15.0907C15.157 74.9241 15.2108 74.8703 15.2108 74.804C15.2108 74.7377 15.157 74.6839 15.0907 74.6839H15.0289V74.622C15.0289 74.5557 14.9751 74.502 14.9088 74.502C14.8424 74.502 14.7887 74.5557 14.7887 74.622V74.6839H14.7268C14.6605 74.6839 14.6067 74.7377 14.6067 74.804C14.6067 74.8703 14.6605 74.9241 14.7268 74.9241Z" fill="#0D0D30"/>
<path d="M15.8146 74.9246H16.1786C16.2449 74.9246 16.2987 74.8707 16.2987 74.8043C16.2987 74.7379 16.2449 74.6841 16.1786 74.6841H15.8146C15.7483 74.6841 15.6945 74.7379 15.6945 74.8043C15.6945 74.8707 15.7483 74.9246 15.8146 74.9246Z" fill="#0D0D30"/>
<path d="M12.5389 74.9246H12.9028C12.9692 74.9246 13.0229 74.8707 13.0229 74.8043C13.0229 74.7379 12.9692 74.6841 12.9028 74.6841H12.5389C12.4725 74.6841 12.4188 74.7379 12.4188 74.8043C12.4188 74.8707 12.4725 74.9246 12.5389 74.9246Z" fill="#0D0D30"/>
<path d="M16.9044 74.9246H17.2684C17.3347 74.9246 17.3885 74.8707 17.3885 74.8043C17.3885 74.7379 17.3347 74.6841 17.2684 74.6841H16.9044C16.8381 74.6841 16.7843 74.7379 16.7843 74.8043C16.7843 74.8707 16.8381 74.9246 16.9044 74.9246Z" fill="#0D0D30"/>
<path d="M11.6313 74.9246H11.8115C11.8778 74.9246 11.9316 74.8707 11.9316 74.8043C11.9316 74.7379 11.8778 74.6841 11.8115 74.6841H11.6313C11.565 74.6841 11.5112 74.7379 11.5112 74.8043C11.5112 74.8707 11.565 74.9246 11.6313 74.9246Z" fill="#0D0D30"/>
</g>
<g filter="url(#filter7_d)">
<path d="M19.4583 43.7837H19.046L19.9909 47.3898L20.1115 47.3922L19.4581 43.7837H19.4583ZM12.2341 37.4035C12.2638 37.4035 12.2876 37.4275 12.2876 37.457C12.2876 37.4867 12.2635 37.5105 12.2341 37.5105C11.9906 37.5097 11.8098 37.5374 11.6939 37.6266C11.5809 37.7136 11.5247 37.8658 11.5256 38.1167C11.5256 38.1464 11.5015 38.1702 11.4721 38.1702C11.4424 38.1702 11.4186 38.1461 11.4186 38.1167C11.4175 37.8291 11.4876 37.6505 11.6284 37.5419C11.7664 37.4355 11.9678 37.4026 12.2341 37.4035ZM17.9437 37.5013C17.914 37.5013 17.8902 37.4772 17.8902 37.4477C17.8902 37.4181 17.9143 37.3942 17.9437 37.3942C18.21 37.3932 18.4114 37.4263 18.5494 37.5327C18.6905 37.6412 18.7603 37.8201 18.7592 38.1074C18.7592 38.1371 18.7352 38.161 18.7057 38.161C18.6761 38.161 18.6522 38.1369 18.6522 38.1074C18.6531 37.8566 18.5969 37.7044 18.4839 37.6173C18.3678 37.5279 18.1872 37.5004 17.9437 37.5013ZM19.1825 44.9806L11.1172 44.9821L10.4586 47.4956C10.4491 47.5319 10.4167 47.559 10.3773 47.5596L10.0874 47.5652C10.0818 47.5652 10.0762 47.5648 10.0706 47.5639C10.0239 47.5555 9.99299 47.511 10.0014 47.4644L10.7522 43.3184C10.7524 43.3175 10.7526 43.3164 10.7528 43.3156C10.6768 43.2844 10.6112 43.2354 10.5551 43.1722C10.4158 43.0153 10.3393 42.7696 10.3139 42.4966C10.2892 42.2316 10.3122 41.9386 10.3722 41.6778C10.4407 41.3795 10.5594 41.1192 10.7131 40.9829C10.8287 40.8801 10.9908 40.7834 11.192 40.6942C10.9979 40.4451 10.9968 40.0048 10.9951 39.3742C10.9947 39.245 10.9945 39.1076 10.9923 38.961C10.9906 38.8368 10.988 38.7162 10.9854 38.6018C10.9816 38.4307 10.9781 38.273 10.9781 38.1489C10.9781 37.3932 11.0751 37 11.7206 37H18.4203C19.176 37 19.1773 37.5312 19.1799 38.5457C19.1803 38.6749 19.1805 38.8123 19.1827 38.9589C19.1844 39.0831 19.187 39.2037 19.1896 39.3181C19.2046 40.0048 19.2149 40.4741 18.9912 40.7241C19.115 40.7804 19.2218 40.8391 19.3097 40.8999C19.547 41.0641 19.7427 41.4554 19.839 41.8747C19.8905 42.0991 19.9144 42.333 19.9019 42.5456C19.889 42.7646 19.837 42.9628 19.7364 43.1081C19.685 43.1823 19.6216 43.2427 19.5449 43.2853C19.5436 43.2887 19.5421 43.2921 19.5406 43.2956C19.544 43.3027 19.5466 43.3104 19.5481 43.3186L20.299 47.4646C20.3073 47.5113 20.2764 47.5558 20.2297 47.5641C20.2241 47.5652 20.2186 47.5656 20.213 47.5654L19.923 47.5598C19.8837 47.559 19.8512 47.5319 19.8417 47.4958L19.1827 44.9808L19.1825 44.9806ZM11.1619 44.8108L19.1376 44.8095L19.1014 44.6719H11.1982L11.1619 44.811V44.8108ZM11.2434 44.4998H19.0563L18.8686 43.7837H11.4308L11.2432 44.4998H11.2434ZM10.9212 43.3429C10.9209 43.3448 10.9207 43.3467 10.9203 43.3487L10.8726 43.6118H19.4269L19.3794 43.3489C19.379 43.347 19.3787 43.3448 19.3785 43.3429H10.9212ZM10.8416 43.7833L10.1882 47.392L10.3088 47.3896L11.2537 43.7837H10.85C10.8472 43.7837 10.8442 43.7835 10.8414 43.7833H10.8416ZM19.6212 41.7264C19.5801 41.7587 19.5283 41.789 19.4667 41.8173C18.8147 42.1174 16.936 42.2675 15.0599 42.2675V42.2672C13.1835 42.2672 11.3049 42.1172 10.6531 41.8173C10.6069 41.7961 10.5661 41.7737 10.5314 41.7503C10.4809 41.9859 10.4622 42.246 10.4842 42.4811C10.5063 42.7199 10.5697 42.9308 10.683 43.0587C10.7318 43.1137 10.7905 43.1528 10.8599 43.1709H19.3719C19.4669 43.1466 19.5406 43.0901 19.5954 43.0108C19.6771 42.893 19.7197 42.7251 19.7308 42.5355C19.7424 42.3395 19.7199 42.1224 19.6717 41.913C19.6571 41.8496 19.6403 41.7872 19.6214 41.7264H19.6212ZM10.5583 41.6376C10.5925 41.6656 10.6394 41.6929 10.6978 41.72C11.3356 42.0134 13.1964 42.1602 15.0597 42.1602V42.16C16.9231 42.16 18.7842 42.0134 19.4215 41.72C19.4946 41.6864 19.5496 41.652 19.5842 41.617C19.4903 41.3588 19.3594 41.1435 19.2119 41.0414C18.9005 40.8258 18.3233 40.6344 17.5787 40.4977C16.8601 40.3655 15.9891 40.2851 15.053 40.283C14.0618 40.2806 13.1483 40.3666 12.4101 40.513C11.6597 40.662 11.0968 40.8713 10.8259 41.1114C10.7129 41.2118 10.6202 41.4059 10.5583 41.6379V41.6376ZM18.8181 40.6516C19.0432 40.4739 19.0333 40.0188 19.0178 39.3215C19.0152 39.2082 19.0127 39.0889 19.0109 38.961C19.009 38.8149 19.0086 38.6762 19.0082 38.5457C19.0058 37.644 19.0047 37.172 18.4198 37.172H11.7201C11.2242 37.172 11.1497 37.5062 11.1497 38.1489C11.1497 38.3 11.1529 38.4432 11.1563 38.5984C11.1589 38.7117 11.1615 38.831 11.1632 38.9589C11.1651 39.105 11.1656 39.2437 11.166 39.3742C11.1675 40.0094 11.1688 40.4358 11.3597 40.625C11.6423 40.5167 11.9863 40.4219 12.3775 40.344C13.1242 40.1959 14.0492 40.1089 15.0532 40.1112C16.0007 40.1134 16.8823 40.1949 17.6099 40.3286C18.0847 40.4158 18.4957 40.5259 18.8184 40.6514L18.8181 40.6516Z" fill="#0D0D30"/>
</g>
<defs>
<filter id="filter0_d" x="0.589425" y="0" width="140.673" height="23.0195" filterUnits="userSpaceOnUse" color-interpolation-filters="sRGB">
<feFlood flood-opacity="0" result="BackgroundImageFix"/>
<feColorMatrix in="SourceAlpha" type="matrix" values="0 0 0 0 0 0 0 0 0 0 0 0 0 0 0 0 0 0 127 0" result="hardAlpha"/>
<feOffset dy="1.4617"/>
<feGaussianBlur stdDeviation="0.73085"/>
<feColorMatrix type="matrix" values="0 0 0 0 0 0 0 0 0 0 0 0 0 0 0 0 0 0 0.25 0"/>
<feBlend mode="normal" in2="BackgroundImageFix" result="effect1_dropShadow"/>
<feBlend mode="normal" in="SourceGraphic" in2="effect1_dropShadow" result="shape"/>
</filter>
<filter id="filter1_d" x="0.5383" y="32.9775" width="90.591" height="23.0306" filterUnits="userSpaceOnUse" color-interpolation-filters="sRGB">
<feFlood flood-opacity="0" result="BackgroundImageFix"/>
<feColorMatrix in="SourceAlpha" type="matrix" values="0 0 0 0 0 0 0 0 0 0 0 0 0 0 0 0 0 0 127 0" result="hardAlpha"/>
<feOffset dy="1.4617"/>
<feGaussianBlur stdDeviation="0.73085"/>
<feColorMatrix type="matrix" values="0 0 0 0 0 0 0 0 0 0 0 0 0 0 0 0 0 0 0.25 0"/>
<feBlend mode="normal" in2="BackgroundImageFix" result="effect1_dropShadow"/>
<feBlend mode="normal" in="SourceGraphic" in2="effect1_dropShadow" result="shape"/>
</filter>
<filter id="filter2_d" x="0.5383" y="65.9517" width="152.923" height="23.0306" filterUnits="userSpaceOnUse" color-interpolation-filters="sRGB">
<feFlood flood-opacity="0" result="BackgroundImageFix"/>
<feColorMatrix in="SourceAlpha" type="matrix" values="0 0 0 0 0 0 0 0 0 0 0 0 0 0 0 0 0 0 127 0" result="hardAlpha"/>
<feOffset dy="1.4617"/>
<feGaussianBlur stdDeviation="0.73085"/>
<feColorMatrix type="matrix" values="0 0 0 0 0 0 0 0 0 0 0 0 0 0 0 0 0 0 0.25 0"/>
<feBlend mode="normal" in2="BackgroundImageFix" result="effect1_dropShadow"/>
<feBlend mode="normal" in="SourceGraphic" in2="effect1_dropShadow" result="shape"/>
</filter>
<filter id="filter3_d" x="0.589425" y="98.564" width="117.03" height="23.3944" filterUnits="userSpaceOnUse" color-interpolation-filters="sRGB">
<feFlood flood-opacity="0" result="BackgroundImageFix"/>
<feColorMatrix in="SourceAlpha" type="matrix" values="0 0 0 0 0 0 0 0 0 0 0 0 0 0 0 0 0 0 127 0" result="hardAlpha"/>
<feOffset dy="1.4617"/>
<feGaussianBlur stdDeviation="0.73085"/>
<feColorMatrix type="matrix" values="0 0 0 0 0 0 0 0 0 0 0 0 0 0 0 0 0 0 0.25 0"/>
<feBlend mode="normal" in2="BackgroundImageFix" result="effect1_dropShadow"/>
<feBlend mode="normal" in="SourceGraphic" in2="effect1_dropShadow" result="shape"/>
</filter>
<filter id="filter4_d" x="8.73008" y="104" width="12.3817" height="12.3817" filterUnits="userSpaceOnUse" color-interpolation-filters="sRGB">
<feFlood flood-opacity="0" result="BackgroundImageFix"/>
<feColorMatrix in="SourceAlpha" type="matrix" values="0 0 0 0 0 0 0 0 0 0 0 0 0 0 0 0 0 0 127 0" result="hardAlpha"/>
<feOffset dy="1.26992"/>
<feGaussianBlur stdDeviation="0.63496"/>
<feColorMatrix type="matrix" values="0 0 0 0 0 0 0 0 0 0 0 0 0 0 0 0 0 0 0.25 0"/>
<feBlend mode="normal" in2="BackgroundImageFix" result="effect1_dropShadow"/>
<feBlend mode="normal" in="SourceGraphic" in2="effect1_dropShadow" result="shape"/>
</filter>
<filter id="filter5_d" x="9.73008" y="5" width="10.756" height="11.1588" filterUnits="userSpaceOnUse" color-interpolation-filters="sRGB">
<feFlood flood-opacity="0" result="BackgroundImageFix"/>
<feColorMatrix in="SourceAlpha" type="matrix" values="0 0 0 0 0 0 0 0 0 0 0 0 0 0 0 0 0 0 127 0" result="hardAlpha"/>
<feOffset dy="1.26992"/>
<feGaussianBlur stdDeviation="0.63496"/>
<feColorMatrix type="matrix" values="0 0 0 0 0 0 0 0 0 0 0 0 0 0 0 0 0 0 0.25 0"/>
<feBlend mode="normal" in2="BackgroundImageFix" result="effect1_dropShadow"/>
<feBlend mode="normal" in="SourceGraphic" in2="effect1_dropShadow" result="shape"/>
</filter>
<filter id="filter6_d" x="8.60231" y="70" width="12.4031" height="12.4031" filterUnits="userSpaceOnUse" color-interpolation-filters="sRGB">
<feFlood flood-opacity="0" result="BackgroundImageFix"/>
<feColorMatrix in="SourceAlpha" type="matrix" values="0 0 0 0 0 0 0 0 0 0 0 0 0 0 0 0 0 0 127 0" result="hardAlpha"/>
<feOffset dy="1.39769"/>
<feGaussianBlur stdDeviation="0.698845"/>
<feColorMatrix type="matrix" values="0 0 0 0 0 0 0 0 0 0 0 0 0 0 0 0 0 0 0.25 0"/>
<feBlend mode="normal" in2="BackgroundImageFix" result="effect1_dropShadow"/>
<feBlend mode="normal" in="SourceGraphic" in2="effect1_dropShadow" result="shape"/>
</filter>
<filter id="filter7_d" x="8.60231" y="37" width="13.0957" height="13.3609" filterUnits="userSpaceOnUse" color-interpolation-filters="sRGB">
<feFlood flood-opacity="0" result="BackgroundImageFix"/>
<feColorMatrix in="SourceAlpha" type="matrix" values="0 0 0 0 0 0 0 0 0 0 0 0 0 0 0 0 0 0 127 0" result="hardAlpha"/>
<feOffset dy="1.39769"/>
<feGaussianBlur stdDeviation="0.698845"/>
<feColorMatrix type="matrix" values="0 0 0 0 0 0 0 0 0 0 0 0 0 0 0 0 0 0 0.25 0"/>
<feBlend mode="normal" in2="BackgroundImageFix" result="effect1_dropShadow"/>
<feBlend mode="normal" in="SourceGraphic" in2="effect1_dropShadow" result="shape"/>
</filter>
</defs>
</svg>
