<svg width="121" height="27" viewBox="0 0 121 27" fill="none" xmlns="http://www.w3.org/2000/svg">
<path d="M35.2448 25.7945C34.5746 25.7945 34.0002 25.2203 34.0002 24.5503V8.51822C34.0002 7.84823 34.5746 7.27393 35.2448 7.27393C35.9149 7.27393 36.4893 7.84823 36.4893 8.51822V24.5503C36.4893 25.2203 35.9149 25.7945 35.2448 25.7945Z" fill="#61C0FA"/>
<path d="M48.2634 25.7472C47.5932 25.7472 47.0188 25.1729 47.0188 24.5029V14.5966C47.0188 13.9266 47.5932 13.3523 48.2634 13.3523C48.9335 13.3523 49.5079 13.9266 49.5079 14.5966V24.5029C49.5079 25.2208 48.9814 25.7472 48.2634 25.7472Z" fill="#61C0FA"/>
<path d="M81.4802 25.7949C81.2888 25.7949 81.1452 25.747 80.9537 25.6992C80.3315 25.412 80.0442 24.6463 80.3793 24.0242L87.9423 7.89644C88.2295 7.2743 88.9953 6.98715 89.6176 7.32215C90.2399 7.65715 90.5271 8.375 90.192 8.99714L82.6291 25.1249C82.3897 25.5556 81.9589 25.7949 81.4802 25.7949Z" fill="#61C0FA"/>
<path d="M48.2627 15.8413C47.5926 15.8413 47.0181 15.267 47.0181 14.597C47.0181 11.5342 45.0556 9.42848 42.1836 9.42848C41.7049 9.42848 40.8433 9.66778 40.3647 9.95492C39.7424 10.2899 39.0244 10.0506 38.6893 9.42848C38.3543 8.80634 38.5936 8.08848 39.2159 7.75349C39.9817 7.37063 41.2263 6.93994 42.2315 6.93994C46.3959 6.93994 49.5551 10.2421 49.5551 14.597C49.5072 15.267 48.9807 15.8413 48.2627 15.8413Z" fill="#61C0FA"/>
<path d="M70.2334 15.5046C69.5154 15.5046 69.0846 15.1696 68.941 14.5953C68.0794 11.5804 65.3031 9.47465 62.1918 9.47465C61.5217 9.47465 60.9473 8.90035 60.9473 8.23035C60.9473 7.56035 61.5217 6.98608 62.1918 6.98608C66.4041 6.98608 70.1856 9.80964 71.3344 13.9253C71.5258 14.5475 70.9993 15.5046 70.2334 15.5046Z" fill="#61C0FA"/>
<path d="M54.1979 15.5046C53.1927 15.5046 52.8098 14.5953 53.0013 13.9253C54.1501 9.8575 57.9316 6.98608 62.1439 6.98608C62.814 6.98608 63.3884 7.56035 63.3884 8.23035C63.3884 8.90035 62.814 9.47465 62.1439 9.47465C59.0325 9.47465 56.2562 11.5804 55.3946 14.5953C55.251 15.1218 54.7723 15.5046 54.1979 15.5046Z" fill="#61C0FA"/>
<path d="M117.527 0C116.139 0 115.038 1.10072 115.038 2.48857C115.038 3.87642 116.139 4.97712 117.527 4.97712C118.915 4.97712 120.016 3.87642 120.016 2.48857C120.016 1.10072 118.915 0 117.527 0Z" fill="#61C0FA"/>
<path d="M117.528 25.7472C116.858 25.7472 116.283 25.1729 116.283 24.5029V8.47083C116.283 7.80083 116.858 7.22656 117.528 7.22656C118.198 7.22656 118.772 7.80083 118.772 8.47083V24.5029C118.772 25.1729 118.198 25.7472 117.528 25.7472Z" fill="#61C0FA"/>
<path d="M81.432 25.7937C80.9533 25.7937 80.5225 25.5066 80.2831 25.0759L72.7202 8.99598C72.433 8.37384 72.6723 7.60813 73.2946 7.32099C73.9169 7.03385 74.6827 7.27314 74.9699 7.89528L82.5329 23.9752C82.8201 24.5973 82.5808 25.363 81.9585 25.6502C81.8149 25.7459 81.6234 25.7937 81.432 25.7937Z" fill="#61C0FA"/>
<path d="M111.493 25.9394C109.483 24.9344 107.568 22.5416 107.568 18.8088C107.568 18.1388 108.142 17.5645 108.812 17.5645C109.483 17.5645 110.057 18.1388 110.057 18.8088C110.057 21.058 111.014 22.9723 112.69 23.738C113.312 24.0251 113.647 24.7909 113.264 25.5087C112.977 25.8916 112.355 26.3701 111.493 25.9394Z" fill="#61C0FA"/>
<path d="M29.3567 17.8022H16.7199C16.0497 17.8022 15.4753 17.228 15.4753 16.558C15.4753 15.888 16.0497 15.3137 16.7199 15.3137H29.3567C30.0269 15.3137 30.6013 15.888 30.6013 16.558C30.6013 17.228 30.0269 17.8022 29.3567 17.8022Z" fill="#61C0FA"/>
<path d="M29.3544 17.8017C28.6843 17.8017 28.1098 17.2275 28.1098 16.5575C28.1098 12.5853 24.9507 9.47465 20.882 9.47465C20.2118 9.47465 19.6375 8.90035 19.6375 8.23035C19.6375 7.56035 20.2118 6.98608 20.882 6.98608C26.3388 6.98608 30.5989 11.1975 30.5989 16.5575C30.5989 17.2275 30.0245 17.8017 29.3544 17.8017Z" fill="#61C0FA"/>
<path d="M12.6974 17.8017C12.0273 17.8017 11.4529 17.2275 11.4529 16.5575C11.4529 11.2932 15.713 6.98608 20.8826 6.98608C21.5528 6.98608 22.1272 7.56035 22.1272 8.23035C22.1272 8.90035 21.5528 9.47465 20.8826 9.47465C17.1012 9.47465 13.942 12.7289 13.942 16.5575C13.942 17.2275 13.3676 17.8017 12.6974 17.8017Z" fill="#61C0FA"/>
<path d="M20.8826 26.082C15.6652 26.082 11.4529 21.7749 11.4529 16.5107C11.4529 15.8407 12.0273 15.2664 12.6974 15.2664C13.3676 15.2664 13.942 15.8407 13.942 16.5107C13.942 20.8656 17.532 23.5935 20.8826 23.5935C21.5528 23.5935 22.1272 24.1677 22.1272 24.8377C22.1272 25.5556 21.5528 26.082 20.8826 26.082Z" fill="#61C0FA"/>
<path d="M20.882 26.0825C20.2118 26.0825 19.6375 25.5082 19.6375 24.8382C19.6375 24.1682 20.2118 23.5939 20.882 23.5939C25.0464 23.5939 26.7696 20.6747 26.8653 20.579C27.2004 20.0047 27.9663 19.7654 28.5407 20.1004C29.1151 20.4354 29.3544 21.2011 29.0193 21.7754C28.9236 21.9668 26.5781 26.0825 20.882 26.0825Z" fill="#61C0FA"/>
<path d="M1.25576 15.3625C0.585622 15.3625 0.0112305 15.9368 0.0112305 16.6068V24.5989C0.0112305 25.2689 0.585622 25.8432 1.25576 25.8432C1.9259 25.8432 2.50029 25.2689 2.50029 24.5989V16.6068C2.50029 15.889 1.9259 15.3625 1.25576 15.3625Z" fill="#61C0FA"/>
<path d="M10.3045 7.75285C8.96426 7.08286 7.48038 6.84357 5.9965 7.035C3.26809 7.41786 0.922596 9.38 0.0609906 12.0121C-0.178344 12.73 0.300325 13.6393 1.25766 13.6393C1.7842 13.6393 2.26287 13.3043 2.45434 12.7778C3.02874 11.0071 4.51262 9.76285 6.37943 9.52357C7.33677 9.38 8.34196 9.57142 9.20357 10.0021C9.82584 10.3371 10.5917 10.05 10.8789 9.47572C11.1661 8.85358 10.9268 8.08785 10.3045 7.75285Z" fill="#61C0FA"/>
<path d="M54.1026 17.5645C54.8206 17.5645 55.2514 17.8995 55.395 18.4737C56.2566 21.4887 59.0329 23.5944 62.1443 23.5944C62.8144 23.5944 63.3888 24.1687 63.3888 24.8387C63.3888 25.5087 62.8144 26.083 62.1443 26.083C57.932 26.083 54.1505 23.2594 53.0017 19.1438C52.8102 18.4738 53.3368 17.5645 54.1026 17.5645Z" fill="#61C0FA"/>
<path d="M70.1377 17.5645C71.1429 17.5645 71.5259 18.4738 71.3344 19.1438C70.1856 23.2116 66.4041 26.083 62.1918 26.083C61.5217 26.083 60.9473 25.5087 60.9473 24.8387C60.9473 24.1687 61.5217 23.5944 62.1918 23.5944C65.3031 23.5944 68.0794 21.4887 68.941 18.4737C69.0846 17.8995 69.5633 17.5645 70.1377 17.5645Z" fill="#61C0FA"/>
<path d="M108.912 15.5046C108.194 15.5046 107.763 15.1696 107.619 14.5953C106.758 11.5804 103.981 9.47465 100.87 9.47465C100.2 9.47465 99.6255 8.90035 99.6255 8.23035C99.6255 7.56035 100.2 6.98608 100.87 6.98608C105.082 6.98608 108.864 9.80964 110.013 13.9253C110.204 14.5475 109.678 15.5046 108.912 15.5046Z" fill="#61C0FA"/>
<path d="M92.8725 15.5046C91.8673 15.5046 91.4844 14.5953 91.6758 13.9253C92.8246 9.8575 96.6061 6.98608 100.818 6.98608C101.488 6.98608 102.063 7.56035 102.063 8.23035C102.063 8.90035 101.488 9.47465 100.818 9.47465C97.707 9.47465 94.9308 11.5804 94.0692 14.5953C93.9256 15.1218 93.4469 15.5046 92.8725 15.5046Z" fill="#61C0FA"/>
<path d="M92.7798 17.5645C93.4979 17.5645 93.9287 17.8995 94.0723 18.4737C94.9339 21.4887 97.7101 23.5944 100.821 23.5944C101.492 23.5944 102.066 24.1687 102.066 24.8387C102.066 25.5087 101.492 26.083 100.821 26.083C96.6092 26.083 92.8277 23.2594 91.6789 19.1438C91.4874 18.4738 92.014 17.5645 92.7798 17.5645Z" fill="#61C0FA"/>
<path d="M108.765 17.5645C109.77 17.5645 110.153 18.4738 109.962 19.1438C108.813 23.2116 105.031 26.083 100.819 26.083C100.149 26.083 99.5745 25.5087 99.5745 24.8387C99.5745 24.1687 100.149 23.5944 100.819 23.5944C103.93 23.5944 106.707 21.4887 107.568 18.4737C107.76 17.8995 108.238 17.5645 108.765 17.5645Z" fill="#61C0FA"/>
</svg>
