<?xml version="1.0" encoding="utf-8"?>
<!-- Generator: Adobe Illustrator 16.0.3, SVG Export Plug-In . SVG Version: 6.00 Build 0)  -->
<!DOCTYPE svg PUBLIC "-//W3C//DTD SVG 1.0//EN" "http://www.w3.org/TR/2001/REC-SVG-20010904/DTD/svg10.dtd">
<svg version="1.0" id="Layer_1" xmlns="http://www.w3.org/2000/svg" xmlns:xlink="http://www.w3.org/1999/xlink" x="0px" y="0px"
	 width="40px" height="39px" viewBox="0 0 40 39" enable-background="new 0 0 40 39" xml:space="preserve">
<path fill="none" stroke="#FF7882" stroke-linecap="round" stroke-linejoin="round" d="M29.535,12.75
	c-0.743,0.524-1.567,0.925-2.438,1.188c-0.47-0.538-1.091-0.918-1.781-1.091c-0.691-0.173-1.42-0.129-2.084,0.125
	c-0.666,0.254-1.238,0.706-1.64,1.296c-0.399,0.589-0.608,1.288-0.6,2v0.776c-1.365,0.035-2.716-0.268-3.936-0.881
	c-1.219-0.614-2.268-1.519-3.052-2.636c0,0-3.106,6.989,3.882,10.094c-1.599,1.086-3.504,1.631-5.436,1.554
	c6.989,3.882,15.529,0,15.529-8.93c0-0.216-0.021-0.432-0.063-0.645C28.713,14.819,29.271,13.832,29.535,12.75L29.535,12.75z"/>
</svg>
