<svg width="36" height="34" viewBox="0 0 36 34" fill="none" xmlns="http://www.w3.org/2000/svg">
<path d="M24.6321 11.1052C27.3121 11.1052 29.8824 12.1699 31.7775 14.065C33.6726 15.9601 34.7373 18.5304 34.7373 21.2104V32.9998H28.0005V21.2104C28.0005 20.3171 27.6456 19.4603 27.0139 18.8286C26.3822 18.1969 25.5254 17.842 24.6321 17.842C23.7387 17.842 22.8819 18.1969 22.2502 18.8286C21.6185 19.4603 21.2637 20.3171 21.2637 21.2104V32.9998H14.5269V21.2104C14.5269 18.5304 15.5915 15.9601 17.4866 14.065C19.3817 12.1699 21.952 11.1052 24.6321 11.1052V11.1052Z" stroke="#0D0D30" stroke-width="1.88235" stroke-linecap="round" stroke-linejoin="round"/>
<path d="M7.78953 12.7894H1.05273V32.9998H7.78953V12.7894Z" stroke="#0D0D30" stroke-width="1.88235" stroke-linecap="round" stroke-linejoin="round"/>
<path d="M4.4226 7.7368C6.28292 7.7368 7.791 6.22872 7.791 4.3684C7.791 2.50808 6.28292 1 4.4226 1C2.56228 1 1.0542 2.50808 1.0542 4.3684C1.0542 6.22872 2.56228 7.7368 4.4226 7.7368Z" stroke="#0D0D30" stroke-width="1.88235" stroke-linecap="round" stroke-linejoin="round"/>
</svg>
