<svg width="95" height="85" fill="none" version="1.1" viewBox="0 0 95 85" xmlns="http://www.w3.org/2000/svg">
 <g transform="translate(-69.437 6.5116)" fill="#61C0FA">
  <path d="m116.94 57.964c-5.441 0.0037-10.69-2.0145-14.727-5.6627-4.0363-3.6482-6.5735-8.6663-7.1185-14.08-0.5451-5.4137 0.9408-10.837 4.1693-15.217 3.2282-4.3797 7.9692-7.4036 13.301-8.4847 5.333-1.081 10.877-0.1421 15.556 2.6345 4.68 2.7767 8.16 7.1929 9.766 12.392 1.607 5.1985 1.224 10.808-1.073 15.741-2.297 4.9323-6.345 8.835-11.358 10.951-2.694 1.1411-5.591 1.7283-8.516 1.7265zm0-41.605c-3.887-0.0015-7.687 1.1498-10.92 3.3083-3.232 2.1584-5.752 5.2271-7.24 8.8178-1.4881 3.5907-1.8779 7.5421-1.12 11.354 0.758 3.8123 2.63 7.3141 5.378 10.062 2.748 2.7485 6.25 4.62 10.062 5.3779 3.813 0.7579 7.764 0.3682 11.355-1.12 3.591-1.4881 6.659-4.0078 8.818-7.2402 2.158-3.2325 3.309-7.0325 3.308-10.919-6e-3 -5.2073-2.078-10.2-5.76-13.882-3.682-3.6821-8.674-5.7534-13.881-5.7596z"/>
  <path d="m123.58 71.977h-13.285c-0.308 0-0.604-0.1224-0.821-0.3402-0.218-0.2178-0.341-0.5131-0.341-0.8211v-5.3265c-2.639-0.6878-5.173-1.7295-7.532-3.0968l-3.7631 3.7626c-0.1079 0.1089-0.2363 0.1953-0.3779 0.2542-0.1415 0.059-0.2933 0.0893-0.4466 0.0893s-0.3051-0.0303-0.4466-0.0893c-0.1415-0.0589-0.2699-0.1453-0.3779-0.2542l-9.3832-9.4064c-0.1089-0.108-0.1952-0.2364-0.2542-0.3779s-0.0893-0.2933-0.0893-0.4466 0.0303-0.3051 0.0893-0.4466c0.059-0.1416 0.1453-0.27 0.2542-0.378l3.7626-3.7625c-1.3654-2.3635-2.407-4.8998-3.0968-7.5407h-5.3729c-0.308 0-0.6034-0.1223-0.8212-0.3401-0.2177-0.2178-0.3401-0.5132-0.3401-0.8212v-13.27c0-0.308 0.1224-0.6034 0.3401-0.8212 0.2178-0.2178 0.5132-0.3401 0.8212-0.3401h5.3264c0.6898-2.641 1.7314-5.1772 3.0968-7.5407l-3.7626-3.7626c-0.1088-0.1079-0.1952-0.2364-0.2542-0.3779-0.0589-0.1415-0.0893-0.2933-0.0893-0.4466s0.0304-0.3051 0.0893-0.4466c0.059-0.1415 0.1454-0.2699 0.2542-0.3779l9.4297-9.3832c0.108-0.10885 0.2364-0.19524 0.3779-0.2542s0.2933-0.08931 0.4466-0.08931 0.3051 0.03035 0.4466 0.08931c0.1416 0.05896 0.27 0.14535 0.3779 0.2542l3.7631 3.7626c2.359-1.3672 4.893-2.4089 7.532-3.0968v-5.3729c0-0.30799 0.123-0.60337 0.341-0.82116 0.217-0.21778 0.513-0.34013 0.821-0.34013h13.285c0.308 0 0.603 0.12235 0.821 0.34013s0.34 0.51316 0.34 0.82116v5.3264c2.639 0.68785 5.173 1.7296 7.533 3.0968l3.763-3.7626c0.108-0.10884 0.236-0.19523 0.378-0.25419 0.141-0.05896 0.293-0.08931 0.446-0.08931s0.305 0.03035 0.447 0.08931c0.141 0.05896 0.27 0.14535 0.378 0.25419l9.383 9.4297c0.109 0.108 0.195 0.2364 0.254 0.3779s0.089 0.2933 0.089 0.4466-0.03 0.3051-0.089 0.4466-0.145 0.27-0.254 0.3779l-3.763 3.7626c1.366 2.3635 2.407 4.8997 3.097 7.5407h5.373c0.308 0 0.603 0.1223 0.821 0.3401s0.34 0.5132 0.34 0.8212v13.27c0 0.308-0.122 0.6034-0.34 0.8212s-0.513 0.3401-0.821 0.3401h-5.35c-0.689 2.6409-1.731 5.1772-3.096 7.5407l3.762 3.7625c0.109 0.108 0.195 0.2364 0.254 0.378 0.059 0.1415 0.09 0.2933 0.09 0.4466s-0.031 0.3051-0.09 0.4466-0.145 0.2699-0.254 0.3779l-9.406 9.3832c-0.108 0.1088-0.237 0.1952-0.378 0.2542-0.142 0.059-0.294 0.0893-0.447 0.0893s-0.305-0.0303-0.446-0.0893c-0.142-0.059-0.27-0.1454-0.378-0.2542l-3.763-3.7626c-2.36 1.3672-4.894 2.4089-7.533 3.0968v5.3729c-6e-3 0.3039-0.131 0.5934-0.348 0.8062s-0.509 0.3319-0.813 0.3319zm-12.124-2.3226h10.963v-5.0787c1e-3 -0.2618 0.09-0.5154 0.253-0.7204 0.163-0.2049 0.39-0.3493 0.645-0.41 3.015-0.6945 5.893-1.8876 8.516-3.5303 0.222-0.1386 0.485-0.1972 0.746-0.1663 0.26 0.031 0.502 0.1497 0.686 0.3367l3.592 3.5845 7.742-7.742-3.577-3.5922c-0.186-0.1839-0.305-0.4259-0.336-0.6863-0.031-0.2603 0.028-0.5234 0.166-0.746 1.64-2.624 2.833-5.5018 3.53-8.5161 0.061-0.2567 0.206-0.4855 0.413-0.6498 0.206-0.1643 0.462-0.2544 0.726-0.256h5.07v-10.955h-5.07c-0.264-0.0015-0.52-0.0917-0.726-0.256-0.207-0.1642-0.352-0.3931-0.413-0.6498-0.697-3.0143-1.89-5.892-3.53-8.5161-0.138-0.2225-0.197-0.4857-0.166-0.746 0.031-0.2604 0.15-0.5024 0.336-0.6862l3.585-3.5846-7.742-7.7419-3.592 3.569c-0.184 0.187-0.426 0.3057-0.686 0.3367-0.261 0.0309-0.524-0.0277-0.746-0.1663-2.623-1.6427-5.501-2.8359-8.517-3.5304-0.254-0.06067-0.481-0.20504-0.644-0.40998s-0.252-0.4586-0.254-0.72035v-5.0787h-10.97v5.0787c-2e-3 0.26175-0.091 0.51541-0.254 0.72035s-0.389 0.34931-0.644 0.40998c-3.015 0.6945-5.894 1.8877-8.516 3.5304-0.223 0.1386-0.486 0.1972-0.746 0.1663-0.261-0.031-0.503-0.1497-0.686-0.3367l-3.5927-3.5845-7.7419 7.742 3.5845 3.5845c0.1869 0.1838 0.3056 0.4258 0.3366 0.6862 0.031 0.2603-0.0277 0.5235-0.1663 0.746-1.6394 2.6241-2.8324 5.5018-3.5303 8.5162-0.0607 0.2566-0.206 0.4855-0.4123 0.6497-0.2064 0.1643-0.462 0.2545-0.7258 0.2561h-5.0787v10.962h5.071c0.2637 0.0016 0.5193 0.0918 0.7257 0.2561 0.2064 0.1642 0.3516 0.3931 0.4123 0.6497 0.698 3.0144 1.8909 5.8921 3.5304 8.5162 0.1386 0.2225 0.1972 0.4857 0.1663 0.746-0.031 0.2604-0.1497 0.5024-0.3367 0.6862l-3.5845 3.5846 7.742 7.7419 3.5924-3.5845c0.184-0.187 0.426-0.3057 0.686-0.3366 0.26-0.031 0.524 0.0276 0.746 0.1662 2.622 1.6427 5.501 2.8359 8.516 3.5304 0.255 0.0606 0.482 0.205 0.645 0.4099 0.162 0.205 0.252 0.4586 0.253 0.7204z"/>
  <path d="m108.46 43.448c-0.635 0-1.256-0.1885-1.785-0.5415-0.528-0.353-0.94-0.8548-1.183-1.4419s-0.307-1.2331-0.183-1.8563c0.124-0.6233 0.43-1.1958 0.879-1.6451 0.45-0.4493 1.022-0.7553 1.645-0.8793 0.624-0.124 1.27-0.0603 1.857 0.1828 0.587 0.2432 1.089 0.655 1.442 1.1834 0.353 0.5283 0.541 1.1495 0.541 1.785 0 0.8521-0.338 1.6693-0.941 2.2718-0.603 0.6026-1.42 0.9411-2.272 0.9411zm0-4.0955c-0.176 0-0.349 0.0524-0.495 0.1506-0.147 0.0982-0.261 0.2377-0.328 0.4008-0.067 0.1632-0.084 0.3426-0.049 0.5155s0.12 0.3315 0.245 0.4557c0.126 0.1242 0.285 0.2084 0.458 0.2419 0.173 0.0334 0.353 0.0147 0.515-0.0539 0.163-0.0685 0.301-0.1839 0.398-0.3313s0.148-0.3203 0.146-0.4967c0-0.1166-0.023-0.232-0.067-0.3396-0.045-0.1076-0.111-0.2052-0.194-0.2873-0.083-0.082-0.181-0.1469-0.289-0.1908s-0.223-0.0659-0.34-0.0649z"/>
  <path d="m125.45 34.97c-0.636 0.0015-1.258-0.1858-1.788-0.5383-0.529-0.3524-0.942-0.8541-1.186-1.4415s-0.309-1.2341-0.185-1.858c0.124-0.624 0.43-1.1972 0.88-1.647s1.023-0.756 1.647-0.8797 1.27-0.0594 1.858 0.1847c0.587 0.2441 1.089 0.6571 1.441 1.1867 0.353 0.5295 0.54 1.1518 0.539 1.7879-3e-3 0.8494-0.341 1.6635-0.942 2.2641-0.6 0.6007-1.414 0.939-2.264 0.9411zm0-4.0955c-0.176-0.0016-0.349 0.0493-0.496 0.1462-0.148 0.0969-0.263 0.2354-0.332 0.398-0.068 0.1625-0.087 0.3418-0.054 0.515 0.034 0.1732 0.118 0.3326 0.242 0.4579 0.125 0.1252 0.283 0.2108 0.456 0.2458s0.352 0.0178 0.516-0.0493c0.163-0.0672 0.302-0.1813 0.4-0.3279 0.099-0.1466 0.151-0.319 0.151-0.4954 0-0.2348-0.093-0.4601-0.258-0.6268-0.165-0.1668-0.39-0.2615-0.625-0.2635z"/>
  <path d="m116.94 39.205c-0.634 0-1.254-0.188-1.781-0.5402s-0.938-0.8527-1.18-1.4384c-0.243-0.5857-0.306-1.2301-0.183-1.8519 0.124-0.6217 0.429-1.1928 0.877-1.6411 0.449-0.4482 1.02-0.7535 1.641-0.8771 0.622-0.1237 1.267-0.0602 1.852 0.1824 0.586 0.2425 1.087 0.6534 1.439 1.1804 0.352 0.5271 0.54 1.1468 0.54 1.7807 0 0.8501-0.338 1.6653-0.939 2.2664s-1.416 0.9388-2.266 0.9388zm0-4.0877c-0.175 0-0.345 0.0517-0.491 0.1487-0.145 0.097-0.258 0.2348-0.325 0.3961-0.066 0.1613-0.084 0.3387-0.05 0.5099s0.118 0.3285 0.242 0.4519c0.123 0.1235 0.28 0.2075 0.452 0.2416 0.171 0.034 0.348 0.0165 0.51-0.0503 0.161-0.0668 0.299-0.1799 0.396-0.325 0.097-0.1452 0.148-0.3158 0.148-0.4904 0-0.234-0.093-0.4585-0.258-0.624-0.166-0.1656-0.39-0.2585-0.624-0.2585z"/>
  <path d="m116.94 35.118c-0.308 0-0.603-0.1224-0.821-0.3402-0.218-0.2177-0.34-0.5131-0.34-0.8211v-9.7394c0-0.308 0.122-0.6033 0.34-0.8211s0.513-0.3402 0.821-0.3402 0.603 0.1224 0.821 0.3402 0.34 0.5131 0.34 0.8211v9.7394c0 0.308-0.122 0.6034-0.34 0.8211-0.218 0.2178-0.513 0.3402-0.821 0.3402z"/>
  <path d="m125.45 30.875c-0.308 0-0.604-0.1224-0.821-0.3401-0.218-0.2178-0.341-0.5132-0.341-0.8212v-5.4968c0-0.308 0.123-0.6033 0.341-0.8211 0.217-0.2178 0.513-0.3402 0.821-0.3402s0.603 0.1224 0.821 0.3402 0.34 0.5131 0.34 0.8211v5.4968c0 0.308-0.122 0.6034-0.34 0.8212-0.218 0.2177-0.513 0.3401-0.821 0.3401z"/>
  <path d="m108.46 48.944c-0.308 0-0.603-0.1223-0.821-0.3401s-0.34-0.5132-0.34-0.8212v-5.4967c0-0.308 0.122-0.6034 0.34-0.8212s0.513-0.3401 0.821-0.3401 0.604 0.1223 0.821 0.3401c0.218 0.2178 0.341 0.5132 0.341 0.8212v5.4967c0 0.308-0.123 0.6034-0.341 0.8212-0.217 0.2178-0.513 0.3401-0.821 0.3401z"/>
  <path d="m116.94 48.945c-0.308 0-0.603-0.1224-0.821-0.3402s-0.34-0.5131-0.34-0.8211v-9.7394c0-0.308 0.122-0.6034 0.34-0.8211 0.218-0.2178 0.513-0.3402 0.821-0.3402s0.603 0.1224 0.821 0.3402c0.218 0.2177 0.34 0.5131 0.34 0.8211v9.7394c0 0.308-0.122 0.6033-0.34 0.8211s-0.513 0.3402-0.821 0.3402z"/>
  <path d="m125.45 48.944c-0.308 0-0.604-0.1223-0.821-0.3401-0.218-0.2178-0.341-0.5132-0.341-0.8212v-13.935c0-0.308 0.123-0.6034 0.341-0.8212 0.217-0.2178 0.513-0.3401 0.821-0.3401s0.603 0.1223 0.821 0.3401 0.34 0.5132 0.34 0.8212v13.935c0 0.308-0.122 0.6034-0.34 0.8212s-0.513 0.3401-0.821 0.3401z"/>
  <path d="m108.46 39.352c-0.308 0-0.603-0.1224-0.821-0.3401-0.218-0.2178-0.34-0.5132-0.34-0.8212v-13.936c0-0.308 0.122-0.6033 0.34-0.8211s0.513-0.3402 0.821-0.3402 0.604 0.1224 0.821 0.3402c0.218 0.2178 0.341 0.5131 0.341 0.8211v13.936c0 0.308-0.123 0.6034-0.341 0.8212-0.217 0.2177-0.513 0.3401-0.821 0.3401z"/>
 </g>
</svg>
