<svg width="29" height="29" fill="none" version="1.1" viewBox="0 0 29 29" xmlns="http://www.w3.org/2000/svg">
 <g transform="translate(6.4973 6.9723)" stroke="#fff" stroke-linecap="round" stroke-linejoin="round">
  <path d="m10.873 5.0159c1.142 0 2.2373 0.45367 3.0448 1.2612 0.8076 0.80754 1.2612 1.9028 1.2612 3.0448v5.0237h-2.8707v-5.0237c0-0.38068-0.1512-0.74576-0.4204-1.0149s-0.6342-0.42041-1.0149-0.42041-0.7458 0.15123-1.015 0.42041c-0.26918 0.26918-0.42041 0.63426-0.42041 1.0149v5.0237h-2.8707v-5.0237c0-1.142 0.45367-2.2373 1.2612-3.0448s1.9028-1.2612 3.0448-1.2612z"/>
  <path d="m3.6969 5.7332h-2.8707v8.612h2.8707z"/>
  <path d="m2.2627 3.5804c0.79272 0 1.4354-0.64262 1.4354-1.4354 0-0.79272-0.64263-1.4353-1.4354-1.4353s-1.4353 0.64262-1.4353 1.4353c0 0.79273 0.64263 1.4354 1.4353 1.4354z"/>
 </g>
</svg>
