<svg width="38" height="31" viewBox="0 0 38 31" fill="none" xmlns="http://www.w3.org/2000/svg">
<path d="M26.7778 29.9999V26.7777C26.7778 25.0685 26.0988 23.4294 24.8902 22.2208C23.6817 21.0122 22.0425 20.3333 20.3333 20.3333H7.44444C5.73527 20.3333 4.0961 21.0122 2.88753 22.2208C1.67897 23.4294 1 25.0685 1 26.7777V29.9999" stroke="#0D0D30" stroke-width="2" stroke-linecap="round" stroke-linejoin="round"/>
<path d="M13.8893 13.8889C17.4484 13.8889 20.3337 11.0036 20.3337 7.44444C20.3337 3.88528 17.4484 1 13.8893 1C10.3301 1 7.44482 3.88528 7.44482 7.44444C7.44482 11.0036 10.3301 13.8889 13.8893 13.8889Z" stroke="#0D0D30" stroke-width="2" stroke-linecap="round" stroke-linejoin="round"/>
<path d="M36.4447 29.9999V26.7777C36.4436 25.3498 35.9683 23.9627 35.0935 22.8342C34.2187 21.7057 32.9939 20.8997 31.6113 20.5427" stroke="#0D0D30" stroke-width="2" stroke-linecap="round" stroke-linejoin="round"/>
<path d="M25.1665 1.20947C26.5527 1.5644 27.7814 2.3706 28.6588 3.50097C29.5362 4.63134 30.0125 6.02159 30.0125 7.45253C30.0125 8.88347 29.5362 10.2737 28.6588 11.4041C27.7814 12.5345 26.5527 13.3407 25.1665 13.6956" stroke="#0D0D30" stroke-width="2" stroke-linecap="round" stroke-linejoin="round"/>
</svg>
