<svg width="95" height="85" fill="none" version="1.1" viewBox="0 0 95 85" xmlns="http://www.w3.org/2000/svg">
 <g transform="translate(-80.935 11.173)" fill="#61C0FA">
  <path d="m144.61 0c-1.302 0-2.357 1.0555-2.357 2.357v12.075c0 1.3015 1.055 2.357 2.357 2.357 1.301 0 2.357-1.0555 2.357-2.357v-9.6149c13.574 1.1967 24.257 12.63 24.257 26.511 0 14.675-11.938 26.613-26.613 26.613s-26.614-11.939-26.614-26.613c0-8.468 4.089-16.508 10.938-21.51 1.051-0.76803 1.281-2.2418 0.514-3.2932s-2.242-1.2818-3.294-0.51375c-8.06 5.8848-12.872 15.349-12.872 25.317 0 17.273 14.053 31.327 31.327 31.327 17.273 0 31.327-14.053 31.327-31.327 0-17.274-14.053-31.327-31.327-31.327z"/>
  <path d="m128.82 22.476c-0.655 1.1251-0.275 2.5677 0.85 3.2226l13.158 7.6647c0.373 0.218 0.782 0.3207 1.184 0.3207 0.812 0 1.602-0.4193 2.039-1.1707 0.655-1.125 0.275-2.5677-0.85-3.2226l-13.159-7.6647c-1.124-0.656-2.567-0.2761-3.222 0.85z"/>
  <path d="m87.162 15.781h21.796c1.146 0 2.076-0.9299 2.076-2.0758 0-1.1458-0.93-2.0757-2.076-2.0757h-21.796c-1.1458 0-2.0757 0.9299-2.0757 2.0757 0 1.1459 0.9289 2.0758 2.0757 2.0758z"/>
  <path d="m83.011 26.838h21.796c1.145 0 2.075-0.93 2.075-2.0758s-0.93-2.0757-2.075-2.0757h-21.796c-1.1459 0-2.0758 0.9299-2.0758 2.0757s0.9289 2.0758 2.0758 2.0758z"/>
  <path d="m106.88 35.82c0-1.1459-0.93-2.0758-2.075-2.0758h-21.796c-1.1459 0-2.0758 0.9299-2.0758 2.0758 0 1.1458 0.9299 2.0757 2.0758 2.0757h21.796c1.145 0 2.075-0.9289 2.075-2.0757z"/>
  <path d="m111.03 46.878c0-1.1458-0.93-2.0757-2.076-2.0757h-21.796c-1.1458 0-2.0757 0.9299-2.0757 2.0757s0.9299 2.0758 2.0757 2.0758h21.796c1.146 0 2.076-0.9289 2.076-2.0758z"/>
 </g>
</svg>
