<svg width="17" height="17" fill="none" version="1.1" viewBox="0 0 17 17" xmlns="http://www.w3.org/2000/svg">
 <path d="m15.573 8.032-6.6883 6.6883c-0.81937 0.8194-1.9307 1.2797-3.0894 1.2797-1.1588 0-2.2701-0.4603-3.0894-1.2797s-1.2797-1.9307-1.2797-3.0894c0-1.1588 0.46032-2.2701 1.2797-3.0895l6.6883-6.6883c0.54624-0.54624 1.2871-0.85312 2.0596-0.85312s1.5134 0.30688 2.0597 0.85312c0.5462 0.54625 0.8531 1.2871 0.8531 2.0596s-0.3069 1.5134-0.8531 2.0596l-6.6956 6.6883c-0.27313 0.2731-0.64356 0.4266-1.0298 0.4266-0.38625 0-0.75668-0.1535-1.0298-0.4266-0.27312-0.2731-0.42656-0.6436-0.42656-1.0298 0-0.3863 0.15344-0.7567 0.42656-1.0298l6.1789-6.1716" stroke="#61C0FA" stroke-linecap="round" stroke-linejoin="round" stroke-width="1.4556"/>
</svg>
