<svg width="49" height="13" viewBox="0 0 49 13" fill="none" xmlns="http://www.w3.org/2000/svg">
<path d="M24.5 11.1094C27.2917 11.1094 29.5547 8.84636 29.5547 6.05472C29.5547 3.26307 27.2917 1 24.5 1C21.7084 1 19.4453 3.26307 19.4453 6.05472C19.4453 8.84636 21.7084 11.1094 24.5 11.1094Z" fill="white" stroke="#0D0D30" stroke-width="2" stroke-linecap="round" stroke-linejoin="round"/>
<path d="M42.9453 11.1094C45.737 11.1094 48.0001 8.84636 48.0001 6.05472C48.0001 3.26307 45.737 1 42.9453 1C40.1537 1 37.8906 3.26307 37.8906 6.05472C37.8906 8.84636 40.1537 11.1094 42.9453 11.1094Z" fill="white" stroke="#0D0D30" stroke-width="2" stroke-linecap="round" stroke-linejoin="round"/>
<path d="M6.05472 11.1094C8.84636 11.1094 11.1094 8.84636 11.1094 6.05472C11.1094 3.26307 8.84636 1 6.05472 1C3.26307 1 1 3.26307 1 6.05472C1 8.84636 3.26307 11.1094 6.05472 11.1094Z" fill="white" stroke="#0D0D30" stroke-width="2" stroke-linecap="round" stroke-linejoin="round"/>
</svg>
