<?xml version="1.0" encoding="utf-8"?>
<svg version="1.1" id="Layer_1" focusable="false" xmlns="http://www.w3.org/2000/svg" xmlns:xlink="http://www.w3.org/1999/xlink"
	 x="0px" y="0px" width="29px" height="29px" viewBox="0 0 29 29" enable-background="new 0 0 29 29" xml:space="preserve">
<g>
	<path fill="none" stroke="#FFFFFF" stroke-miterlimit="10" d="M16.189,12.263c1.519,1.518,1.498,3.953,0.011,5.448
		c-0.003,0.004-0.007,0.007-0.011,0.011l-1.706,1.705c-1.506,1.505-3.952,1.505-5.458,0c-1.503-1.506-1.503-3.954,0-5.46
		l0.941-0.941c0.25-0.248,0.682-0.083,0.692,0.271c0.019,0.45,0.099,0.901,0.247,1.339c0.051,0.148,0.015,0.312-0.095,0.421
		l-0.333,0.334c-0.711,0.711-0.732,1.868-0.029,2.59c0.711,0.726,1.881,0.729,2.598,0.011l1.708-1.705
		c0.715-0.718,0.711-1.874,0-2.586c-0.094-0.095-0.188-0.167-0.265-0.218c-0.105-0.073-0.171-0.192-0.174-0.319
		c-0.011-0.269,0.083-0.546,0.295-0.759l0.535-0.533c0.14-0.141,0.361-0.159,0.522-0.045C15.856,11.956,16.03,12.103,16.189,12.263z
		"/>
	<path fill="none" stroke="#FFFFFF" stroke-miterlimit="10" d="M19.771,8.682c-1.506-1.504-3.954-1.504-5.46,0l-1.707,1.708
		c-0.003,0.001-0.007,0.005-0.009,0.007c-1.485,1.497-1.507,3.932,0.009,5.449c0.162,0.163,0.336,0.308,0.522,0.438
		c0.162,0.112,0.381,0.095,0.522-0.044l0.533-0.536c0.214-0.211,0.309-0.486,0.298-0.757c-0.004-0.129-0.069-0.246-0.176-0.319
		c-0.074-0.051-0.169-0.123-0.264-0.218c-0.713-0.712-0.714-1.869,0-2.584l1.707-1.708c0.717-0.717,1.887-0.711,2.6,0.014
		c0.703,0.719,0.682,1.877-0.031,2.588l-0.332,0.332c-0.11,0.113-0.145,0.276-0.096,0.423c0.148,0.438,0.23,0.889,0.246,1.339
		c0.013,0.354,0.442,0.521,0.693,0.271l0.943-0.943C21.273,12.636,21.273,10.188,19.771,8.682z"/>
</g>
</svg>
