<svg width="29" height="29" fill="none" version="1.1" viewBox="0 0 29 29" xmlns="http://www.w3.org/2000/svg">
 <path d="m23.157 7.4469c-0.7537 0.53164-1.5881 0.93824-2.4713 1.2042-0.474-0.54502-1.104-0.93131-1.8047-1.1066-0.7007-0.17533-1.4383-0.13122-2.1131 0.12634-0.6749 0.25757-1.2543 0.71617-1.66 1.3138-0.40568 0.59761-0.61804 1.3054-0.60836 2.0276v0.78705c-1.3831 0.03586-2.7536-0.27089-3.9895-0.89295-1.2359-0.62205-2.2987-1.5401-3.0939-2.6724 0 0-3.1482 7.0834 3.9352 10.232-1.6209 1.1002-3.5518 1.6519-5.5093 1.5741 7.0834 3.9352 15.741 0 15.741-9.051-7e-4 -0.21923-0.0218-0.43791-0.0629-0.65324 0.8032-0.79217 1.3701-1.7923 1.637-2.8885z" stroke="#fff" stroke-linecap="round" stroke-linejoin="round"/>
</svg>
