<svg width="32" height="32" fill="none" version="1.1" viewBox="0 0 32 32" xmlns="http://www.w3.org/2000/svg">
 <g transform="matrix(.74069 0 0 .74069 -.46319 8.7936)" fill="#0d0d30">
  <path d="m40.454 0.0019531h-36.454v1.4724h36.454z"/>
  <path d="m8.8423 5.2324h-0.73682v13.359h0.73682z"/>
  <path d="m8.8425 5.2344v13.359h-0.73691v-13.359h-0.19035c-0.01226 0-0.02407-0.00263-0.03632-0.00394v13.589h1.1898v-13.589c-0.01051 8.7e-4 -0.02101 0.0035-0.03195 0.0035z"/>
  <path d="m8.8419 4.4219h-0.92724c-0.01226 0-0.02407 0.00262-0.03632 0.00393-0.20567 0.01838-0.36758 0.1899-0.36758 0.39993 0 0.21046 0.16235 0.38155 0.36758 0.40036 0.01225 0.00132 0.02363 0.00394 0.03632 0.00394h1.1215c0.01094 0 0.02144-0.00219 0.03194-0.0035 0.20742-0.01663 0.37195-0.18902 0.37195-0.4008s-0.16453-0.38374-0.37195-0.40036c-0.0105-8.8e-4 -0.021-0.0035-0.03194-0.0035zm0.37151 0.40386c0 0.0862-0.06345 0.15533-0.14528 0.17109-0.01094 0.00218-0.02056 0.00656-0.03194 0.00656h-1.1215c-0.01269 0-0.02407-0.00438-0.03632-0.00744-0.08008-0.0175-0.14135-0.08489-0.14135-0.17021 0-0.08489 0.06127-0.15271 0.14135-0.16977 0.01181-0.00263 0.02363-0.00744 0.03632-0.00744h1.1215c0.01138 0 0.021 0.00438 0.03194 0.00656 0.08183 0.01532 0.14528 0.08401 0.14528 0.17065z"/>
  <path d="m8.8418 4.0962v0.33038h0.19428c0.01094 0 0.02144 0.00219 0.03195 0.0035v-0.33388c0-0.5518 0.43014-1.0008 0.97277-1.0402-0.04554-0.06652-0.0731-0.14222-0.07748-0.22405-0.63099 0.0757-1.1215 0.61307-1.1215 1.2642z"/>
  <path d="m7.8789 4.0943v0.33432c0.01225-0.00131 0.02363-0.00394 0.03632-0.00394h0.19035v-0.33038c0-1.0559 0.81919-1.9228 1.855-2.0028v-0.22624c-1.1614 0.08052-2.0817 1.048-2.0817 2.2291z"/>
  <path d="m11.122 2.8051v-1.494c0-0.27613-0.2604-0.50061-0.5807-0.50061-0.3207 0-0.58154 0.22448-0.58154 0.50061v1.494c0 0.00876 0.00263 0.01707 0.00306 0.02582 0.00482 0.08183 0.03239 0.15754 0.07748 0.22405 0.1006 0.14922 0.2866 0.25075 0.501 0.25075 0.2175 0 0.4057-0.10503 0.505-0.25775 0.0437-0.06783 0.0709-0.14441 0.0739-0.22668 5e-4 -0.00568 0.0018-0.01094 0.0018-0.01619zm-0.5807 0.27394c-0.0586 0-0.1133-0.01225-0.1623-0.03151-0.1081-0.04376-0.1829-0.12778-0.1908-0.22667-5e-4 -0.00525-0.0022-0.01051-0.0022-0.01576v-1.494c0-0.15097 0.1593-0.27394 0.3553-0.27394 0.1952 0 0.354 0.12297 0.354 0.27394v1.494c0 0.00525-0.0013 0.01051-0.0017 0.01576-0.0079 0.09889-0.0827 0.18291-0.1908 0.22667-0.0482 0.01926-0.1028 0.03151-0.1615 0.03151z"/>
  <path d="m9.1081 19.457h-1.2234c-0.23716 0-0.43057-0.1934-0.43057-0.431 0-0.2371 0.19297-0.4301 0.43057-0.4301h1.2234c0.23717 0 0.43058 0.193 0.43058 0.4301 0 0.2376-0.19297 0.431-0.43058 0.431zm-1.2234-0.6345c-0.11245 0-0.20391 0.0911-0.20391 0.2035 0 0.1125 0.09146 0.2043 0.20391 0.2043h1.2234c0.11246 0 0.20391-0.0918 0.20391-0.2043 0-0.1124-0.09145-0.2035-0.20391-0.2035z"/>
  <path d="m33.933 3.0774c0.0581 0 0.1128-0.01189 0.1618-0.03057h-0.3237c0.0485 0.01868 0.1032 0.03057 0.1619 0.03057z"/>
  <path d="m34.288 1.311c0-0.15098-0.1589-0.27394-0.3545-0.27394s-0.3549 0.12296-0.3549 0.27394v0.54655h0.7094z"/>
  <path d="m33.55 1.8574h-22.461v0.22669h22.461z"/>
  <path d="m36.444 5.2324h-0.7365v13.359h0.7365z"/>
  <path d="m35.707 5.2344v13.359h0.7365v-13.359h0.1903c0.0119 0 0.0241-0.00263 0.0359-0.00394v13.589h-1.1889v-13.589c0.0105 8.7e-4 0.021 0.0035 0.0319 0.0035z"/>
  <path d="m35.512 4.4219c-0.0105 0-0.021 0.00218-0.032 0.0035-0.2078 0.01662-0.3719 0.18902-0.3719 0.40036s0.1641 0.38417 0.3719 0.4008c0.0105 8.8e-4 0.021 0.0035 0.032 0.0035h1.121c0.0118 0 0.0241-0.00262 0.0359-0.00394 0.2056-0.01837 0.3675-0.1899 0.3675-0.40036 0-0.21003-0.1619-0.38155-0.3675-0.39993-0.0118-0.00131-0.0241-0.00393-0.0359-0.00393h-0.9268zm-0.032 0.23278c0.0105-0.00175 0.0202-0.00657 0.032-0.00657h1.121c0.0127 0 0.0241 0.00481 0.0359 0.00744 0.0801 0.01706 0.1409 0.08489 0.1409 0.16977 0 0.08533-0.0608 0.15315-0.1409 0.17021-0.0118 0.00263-0.0232 0.00744-0.0359 0.00744h-1.121c-0.0114 0-0.021-0.00438-0.032-0.00656-0.0822-0.01576-0.1452-0.08489-0.1452-0.17109s0.0634-0.15489 0.1452-0.17064z"/>
  <path d="m34.007 3.0774c-0.0583 0-0.113-0.01189-0.162-0.03057h0.3239c-0.0486 0.01868-0.1029 0.03057-0.1619 0.03057z"/>
  <path d="m35.707 4.0962v0.33038h-0.1943c-0.0105 0-0.021 0.00219-0.0319 0.0035v-0.33388c0-0.5518-0.4306-1.0008-0.9728-1.0402 0.0451-0.06652 0.0731-0.14222 0.0775-0.22405 0.631 0.0757 1.1215 0.61307 1.1215 1.2642z"/>
  <path d="m36.669 4.0943v0.33432c-0.0118-0.00131-0.0241-0.00394-0.0359-0.00394h-0.1904v-0.33038c0-1.0559-0.8191-1.9228-1.8549-2.0028v-0.22624c1.1614 0.08052 2.0812 1.048 2.0812 2.2291z"/>
  <path d="m33.429 2.8208c0.0035 0.08226 0.0297 0.15884 0.0739 0.22667 0.0994 0.15315 0.2871 0.25774 0.505 0.25774 0.2145 0 0.4-0.10109 0.5011-0.25074 0.0451-0.06652 0.0731-0.14222 0.0774-0.22405 5e-4 -0.00875 0.0031-0.01706 0.0031-0.02581v-1.4935c0-0.27612-0.2608-0.5006-0.5816-0.5006-0.3203 0-0.5807 0.22448-0.5807 0.5006v1.4939c-4e-4 0.00525 0.0013 0.0105 0.0018 0.01576zm0.417 0.22667c-0.1076-0.04376-0.1829-0.12778-0.1908-0.22667-4e-4 -0.00526-0.0017-0.01051-0.0017-0.01576v-1.4939c0-0.15097 0.1584-0.27393 0.354-0.27393s0.3549 0.12296 0.3549 0.27393v1.4939c0 0.00525-0.0013 0.0105-0.0018 0.01576-0.0074 0.09889-0.0827 0.18291-0.1912 0.22667-0.0486 0.01925-0.1033 0.0315-0.1619 0.0315-0.0582 0-0.1125-0.01225-0.1615-0.0315z"/>
  <path d="m35.01 19.026c0-0.2371 0.1929-0.4301 0.4301-0.4301h1.223c0.2376 0 0.4306 0.193 0.4306 0.4301 0 0.2376-0.1925 0.431-0.4306 0.431h-1.223c-0.2372 0-0.4301-0.1934-0.4301-0.431zm0.4301-0.2035c-0.1129 0-0.2039 0.0911-0.2039 0.2035 0 0.1125 0.091 0.2043 0.2039 0.2043h1.223c0.1129 0 0.2039-0.0918 0.2039-0.2043 0-0.1124-0.091-0.2035-0.2039-0.2035z"/>
  <path d="m33.554 2.8203h-22.47c-0.0013 0.08224-0.0153 0.15879-0.0372 0.2266h22.543c-0.0214-0.06781-0.035-0.14436-0.0367-0.2266z"/>
 </g>
</svg>
