<svg width="27" height="27" viewBox="0 0 27 27" fill="none" xmlns="http://www.w3.org/2000/svg">
<path d="M13.5001 7.0045C13.4146 7.0045 13.3336 6.97172 13.2726 6.91067C13.1473 6.78535 13.1473 6.58162 13.2726 6.4563L19.635 0.0938305C19.6954 0.0334192 19.7764 0 19.8619 0C19.948 0 20.029 0.0334192 20.0894 0.0938305C20.2147 0.219152 20.2147 0.423522 20.0894 0.548843L13.7276 6.91067C13.6665 6.97172 13.5862 7.0045 13.5001 7.0045Z" fill="#0D0D30"/>
<path d="M14.8631 8.3682C14.7776 8.3682 14.6966 8.33478 14.6362 8.27373C14.5109 8.14841 14.5109 7.94468 14.6362 7.81936L21.4524 1.00316C21.5134 0.94211 21.5937 0.908691 21.6799 0.908691C21.7653 0.908691 21.8464 0.94211 21.9074 1.00316C22.0327 1.12849 22.0327 1.33221 21.9074 1.45753L15.0906 8.27373C15.0295 8.33478 14.9492 8.3682 14.8631 8.3682Z" fill="#0D0D30"/>
<path d="M16.2269 9.73153C16.1407 9.73153 16.0598 9.69811 15.9993 9.6377C15.939 9.57665 15.9055 9.49632 15.9055 9.4102C15.9055 9.32408 15.939 9.24374 15.9993 9.18269L23.7249 1.45775C23.7853 1.3967 23.8663 1.36328 23.9518 1.36328C24.0379 1.36328 24.1189 1.3967 24.1793 1.45775C24.2396 1.51817 24.2731 1.59914 24.2731 1.68462C24.2731 1.77074 24.2396 1.85107 24.1793 1.91212L16.4537 9.6377C16.3933 9.69811 16.3123 9.73153 16.2269 9.73153Z" fill="#0D0D30"/>
<path d="M17.59 11.0943C17.5039 11.0943 17.4236 11.0609 17.3625 11.0005C17.3022 10.9401 17.2687 10.8591 17.2687 10.773C17.2687 10.6875 17.3022 10.6065 17.3625 10.5461L25.0881 2.82055C25.1491 2.76014 25.2295 2.72607 25.3156 2.72607C25.4011 2.72607 25.482 2.76014 25.5425 2.82055C25.6678 2.94587 25.6678 3.1496 25.5425 3.27492L17.8169 11.0005C17.7564 11.0609 17.6755 11.0943 17.59 11.0943Z" fill="#0D0D30"/>
<path d="M18.9531 12.4585C18.8677 12.4585 18.7867 12.4251 18.7263 12.3641C18.601 12.2387 18.601 12.035 18.7263 11.9097L25.5425 5.0935C25.6035 5.03244 25.6839 4.99902 25.77 4.99902C25.8554 4.99902 25.9364 5.03244 25.9968 5.0935C26.0578 5.15391 26.0913 5.23424 26.0913 5.32036C26.0913 5.40648 26.0578 5.48681 25.9968 5.54787L19.1806 12.3641C19.1195 12.4251 19.0392 12.4585 18.9531 12.4585Z" fill="#0D0D30"/>
<path d="M20.3169 13.8215C20.2308 13.8215 20.1505 13.7881 20.0895 13.7277C20.0291 13.6667 19.9956 13.5863 19.9956 13.5002C19.9956 13.4141 20.0291 13.3338 20.0895 13.2733L26.4513 6.91088C26.5123 6.84983 26.5933 6.81641 26.6788 6.81641C26.7649 6.81641 26.8452 6.84983 26.9063 6.91088C26.9667 6.97129 27.0001 7.05227 27.0001 7.13774C27.0001 7.22386 26.9667 7.30484 26.9063 7.36525L20.5438 13.7277C20.4835 13.7881 20.4024 13.8215 20.3169 13.8215Z" fill="#0D0D30"/>
<path d="M0.321375 20.1832C0.235257 20.1832 0.154923 20.1497 0.0938689 20.0894C-0.0314524 19.9641 -0.0314524 19.7603 0.0938689 19.635L6.45634 13.2725C6.51675 13.2121 6.59772 13.1787 6.6832 13.1787C6.76932 13.1787 6.8503 13.2121 6.91071 13.2725C7.03603 13.3979 7.03603 13.6022 6.91071 13.7276L0.548882 20.0894C0.487828 20.1498 0.406851 20.1832 0.321375 20.1832Z" fill="#0D0D30"/>
<path d="M1.23028 22.0015C1.1448 22.0015 1.06383 21.968 1.00341 21.9076C0.878093 21.7824 0.878093 21.5779 1.00341 21.4527L7.81961 14.6365C7.88066 14.5754 7.961 14.542 8.04712 14.542C8.13259 14.542 8.21357 14.5754 8.27398 14.6365C8.33503 14.6969 8.36845 14.7779 8.36845 14.8633C8.36845 14.9494 8.33503 15.0298 8.27398 15.0908L1.45779 21.9076C1.39673 21.9681 1.3164 22.0015 1.23028 22.0015Z" fill="#0D0D30"/>
<path d="M1.6845 24.2729C1.59902 24.2729 1.51804 24.2394 1.45763 24.1791C1.39658 24.1186 1.36316 24.0377 1.36316 23.9515C1.36316 23.8661 1.39658 23.7851 1.45763 23.7247L9.18257 15.9991C9.24362 15.9388 9.32396 15.9053 9.41007 15.9053C9.49619 15.9053 9.57653 15.9388 9.63758 15.9991C9.69799 16.0602 9.73141 16.1405 9.73141 16.2266C9.73141 16.3121 9.69799 16.3931 9.63758 16.4535L1.912 24.1791C1.85095 24.2394 1.77061 24.2729 1.6845 24.2729Z" fill="#0D0D30"/>
<path d="M3.0483 25.6368C2.96218 25.6368 2.8812 25.6034 2.82079 25.5423C2.76038 25.4819 2.72632 25.4009 2.72632 25.3155C2.72632 25.2294 2.76038 25.149 2.82079 25.088L10.5464 17.3624C10.6068 17.302 10.6878 17.2686 10.7732 17.2686C10.8594 17.2686 10.9403 17.302 11.0007 17.3624C11.1261 17.4877 11.1261 17.6921 11.0007 17.8168L3.27516 25.5423C3.21475 25.6034 3.13377 25.6368 3.0483 25.6368Z" fill="#0D0D30"/>
<path d="M5.31999 26.0914C5.23388 26.0914 5.15354 26.0579 5.09313 25.9969C5.03208 25.9365 4.99866 25.8556 4.99866 25.7701C4.99866 25.684 5.03208 25.6036 5.09313 25.5426L11.9093 18.7263C11.9704 18.6653 12.0507 18.6318 12.1368 18.6318C12.2223 18.6318 12.3033 18.6653 12.3637 18.7263C12.489 18.8516 12.489 19.0554 12.3637 19.1807L5.5475 25.9969C5.48645 26.0579 5.40611 26.0914 5.31999 26.0914Z" fill="#0D0D30"/>
<path d="M7.1375 27.0001C7.05202 27.0001 6.97105 26.9667 6.91064 26.9063C6.84958 26.8452 6.81616 26.7649 6.81616 26.6788C6.81616 26.5933 6.84958 26.5123 6.91064 26.4513L13.2731 20.0895C13.3335 20.0291 13.4138 19.9956 13.5 19.9956C13.5861 19.9956 13.6664 20.0291 13.7275 20.0895C13.8521 20.2148 13.8521 20.4185 13.7275 20.5438L7.365 26.9063C7.30459 26.9667 7.22362 27.0001 7.1375 27.0001Z" fill="#0D0D30"/>
<path d="M18.4987 17.4566C18.4126 17.4566 18.3322 17.4232 18.2719 17.3621L9.63756 8.72789C9.57651 8.66748 9.54309 8.5865 9.54309 8.50102C9.54309 8.41491 9.57651 8.33457 9.63756 8.27352C9.69798 8.21311 9.77895 8.17969 9.86443 8.17969C9.95055 8.17969 10.0309 8.21311 10.0919 8.27352L18.7263 16.9079C18.8516 17.0332 18.8516 17.2369 18.7263 17.3622C18.6652 17.4233 18.5849 17.4566 18.4987 17.4566Z" fill="#0D0D30"/>
<path d="M19.862 16.0932C19.7765 16.0932 19.6955 16.0598 19.6351 15.9994L11.0008 7.36509C10.9404 7.30468 10.907 7.22371 10.907 7.13823C10.907 7.05211 10.9404 6.97114 11.0008 6.91073C11.0612 6.84967 11.1422 6.81689 11.2283 6.81689C11.3138 6.81689 11.3948 6.84967 11.4552 6.91073L20.0896 15.545C20.2148 15.6704 20.2148 15.8741 20.0896 15.9994C20.0291 16.0598 19.9481 16.0932 19.862 16.0932Z" fill="#0D0D30"/>
<path d="M17.1356 18.82C17.0495 18.82 16.9692 18.7865 16.9082 18.7261L8.27388 10.0918C8.21347 10.0308 8.18005 9.95042 8.18005 9.86431C8.18005 9.77883 8.21347 9.69785 8.27388 9.63744C8.33494 9.57639 8.41527 9.54297 8.50139 9.54297C8.58687 9.54297 8.66784 9.57639 8.72825 9.63744L17.3626 18.2718C17.4879 18.3964 17.4879 18.6008 17.3626 18.7261C17.3022 18.7865 17.2211 18.82 17.1356 18.82Z" fill="#0D0D30"/>
<path d="M15.7719 20.1831C15.6864 20.1831 15.6055 20.1502 15.545 20.0893L6.91073 11.4549C6.84967 11.3945 6.81689 11.3136 6.81689 11.2281C6.81689 11.142 6.84967 11.061 6.91073 11.0006C6.97114 10.9402 7.05211 10.9067 7.13823 10.9067C7.22371 10.9067 7.30468 10.9402 7.36509 11.0006L15.9994 19.6349C16.1247 19.7602 16.1247 19.9639 15.9994 20.0893C15.939 20.1502 15.858 20.1831 15.7719 20.1831Z" fill="#0D0D30"/>
</svg>
