<svg width="23" height="22" viewBox="0 0 23 22" fill="none" xmlns="http://www.w3.org/2000/svg">
    <rect x="0.840332" width="21.995" height="21.995" fill="#11B87A"/>
    <path d="M11.1841 2.01189C11.3899 1.37863 12.2858 1.37864 12.4916 2.01189L14.1526 7.12416C14.2446 7.40736 14.5086 7.5991 14.8063 7.5991H20.1817C20.8475 7.5991 21.1244 8.45114 20.5857 8.84252L16.2369 12.0021C15.996 12.1771 15.8952 12.4873 15.9873 12.7705L17.6483 17.8828C17.8541 18.5161 17.1293 19.0427 16.5906 18.6513L12.2419 15.4917C12.001 15.3167 11.6747 15.3167 11.4338 15.4917L7.08509 18.6513C6.54641 19.0427 5.82162 18.5161 6.02738 17.8828L7.68845 12.7705C7.78047 12.4873 7.67966 12.1771 7.43876 12.0021L3.09001 8.84252C2.55132 8.45114 2.82817 7.5991 3.49402 7.5991H8.86937C9.16715 7.5991 9.43106 7.40736 9.52307 7.12416L11.1841 2.01189Z"
          fill="white"/>
</svg>
