<svg width="95" height="85" fill="none" version="1.1" viewBox="0 0 95 85" xmlns="http://www.w3.org/2000/svg">
 <g transform="translate(-69.781 6.5461)" fill="#61C0FA">
  <path d="m126.1 0c-15.693 0-28.46 12.764-28.46 28.454 0 4.5237 1.066 8.8015 2.9519 12.603l-19.55 19.553c-0.0588 0.0588-0.088 0.1324-0.1322 0.199-0.8477 0.9944-1.1264 2.4394-0.75 4.0255 0.3602 1.5128 1.2697 3.0583 2.562 4.3505 1.7761 1.7739 3.9018 2.7231 5.7255 2.7226 1.1151 0 2.1173-0.3544 2.858-1.092l4e-4 -7e-4c3e-4 -3e-4 5e-4 -3e-4 8e-4 -5e-4l18.833-18.811c4.555 3.0966 10.05 4.9093 15.961 4.9093 15.691 0 28.458-12.766 28.458-28.458 0-15.69-12.767-28.454-28.458-28.454zm-36.514 69.091c-0.8298 0.8286-3.2051 0.3085-5.1429-1.6275-0.9642-0.9636-1.6609-2.1269-1.9141-3.1915-0.2033-0.8565-0.101-1.5675 0.2818-1.9503 0.0329-0.0329 0.0457-0.0759 0.074-0.1116l18.932-18.933c1.693 2.7644 3.847 5.2167 6.351 7.2545zm36.514-14.613c-14.351 0-26.025-11.674-26.025-26.024 0-14.348 11.674-26.02 26.025-26.02 14.349 0 26.024 11.672 26.024 26.02 0 14.349-11.675 26.024-26.024 26.024z"/>
  <path d="m143.49 24.635c-1.295-0.0922-2.535 0.3334-3.509 1.1829-0.658 0.5753-1.121 1.3078-1.39 2.1158l-4.769-0.3221c-0.257-2.3595-1.576-4.4022-3.467-5.644l1.509-3.7241c0.28 0.1041 0.572 0.1894 0.877 0.241h2e-3c0.271 0.0464 0.54 0.0683 0.807 0.0683 2.317 0 4.371-1.6745 4.769-4.0337 0.444-2.6309-1.335-5.1322-3.966-5.5762-1.276-0.21754-2.557 0.0784-3.609 0.82745-1.053 0.74895-1.752 1.8634-1.967 3.1378-0.243 1.4372 0.194 2.8225 1.055 3.8681l-1.7 4.1955c-0.647-0.175-1.322-0.2766-2.023-0.2766-2.009 0-3.836 0.7733-5.215 2.0296l-2.791-2.8238c0.455-0.6888 0.744-1.4754 0.801-2.3206 0.179-2.6624-1.84-4.9741-4.502-5.153-2.671-0.1872-4.974 1.8385-5.154 4.501-0.179 2.6618 1.841 4.974 4.503 5.1535 0.112 0.0078 0.222 0.0113 0.333 0.0113 0.781 0 1.531-0.202 2.213-0.5569l3.063 3.1001c-0.642 1.129-1.013 2.4308-1.013 3.8195 0 1.0294 0.206 2.0105 0.571 2.9103l-4.362 2.7419c-0.824-0.8093-1.884-1.3106-3.049-1.389-1.294-0.0879-2.535 0.3329-3.508 1.1829-0.973 0.8501-1.558 2.0287-1.645 3.318-0.178 2.6624 1.84 4.9741 4.502 5.1531 0.111 0.0078 0.22 0.0113 0.329 0.0113 2.521 0 4.652-1.961 4.826-4.5128 0.039-0.5767-0.039-1.1402-0.196-1.6788l4.362-2.7419c1.425 1.6893 3.554 2.7664 5.932 2.7664 0.21 0 0.415-0.0151 0.621-0.0314l0.883 5.0424c-0.28 0.1596-0.546 0.3467-0.793 0.5629-0.974 0.8499-1.559 2.0287-1.646 3.318-0.178 2.6618 1.841 4.9735 4.503 5.1537 0.11 0.0076 0.219 0.0113 0.328 0.0113 2.52 0 4.653-1.9617 4.826-4.5129 0.179-2.6618-1.84-4.9729-4.502-5.1531-0.118-0.0084-0.233 0.0097-0.351 0.0099l-0.875-5.0028c2.324-0.9756 4.076-3.0507 4.602-5.5718l4.723 0.3192c0.404 2.1085 2.171 3.7753 4.41 3.9269 0.111 0.0077 0.22 0.0113 0.328 0.0113 2.522 0 4.653-1.9617 4.827-4.5129 0.178-2.6618-1.842-4.9735-4.503-5.153zm-12.312-11.321c0.107-0.633 0.454-1.187 0.977-1.5591s1.159-0.5172 1.793-0.4113c1.307 0.2211 2.191 1.4634 1.97 2.7705-0.22 1.3066-1.452 2.1881-2.771 1.9706-1.307-0.2211-2.19-1.4641-1.969-2.7707zm-20.158 26.631c-1.322-0.0891-2.325-1.2376-2.236-2.5601 0.043-0.6409 0.333-1.2258 0.817-1.6484 0.441-0.3858 0.996-0.5932 1.577-0.5932 0.055 0 0.111 0.0017 0.165 0.0054 0.641 0.0433 1.227 0.3334 1.649 0.8167 0.424 0.4832 0.633 1.1026 0.589 1.7422-0.089 1.3237-1.245 2.3164-2.561 2.2374zm21.381 5.6524c-0.089 1.3213-1.216 2.3146-2.56 2.2374-1.322-0.0899-2.326-1.2382-2.237-2.5609 0.043-0.6407 0.333-1.2256 0.817-1.6483 0.483-0.4232 1.105-0.6306 1.744-0.5879 1.322 0.0899 2.325 1.2382 2.236 2.5597zm-18.486-25.944c-1.323-0.0897-2.327-1.2387-2.237-2.5601 0.089-1.3232 1.255-2.3201 2.56-2.2368 1.322 0.0891 2.326 1.2376 2.236 2.5601-0.042 0.6408-0.332 1.2264-0.816 1.6483-0.484 0.4233-1.108 0.6332-1.743 0.5885zm12.194 14.13c-1.813 0-3.412-0.9134-4.375-2.2999-0.03-0.1242-0.065-0.2485-0.137-0.3625-0.046-0.0737-0.114-0.1213-0.172-0.1813-0.397-0.7449-0.643-1.5817-0.643-2.483 0-2.937 2.389-5.326 5.327-5.326 2.936 0 5.326 2.389 5.326 5.326 0 2.9371-2.39 5.3267-5.326 5.3267zm16.893-1.9218c-1.322-0.0898-2.325-1.2382-2.236-2.5609 0.043-0.6407 0.333-1.2256 0.817-1.6477 0.482-0.4231 1.104-0.6264 1.743-0.5885 1.323 0.0899 2.326 1.2382 2.237 2.5597-0.089 1.3219-1.226 2.3193-2.561 2.2374z"/>
 </g>
</svg>
