<svg width="95" height="85" fill="none" version="1.1" viewBox="0 0 95 85" xmlns="http://www.w3.org/2000/svg">
 <path d="m43.615 2.0001c-0.284 0.00443-0.5547 0.12139-0.7525 0.32522-0.1979 0.20382-0.3067 0.47784-0.3027 0.76188v8.2645c-0.0018 0.14192 0.0246 0.28278 0.0776 0.41441 0.0531 0.13164 0.1318 0.25139 0.2315 0.35239s0.2185 0.1812 0.3495 0.2359c0.1309 0.0548 0.2714 0.0829 0.4134 0.0829 0.1419 0 0.2824-0.0281 0.4134-0.0829 0.1309-0.0547 0.2497-0.1349 0.3494-0.2359s0.1784-0.22075 0.2315-0.35239c0.0531-0.13163 0.0795-0.27249 0.0777-0.41441v-8.2645c2e-3 -0.14346-0.0248-0.28586-0.0788-0.41878s-0.1342-0.25364-0.2357-0.35501c-0.1015-0.10138-0.2224-0.18134-0.3554-0.23516-0.133-0.053818-0.2754-0.080394-0.4189-0.078153zm-13.569 4.2813c-0.2129 0.00328-0.42 0.06991-0.595 0.19139-0.1749 0.12148-0.3097 0.2923-0.3871 0.49068-0.0775 0.19838-0.0941 0.41533-0.0477 0.62319 0.0463 0.20786 0.1535 0.39721 0.3079 0.5439l5.9212 5.7671c0.1003 0.1007 0.2196 0.1804 0.3511 0.2346 0.1314 0.0541 0.2723 0.0816 0.4145 0.0808 0.1421-8e-4 0.2827-0.0299 0.4135-0.0855 0.1308-0.0557 0.2493-0.1368 0.3484-0.2386 0.0992-0.1019 0.1771-0.2224 0.2293-0.3547 0.0522-0.1322 0.0775-0.2735 0.0745-0.4156-0.0029-0.1422-0.0341-0.2823-0.0918-0.4122-0.0576-0.13-0.1405-0.2472-0.2438-0.3448l-5.9211-5.767c-0.1015-0.10131-0.2223-0.18123-0.3552-0.23503-0.133-0.0538-0.2753-0.08039-0.4187-0.0782zm27.024 0c-0.278 0.00443-0.543 0.11674-0.74 0.31322l-5.921 5.767c-0.103 0.0976-0.186 0.2148-0.244 0.3448s-0.089 0.2701-0.092 0.4122 0.023 0.2834 0.075 0.4157c0.052 0.1322 0.13 0.2528 0.229 0.3546s0.218 0.1829 0.349 0.2386c0.13 0.0556 0.271 0.0847 0.413 0.0855s0.283-0.0267 0.415-0.0808c0.131-0.0542 0.25-0.1339 0.351-0.2346l5.921-5.767c0.156-0.14866 0.264-0.34108 0.31-0.55208 0.045-0.21101 0.025-0.43078-0.056-0.63058-0.082-0.19979-0.222-0.37029-0.402-0.48921s-0.392-0.18071-0.608-0.17729zm-13.388 8.6292c-2.8055 0-5.1641 2.1807-5.1557 4.9295l0.0821 28.592-9.0065-8.5593c-0.8903-0.8457-2.0413-1.2742-3.1776-1.2731-1.1362 0.0012-2.2591 0.4332-3.092 1.3099l-0.4824 0.5075c-0.8357 0.8795-1.1699 2.0399-1.0787 3.1306 0.0911 1.0907 0.5594 2.1286 1.2612 3.0183l15.033 19.058c8e-3 0.0107 0.058 0.0776 0.1256 0.1776 0.0728 0.1077 0.1526 0.273 0.1239 0.196-0.0127-0.0343 0.0454 0.2119 0.067 0.3986 0.0205 0.1765 0.0276 0.3031 0.0285 0.3183v3.2562h-2.5041c-0.8507 0-1.5169 0.5505-1.8978 1.1658s-0.5678 1.3557-0.5678 2.1574v6.3818c0 0.8017 0.1869 1.5421 0.5678 2.1574s1.0471 1.1658 1.8978 1.1658h34.87c0.851 0 1.517-0.5505 1.898-1.1658s0.567-1.3557 0.567-2.1574v-6.3818c0-0.8017-0.186-1.5421-0.567-2.1574s-1.047-1.1658-1.898-1.1658h-2.345c-0.037-0.8783-0.121-3.1363 0.082-4.2529 0.149-0.8231 0.264-0.9389 0.584-1.5711 0.321-0.6321 0.76-1.6082 1.31-3.6431 0.639-2.3636 0.717-7.119 0.727-11.525 0.01-4.4067-0.115-8.3114-0.115-8.3114 0.163-2.7411-2.176-4.9161-4.804-4.9161-1.209 0-2.307 0.4655-3.149 1.2227-0.768-1.654-2.372-2.8207-4.265-2.8207-1.194 0-2.272 0.4655-3.1 1.2228-0.772-1.6449-2.371-2.804-4.257-2.804-0.969 0-1.862 0.3086-2.607 0.8292v-13.564c0-2.7449-2.351-4.9261-5.1561-4.9261zm0 2.144c1.7196 0 3.0116 1.2565 3.0116 2.7821v23.329c-2e-3 0.1419 0.025 0.2828 0.078 0.4144 0.053 0.1317 0.131 0.2515 0.231 0.3525 0.1 0.1009 0.219 0.1811 0.35 0.2359 0.131 0.0547 0.271 0.0829 0.413 0.0829s0.282-0.0282 0.413-0.0829c0.131-0.0548 0.25-0.135 0.35-0.2359 0.1-0.101 0.178-0.2208 0.231-0.3525 0.053-0.1316 0.08-0.2725 0.078-0.4144v-4.2495c1e-3 -0.0251 2e-3 -0.0502 2e-3 -0.0754v-1.2562c0-1.6458 1.184-2.8693 2.606-2.8693s2.608 1.2235 2.608 2.8693v1.3936c0 0.0229 0 0.0458 2e-3 0.0687-1e-3 0.0393-5e-3 0.0777-5e-3 0.1172v5.5544c-2e-3 0.1419 0.024 0.2828 0.077 0.4144 0.053 0.1317 0.132 0.2514 0.232 0.3524s0.218 0.1812 0.349 0.2359c0.131 0.0548 0.272 0.083 0.414 0.083s0.282-0.0282 0.413-0.083c0.131-0.0547 0.25-0.1349 0.35-0.2359 0.099-0.101 0.178-0.2207 0.231-0.3524 0.053-0.1316 0.079-0.2725 0.078-0.4144v-5.5544c0-1.6458 1.185-2.8676 2.608-2.8676 1.422 0 2.608 1.2218 2.608 2.8676v1.459c0 0.0156 0 0.0313 1e-3 0.0469 0 0.0102-1e-3 0.02-1e-3 0.0302v5.4689c-2e-3 0.1419 0.024 0.2828 0.077 0.4144s0.132 0.2514 0.232 0.3524 0.218 0.1812 0.349 0.2359c0.131 0.0548 0.272 0.0829 0.414 0.0829s0.282-0.0281 0.413-0.0829c0.131-0.0547 0.25-0.1349 0.35-0.2359 0.099-0.101 0.178-0.2208 0.231-0.3524s0.079-0.2725 0.078-0.4144v-5.4689c0-1.5952 1.191-2.8057 2.661-2.8057 1.467 0 2.795 1.2354 2.665 2.7118-4e-3 0.0429-5e-3 0.086-3e-3 0.129 0 0 0.123 3.8742 0.114 8.2377-0.01 4.3634-0.219 9.3702-0.652 10.971-0.521 1.9302-0.869 2.6726-1.154 3.2345-0.284 0.5619-0.591 1.1153-0.781 2.1574-0.261 1.4408-0.199 3.5102-0.14 4.6347h-25.71v-3.2998c0-0.0201-6e-4 -0.0402-0.0017-0.0603 0 0-0.0107-0.2084-0.0402-0.4623-0.0295-0.2538-0.052-0.5307-0.1876-0.8961v-0.0017c-0.1194-0.3214-0.2479-0.4864-0.3585-0.6499-0.1105-0.1635-0.2077-0.2914-0.2077-0.2914-0.0033-0.0045-0.0066-9e-3 -0.01-0.0134l-15.033-19.058c-0.4812-0.61-0.7607-1.2886-0.8091-1.8676-0.0483-0.5791 0.0849-1.0414 0.4975-1.4757v-0.0017l0.4824-0.5075c0.8306-0.8741 2.2488-0.8976 3.2378 0.0419l9.6232 9.1437c0.0494 0.0849 0.0967 0.1715 0.1759 0.2697 0.2182 0.271 0.6797 0.6869 1.3651 0.6532 0.3606-0.0181 0.6788-0.2109 0.8526-0.3885 0.1744-0.1784 0.2576-0.3423 0.3216-0.4875 0.128-0.2903 0.1751-0.5367 0.2127-0.7688 0.0751-0.4642 0.0787-0.881 0.0787-0.881 1e-4 -0.0084 1e-4 -0.0168 0-0.0251l-0.0837-29.108v-0.0016c-0.0047-1.5218 1.2921-2.7788 3.0116-2.7788zm-17.129 3.407c-0.1419-0.0018-0.2828 0.0246-0.4144 0.0777-0.1317 0.053-0.2515 0.1317-0.3525 0.2314s-0.1811 0.2185-0.2359 0.3495c-0.0547 0.1309-0.0829 0.2715-0.0829 0.4134s0.0282 0.2824 0.0829 0.4134c0.0548 0.1309 0.1349 0.2497 0.2359 0.3494 0.101 0.0998 0.2208 0.1784 0.3525 0.2315 0.1316 0.0531 0.2725 0.0795 0.4144 0.0777h8.2644c0.142 0.0018 0.2828-0.0246 0.4145-0.0777 0.1316-0.0531 0.2514-0.1317 0.3524-0.2315 0.101-0.0997 0.1812-0.2185 0.2359-0.3494 0.0547-0.131 0.0829-0.2715 0.0829-0.4134s-0.0282-0.2825-0.0829-0.4134c-0.0547-0.131-0.1349-0.2498-0.2359-0.3495s-0.2208-0.1784-0.3524-0.2314c-0.1317-0.0531-0.2725-0.0795-0.4145-0.0777zm25.848 0c-0.142-0.0018-0.283 0.0246-0.415 0.0777-0.131 0.053-0.251 0.1317-0.352 0.2314s-0.181 0.2185-0.236 0.3495c-0.055 0.1309-0.083 0.2715-0.083 0.4134s0.028 0.2824 0.083 0.4134c0.055 0.1309 0.135 0.2497 0.236 0.3494 0.101 0.0998 0.221 0.1784 0.352 0.2315 0.132 0.0531 0.273 0.0795 0.415 0.0777h8.264c0.142 0.0018 0.283-0.0246 0.415-0.0777 0.131-0.0531 0.251-0.1317 0.352-0.2315 0.101-0.0997 0.181-0.2185 0.236-0.3494 0.055-0.131 0.083-0.2715 0.083-0.4134s-0.028-0.2825-0.083-0.4134c-0.055-0.131-0.135-0.2498-0.236-0.3495s-0.221-0.1784-0.352-0.2314c-0.132-0.0531-0.273-0.0795-0.415-0.0777zm-16.494 51.653h34.871c-0.079 0-0.048-0.0477 0.075 0.1508s0.246 0.5829 0.246 1.0284v6.3818c0 0.4455-0.123 0.8316-0.246 1.0302-0.062 0.0992-0.101 0.1366-0.114 0.149h-34.793c-0.0133-0.0124-0.0524-0.0498-0.1139-0.149-0.1229-0.1986-0.2462-0.5847-0.2462-1.0302v-6.3818c0-0.4455 0.1233-0.8299 0.2462-1.0284s0.1541-0.1508 0.0754-0.1508z" clip-rule="evenodd" fill="#61C0FA" fill-rule="evenodd"/>
</svg>
