<svg width="199" height="41" viewBox="0 0 199 41" fill="none" xmlns="http://www.w3.org/2000/svg">
<path d="M67.4856 30.1274C68.021 30.1274 68.4921 30.1916 68.899 30.3415C69.3059 30.4914 69.6271 30.7056 69.8841 30.9411C70.1411 31.1981 70.3338 31.4979 70.4623 31.8406C70.5908 32.1832 70.6551 32.5473 70.6551 32.9541C70.6551 33.3396 70.5908 33.7037 70.4623 34.0463C70.3338 34.3889 70.1197 34.6888 69.8627 34.9243C69.6057 35.1599 69.2417 35.374 68.8134 35.5025C68.3851 35.6524 67.8925 35.7167 67.3143 35.7167H65.8367V39.9997H64.4233V30.1059C64.3805 30.1274 67.4856 30.1274 67.4856 30.1274ZM65.8153 34.4532H67.4214C67.9568 34.4532 68.3851 34.3247 68.6849 34.0463C69.0061 33.7679 69.156 33.4039 69.156 32.8899C69.156 32.6972 69.1346 32.5258 69.0703 32.3545C69.0275 32.1832 68.9204 32.0119 68.792 31.862C68.6635 31.7121 68.4921 31.605 68.278 31.5193C68.0638 31.4337 67.7854 31.3908 67.4642 31.3908H65.7939L65.8153 34.4532ZM83.7182 40.0211H82.262L80.9343 37.1086H76.7369L75.4949 40.0211H74.0386L78.3002 30.0631H79.3067L83.7182 40.0211ZM77.2937 35.8237H80.3775L78.7713 32.2474L77.2937 35.8237ZM91.1492 30.1274C92.1557 30.1274 92.9481 30.3843 93.5263 30.8769C94.1045 31.3694 94.4043 32.0547 94.4043 32.9113C94.4043 33.4895 94.2544 33.9821 93.976 34.4104C93.6976 34.8172 93.2907 35.1385 92.7553 35.3526C93.2051 35.6524 93.5905 36.0379 93.9118 36.4876C94.233 36.9373 94.597 37.4727 94.9611 38.0937C95.0682 38.2651 95.1752 38.415 95.2609 38.5649C95.3466 38.6934 95.4322 38.8433 95.5393 38.9932C95.6464 39.1431 95.7535 39.293 95.8819 39.4643C96.0104 39.6356 96.1603 39.8284 96.3317 40.0639H94.6399L93.3336 38.0295C93.0123 37.5155 92.7125 37.1301 92.477 36.8303C92.22 36.5304 92.0058 36.2949 91.8131 36.145C91.6204 35.9951 91.4276 35.888 91.2563 35.8452C91.085 35.8023 90.8922 35.7809 90.7209 35.7809H90.1213V40.0853H88.7079V30.1916H91.1492V30.1274ZM90.0785 34.4532H90.9993C91.3848 34.4532 91.6846 34.4104 91.9416 34.3247C92.1986 34.239 92.3913 34.1105 92.5412 33.9606C92.6911 33.8107 92.7982 33.6394 92.8624 33.4467C92.9267 33.254 92.9481 33.0612 92.9481 32.8471C92.9481 32.3759 92.7768 32.0119 92.4984 31.7549C92.1986 31.4979 91.706 31.348 90.9993 31.348H90.0785V34.4532Z" fill="white"/>
<path d="M107.96 31.3926H104.533V40.0228H103.099V31.3926H99.6721V30.1077H107.96V31.3926ZM122.565 40.0228H121.344L114.727 32.3991V40.0228H113.378V30.1291H114.513L121.216 37.7957V30.1291H122.543L122.565 40.0228ZM134.75 31.3926H130.553V34.3907H134.6V35.6756H130.553V38.7593H134.878V40.0442H129.118V30.1505H134.728V31.3926H134.75Z" fill="white"/>
<path d="M143.681 30.1293C144.687 30.1293 145.479 30.3863 146.058 30.8788C146.636 31.3713 146.936 32.0566 146.936 32.9132C146.936 33.4914 146.786 33.984 146.507 34.4123C146.229 34.8192 145.822 35.1404 145.287 35.3545C145.736 35.6543 146.122 36.0398 146.443 36.4895C146.764 36.9392 147.128 37.4746 147.492 38.0957C147.6 38.267 147.707 38.4169 147.792 38.5668C147.878 38.6953 147.964 38.8452 148.071 38.9951C148.178 39.145 148.285 39.2949 148.413 39.4662C148.542 39.6375 148.692 39.8303 148.863 40.0658H147.171L145.865 38.0314C145.544 37.5174 145.244 37.132 145.008 36.8322C144.751 36.5324 144.537 36.2968 144.344 36.1469C144.152 35.997 143.959 35.8899 143.788 35.8471C143.616 35.8042 143.424 35.7828 143.252 35.7828H142.653V40.0873H141.239V30.1935H143.681V30.1293ZM142.588 34.4551H143.509C143.895 34.4551 144.195 34.4123 144.452 34.3266C144.708 34.2409 144.901 34.1125 145.051 33.9626C145.201 33.8127 145.308 33.6413 145.372 33.4486C145.437 33.2559 145.458 33.0631 145.458 32.849C145.458 32.3778 145.287 32.0138 145.008 31.7568C144.73 31.4998 144.216 31.3499 143.509 31.3499H142.588V34.4551Z" fill="white"/>
<path d="M158.564 32.2914C158.136 31.8845 157.729 31.6061 157.343 31.4776C156.958 31.3491 156.594 31.2635 156.251 31.2635C155.78 31.2635 155.416 31.3706 155.116 31.5847C154.816 31.7989 154.688 32.0773 154.688 32.4413C154.688 32.7625 154.795 33.0409 155.009 33.2551C155.223 33.4692 155.48 33.6834 155.801 33.8975C156.123 34.0903 156.465 34.3044 156.829 34.4972C157.193 34.6899 157.536 34.9254 157.857 35.2038C158.178 35.4608 158.435 35.782 158.65 36.1461C158.864 36.5102 158.971 36.9599 158.971 37.4738C158.971 37.8593 158.907 38.2234 158.757 38.5446C158.607 38.8658 158.414 39.1656 158.178 39.4012C157.922 39.6368 157.643 39.8295 157.3 39.958C156.958 40.0865 156.594 40.1721 156.187 40.1721C155.652 40.1721 155.159 40.1079 154.709 39.958C154.26 39.8081 153.831 39.5725 153.424 39.2727V37.4738C153.788 37.945 154.195 38.2876 154.645 38.5446C155.095 38.8016 155.544 38.9086 156.037 38.9086C156.315 38.9086 156.551 38.8658 156.744 38.8016C156.958 38.7159 157.108 38.6302 157.258 38.5018C157.386 38.3733 157.493 38.2448 157.557 38.0949C157.622 37.945 157.643 37.7951 157.643 37.6666C157.643 37.3239 157.536 37.0241 157.322 36.7671C157.108 36.5102 156.851 36.2746 156.53 36.0604C156.208 35.8463 155.866 35.6321 155.502 35.418C155.138 35.2038 154.795 34.9683 154.474 34.7113C154.152 34.4543 153.895 34.1545 153.681 33.8333C153.467 33.5121 153.36 33.1266 153.36 32.6555C153.36 32.2486 153.424 31.8845 153.574 31.5633C153.724 31.2421 153.917 30.9637 154.174 30.7281C154.431 30.4925 154.752 30.3212 155.116 30.1927C155.48 30.0642 155.887 30 156.358 30C157.129 30 157.879 30.2356 158.564 30.7067V32.2914Z" fill="white"/>
<path d="M3.0165 0.241577H5.31419V13.7858C5.31419 15.2974 5.25371 16.9904 4.16534 18.1997C3.62115 18.7439 2.95604 19.1067 2.16999 19.2881C2.10953 19.2277 0.0537109 17.1718 0.0537109 17.1718C0.658363 17.1718 1.32348 17.2323 1.86767 16.9904C2.29093 16.809 2.53278 16.5672 2.71418 16.1439C2.89557 15.7207 3.0165 14.8137 3.0165 13.5439V0.241577Z" fill="white"/>
<path d="M23.8166 0C26.2352 0 28.291 0.786059 29.9236 2.29769C31.5562 3.86979 32.3422 5.80468 32.3422 8.10236C32.3422 10.4 31.4957 12.3954 29.8631 13.907C28.2306 15.4186 26.1748 16.2047 23.6352 16.2047C21.2771 16.2047 19.2817 15.4186 17.6492 13.907C16.0166 12.3954 15.291 10.4605 15.291 8.16281C15.291 5.80466 16.0771 3.80932 17.7096 2.29769C19.3422 0.786059 21.398 0 23.8166 0ZM23.9375 2.17675C22.1236 2.17675 20.612 2.72095 19.4631 3.86979C18.3143 5.01863 17.7096 6.46979 17.7096 8.22328C17.7096 9.91631 18.3143 11.3675 19.4631 12.5163C20.612 13.6652 22.1236 14.2093 23.8771 14.2093C25.6306 14.2093 27.1422 13.6047 28.291 12.4558C29.5004 11.307 30.0445 9.85584 30.0445 8.16281C30.0445 6.46978 29.4399 5.07908 28.291 3.93024C27.0817 2.72094 25.6306 2.17675 23.9375 2.17675Z" fill="white"/>
<path d="M53.9883 0.241577H56.286V16.0835H53.9883V9.19043H44.7371V16.0835H42.4395V0.241577H44.7371V7.13461H53.9883V0.241577ZM80.714 0.241577H82.8907V16.0835H80.9558L69.8907 3.86949V16.0835H67.7139V0.241577H69.5279L80.714 12.5765V0.241577Z" fill="white"/>
<path d="M102.603 0.241465V16.0833H112.338V14.0275H104.9V0.241465H102.603ZM123.04 0.241465V16.0833H133.259V14.0275H125.338V9.12985H132.835V7.07403H125.338V2.29728H133.077V0.241465H123.04ZM164.761 0.241465L160.408 11.1857L155.994 0.241465H153.817L149.403 11.1857L145.049 0.241465H142.752L149.161 16.2043H149.584L154.845 3.26473L160.045 16.2043H160.468L166.877 0.241465H164.761ZM176.733 0.241465H179.031V16.0833H176.733V0.241465ZM194.329 9.43217L192.575 8.40427C191.487 7.73916 190.822 7.07403 190.338 6.46938C189.854 5.86473 189.552 5.07867 189.552 4.23216C189.552 2.96239 189.975 1.99494 190.822 1.20889C191.668 0.422846 192.817 0.0600586 194.208 0.0600586C195.659 0.0600586 196.747 0.422861 197.836 1.14844V3.74844C196.687 2.66007 195.477 2.11587 194.147 2.11587C193.422 2.11587 192.817 2.29728 192.333 2.66008C191.849 3.02287 191.608 3.44611 191.608 3.9903C191.608 4.47402 191.729 4.83682 192.091 5.26007C192.454 5.68333 193.059 6.16706 193.845 6.59032L195.659 7.61821C197.594 8.76705 198.501 10.2182 198.501 12.0322C198.501 13.302 198.077 14.3299 197.231 15.1159C196.384 15.9019 195.296 16.3252 193.905 16.3252C192.333 16.3252 190.942 15.8415 189.612 14.874V11.9717C190.822 13.5438 192.273 14.2694 193.845 14.2694C194.57 14.2694 195.175 14.088 195.598 13.7252C196.082 13.302 196.324 12.8182 196.324 12.2136C196.445 11.2461 195.719 10.2787 194.329 9.43217Z" fill="white"/>
</svg>
