<svg width="94" height="21" viewBox="0 0 94 21" fill="none" xmlns="http://www.w3.org/2000/svg">
<path d="M27.6041 20.2034C27.0793 20.2034 26.6294 19.7536 26.6294 19.2289V6.67231C26.6294 6.14756 27.0793 5.69775 27.6041 5.69775C28.129 5.69775 28.5789 6.14756 28.5789 6.67231V19.2289C28.5789 19.7536 28.129 20.2034 27.6041 20.2034Z" fill="#0D0D30"/>
<path d="M37.8009 20.1654C37.2761 20.1654 36.8262 19.7156 36.8262 19.1909V11.4321C36.8262 10.9073 37.2761 10.4575 37.8009 10.4575C38.3258 10.4575 38.7757 10.9073 38.7757 11.4321V19.1909C38.7757 19.7531 38.3633 20.1654 37.8009 20.1654Z" fill="#0D0D30"/>
<path d="M63.8173 20.2035C63.6674 20.2035 63.5549 20.166 63.405 20.1285C62.9176 19.9036 62.6926 19.3039 62.9551 18.8166L68.8785 6.18512C69.1035 5.69785 69.7033 5.47295 70.1907 5.73533C70.678 5.9977 70.903 6.55994 70.6406 7.04721L64.7171 19.6787C64.5297 20.0161 64.1922 20.2035 63.8173 20.2035Z" fill="#0D0D30"/>
<path d="M37.7995 12.4073C37.2746 12.4073 36.8247 11.9575 36.8247 11.4327C36.8247 9.03385 35.2876 7.38461 33.0382 7.38461C32.6633 7.38461 31.9885 7.57204 31.6136 7.79693C31.1262 8.05931 30.5639 7.87188 30.3015 7.38461C30.039 6.89734 30.2265 6.3351 30.7138 6.07273C31.3137 5.77287 32.2884 5.43555 33.0757 5.43555C36.3373 5.43555 38.8117 8.02183 38.8117 11.4327C38.7742 11.9575 38.3618 12.4073 37.7995 12.4073Z" fill="#0D0D30"/>
<path d="M55.0079 12.1426C54.4456 12.1426 54.1082 11.8802 53.9957 11.4304C53.3209 9.06901 51.1464 7.41979 48.7096 7.41979C48.1847 7.41979 47.7349 6.96999 47.7349 6.44523C47.7349 5.92048 48.1847 5.4707 48.7096 5.4707C52.0087 5.4707 54.9704 7.68216 55.8702 10.9056C56.0202 11.3929 55.6078 12.1426 55.0079 12.1426Z" fill="#0D0D30"/>
<path d="M42.4482 12.1426C41.6609 12.1426 41.361 11.4304 41.511 10.9056C42.4107 7.71964 45.3724 5.4707 48.6716 5.4707C49.1964 5.4707 49.6463 5.92048 49.6463 6.44523C49.6463 6.96999 49.1964 7.41979 48.6716 7.41979C46.2347 7.41979 44.0603 9.06901 43.3855 11.4304C43.273 11.8427 42.8981 12.1426 42.4482 12.1426Z" fill="#0D0D30"/>
<path d="M92.0506 0C90.9634 0 90.1011 0.862099 90.1011 1.94909C90.1011 3.03608 90.9634 3.89816 92.0506 3.89816C93.1378 3.89816 94 3.03608 94 1.94909C94 0.862099 93.1378 0 92.0506 0Z" fill="#0D0D30"/>
<path d="M92.049 20.1653C91.5241 20.1653 91.0742 19.7155 91.0742 19.1908V6.6342C91.0742 6.10945 91.5241 5.65967 92.049 5.65967C92.5738 5.65967 93.0237 6.10945 93.0237 6.6342V19.1908C93.0237 19.7155 92.5738 20.1653 92.049 20.1653Z" fill="#0D0D30"/>
<path d="M63.7775 20.2017C63.4026 20.2017 63.0652 19.9769 62.8777 19.6395L56.9543 7.04546C56.7294 6.55819 56.9168 5.95847 57.4042 5.73358C57.8916 5.50869 58.4914 5.6961 58.7163 6.18337L64.6398 18.7774C64.8647 19.2647 64.6773 19.8644 64.1899 20.0893C64.0774 20.1643 63.9275 20.2017 63.7775 20.2017Z" fill="#0D0D30"/>
<path d="M87.3227 20.3153C85.7481 19.5281 84.2485 17.654 84.2485 14.7304C84.2485 14.2057 84.6984 13.7559 85.2233 13.7559C85.7482 13.7559 86.198 14.2057 86.198 14.7304C86.198 16.4921 86.9478 17.9914 88.26 18.5911C88.7473 18.816 89.0098 19.4157 88.7099 19.9779C88.4849 20.2778 87.9975 20.6526 87.3227 20.3153Z" fill="#0D0D30"/>
<path d="M22.9927 13.9437H13.0953C12.5705 13.9437 12.1206 13.4939 12.1206 12.9692C12.1206 12.4444 12.5705 11.9946 13.0953 11.9946H22.9927C23.5176 11.9946 23.9675 12.4444 23.9675 12.9692C23.9675 13.4939 23.5176 13.9437 22.9927 13.9437Z" fill="#0D0D30"/>
<path d="M22.9908 13.9417C22.466 13.9417 22.0161 13.4919 22.0161 12.9672C22.0161 9.85613 19.5418 7.41979 16.3551 7.41979C15.8302 7.41979 15.3804 6.96999 15.3804 6.44523C15.3804 5.92048 15.8302 5.4707 16.3551 5.4707C20.629 5.4707 23.9656 8.76914 23.9656 12.9672C23.9656 13.4919 23.5157 13.9417 22.9908 13.9417Z" fill="#0D0D30"/>
<path d="M9.94497 13.9417C9.42011 13.9417 8.97021 13.4919 8.97021 12.9672C8.97021 8.84411 12.3068 5.4707 16.3558 5.4707C16.8806 5.4707 17.3305 5.92048 17.3305 6.44523C17.3305 6.96999 16.8806 7.41979 16.3558 7.41979C13.394 7.41979 10.9197 9.96858 10.9197 12.9672C10.9197 13.4919 10.4698 13.9417 9.94497 13.9417Z" fill="#0D0D30"/>
<path d="M16.3558 20.428C12.2693 20.428 8.97021 17.0546 8.97021 12.9316C8.97021 12.4068 9.42011 11.957 9.94497 11.957C10.4698 11.957 10.9197 12.4068 10.9197 12.9316C10.9197 16.3425 13.7315 18.479 16.3558 18.479C16.8806 18.479 17.3305 18.9287 17.3305 19.4535C17.3305 20.0157 16.8806 20.428 16.3558 20.428Z" fill="#0D0D30"/>
<path d="M16.3551 20.4278C15.8302 20.4278 15.3804 19.978 15.3804 19.4532C15.3804 18.9285 15.8302 18.4787 16.3551 18.4787C19.6167 18.4787 20.9664 16.1923 21.0414 16.1173C21.3038 15.6675 21.9036 15.4801 22.3535 15.7425C22.8034 16.0049 22.9909 16.6046 22.7284 17.0544C22.6534 17.2043 20.8164 20.4278 16.3551 20.4278Z" fill="#0D0D30"/>
<path d="M0.983524 12.0322C0.458662 12.0322 0.00878906 12.482 0.00878906 13.0068V19.2663C0.00878906 19.7911 0.458662 20.2409 0.983524 20.2409C1.50839 20.2409 1.95826 19.7911 1.95826 19.2663V13.0068C1.95826 12.4445 1.50839 12.0322 0.983524 12.0322Z" fill="#0D0D30"/>
<path d="M8.07068 6.0712C7.02096 5.54644 5.85876 5.35903 4.69656 5.50896C2.55962 5.80882 0.722592 7.3456 0.0477689 9.40713C-0.139682 9.96937 0.23522 10.6815 0.985024 10.6815C1.39742 10.6815 1.77232 10.4191 1.92228 10.0068C2.37216 8.61999 3.53436 7.64546 4.99648 7.45805C5.74628 7.3456 6.53356 7.49553 7.20839 7.83287C7.69576 8.09525 8.2956 7.87036 8.52055 7.42057C8.74549 6.9333 8.55805 6.33357 8.07068 6.0712Z" fill="#0D0D30"/>
<path d="M42.3752 13.7559C42.9375 13.7559 43.2749 14.0182 43.3874 14.468C44.0622 16.8294 46.2367 18.4786 48.6735 18.4786C49.1984 18.4786 49.6482 18.9284 49.6482 19.4532C49.6482 19.9779 49.1984 20.4277 48.6735 20.4277C45.3744 20.4277 42.4126 18.2163 41.5129 14.9928C41.3629 14.468 41.7753 13.7559 42.3752 13.7559Z" fill="#0D0D30"/>
<path d="M54.933 13.7559C55.7203 13.7559 56.0202 14.468 55.8702 14.9928C54.9705 18.1788 52.0087 20.4277 48.7096 20.4277C48.1847 20.4277 47.7349 19.9779 47.7349 19.4532C47.7349 18.9284 48.1847 18.4786 48.7096 18.4786C51.1465 18.4786 53.3209 16.8294 53.9957 14.468C54.1082 14.0182 54.4831 13.7559 54.933 13.7559Z" fill="#0D0D30"/>
<path d="M85.3019 12.1426C84.7395 12.1426 84.4021 11.8802 84.2896 11.4304C83.6148 9.06901 81.4404 7.41979 79.0035 7.41979C78.4787 7.41979 78.0288 6.96999 78.0288 6.44523C78.0288 5.92048 78.4787 5.4707 79.0035 5.4707C82.3027 5.4707 85.2644 7.68216 86.1642 10.9056C86.3141 11.3929 85.9017 12.1426 85.3019 12.1426Z" fill="#0D0D30"/>
<path d="M72.7387 12.1426C71.9514 12.1426 71.6515 11.4304 71.8015 10.9056C72.7012 7.71964 75.6629 5.4707 78.9621 5.4707C79.4869 5.4707 79.9368 5.92048 79.9368 6.44523C79.9368 6.96999 79.4869 7.41979 78.9621 7.41979C76.5252 7.41979 74.3508 9.06901 73.676 11.4304C73.5635 11.8427 73.1886 12.1426 72.7387 12.1426Z" fill="#0D0D30"/>
<path d="M72.6681 13.7559C73.2305 13.7559 73.5679 14.0182 73.6804 14.468C74.3552 16.8294 76.5296 18.4786 78.9665 18.4786C79.4913 18.4786 79.9412 18.9284 79.9412 19.4532C79.9412 19.9779 79.4913 20.4277 78.9665 20.4277C75.6673 20.4277 72.7056 18.2163 71.8058 14.9928C71.6559 14.468 72.0683 13.7559 72.6681 13.7559Z" fill="#0D0D30"/>
<path d="M85.1864 13.7559C85.9737 13.7559 86.2736 14.468 86.1236 14.9928C85.2239 18.1788 82.2621 20.4277 78.963 20.4277C78.4382 20.4277 77.9883 19.9779 77.9883 19.4532C77.9883 18.9284 78.4382 18.4786 78.963 18.4786C81.3999 18.4786 83.5743 16.8294 84.2491 14.468C84.3991 14.0182 84.774 13.7559 85.1864 13.7559Z" fill="#0D0D30"/>
</svg>
