<svg width="99" height="20" viewBox="0 0 99 20" fill="none" xmlns="http://www.w3.org/2000/svg">
<path d="M36.0901 14.915C33.285 14.915 31.164 12.9308 31.164 9.78359C31.164 6.63634 33.3534 4.58377 36.1243 4.58377C38.9294 4.58377 41.0503 6.60206 41.0503 9.71503C41.0503 12.8624 38.8952 14.915 36.0901 14.915ZM59.9677 8.03904C58.9072 8.38119 58.3598 8.79158 58.3598 9.68106C58.3598 10.8441 59.1466 11.152 60.3099 11.3572C61.2676 11.5283 62.7728 11.802 62.7728 13.3071C62.7728 14.5389 61.6097 14.9836 60.4465 14.9836H54.289C53.9811 14.9836 53.7759 14.7782 53.7759 14.4703V5.02859C53.7759 4.72072 53.9812 4.51552 54.289 4.51552H59.4204C60.7203 4.51552 61.7808 4.92607 61.7808 6.19182C61.7808 7.32063 60.8571 7.76529 59.9677 8.03904ZM48.8841 2.7367V16.7622C48.8841 18.4042 49.8077 19.3279 51.4497 19.3279H60.4124C64.9622 19.3279 67.5621 17.3096 67.5621 13.8544C67.5621 11.7336 66.6726 10.2284 64.6886 9.27052C65.9543 8.31264 66.5701 6.97848 66.5701 5.37073C66.5701 2.12096 64.2439 0.171073 59.8312 0.171073H51.4497C49.8076 0.171073 48.8841 1.09468 48.8841 2.7367ZM2.49723 19.4989C3.96818 19.4989 4.99447 18.4726 4.99447 16.9674V6.67061L10.3993 9.88626C10.6388 10.0231 11.0493 10.2625 11.6651 10.2625C12.2124 10.2625 12.6914 9.98893 12.8624 9.88626L18.3358 6.60206V16.8647C18.3358 18.712 19.5673 19.4988 20.8331 19.4988C22.304 19.4988 23.3303 18.4384 23.3303 16.9673V2.53136C23.3303 0.889486 22.2698 0.136797 20.9356 0.136797C20.4909 0.136797 20.0804 0.239471 19.67 0.478942L12.0072 4.92607C11.8362 5.02859 11.7335 5.02859 11.5624 4.92607L3.76284 0.513065C3.35244 0.273747 2.9419 0.136797 2.46296 0.136797C1.1288 0.136797 0 0.889486 0 2.59991V16.8649C0 18.541 1.06041 19.4989 2.49723 19.4989ZM98.4524 4.03658C98.8289 3.45512 99 2.90778 99 2.36044C99 1.64202 98.6579 1.02628 98.0762 0.615739C97.5971 0.273747 97.0842 0.102674 96.6053 0.102674C95.8529 0.102674 95.1343 0.478942 94.5529 1.23148L88.9084 8.65478C87.8821 10.0232 87.1637 11.1863 87.1637 13.0335V16.8649C87.1637 18.7121 88.3952 19.4989 89.6609 19.4989C91.1319 19.4989 92.1924 18.4385 92.1924 16.9674V12.6914C92.1924 12.4176 92.2608 12.2123 92.4319 11.9728L98.4524 4.03658ZM85.2135 1.23148L87.882 4.72072C88.3609 5.33661 88.532 5.91808 88.532 6.43129C88.532 7.11543 88.1556 7.73117 87.5741 8.17584C87.1294 8.51798 86.6162 8.72318 86.1715 8.72318C85.4531 8.72318 84.769 8.31263 84.1532 7.5601L81.3481 4.13926C80.9033 3.59192 80.6981 3.04457 80.6981 2.49723C80.6981 1.8131 81.0744 1.12896 81.6217 0.684138C82.0666 0.30787 82.6139 0.102674 83.127 0.102674C83.8795 0.102674 84.6322 0.478942 85.2135 1.23148ZM82.3401 14.5729H75.3615C75.0536 14.5729 74.8484 14.3677 74.8484 14.0598V2.70243C74.8484 0.855211 73.617 0.0683986 72.3511 0.0683986C70.8801 0.0683986 69.8197 1.12896 69.8197 2.59991V16.7622C69.8197 18.4042 70.7433 19.3279 72.3853 19.3279H82.2375C84.0848 19.3279 84.8717 18.2332 84.8717 16.9674C84.8717 15.4965 83.8109 14.5729 82.3401 14.5729ZM36.0901 19.4989C41.7687 19.4989 46.1817 15.257 46.1817 9.71519C46.1817 4.13926 41.8713 0 36.1585 0C30.4799 0 26.0327 4.24193 26.0327 9.81786C26.0327 15.3939 30.3772 19.4989 36.0901 19.4989Z" fill="white"/>
</svg>
