<svg width="129" height="27" viewBox="0 0 129 27" fill="none" xmlns="http://www.w3.org/2000/svg">
<path d="M47.1354 20.402C43.5107 20.402 40.77 17.7508 40.77 13.5456C40.77 9.34042 43.5991 6.59788 47.1797 6.59788C50.8044 6.59788 53.5449 9.29462 53.5449 13.454C53.5449 17.6594 50.7601 20.402 47.1354 20.402ZM77.9896 11.2146C76.6192 11.6718 75.912 12.2201 75.912 13.4086C75.912 14.9627 76.9287 15.374 78.4318 15.6482C79.6693 15.8768 81.6143 16.2426 81.6143 18.2536C81.6143 19.8994 80.1114 20.4936 78.6083 20.4936H70.6517C70.2538 20.4936 69.9887 20.2192 69.9887 19.8078V7.19222C69.9887 6.78086 70.254 6.50669 70.6517 6.50669H77.2824C78.9621 6.50669 80.3325 7.05524 80.3325 8.74648C80.3325 10.2547 79.1388 10.8489 77.9896 11.2146ZM63.6676 4.12992V22.8701C63.6676 25.0641 64.8611 26.2982 66.9829 26.2982H78.5642C84.4434 26.2982 87.803 23.6015 87.803 18.9849C87.803 16.1512 86.6536 14.14 84.0899 12.8601C85.7255 11.5802 86.5211 9.79757 86.5211 7.64938C86.5211 3.3072 83.5153 0.701845 77.8133 0.701845H66.9829C64.8609 0.701845 63.6676 1.93593 63.6676 4.12992ZM3.72737 26.5268C5.6281 26.5268 6.95424 25.1555 6.95424 23.1443V9.38621L13.9383 13.6828C14.2477 13.8656 14.7782 14.1856 15.5739 14.1856C16.2811 14.1856 16.9 13.82 17.1211 13.6828L24.1937 9.29462V23.0071C24.1937 25.4753 25.785 26.5266 27.4206 26.5266C29.3213 26.5266 30.6475 25.1097 30.6475 23.1441V3.85554C30.6475 1.66175 29.277 0.656048 27.5531 0.656048C26.9785 0.656048 26.448 0.793236 25.9177 1.11321L16.016 7.05524C15.7949 7.19222 15.6623 7.19222 15.4412 7.05524L5.36275 1.1588C4.83245 0.839034 4.30196 0.656048 3.68308 0.656048C1.95911 0.656048 0.500488 1.66175 0.500488 3.94714V23.0073C0.500488 25.2469 1.87073 26.5268 3.72737 26.5268ZM127.719 5.86675C128.205 5.08983 128.426 4.3585 128.426 3.62717C128.426 2.66726 127.984 1.84454 127.233 1.29599C126.614 0.839033 125.951 0.610455 125.332 0.610455C124.36 0.610455 123.431 1.11321 122.68 2.11871L115.386 12.0374C114.06 13.8658 113.132 15.4198 113.132 17.888V23.0073C113.132 25.4755 114.723 26.5268 116.359 26.5268C118.259 26.5268 119.63 25.1099 119.63 23.1443V17.4308C119.63 17.0651 119.718 16.7907 119.939 16.4707L127.719 5.86675ZM110.612 2.11871L114.06 6.78086C114.679 7.60379 114.9 8.38071 114.9 9.06645C114.9 9.98056 114.413 10.8033 113.662 11.3974C113.087 11.8546 112.424 12.1288 111.85 12.1288C110.921 12.1288 110.037 11.5802 109.242 10.5747L105.617 6.00394C105.042 5.27261 104.777 4.54128 104.777 3.80995C104.777 2.89584 105.263 1.98172 105.971 1.38738C106.545 0.884627 107.253 0.610455 107.916 0.610455C108.888 0.610455 109.861 1.11321 110.612 2.11871ZM106.899 19.9448H97.8812C97.4834 19.9448 97.2182 19.6706 97.2182 19.2593V4.08412C97.2182 1.61596 95.627 0.564657 93.9912 0.564657C92.0904 0.564657 90.7202 1.98172 90.7202 3.94714V22.8701C90.7202 25.0641 91.9137 26.2982 94.0355 26.2982H106.766C109.153 26.2982 110.17 24.8355 110.17 23.1443C110.17 21.1789 108.799 19.9448 106.899 19.9448ZM47.1354 26.5268C54.4732 26.5268 60.1756 20.8589 60.1756 13.4542C60.1756 6.00394 54.6059 0.473267 47.2238 0.473267C39.886 0.473267 34.1395 6.14113 34.1395 13.5914C34.1395 21.0419 39.7533 26.5268 47.1354 26.5268Z" fill="white"/>
</svg>
