<svg width="433" height="496" viewBox="0 0 433 496" fill="none" xmlns="http://www.w3.org/2000/svg">
<path fill-rule="evenodd" clip-rule="evenodd" d="M432.211 247.59C432.211 381.307 326.279 490.283 193.757 495.174C188.743 495.359 184.657 491.276 184.657 486.259C184.657 481.248 188.732 477.202 193.739 477.004C316.245 472.14 414.068 371.289 414.068 247.59C414.068 123.891 316.245 23.0402 193.739 18.1763C188.732 17.9775 184.657 13.9323 184.657 8.92098C184.657 3.90397 188.743 -0.178989 193.757 0.00605126C326.279 4.89714 432.211 113.873 432.211 247.59Z" fill="#611ABA"/>
<rect x="89.1033" y="397.134" width="16.8428" height="46.3177" rx="8.42141" fill="#611ABA"/>
<rect x="155.956" y="422.398" width="21.0535" height="116.847" rx="10.5268" transform="rotate(90 155.956 422.398)" fill="#611ABA"/>
<rect x="25.4005" y="86.6843" width="144.571" height="282.631" rx="72.2857" fill="#FF86DD"/>
<path fill-rule="evenodd" clip-rule="evenodd" d="M15.0108 264.736C15.0108 260.591 11.6505 257.23 7.50539 257.23C3.36028 257.23 0 260.59 0 264.736V299.761C0 353.647 43.6836 397.331 97.57 397.331C151.456 397.331 195.14 353.647 195.14 299.761V264.736C195.14 260.59 191.78 257.23 187.635 257.23C183.49 257.23 180.129 260.59 180.129 264.736V298.51C180.129 344.107 143.166 381.07 97.57 381.07C51.9738 381.07 15.0108 344.107 15.0108 298.51V264.736Z" fill="#611ABA"/>
<rect x="25.4005" y="172.562" width="50.3977" height="6.04773" rx="3.02386" fill="#61C0FA"/>
<rect x="25.4005" y="195.543" width="50.3977" height="6.04773" rx="3.02386" fill="#61C0FA"/>
<rect x="25.4005" y="218.525" width="50.3977" height="6.04773" rx="3.02386" fill="#61C0FA"/>
<rect x="25.4005" y="241.506" width="50.3977" height="6.04773" rx="3.02386" fill="#61C0FA"/>
<rect x="119.745" y="172.562" width="50.3977" height="6.04773" rx="3.02386" fill="#61C0FA"/>
<rect x="119.745" y="195.543" width="50.3977" height="6.04773" rx="3.02386" fill="#61C0FA"/>
<rect x="119.745" y="218.525" width="50.3977" height="6.04773" rx="3.02386" fill="#61C0FA"/>
<rect x="119.745" y="241.506" width="50.3977" height="6.04773" rx="3.02386" fill="#61C0FA"/>
<rect x="55.236" y="268.116" width="84.6682" height="11.6923" rx="5.84614" fill="#61C0FA"/>
<rect x="224.169" y="150.408" width="8.42141" height="156.849" rx="4.2107" fill="#611ABA"/>
<rect x="241.012" y="126.196" width="8.42141" height="204.219" rx="4.2107" fill="#611ABA"/>
<rect x="257.855" y="150.408" width="8.42141" height="156.849" rx="4.2107" fill="#611ABA"/>
<rect x="274.698" y="169.356" width="8.42141" height="117.9" rx="4.2107" fill="#611ABA"/>
<rect x="291.541" y="199.884" width="8.42141" height="56.8445" rx="4.2107" fill="#611ABA"/>
<rect x="308.383" y="177.778" width="8.42141" height="102.11" rx="4.2107" fill="#611ABA"/>
<rect x="325.226" y="150.408" width="8.42141" height="156.849" rx="4.2107" fill="#611ABA"/>
<rect x="342.069" y="179.882" width="8.42141" height="96.8462" rx="4.2107" fill="#611ABA"/>
<rect x="358.912" y="199.884" width="8.42141" height="56.8445" rx="4.2107" fill="#611ABA"/>
</svg>
