<svg width="1111" height="258" viewBox="0 0 1111 258" fill="none" xmlns="http://www.w3.org/2000/svg">
<g style="mix-blend-mode:multiply">
<path d="M1110.6 128.625C1110.61 111.731 1107.28 95.0009 1100.81 79.3917C1094.34 63.7825 1084.86 49.6 1072.9 37.6548C1060.95 25.7096 1046.75 16.2357 1031.13 9.77473C1015.51 3.31373 998.77 -0.00778017 981.864 1.36843e-05H127.723C93.7597 0.257714 61.2754 13.9209 37.3505 38.0114C13.4257 62.1019 -8.90155e-06 94.6664 -8.90155e-06 128.607C-8.90155e-06 162.547 13.4257 195.112 37.3505 219.202C61.2754 243.293 93.7597 256.956 127.723 257.214H981.864C998.766 257.22 1015.5 253.898 1031.12 247.438C1046.74 240.979 1060.93 231.508 1072.88 219.567C1084.84 207.626 1094.32 193.449 1100.79 177.845C1107.26 162.241 1110.59 145.516 1110.59 128.625" fill="#61C0FA"/>
</g>
</svg>
