<svg width="994" height="972" viewBox="0 0 994 972" fill="none" xmlns="http://www.w3.org/2000/svg">
<g style="mix-blend-mode:multiply">
<path d="M128.664 807.583C100.457 807.556 73.039 798.278 50.62 781.172C28.2009 764.066 12.0209 740.078 4.56455 712.894C-14.1105 644.37 26.2 573.606 94.7717 554.84C303.662 497.749 485.612 366.781 607.175 186.114C646.795 127.162 726.785 111.488 785.712 151.155C844.638 190.822 860.464 270.727 820.777 329.657C664.854 561.476 431.168 729.68 162.735 803.038C151.631 806.06 140.173 807.589 128.664 807.583Z" fill="#FF86DD"/>
</g>
<g style="mix-blend-mode:multiply">
<path d="M452.59 971.985C472.445 971.98 492.024 967.328 509.757 958.402C825.148 800.601 1014.29 471.319 991.658 119.579C987.14 49.1786 926.366 -4.18295 855.836 0.258289C785.305 4.69953 731.84 65.5942 736.381 135.987C752.4 385.052 618.521 618.154 395.281 729.882C369.525 742.776 348.878 763.982 336.686 790.064C324.494 816.146 321.469 845.577 328.102 873.591C334.736 901.605 350.638 926.561 373.234 944.418C395.83 962.274 423.797 971.985 452.604 971.977" fill="#6900AA"/>
</g>
</svg>
