<svg width="230" height="230" fill="none" version="1.1" viewBox="0 0 230 230" xmlns="http://www.w3.org/2000/svg">
 <g transform="matrix(1.0006 0 0 1.0006 -64.039 -5.2458e-6)" filter="url(#filter0_dddddd)">
  <path d="m171.32 229.61c2.42 0.161 4.848 0.245 7.282 0.252h0.37c30.475-0.036 59.689-12.164 81.23-33.722 21.54-21.557 33.645-50.781 33.657-81.256 0-0.299-1e-3 -0.598-3e-3 -0.897-4e-3 -0.426-0.01-0.852-0.018-1.278-0.167-8.667-1.314-17.248-3.393-25.587-0.139-0.3263-0.313-0.6371-0.52-0.9267-0.373-0.5217-0.846-0.964-1.391-1.3014-0.546-0.3374-1.152-0.563-1.786-0.6639-0.633-0.1008-1.28-0.0749-1.903 0.0764-0.624 0.1513-1.211 0.4248-1.727 0.8048-0.517 0.38-0.953 0.8588-1.283 1.4086-0.33 0.5499-0.548 1.1598-0.64 1.7945-0.031 0.2166-0.048 0.4347-0.05 0.6527 5.349 20.992 4.127 43.257-3.707 63.712-9.624 25.131-28.497 45.628-52.75 57.289s-52.048 13.602-77.686 5.425c-9.416-3.003-18.279-7.287-26.371-12.673-14.366-9.517-26.171-22.41-34.387-37.526-0.6122-0.711-1.4233-1.235-2.3394-1.497-1.2311-0.352-2.5516-0.202-3.6725 0.417-0.5717 0.284-1.0775 0.684-1.4848 1.176-0.4073 0.491-0.707 1.063-0.8799 1.677-0.1729 0.615-0.2151 1.259-0.1238 1.891 0.0656 0.454 0.1992 0.895 0.3954 1.308 0.1451 0.264 0.2913 0.529 0.4386 0.792 9.9754 17.867 24.54 32.746 42.19 43.102 15.443 9.06 32.757 14.37 50.553 15.55zm-102.67-82.313c0.1516 0.32 0.3383 0.623 0.5571 0.904 0.3942 0.506 0.8849 0.929 1.4437 1.243 0.5588 0.315 1.1746 0.516 1.8115 0.59 0.6369 0.075 1.2824 0.023 1.8989-0.154 0.6164-0.177 1.1917-0.474 1.6923-0.875 0.5005-0.401 0.9165-0.898 1.2237-1.46 0.3072-0.563 0.4995-1.182 0.5657-1.82 0.0236-0.227 0.031-0.455 0.0225-0.683-7.0668-23.642-5.6283-49.093 4.1886-71.877 10.648-24.714 30.348-44.418 55.06-55.073 24.711-10.654 52.563-11.452 77.843-2.2286 7.916 2.8881 15.392 6.6901 22.298 11.289 15.527 10.293 28.107 24.562 36.369 41.393 0.581 0.7219 1.361 1.2682 2.253 1.5636 1.216 0.4024 2.542 0.3068 3.687-0.2657 0.583-0.2603 1.105-0.6399 1.532-1.1143s0.75-1.033 0.948-1.6399 0.267-1.2485 0.201-1.8835c-0.047-0.4569-0.162-0.9031-0.341-1.3238-1.53-3.0847-3.2-6.1067-5.01-9.0561-10.701-17.442-25.865-31.71-43.924-41.331-18.06-9.6212-38.361-14.246-58.806-13.398-30.448 1.2884-59.139 14.607-79.775 37.031-20.636 22.424-31.53 52.121-30.29 82.57 0.0128 0.312 0.0268 0.624 0.0421 0.936 0.4498 9.054 1.9684 18.003 4.5099 26.663z" clip-rule="evenodd" fill="#ffffff" fill-rule="evenodd"/>
 </g>
 <defs>
  <filter id="filter0_dddddd" x="0.777576" y="0" width="356.304" height="372.115" filterUnits="userSpaceOnUse" color-interpolation-filters="sRGB">
   <feFlood flood-opacity="0" result="BackgroundImageFix"/>
   <feColorMatrix in="SourceAlpha" type="matrix" values="0 0 0 0 0 0 0 0 0 0 0 0 0 0 0 0 0 0 127 0"/>
   <feOffset dy="2.18691"/>
   <feGaussianBlur stdDeviation="0.874763"/>
   <feColorMatrix type="matrix" values="0 0 0 0 0.196078 0 0 0 0 0.0156863 0 0 0 0 0.454902 0 0 0 0.0196802 0"/>
   <feBlend mode="normal" in2="BackgroundImageFix" result="effect1_dropShadow"/>
   <feColorMatrix in="SourceAlpha" type="matrix" values="0 0 0 0 0 0 0 0 0 0 0 0 0 0 0 0 0 0 127 0"/>
   <feOffset dy="5.25544"/>
   <feGaussianBlur stdDeviation="2.10218"/>
   <feColorMatrix type="matrix" values="0 0 0 0 0.196078 0 0 0 0 0.0156863 0 0 0 0 0.454902 0 0 0 0.0282725 0"/>
   <feBlend mode="normal" in2="effect1_dropShadow" result="effect2_dropShadow"/>
   <feColorMatrix in="SourceAlpha" type="matrix" values="0 0 0 0 0 0 0 0 0 0 0 0 0 0 0 0 0 0 127 0"/>
   <feOffset dy="9.89554"/>
   <feGaussianBlur stdDeviation="3.95821"/>
   <feColorMatrix type="matrix" values="0 0 0 0 0.196078 0 0 0 0 0.0156863 0 0 0 0 0.454902 0 0 0 0.035 0"/>
   <feBlend mode="normal" in2="effect2_dropShadow" result="effect3_dropShadow"/>
   <feColorMatrix in="SourceAlpha" type="matrix" values="0 0 0 0 0 0 0 0 0 0 0 0 0 0 0 0 0 0 127 0"/>
   <feOffset dy="17.6519"/>
   <feGaussianBlur stdDeviation="7.06078"/>
   <feColorMatrix type="matrix" values="0 0 0 0 0.196078 0 0 0 0 0.0156863 0 0 0 0 0.454902 0 0 0 0.0417275 0"/>
   <feBlend mode="normal" in2="effect3_dropShadow" result="effect4_dropShadow"/>
   <feColorMatrix in="SourceAlpha" type="matrix" values="0 0 0 0 0 0 0 0 0 0 0 0 0 0 0 0 0 0 127 0"/>
   <feOffset dy="33.016"/>
   <feGaussianBlur stdDeviation="13.2064"/>
   <feColorMatrix type="matrix" values="0 0 0 0 0.196078 0 0 0 0 0.0156863 0 0 0 0 0.454902 0 0 0 0.0503198 0"/>
   <feBlend mode="normal" in2="effect4_dropShadow" result="effect5_dropShadow"/>
   <feColorMatrix in="SourceAlpha" type="matrix" values="0 0 0 0 0 0 0 0 0 0 0 0 0 0 0 0 0 0 127 0"/>
   <feOffset dy="79.028"/>
   <feGaussianBlur stdDeviation="31.6112"/>
   <feColorMatrix type="matrix" values="0 0 0 0 0.196078 0 0 0 0 0.0156863 0 0 0 0 0.454902 0 0 0 0.07 0"/>
   <feBlend mode="normal" in2="effect5_dropShadow" result="effect6_dropShadow"/>
   <feBlend mode="normal" in="SourceGraphic" in2="effect6_dropShadow" result="shape"/>
  </filter>
 </defs>
</svg>
