<svg width="36" height="42" viewBox="0 0 36 42" fill="none" xmlns="http://www.w3.org/2000/svg">
<rect width="35.9477" height="41.9591" rx="9.43335" fill="white" fill-opacity="0.7"/>
<path d="M14.4074 33.2596C14.4074 33.2596 14.3993 33.2596 14.383 33.2596C14.1063 33.2596 13.8621 33.1538 13.6506 32.9422C13.4552 32.7469 13.3576 32.5109 13.3576 32.2342C13.3576 32.0877 13.382 31.9494 13.4308 31.8192C13.4797 31.7052 13.5448 31.6076 13.6261 31.5262L23.3918 20.7596L13.6261 10.0174C13.5448 9.91974 13.4797 9.81394 13.4308 9.70001C13.382 9.5698 13.3576 9.4396 13.3576 9.30939C13.3576 9.01642 13.4552 8.77228 13.6506 8.57697C13.8621 8.36538 14.1144 8.25958 14.4074 8.25958C14.5539 8.25958 14.6922 8.29213 14.8224 8.35724C14.9526 8.42234 15.0666 8.50372 15.1642 8.60138L25.589 20.0516C25.6704 20.1492 25.7355 20.2632 25.7844 20.3934C25.8332 20.5073 25.8576 20.6294 25.8576 20.7596C25.8576 20.8898 25.8332 21.02 25.7844 21.1502C25.7355 21.2641 25.6704 21.3699 25.589 21.4676V21.4432L15.1642 32.9178C15.0666 33.0154 14.9526 33.0968 14.8224 33.1619C14.6922 33.227 14.5539 33.2596 14.4074 33.2596Z" fill="#00B9EB"/>
</svg>
