<svg width="36" height="42" viewBox="0 0 36 42" fill="none" xmlns="http://www.w3.org/2000/svg">
<rect width="35.9477" height="41.9591" rx="9.43335" fill="white" fill-opacity="0.7"/>
<path d="M22.8079 33.2596C22.8079 33.2596 22.8161 33.2596 22.8323 33.2596C23.109 33.2596 23.3532 33.1538 23.5648 32.9422C23.7601 32.7469 23.8577 32.5109 23.8577 32.2342C23.8577 32.0877 23.8333 31.9494 23.7845 31.8192C23.7357 31.7052 23.6706 31.6076 23.5892 31.5262L13.8236 20.7596L23.5892 10.0174C23.6706 9.91974 23.7357 9.81394 23.7845 9.70001C23.8333 9.5698 23.8577 9.4396 23.8577 9.30939C23.8577 9.01642 23.7601 8.77228 23.5648 8.57697C23.3532 8.36538 23.1009 8.25958 22.8079 8.25958C22.6615 8.25958 22.5231 8.29213 22.3929 8.35724C22.2627 8.42234 22.1488 8.50372 22.0511 8.60138L11.6263 20.0516C11.5449 20.1492 11.4798 20.2632 11.431 20.3934C11.3822 20.5073 11.3577 20.6294 11.3577 20.7596C11.3577 20.8898 11.3822 21.02 11.431 21.1502C11.4798 21.2641 11.5449 21.3699 11.6263 21.4676V21.4432L22.0511 32.9178C22.1488 33.0154 22.2627 33.0968 22.3929 33.1619C22.5231 33.227 22.6615 33.2596 22.8079 33.2596Z" fill="#00B9EB"/>
</svg>
