<svg width="126" height="37" viewBox="0 0 126 37" fill="none" xmlns="http://www.w3.org/2000/svg">
<g clip-path="url(#clip0)">
<path d="M15.034 1.93638C15.2831 1.93638 15.4076 2.06092 15.6567 2.18546C14.1622 2.80816 12.6677 4.42719 11.9205 7.91432L9.1806 8.66156C10.0524 6.17075 11.7959 1.93638 15.034 1.93638ZM16.4039 3.18178C16.653 3.92903 16.9021 4.80081 16.9021 6.17075C16.9021 6.29529 16.9021 6.29529 16.9021 6.41983L13.2904 7.41616C14.0377 4.80081 15.2831 3.67995 16.4039 3.18178ZM19.642 5.42351L18.023 5.92167C18.023 5.79713 18.023 5.67259 18.023 5.54805C18.023 4.42719 17.8984 3.55541 17.6493 2.80816C18.5211 3.05724 19.2684 4.17811 19.642 5.42351ZM27.7371 7.41616C27.7371 7.29162 27.6126 7.16707 27.488 7.16707C27.2389 7.16707 24.6236 6.91799 24.6236 6.91799C24.6236 6.91799 22.7555 5.04989 22.5064 4.92535C22.2573 4.67627 21.8837 4.80081 21.7592 4.80081C21.7592 4.80081 21.3855 4.92535 20.7628 5.17443C20.1401 3.43086 19.0193 1.81184 17.1512 1.81184H17.0266C16.5285 1.0646 15.7812 0.815518 15.1585 0.815518C10.6751 0.690978 8.5579 6.29529 7.81065 9.15972C6.81433 9.4088 5.81801 9.78242 4.69715 10.156C3.70082 10.4051 3.70082 10.5297 3.57628 11.4014C3.45174 12.0241 0.960938 31.7015 0.960938 31.7015L20.7628 35.4377L31.4733 33.0715C31.4733 33.0715 27.7371 7.66524 27.7371 7.41616Z" fill="#828282"/>
<path d="M27.3631 7.16509C27.2385 7.16509 24.6232 6.91601 24.6232 6.91601C24.6232 6.91601 22.7551 5.04791 22.506 4.92337C22.3815 4.79883 22.3815 4.79883 22.2569 4.79883L20.7625 35.4357L31.4729 33.0695C31.4729 33.0695 27.7367 7.66326 27.7367 7.41418C27.7367 7.28963 27.4876 7.16509 27.3631 7.16509Z" fill="#828282"/>
<path d="M17.1506 13.1435L15.7807 17.1288C15.7807 17.1288 14.6598 16.5061 13.1653 16.5061C11.0481 16.5061 10.9236 17.7515 10.9236 18.1251C10.9236 19.8687 15.6561 20.616 15.6561 24.8503C15.6561 28.2129 13.5389 30.3301 10.6745 30.3301C7.31192 30.3301 5.56836 28.2129 5.56836 28.2129L6.44014 25.2239C6.44014 25.2239 8.18371 26.7184 9.67819 26.7184C10.6745 26.7184 11.0481 25.9712 11.0481 25.3485C11.0481 22.9822 7.18738 22.8577 7.18738 18.9969C7.18738 15.7589 9.55365 12.6454 14.1616 12.6454C16.2788 12.5208 17.1506 13.1435 17.1506 13.1435Z" fill="#FFFFFE"/>
<path d="M44.0514 20.4932C42.9306 19.8705 42.4324 19.3723 42.4324 18.7496C42.4324 17.8779 43.1796 17.3797 44.425 17.3797C45.795 17.3797 47.0404 18.0024 47.0404 18.0024L48.0367 15.0134C48.0367 15.0134 47.1649 14.2662 44.5496 14.2662C40.8134 14.2662 38.3226 16.3834 38.3226 19.3723C38.3226 21.1159 39.568 22.3613 41.0625 23.2331C42.3079 23.9803 42.806 24.4785 42.806 25.2257C42.806 25.973 42.1833 26.7202 40.9379 26.7202C39.1944 26.7202 37.4508 25.8484 37.4508 25.8484L36.4545 28.8374C36.4545 28.8374 37.949 29.8337 40.5643 29.8337C44.3005 29.8337 47.0404 27.9656 47.0404 24.603C47.0404 22.7349 45.6704 21.365 44.0514 20.4932ZM59.1208 14.1417C57.2527 14.1417 55.7582 15.0134 54.6374 16.3834L56.2564 7.91464H52.022L47.9122 29.4601H52.1465L53.5165 22.1122C54.0147 19.3723 55.5091 17.6288 56.8791 17.6288C57.8754 17.6288 58.249 18.2515 58.249 19.2478C58.249 19.8705 58.249 20.4932 58.1245 21.1159L56.5055 29.5847H60.7398L62.3589 20.8668C62.4834 19.995 62.6079 18.8742 62.6079 18.1269C62.6079 15.6361 61.3625 14.1417 59.1208 14.1417ZM69.9558 26.4711C68.4613 26.4711 67.9632 25.2257 67.9632 23.7313C67.9632 21.365 69.2086 17.3797 71.4503 17.3797C72.9448 17.3797 73.4429 18.6251 73.4429 19.8705C73.4429 22.6104 72.1975 26.4711 69.9558 26.4711ZM72.073 14.1417C66.9668 14.1417 63.6043 18.7496 63.6043 23.8558C63.6043 27.0938 65.5969 29.7092 69.4577 29.7092C74.4393 29.7092 77.8019 25.2257 77.8019 19.995C77.8019 17.0061 76.0583 14.1417 72.073 14.1417ZM84.527 26.5957C83.4062 26.5957 82.7835 25.973 82.7835 25.973L83.5307 21.9877C84.0289 19.3723 85.3988 17.6288 86.8933 17.6288C88.1387 17.6288 88.6369 18.8742 88.6369 19.995C88.5123 22.7349 86.8933 26.5957 84.527 26.5957ZM88.6369 14.1417C85.7724 14.1417 84.1534 16.6325 84.1534 16.6325L84.4025 14.3907H80.6663C80.5417 15.8852 80.1681 18.2515 79.7945 19.995L76.8055 35.438H81.0399L82.1608 29.211H82.2853C82.2853 29.211 83.1571 29.7092 84.7761 29.7092C89.7577 29.7092 92.9958 24.603 92.9958 19.4969C92.9958 16.757 91.7504 14.1417 88.6369 14.1417ZM98.9737 8.16372C97.6038 8.16372 96.6074 9.28458 96.6074 10.6545C96.6074 11.8999 97.3547 12.7717 98.6001 12.7717C99.97 12.7717 101.091 11.8999 101.091 10.2809C101.091 9.0355 100.219 8.16372 98.9737 8.16372ZM93.1203 29.4601H97.3547L100.219 14.5153H95.9847L93.1203 29.4601ZM110.93 14.5153H107.941L108.065 13.768C108.314 12.2735 109.186 11.0281 110.556 11.0281C111.303 11.0281 111.926 11.2772 111.926 11.2772L112.798 7.91464C112.798 7.91464 112.05 7.54102 110.556 7.54102C109.061 7.54102 107.567 7.91464 106.446 8.91096C104.952 10.1564 104.329 11.8999 103.955 13.6435L103.831 14.3907H101.838L101.215 17.6288H103.208L100.966 29.4601H105.201L107.442 17.6288H110.307L110.93 14.5153ZM121.017 14.5153C121.017 14.5153 118.402 21.1159 117.157 24.7276C117.032 23.6067 116.16 14.5153 116.16 14.5153H111.677L114.168 28.2147C114.168 28.4638 114.168 28.7129 114.043 28.962C113.545 29.9583 112.673 30.8301 111.801 31.4528C111.054 32.0755 110.058 32.4491 109.435 32.6982L110.556 36.3098C111.428 36.1853 113.171 35.438 114.666 34.0681C116.534 32.3245 118.402 29.4601 120.146 25.7239L125.252 14.6398L121.017 14.5153Z" fill="#828282"/>
</g>
<defs>
<clipPath id="clip0">
<rect width="124.54" height="35.6185" fill="white" transform="translate(0.961182 0.69043)"/>
</clipPath>
</defs>
</svg>
