<svg width="169" height="35" viewBox="0 0 169 35" fill="none" xmlns="http://www.w3.org/2000/svg">
<path d="M131.071 13.2973C128.937 13.2973 127.186 14.041 125.942 15.4608L126.182 14.2084C126.259 13.8126 125.988 13.4779 125.592 13.4779C125.197 13.4779 124.796 13.8126 124.721 14.2084L121.034 33.3516C120.959 33.7474 121.228 34.0821 121.624 34.0821C122.02 34.0821 122.421 33.7474 122.497 33.3516L123.865 26.2423C124.369 27.1507 125.538 28.3978 128.164 28.3978C130.217 28.3978 131.938 27.7669 133.283 26.5199C134.67 25.2343 135.617 23.3218 136.096 20.8316C136.576 18.3454 136.365 16.4356 135.471 15.1593C134.608 13.9242 133.125 13.2986 131.071 13.2986L131.071 13.2973ZM128.421 27.0564C125.3 27.0564 124.064 24.9049 124.849 20.8329C125.64 16.7225 127.616 14.6387 130.723 14.6387C134.119 14.6387 135.378 16.664 134.574 20.8329C133.756 25.0789 131.801 27.0564 128.421 27.0564ZM162.885 20.0241C161.033 19.3362 159.282 18.6881 159.616 16.9615C159.783 16.0943 160.487 14.6374 163.324 14.6374C164.917 14.6374 165.924 15.0783 166.797 16.1594C166.96 16.3612 167.146 16.3612 167.226 16.3612C167.414 16.3518 167.594 16.2812 167.738 16.1601C167.882 16.039 167.983 15.8742 168.025 15.6905C168.043 15.6106 168.045 15.5278 168.03 15.4472C168.015 15.3666 167.984 15.2899 167.939 15.2217L167.928 15.2031C167.042 13.9374 165.58 13.296 163.583 13.296C160.67 13.296 158.59 14.6998 158.153 16.9615C157.633 19.6655 160.029 20.5726 162.143 21.3708C163.969 22.0614 165.696 22.7149 165.376 24.3683C164.924 26.7058 162.475 27.0551 161.053 27.0551C159.094 27.0551 157.884 26.5225 157.007 25.2728L156.998 25.2608C156.947 25.196 156.882 25.144 156.807 25.1089C156.733 25.0739 156.651 25.0568 156.569 25.0589C156.381 25.0686 156.201 25.1393 156.057 25.2603C155.913 25.3813 155.812 25.5461 155.769 25.7296C155.751 25.8095 155.749 25.8923 155.764 25.973C155.779 26.0536 155.81 26.1303 155.856 26.1985C156.44 27.2915 158.193 28.3965 160.796 28.3965C164.093 28.3965 166.352 26.8904 166.838 24.3683C167.356 21.6816 164.98 20.7997 162.884 20.0241L162.885 20.0241ZM158.465 9.51754L156.924 9.51754L157.221 7.97429C157.297 7.57851 157.027 7.24383 156.63 7.24383C156.234 7.24383 155.835 7.57851 155.759 7.97429L155.461 9.51754L153.919 9.51754C153.522 9.51754 153.124 9.85222 153.048 10.248C152.971 10.6438 153.242 10.9784 153.638 10.9784L155.18 10.9784L154.884 12.5217C154.807 12.9175 155.076 13.2522 155.473 13.2522C155.869 13.2522 156.269 12.9175 156.345 12.5217L156.641 10.9798L158.184 10.9798C158.578 10.9798 158.978 10.6438 159.055 10.2493C159.077 10.161 159.078 10.0689 159.058 9.98011C159.038 9.89134 158.998 9.80832 158.941 9.73751C158.884 9.6667 158.812 9.61001 158.729 9.57186C158.647 9.53371 158.556 9.51512 158.465 9.51754ZM35.9989 24.3737C36.7479 24.7628 38.0973 25.3033 39.3855 25.2728C40.5543 25.2728 41.1851 24.6419 41.1851 23.865C41.1851 23.1146 40.7349 22.606 39.4758 21.8861C37.918 20.987 36.7479 19.728 36.7479 18.0785C36.7479 15.1699 39.2368 13.1021 42.8625 13.1021C44.4522 13.1021 45.6807 13.4022 46.3395 13.7927L45.3806 16.7305C44.5727 16.3572 43.6939 16.1624 42.8041 16.1594C41.6353 16.1594 40.885 16.6999 40.885 17.5393C40.885 18.198 41.4242 18.6788 42.4734 19.2485C44.0936 20.1782 45.4417 21.4359 45.4417 23.2063C45.4417 26.5026 42.7735 28.3606 39.0562 28.3314C37.3482 28.3008 35.7585 27.8506 34.9802 27.3114L35.9989 24.3737ZM46.281 28.249L50.2972 7.26111L54.4342 7.26111L52.8458 15.3957L52.9042 15.3426C54.0132 14.0238 55.4529 13.1127 57.2803 13.1127C59.4398 13.1127 60.667 14.5006 60.667 16.8394C60.667 17.5592 60.5475 18.7213 60.3682 19.6217L58.7492 28.249L54.6135 28.249L56.1714 19.8807C56.2909 19.3096 56.352 18.5738 56.352 18.0054C56.352 17.1063 55.9934 16.4515 55.0637 16.4515C53.7436 16.4515 52.3345 18.2139 51.7953 20.9432L50.4154 28.2504L46.281 28.2504L46.281 28.249ZM75.628 18.8581C75.628 23.9845 72.329 28.3606 67.4443 28.3606C63.7256 28.3606 61.7494 25.7828 61.7494 22.5754C61.7494 17.5685 65.047 13.0715 70.0221 13.0715C73.8895 13.0729 75.6267 15.8911 75.6267 18.8581L75.628 18.8581ZM65.9754 22.4851C65.9754 23.9845 66.5757 25.1825 67.9848 25.1825C70.1722 25.1825 71.402 21.2858 71.402 18.7385C71.402 17.5087 70.9212 16.251 69.4537 16.251C67.2039 16.251 65.9754 20.1158 65.9754 22.4851ZM74.6386 34.0794L77.5166 18.9524C77.8473 17.2444 78.1753 15.0345 78.3559 13.4793L82.0135 13.4793L81.7731 15.8114L81.8329 15.8114C82.9418 14.2562 84.5608 13.2123 86.209 13.2123C89.2357 13.2123 90.4655 15.6295 90.4655 18.4185C90.4655 23.4546 87.2887 28.4151 82.4319 28.4151C81.4132 28.4151 80.4835 28.249 80.0041 27.8612L79.9138 27.8612L78.7743 34.0807L74.6386 34.0807L74.6386 34.0794ZM80.5446 24.6433C80.9949 25.0018 81.5035 25.2422 82.2539 25.2422C84.5621 25.2422 86.1519 21.4359 86.1519 18.7677C86.1519 17.6588 85.7614 16.4901 84.5024 16.4901C83.064 16.4901 81.7147 18.1993 81.2352 20.7772L80.5446 24.6433ZM90.5864 28.249L93.3754 13.4806L97.5416 13.4806L94.7234 28.249L90.5864 28.249ZM95.9532 11.9254C94.7845 11.9254 94.0049 10.9253 94.0049 9.69551C94.0049 8.34749 95.0541 7.21728 96.3729 7.21728C97.6319 7.21728 98.4408 8.20804 98.4408 9.40731C98.4115 10.9346 97.3026 11.9254 96.0143 11.9254L95.9532 11.9254ZM98.3199 28.249L100.509 16.5883L98.5908 16.5883L99.1898 13.4806L101.109 13.4806L101.228 12.7369C101.559 10.997 102.217 9.23067 103.626 8.03273C104.735 7.07384 106.203 6.63955 107.674 6.63955C108.692 6.63955 109.443 6.78431 109.921 6.99283L109.112 10.2267C108.687 10.0841 108.241 10.0127 107.793 10.0156C106.415 10.0156 105.575 11.3277 105.336 12.7382L105.185 13.4793L108.063 13.4793L107.492 16.5897L104.646 16.5897L102.457 28.2504L98.3199 28.2504L98.3199 28.249ZM113.189 13.4806L113.848 20.0905C113.993 21.2525 114.113 22.4176 114.208 23.5848L114.268 23.5848C114.598 22.8078 114.897 21.6497 115.498 20.0613L118.016 13.4806L122.332 13.4806L117.265 24.294C115.467 28.01 113.728 30.7193 111.84 32.4883C110.371 33.8669 108.633 34.5469 107.793 34.7262L106.654 31.2134C107.344 30.9743 108.212 30.6117 108.991 30.0433C109.95 29.3832 110.76 28.4828 111.24 27.5544C111.359 27.3446 111.39 27.2025 111.33 26.9037L108.841 13.4806L113.189 13.4779L113.189 13.4806ZM155.081 14.8684C154.686 14.8684 154.286 15.2031 154.21 15.5989L152.813 22.8556C152.056 26.5517 149.785 27.0564 147.657 27.0564C143.825 27.0564 143.728 24.873 144.138 22.7374L145.782 14.2097C145.858 13.8139 145.588 13.4793 145.191 13.4793C144.795 13.4793 144.396 13.8139 144.32 14.2097L142.677 22.7361C142.346 24.456 142.465 25.7376 143.04 26.658C143.759 27.8121 145.227 28.3965 147.398 28.3965C149.57 28.3965 151.262 27.8108 152.428 26.658C153.358 25.7389 153.969 24.456 154.301 22.7374L155.674 15.6002C155.748 15.2031 155.479 14.8698 155.081 14.8698L155.081 14.8684ZM141.876 7.28501C141.48 7.28501 141.079 7.61969 141.004 8.01546L137.254 27.4854C137.179 27.8812 137.448 28.2158 137.845 28.2158C138.241 28.2158 138.641 27.8812 138.717 27.4854L142.466 8.01546C142.543 7.61836 142.272 7.28501 141.876 7.28501ZM20.8254 4.20648L19.816 4.51859C19.6913 4.10893 19.5295 3.71151 19.3326 3.33127C18.6167 1.96864 17.5689 1.2435 16.3045 1.24217L16.2992 1.24217C16.2115 1.24217 16.1239 1.25014 16.0362 1.25811C15.9994 1.21239 15.9609 1.16809 15.9207 1.1253C15.3695 0.536948 14.6616 0.24875 13.8156 0.273984C12.1794 0.320468 10.5512 1.50115 9.23106 3.59954C8.30139 5.07373 7.59617 6.92909 7.39562 8.36343L4.17631 9.36083C3.22938 9.65833 3.19883 9.68755 3.07399 10.5814C2.98103 11.2574 0.501467 30.4324 0.501467 30.4324L21.0737 33.9904L21.0737 4.16398C20.9897 4.16973 20.9065 4.18397 20.8254 4.20648ZM16.0747 5.67802L12.6044 6.75245C12.9404 5.46818 13.5766 4.18922 14.3575 3.35252C14.647 3.03909 15.0534 2.69245 15.5342 2.49324C15.9884 3.43619 16.0854 4.77358 16.0747 5.67802ZM13.8462 1.3617C14.1926 1.34365 14.536 1.43369 14.829 1.61935C14.353 1.87455 13.924 2.20917 13.5607 2.60878C12.5221 3.72306 11.7252 5.45224 11.4091 7.12166L8.55904 8.00352C9.12082 5.37654 11.3215 1.43474 13.8462 1.36303L13.8462 1.3617ZM10.6654 16.3267C10.7756 18.0758 15.3802 18.4583 15.6391 22.5581C15.8423 25.7841 13.9285 27.9901 11.1701 28.1627C7.86046 28.3726 6.03831 26.4203 6.03831 26.4203L6.73954 23.436C6.73954 23.436 8.57232 24.8199 10.0412 24.7269C11.0001 24.6658 11.3427 23.8863 11.3082 23.3338C11.1648 21.0508 7.41687 21.1849 7.17782 17.4343C6.9786 14.2775 9.05176 11.0781 13.6271 10.7885C15.3894 10.6783 16.2926 11.1272 16.2926 11.1272L15.246 15.0398C15.246 15.0398 14.0786 14.5085 12.6961 14.5962C10.6654 14.7264 10.6428 16.0066 10.6654 16.3254L10.6654 16.3267ZM17.1611 5.34068C17.1478 4.51327 17.0496 3.36181 16.6644 2.36574C17.9049 2.60081 18.5158 4.00461 18.7734 4.84131L17.1611 5.34068ZM21.755 33.9094L30.2894 31.7871C30.2894 31.7871 26.6145 6.94369 26.592 6.77237C26.5804 6.70006 26.5449 6.63372 26.4912 6.58389C26.4376 6.53407 26.3688 6.50364 26.2958 6.49745C26.1736 6.48683 23.7697 6.45097 23.7697 6.45097C23.7697 6.45097 22.3049 5.02858 21.755 4.48937L21.755 33.9094Z" fill="#828282"/>
</svg>
