<svg width="56" height="56" viewBox="0 0 56 56" fill="none" xmlns="http://www.w3.org/2000/svg">
<circle cx="28" cy="28" r="28" fill="#0D0D30"/>
<path fill-rule="evenodd" clip-rule="evenodd" d="M34.8707 26.5926L34.1464 27.317L34.8707 28.0413C35.2708 27.6413 35.2708 26.9927 34.8707 26.5926ZM32.6977 27.317L23.8611 36.1536C23.461 36.5537 23.461 37.2023 23.8611 37.6023C24.2611 38.0024 24.9097 38.0024 25.3098 37.6023L34.8707 28.0413C34.8708 28.0413 34.8707 28.0413 34.1464 27.317C34.8707 26.5926 34.8708 26.5927 34.8707 26.5926L25.3098 17.0316C24.9097 16.6316 24.2611 16.6316 23.8611 17.0316C23.461 17.4317 23.461 18.0803 23.8611 18.4804L32.6977 27.317Z" fill="white"/>
</svg>
