<svg width="56" height="56" viewBox="0 0 56 56" fill="none" xmlns="http://www.w3.org/2000/svg">
<circle cx="28" cy="28" r="28" transform="rotate(-180 28 28)" fill="#0D0D30"/>
<path fill-rule="evenodd" clip-rule="evenodd" d="M21.1293 29.4074L21.8536 28.683L21.1293 27.9587C20.7292 28.3587 20.7292 29.0073 21.1293 29.4074ZM23.3023 28.683L32.1389 19.8464C32.539 19.4463 32.539 18.7977 32.1389 18.3977C31.7389 17.9976 31.0903 17.9976 30.6902 18.3977L21.1293 27.9587C21.1292 27.9587 21.1293 27.9587 21.8536 28.683C21.1293 29.4074 21.1292 29.4073 21.1293 29.4074L30.6902 38.9684C31.0903 39.3684 31.7389 39.3684 32.1389 38.9684C32.539 38.5683 32.539 37.9197 32.1389 37.5196L23.3023 28.683Z" fill="white"/>
</svg>
