<svg width="25" height="25" viewBox="0 0 25 25" fill="none" xmlns="http://www.w3.org/2000/svg">
<g clip-path="url(#clip0_4126_17249)">
<path d="M12.1094 0.390625C5.4248 0.390625 0 5.81543 0 12.5C0 19.1846 5.4248 24.6094 12.1094 24.6094C18.7939 24.6094 24.2188 19.1846 24.2188 12.5C24.2188 5.81543 18.7939 0.390625 12.1094 0.390625Z" fill="#1ED760"/>
<path d="M19.8535 11.2842C19.5996 11.2842 19.4434 11.2207 19.2236 11.0938C15.7471 9.01855 9.53125 8.52051 5.50781 9.64355C5.33203 9.69238 5.1123 9.77051 4.87793 9.77051C4.2334 9.77051 3.74023 9.26758 3.74023 8.61816C3.74023 7.9541 4.15039 7.57813 4.58984 7.45117C6.30859 6.94824 8.23242 6.70898 10.3271 6.70898C13.8916 6.70898 17.627 7.45117 20.3564 9.04297C20.7373 9.2627 20.9863 9.56543 20.9863 10.1465C20.9863 10.8105 20.4492 11.2842 19.8535 11.2842V11.2842ZM18.3398 15.0049C18.0859 15.0049 17.915 14.8926 17.7393 14.7998C14.6875 12.9932 10.1367 12.2656 6.08887 13.3643C5.85449 13.4277 5.72754 13.4912 5.50781 13.4912C4.98535 13.4912 4.56055 13.0664 4.56055 12.5439C4.56055 12.0215 4.81445 11.6748 5.31738 11.5332C6.6748 11.1523 8.06152 10.8691 10.0928 10.8691C13.2617 10.8691 16.3232 11.6553 18.7354 13.0908C19.1309 13.3252 19.2871 13.6279 19.2871 14.0527C19.2822 14.5801 18.8721 15.0049 18.3398 15.0049V15.0049ZM17.0264 18.208C16.8213 18.208 16.6943 18.1445 16.5039 18.0322C13.457 16.1963 9.91211 16.1182 6.41113 16.8359C6.2207 16.8848 5.97168 16.9629 5.83008 16.9629C5.35645 16.9629 5.05859 16.5869 5.05859 16.1914C5.05859 15.6885 5.35645 15.4492 5.72266 15.3711C9.72168 14.4873 13.8086 14.5654 17.2949 16.6504C17.5928 16.8408 17.7686 17.0117 17.7686 17.4561C17.7686 17.9004 17.4219 18.208 17.0264 18.208V18.208Z" fill="#0D0D30"/>
</g>
<defs>
<clipPath id="clip0_4126_17249">
<rect width="24.2188" height="25" fill="white"/>
</clipPath>
</defs>
</svg>
