<svg width="262" height="292" viewBox="0 0 262 292" fill="none" xmlns="http://www.w3.org/2000/svg">
<g filter="url(#filter0_dddddd_3005_16293)">
<path fill-rule="evenodd" clip-rule="evenodd" d="M71.0946 161.971C81.6028 172.628 94.7656 180.285 109.223 184.153C130.759 189.896 153.694 186.858 172.992 175.706C192.289 164.554 206.373 146.2 212.15 124.673C212.222 124.405 212.293 124.137 212.362 123.868C212.425 123.623 212.487 123.378 212.548 123.133C214.07 116.979 214.884 110.699 214.994 104.415C214.958 104.158 214.894 103.905 214.802 103.661C214.637 103.222 214.387 102.82 214.065 102.479C213.744 102.137 213.358 101.863 212.93 101.672C212.501 101.48 212.039 101.376 211.57 101.365C211.101 101.354 210.635 101.436 210.198 101.607C209.761 101.777 209.363 102.033 209.025 102.359C208.688 102.685 208.419 103.075 208.233 103.506C208.17 103.653 208.117 103.803 208.074 103.957C207.88 119.8 202.802 135.297 193.396 148.266C181.84 164.198 164.626 175.106 145.285 178.753C125.944 182.399 105.941 178.509 89.3765 167.88C83.2956 163.977 77.8473 159.276 73.152 153.942C64.8012 144.498 58.8994 133.152 55.9556 120.915C55.6578 120.296 55.184 119.772 54.5866 119.414C53.7835 118.932 52.8222 118.788 51.9132 119.013C51.4555 119.106 51.0224 119.293 50.6416 119.563C50.2608 119.834 49.9409 120.181 49.7024 120.582C49.4639 120.983 49.3123 121.43 49.2571 121.894C49.2174 122.228 49.2285 122.565 49.2892 122.894C49.3415 123.108 49.3946 123.322 49.4485 123.536C53.1136 138.046 60.5863 151.315 71.0946 161.971ZM46.9124 104.939C46.9588 105.194 47.0333 105.444 47.1348 105.685C47.3175 106.117 47.5842 106.508 47.9195 106.836C48.2547 107.164 48.6517 107.422 49.0875 107.596C49.5234 107.769 49.9893 107.854 50.4582 107.846C50.9272 107.838 51.3899 107.737 51.8194 107.548C52.249 107.36 52.6368 107.088 52.9603 106.748C53.2839 106.409 53.5368 106.008 53.7044 105.57C53.764 105.414 53.8124 105.255 53.8494 105.093C53.3323 87.052 59.1662 69.3444 70.4144 55.1065C82.6154 39.6626 100.262 29.4714 119.737 26.6222C139.211 23.773 159.038 28.4819 175.152 39.7832C180.2 43.3237 184.764 47.4272 188.773 51.9862C197.791 62.1962 203.975 74.6549 206.625 88.1064C206.899 88.7261 207.346 89.2596 207.921 89.6372C208.703 90.1516 209.658 90.335 210.576 90.1473C211.037 90.0738 211.477 89.9044 211.869 89.6501C212.26 89.3959 212.594 89.0623 212.849 88.6711C213.104 88.2798 213.274 87.8395 213.348 87.3786C213.401 87.0465 213.404 86.7091 213.357 86.3776C212.86 83.9094 212.252 81.4585 211.532 79.0328C207.274 64.6854 199.262 51.7349 188.325 41.5193C177.388 31.3037 163.922 24.1933 149.317 20.9227C127.564 16.0694 104.773 20.0472 85.9498 31.9825C67.1264 43.9179 53.8088 62.8354 48.9209 84.5812C48.8538 84.8802 48.7883 85.1794 48.7244 85.479C47.3629 91.8869 46.758 98.4182 46.9124 104.939Z" fill="white"/>
</g>
<defs>
<filter id="filter0_dddddd_3005_16293" x="0.649334" y="18.9038" width="260.584" height="272.129" filterUnits="userSpaceOnUse" color-interpolation-filters="sRGB">
<feFlood flood-opacity="0" result="BackgroundImageFix"/>
<feColorMatrix in="SourceAlpha" type="matrix" values="0 0 0 0 0 0 0 0 0 0 0 0 0 0 0 0 0 0 127 0" result="hardAlpha"/>
<feOffset dy="1.59946"/>
<feGaussianBlur stdDeviation="0.639784"/>
<feColorMatrix type="matrix" values="0 0 0 0 0.196078 0 0 0 0 0.0156863 0 0 0 0 0.454902 0 0 0 0.0196802 0"/>
<feBlend mode="normal" in2="BackgroundImageFix" result="effect1_dropShadow_3005_16293"/>
<feColorMatrix in="SourceAlpha" type="matrix" values="0 0 0 0 0 0 0 0 0 0 0 0 0 0 0 0 0 0 127 0" result="hardAlpha"/>
<feOffset dy="3.84372"/>
<feGaussianBlur stdDeviation="1.53749"/>
<feColorMatrix type="matrix" values="0 0 0 0 0.196078 0 0 0 0 0.0156863 0 0 0 0 0.454902 0 0 0 0.0282725 0"/>
<feBlend mode="normal" in2="effect1_dropShadow_3005_16293" result="effect2_dropShadow_3005_16293"/>
<feColorMatrix in="SourceAlpha" type="matrix" values="0 0 0 0 0 0 0 0 0 0 0 0 0 0 0 0 0 0 127 0" result="hardAlpha"/>
<feOffset dy="7.23739"/>
<feGaussianBlur stdDeviation="2.89496"/>
<feColorMatrix type="matrix" values="0 0 0 0 0.196078 0 0 0 0 0.0156863 0 0 0 0 0.454902 0 0 0 0.035 0"/>
<feBlend mode="normal" in2="effect2_dropShadow_3005_16293" result="effect3_dropShadow_3005_16293"/>
<feColorMatrix in="SourceAlpha" type="matrix" values="0 0 0 0 0 0 0 0 0 0 0 0 0 0 0 0 0 0 127 0" result="hardAlpha"/>
<feOffset dy="12.9103"/>
<feGaussianBlur stdDeviation="5.16411"/>
<feColorMatrix type="matrix" values="0 0 0 0 0.196078 0 0 0 0 0.0156863 0 0 0 0 0.454902 0 0 0 0.0417275 0"/>
<feBlend mode="normal" in2="effect3_dropShadow_3005_16293" result="effect4_dropShadow_3005_16293"/>
<feColorMatrix in="SourceAlpha" type="matrix" values="0 0 0 0 0 0 0 0 0 0 0 0 0 0 0 0 0 0 127 0" result="hardAlpha"/>
<feOffset dy="24.1472"/>
<feGaussianBlur stdDeviation="9.6589"/>
<feColorMatrix type="matrix" values="0 0 0 0 0.196078 0 0 0 0 0.0156863 0 0 0 0 0.454902 0 0 0 0.0503198 0"/>
<feBlend mode="normal" in2="effect4_dropShadow_3005_16293" result="effect5_dropShadow_3005_16293"/>
<feColorMatrix in="SourceAlpha" type="matrix" values="0 0 0 0 0 0 0 0 0 0 0 0 0 0 0 0 0 0 127 0" result="hardAlpha"/>
<feOffset dy="57.7995"/>
<feGaussianBlur stdDeviation="23.1198"/>
<feColorMatrix type="matrix" values="0 0 0 0 0.196078 0 0 0 0 0.0156863 0 0 0 0 0.454902 0 0 0 0.07 0"/>
<feBlend mode="normal" in2="effect5_dropShadow_3005_16293" result="effect6_dropShadow_3005_16293"/>
<feBlend mode="normal" in="SourceGraphic" in2="effect6_dropShadow_3005_16293" result="shape"/>
</filter>
</defs>
</svg>
