<svg width="102" height="39" viewBox="0 0 102 39" fill="none" xmlns="http://www.w3.org/2000/svg">
<path d="M19.9668 24.1151L14.3438 38.5057H12.8677L10.3374 31.2377L10.1968 30.6563L9.98593 31.2377L7.45556 38.5057H5.97951L0.426758 24.1151H2.67597L6.47153 33.9269L6.6121 34.5083L6.75268 33.9269L9.49391 26.2228H10.6888L13.43 33.9269L13.5706 34.5083L13.7112 33.9269L17.5067 24.1151H19.9668Z" fill="white"/>
<path d="M31.8457 36.3253V38.5057H22.146V24.1151H31.7052V26.2228H24.3249V29.9295H30.1588V32.0372H24.3249V36.3253H31.8457Z" fill="white"/>
<path d="M40.491 24.1151C42.8808 24.1151 44.5677 25.6414 44.5677 27.7491C44.5677 29.2027 43.5837 30.3656 42.5294 30.6563C43.9351 30.8743 45.4112 32.3279 45.4112 34.2176C45.4112 36.6887 43.7945 38.5057 40.7019 38.5057H35.0085V24.1151H40.491ZM40.0693 29.8568C41.4048 29.8568 42.3888 29.0573 42.3888 27.8945C42.3888 26.7316 41.475 25.9321 40.0693 25.9321H37.1875V29.7841L40.0693 29.8568ZM40.491 36.5434C41.9671 36.5434 43.0917 35.5985 43.0917 34.1449C43.0917 32.6913 41.8968 31.7465 40.4207 31.7465H37.1875V36.5434H40.491Z" fill="white"/>
<path d="M55.7439 28.2578C55.3924 26.6589 54.1273 25.7867 52.6512 25.7867C51.1049 25.7867 49.9803 26.5135 49.9803 27.749C49.9803 29.0573 51.6672 29.4934 53.4947 30.0748C55.4627 30.7289 57.9931 31.5284 57.9931 34.4356C57.9931 36.9067 55.8845 38.7237 52.7918 38.7237C49.8397 38.7237 47.8716 36.9794 47.3093 34.4356L49.4883 33.8541C49.6991 35.3804 50.9643 36.6887 52.9324 36.6887C54.6193 36.6887 55.7439 35.7438 55.7439 34.5809C55.7439 32.9093 53.4947 32.3279 51.5266 31.6738C49.91 31.0923 47.7311 30.2928 47.7311 27.8217C47.7311 25.5687 49.8397 23.8243 52.7215 23.8243C55.2519 23.8243 57.2902 25.4233 57.8525 27.6764L55.7439 28.2578Z" fill="white"/>
<path d="M70.9964 24.1151V26.2228H66.4979V38.5057H64.319V26.2228H59.8206V24.1151H70.9964Z" fill="white"/>
<path d="M83.086 36.3253V38.5057H73.3862V24.1151H82.9454V26.2228H75.5652V29.9295H81.3991V32.0372H75.5652V36.3253C75.4949 36.3253 83.086 36.3253 83.086 36.3253Z" fill="white"/>
<path d="M93.9807 38.5057L90.888 33.3454C90.7474 33.3454 90.6068 33.3454 90.5365 33.3454H88.217V38.5057H86.1084V24.1151H90.6771C93.9807 24.1151 96.019 25.9321 96.019 28.7666C96.019 30.8016 95.035 32.2552 93.2075 32.982L96.5813 38.5784L93.9807 38.5057ZM90.8177 31.165C92.7155 31.165 93.6292 30.0749 93.6292 28.6939C93.6292 27.2403 92.6452 26.2228 90.8177 26.2228H88.217V31.165H90.8177Z" fill="white"/>
<path d="M11.7432 6.09119V8.1989H7.24474V20.4091H5.06581V8.1989H0.567383V6.09119H11.7432Z" fill="white"/>
<path d="M24.1136 18.3011V20.4089H14.4841V6.09094H24.0433V8.19865H16.6631V11.9053H22.497V14.013H16.6631V18.3011H24.1136Z" fill="white"/>
<path d="M40.3497 6.09094V20.4815H38.1707V10.7424L38.241 10.161L37.9599 10.7424L34.2346 16.9202H33.3209L29.5956 10.7424L29.3145 10.161L29.3847 10.7424V20.4815H27.2058V6.09094H29.2442L33.602 13.2862L33.8129 13.7223L34.0237 13.2862L38.3816 6.09094H40.3497Z" fill="white"/>
<path d="M48.2225 6.09094C51.5261 6.09094 53.4941 7.83526 53.4941 10.8151C53.4941 13.795 51.5261 15.5393 48.2225 15.5393H45.8327V20.4815H43.6538V6.09094H48.2225ZM48.1522 13.3589C50.1203 13.3589 51.1746 12.4141 51.1746 10.8151C51.1746 9.14349 50.05 8.27134 48.1522 8.27134H45.7624V13.4316L48.1522 13.3589Z" fill="white"/>
<path d="M65.4433 18.3011V20.4089H56.0247V6.09094H58.2036V18.3011C58.2739 18.3011 65.4433 18.3011 65.4433 18.3011Z" fill="white"/>
<path d="M77.6028 18.3011V20.4089H67.9031V6.09094H77.4622V8.19865H70.082V11.9053H75.9159V14.013H70.082V18.3011H77.6028Z" fill="white"/>
<path d="M84.7017 19.6091C83.4365 19.1003 82.4525 18.3008 81.6793 17.2106C80.9061 16.1204 80.5547 14.8122 80.5547 13.2132C80.5547 11.905 80.9061 10.7421 81.6793 9.72461C82.4525 8.77978 83.5068 8.12566 84.8423 7.90762V7.83494C83.7176 6.96278 83.2256 5.94527 83.2256 4.70971C83.2256 3.54683 83.6474 2.602 84.4908 1.8752C85.3343 1.1484 86.4589 0.785003 87.9349 0.785003C88.9892 0.785003 89.8327 1.00304 90.5356 1.5118C91.2385 2.02056 91.5899 2.67468 91.5899 3.61951C91.5899 4.20095 91.4493 4.70971 91.0979 5.07311C90.7465 5.50919 90.3247 5.72723 89.8327 5.72723C89.4813 5.72723 89.2001 5.65455 88.9892 5.43651C88.7784 5.29115 88.6378 5.07311 88.6378 5.00043C88.6378 5.00043 88.7081 4.92775 88.8487 4.78239C88.9893 4.63703 89.1298 4.49167 89.2704 4.27363C89.411 4.05559 89.4813 3.83755 89.4813 3.54683C89.4813 3.03808 89.2704 2.602 88.919 2.31128C88.5675 2.02056 88.1458 1.8752 87.5835 1.8752C86.74 1.8752 86.1074 2.16592 85.6154 2.67468C85.1234 3.18344 84.9125 3.83755 84.9125 4.63703C84.9125 5.94527 85.4748 6.8901 86.5292 7.47154H87.3726C87.6538 7.47154 87.8646 7.47154 87.9349 7.54422C88.0052 7.6169 88.0755 7.76226 88.0755 8.12566C88.0755 8.27102 88.0052 8.48906 87.9349 8.56174C87.8646 8.7071 87.7241 8.77978 87.5835 8.77978H86.6697C85.5451 8.85246 84.7017 9.36121 84.1394 10.1607C83.5771 10.9602 83.2959 11.905 83.2959 12.9225C83.2959 14.0854 83.5771 15.1029 84.0691 15.9024C84.5611 16.7745 85.3343 17.4287 86.248 17.8647C87.1618 18.3008 88.2161 18.5915 89.411 18.5915C90.6762 18.5915 91.8711 18.3008 92.9254 17.7921C93.9797 17.2106 94.8232 16.4838 95.4557 15.539C96.0883 14.5942 96.3695 13.504 96.3695 12.2684C96.3695 11.2509 96.0883 10.3061 95.526 9.57925C94.9637 8.77978 94.1906 8.41638 93.2065 8.41638C92.7145 8.41638 92.2225 8.56174 91.7305 8.85246C91.2385 9.14317 91.0276 9.57925 91.0276 10.088C91.0276 10.3787 91.0979 10.5968 91.2385 10.8148C91.379 11.0328 91.5899 11.1782 91.8711 11.1782C92.2928 11.2509 92.7145 11.1782 92.9957 10.8875C93.2768 10.6694 93.4174 10.5241 93.4877 10.5241C93.558 10.5241 93.6985 10.6694 93.8391 10.8875C93.9797 11.1055 94.05 11.3962 94.05 11.687C94.05 12.1957 93.8391 12.6318 93.4877 12.9225C93.1362 13.2132 92.7145 13.3586 92.1522 13.3586C91.5196 13.3586 90.9573 13.0679 90.5356 12.5591C90.1139 11.9777 89.903 11.3236 89.903 10.4514C89.903 9.14318 90.2544 8.19834 90.887 7.47154C91.5196 6.81742 92.2928 6.30866 93.2065 6.09063C94.1203 5.87259 95.2449 5.65455 96.7209 5.43651C97.9861 5.29115 98.8999 5.14579 99.5325 4.92775C99.8839 4.78239 100.235 4.56435 100.516 4.34631C100.798 4.05559 100.868 3.76487 100.868 3.47415C100.868 2.9654 100.516 2.602 99.8839 2.52932C99.4622 2.45664 99.0404 2.52932 98.7593 2.82004C98.4781 3.03808 98.3376 3.18344 98.2673 3.18344C98.197 3.18344 98.0564 3.03808 97.9158 2.74736C97.7753 2.45664 97.705 2.16592 97.7753 1.80252C97.8455 1.29376 98.0564 0.930363 98.4078 0.639644C98.7593 0.421605 99.181 0.276245 99.6027 0.276245C99.9542 0.276245 100.306 0.348925 100.587 0.494284C101.009 0.712324 101.29 1.00304 101.501 1.43912C101.711 1.8752 101.782 2.31128 101.782 2.89272C101.782 3.83755 101.501 4.70971 100.868 5.43651C100.235 6.1633 99.4622 6.74474 98.4781 7.10814C97.4941 7.47154 96.3695 7.68958 95.1746 7.68958C96.6506 8.99782 97.4238 10.5241 97.4238 12.2684C97.4238 13.94 97.0724 15.3936 96.2992 16.6292C95.526 17.8647 94.4717 18.8096 93.1362 19.4637C91.8008 20.1178 90.3247 20.4812 88.6378 20.4812C87.232 20.4085 85.8966 20.1178 84.7017 19.6091Z" fill="white"/>
</svg>
