<svg width="78" height="31" viewBox="0 0 78 31" fill="none" xmlns="http://www.w3.org/2000/svg">
<g clip-path="url(#clip0)">
<path d="M44.6382 1.55417C43.193 2.27675 42.5668 3.62559 42.5668 7.2867C42.5668 7.2867 43.2894 6.56411 44.4455 6.13056C45.2885 5.81743 45.8907 5.40797 46.3242 5.09485C47.5767 4.15548 47.7694 3.02343 47.7694 1.04836C47.7453 1.04836 45.7702 0.927924 44.6382 1.55417Z" fill="#828282"/>
<path d="M35.799 2.39722C34.5465 3.43293 34.2334 5.21531 34.2334 5.21531L30.1869 20.7269L26.863 8.0334C26.5499 6.68457 25.9236 5.02262 24.9843 3.86648C23.8281 2.39722 21.4195 2.30088 21.1305 2.30088C20.9137 2.30088 18.5292 2.39722 17.2767 3.86648C16.3373 5.02262 15.7111 6.68457 15.398 8.0334L12.2667 20.7269L8.22025 5.21531C8.22025 5.21531 7.90713 3.55336 6.65465 2.39722C4.67957 0.614837 1.76514 1.04839 1.76514 1.04839L9.47274 30.0723C9.47274 30.0723 11.9777 30.2891 13.2302 29.6629C14.8921 28.8198 15.7352 28.2177 16.6745 24.2435C17.6139 20.7028 20.1189 10.3939 20.3116 9.67127C20.4079 9.35815 20.6247 8.41878 21.2509 8.41878C21.8772 8.41878 22.0939 9.2618 22.1903 9.67127C22.4071 10.3939 24.8879 20.7028 25.8273 24.2435C26.863 28.1936 27.5856 28.8198 29.2716 29.6629C30.5241 30.2891 33.0291 30.0723 33.0291 30.0723L40.6885 1.04839C40.6885 1.04839 37.7741 0.638924 35.799 2.39722ZM47.7458 5.72112C47.7458 5.72112 47.2159 6.44371 46.1802 7.06995C45.4576 7.47942 44.8314 7.6962 44.1088 8.10566C42.8563 8.73191 42.5432 9.35815 42.5432 10.2975V29.976C42.5432 29.976 44.5182 30.1928 45.7707 29.5665C47.4327 28.7235 47.7458 27.9046 47.7458 24.3639V6.87726V5.72112ZM66.8944 15.6206L76.6734 1.14473C76.6734 1.14473 72.6269 0.422147 70.5314 2.30088C69.1826 3.45702 67.8337 5.62478 67.8337 5.62478L64.2931 10.8274C64.0763 11.1405 63.8836 11.3573 63.5705 11.3573C63.2573 11.3573 62.9442 11.0442 62.8479 10.8274L59.3072 5.62478C59.3072 5.62478 57.862 3.55336 56.6095 2.30088C54.5381 0.422147 50.4675 1.14473 50.4675 1.14473L59.9334 15.5965L50.2508 30.0482C50.2508 30.0482 54.514 30.5781 56.6095 28.6994C57.9584 27.5433 59.2108 25.5682 59.2108 25.5682L62.7515 20.3656C62.9683 20.0524 63.161 19.8357 63.4741 19.8357C63.7872 19.8357 64.1004 20.1488 64.1967 20.3656L67.7374 25.5682C67.7374 25.5682 69.0862 27.5433 70.3387 28.6994C72.4101 30.5781 76.577 30.0482 76.577 30.0482L66.8944 15.6206Z" fill="#828282"/>
</g>
<defs>
<clipPath id="clip0">
<rect width="77.482" height="30.156" fill="white" transform="translate(0.479248 0.421875)"/>
</clipPath>
</defs>
</svg>
