<svg width="154" height="33" viewBox="0 0 154 33" fill="none" xmlns="http://www.w3.org/2000/svg">
<g clip-path="url(#clip0)">
<path fill-rule="evenodd" clip-rule="evenodd" d="M47.1834 0.879883H4.86526C2.18716 0.879883 0.0191834 3.06911 0.0404382 5.72595V21.8795C0.0404382 24.5576 2.20842 26.7256 4.88652 26.7256H24.9297L34.0905 31.8267L32.0075 26.7256H47.1834C49.8615 26.7256 52.0294 24.5576 52.0294 21.8795V5.72595C52.0294 3.04786 49.8615 0.879883 47.1834 0.879883ZM3.97266 4.6207C3.37752 4.66322 2.93116 4.87577 2.6336 5.2796C2.33604 5.66219 2.22977 6.15104 2.29353 6.70367C3.54756 14.6742 4.71656 20.0516 5.80056 22.836C6.22566 23.8562 6.71451 24.3451 7.28839 24.3026C8.18108 24.2388 9.24381 23.0061 10.4978 20.6043C11.1567 19.2439 12.177 17.2036 13.5585 14.4829C14.7062 18.5 16.2791 21.5183 18.2558 23.5374C18.8085 24.1113 19.3824 24.3663 19.9349 24.3238C20.4238 24.2813 20.8063 24.0262 21.0614 23.5586C21.274 23.1548 21.359 22.6872 21.3165 22.1558C21.1889 20.2217 21.3803 17.5223 21.9117 14.0578C22.4642 10.487 23.1444 7.91518 23.9733 6.38485C24.1434 6.06603 24.2071 5.7472 24.1859 5.36462C24.1434 4.87575 23.9308 4.47192 23.527 4.15311C23.1232 3.83429 22.6768 3.68551 22.1879 3.72801C21.5716 3.77052 21.1039 4.06808 20.7851 4.66322C19.4674 7.065 18.5321 10.9546 17.9796 16.3533C17.1718 14.3129 16.4916 11.9111 15.9603 9.08419C15.7265 7.83017 15.1527 7.23503 14.2174 7.2988C13.5798 7.3413 13.0484 7.7664 12.6233 8.57408L7.96854 17.4373C7.20337 14.3554 6.4807 10.5933 5.82181 6.15104C5.67303 5.0458 5.05664 4.53568 3.97266 4.6207ZM44.9305 6.15111C46.4396 6.46994 47.5661 7.27762 48.3312 8.61666C49.0114 9.76442 49.3514 11.146 49.3514 12.8038C49.3514 14.993 48.7989 16.991 47.6935 18.8189C46.4183 20.9444 44.7604 22.0071 42.6988 22.0071C42.3375 22.0071 41.9548 21.9646 41.5509 21.8795C40.0419 21.5608 38.9154 20.7532 38.1502 19.4141C37.4701 18.245 37.13 16.8423 37.13 15.2056C37.13 13.0164 37.6827 11.0184 38.7879 9.21179C40.0844 7.08632 41.7423 6.02358 43.7828 6.02358C44.1441 6.02358 44.5267 6.0661 44.9305 6.15111ZM44.0378 17.6499C44.8243 16.9485 45.3556 15.907 45.6532 14.5042C45.7382 14.0154 45.8019 13.484 45.8019 12.9314C45.8019 12.315 45.6744 11.6561 45.4193 10.9972C45.1005 10.1683 44.6754 9.72191 44.1652 9.61563C43.4001 9.46684 42.6562 9.89194 41.9548 10.9334C41.381 11.7411 41.0196 12.5913 40.8283 13.4627C40.722 13.9516 40.6795 14.483 40.6795 15.0143C40.6795 15.6307 40.807 16.2896 41.0621 16.9485C41.381 17.7774 41.806 18.2237 42.3161 18.3301C42.8475 18.4363 43.4213 18.2025 44.0378 17.6499ZM35.0045 8.61666C34.2393 7.27762 33.0916 6.46994 31.6037 6.15111C31.1998 6.0661 30.8173 6.02358 30.4559 6.02358C28.4156 6.02358 26.7577 7.08632 25.4611 9.21179C24.3558 11.0184 23.8033 13.0164 23.8033 15.2056C23.8033 16.8423 24.1434 18.245 24.8234 19.4141C25.5887 20.7532 26.7152 21.5608 28.2242 21.8795C28.628 21.9646 29.0106 22.0071 29.372 22.0071C31.4337 22.0071 33.0916 20.9444 34.3668 18.8189C35.4721 16.991 36.0247 14.993 36.0247 12.8038C36.0247 11.146 35.6846 9.76442 35.0045 8.61666ZM32.3263 14.5042C32.0289 15.907 31.4974 16.9485 30.711 17.6499C30.0946 18.2025 29.5208 18.4363 28.9894 18.3301C28.4793 18.2237 28.0541 17.7774 27.7354 16.9485C27.4803 16.2896 27.3527 15.6307 27.3527 15.0143C27.3527 14.483 27.3953 13.9516 27.5016 13.4627C27.6928 12.5913 28.0541 11.7411 28.628 10.9334C29.3295 9.89194 30.0734 9.46684 30.8385 9.61563C31.3487 9.72191 31.7738 10.1683 32.0926 10.9972C32.3476 11.6561 32.4752 12.315 32.4752 12.9314C32.4752 13.484 32.4327 14.0154 32.3263 14.5042Z" fill="#828282"/>
<path d="M57.4065 8.42552C55.9824 9.82833 55.281 11.6137 55.281 13.7817C55.281 16.0985 55.9824 17.9901 57.3853 19.4142C58.7881 20.8383 60.616 21.5609 62.8902 21.5609C63.5491 21.5609 64.293 21.4547 65.1008 21.2208V17.7775C64.3569 17.9901 63.7192 18.0964 63.1665 18.0964C62.04 18.0964 61.1474 17.7138 60.4672 16.9699C59.7871 16.2047 59.447 15.1845 59.447 13.888C59.447 12.6765 59.7871 11.6775 60.446 10.9123C61.126 10.1259 61.955 9.74331 62.9753 9.74331C63.6341 9.74331 64.3355 9.84957 65.1008 10.0621V6.61886C64.3994 6.42757 63.613 6.34255 62.7839 6.34255C60.616 6.32129 58.8306 7.02271 57.4065 8.42552ZM72.1573 6.32129C70.2019 6.32129 68.6716 6.9802 67.5662 8.27673C66.461 9.57327 65.9297 11.4012 65.9297 13.7392C65.9297 16.2685 66.4822 18.2027 67.5662 19.5417C68.6502 20.8808 70.2444 21.5609 72.3274 21.5609C74.3465 21.5609 75.8981 20.8808 76.9821 19.5417C78.0661 18.2027 78.6187 16.311 78.6187 13.888C78.6187 11.4649 78.0661 9.59453 76.9609 8.27673C75.8344 6.9802 74.2402 6.32129 72.1573 6.32129ZM73.8364 17.3737C73.4538 17.9689 72.8799 18.2665 72.1573 18.2665C71.4771 18.2665 70.967 17.9689 70.6057 17.3737C70.2444 16.7786 70.0744 15.5883 70.0744 13.7817C70.0744 10.9973 70.7757 9.61577 72.1999 9.61577C73.6877 9.61577 74.4528 11.0186 74.4528 13.8455C74.4316 15.5883 74.219 16.7786 73.8364 17.3737ZM89.1186 6.72513L88.3533 9.97711C88.1621 10.806 87.9709 11.6562 87.8008 12.5277L87.3757 14.7807C86.9719 12.5277 86.4192 9.84957 85.7178 6.72513H80.7867L78.9375 21.1996H82.6358L83.6348 11.2311L86.1641 21.1996H88.7998L91.2227 11.2524L92.2642 21.1996H96.1326L94.1772 6.72513H89.1186ZM106.824 6.72513L106.059 9.97711C105.867 10.806 105.676 11.6562 105.506 12.5277L105.081 14.7807C104.677 12.5277 104.124 9.84957 103.423 6.72513H98.4919L96.6428 21.1996H100.341L101.34 11.2311L103.869 21.1996H106.505L108.907 11.2524L109.948 21.1996H113.817L111.861 6.72513H106.824ZM118.854 15.4821H122.318V12.4852H118.854V9.82832H122.85V6.74639H114.943V21.2208H122.871V18.139H118.854V15.4821ZM133.881 13.1866C134.285 12.5277 134.497 11.8475 134.497 11.1461C134.497 9.78582 133.966 8.70183 132.903 7.91539C131.84 7.12898 130.374 6.72513 128.546 6.72513H123.997V21.1996H127.908V14.6107H127.972L131.139 21.1996H135.263L132.138 14.6744C132.882 14.3343 133.477 13.8455 133.881 13.1866ZM127.887 12.9528V9.5095C128.822 9.53076 129.481 9.67954 129.885 9.97711C130.289 10.2747 130.48 10.7423 130.48 11.4224C130.48 12.4214 129.609 12.9315 127.887 12.9528ZM136.792 8.42552C135.369 9.82833 134.667 11.6137 134.667 13.7817C134.667 16.0985 135.369 17.9901 136.772 19.4142C138.175 20.8383 140.002 21.5609 142.277 21.5609C142.936 21.5609 143.68 21.4547 144.487 21.2208V17.7775C143.744 17.9901 143.105 18.0964 142.553 18.0964C141.427 18.0964 140.534 17.7138 139.854 16.9699C139.173 16.2047 138.834 15.1845 138.834 13.888C138.834 12.6765 139.173 11.6775 139.832 10.9123C140.513 10.1259 141.341 9.74331 142.361 9.74331C143.02 9.74331 143.722 9.84957 144.487 10.0621V6.61886C143.786 6.42757 142.999 6.34255 142.171 6.34255C140.024 6.32129 138.217 7.02271 136.792 8.42552ZM149.482 18.0964V15.4608H152.946V12.4639H149.482V9.80708H153.499V6.72513H145.592V21.1996H153.52V18.1176H149.482V18.0964Z" fill="#828282"/>
</g>
<defs>
<clipPath id="clip0">
<rect width="153.48" height="31.2394" fill="white" transform="translate(0.0402832 0.879883)"/>
</clipPath>
</defs>
</svg>
