<svg width="189" height="29" viewBox="0 0 189 29" fill="none" xmlns="http://www.w3.org/2000/svg">
<path d="M53.073 7.82211L49.9678 19.7533L46.8626 7.82211H43.7351L44.4586 10.382L41.7318 20.1539L38.749 7.82211H35.7439L39.9733 23.4038H43.2677L45.8053 15.0676L48.1759 23.4038H51.4592L55.9111 7.82211H53.073ZM84.6706 12.3408C83.9913 12.1837 83.2975 12.0979 82.6004 12.0848C78.8163 12.0848 76.7461 14.6113 76.7461 18.3175C76.7461 22.0015 78.8163 23.6821 81.2537 23.6821C82.5496 23.6398 83.7978 23.1834 84.8153 22.3799V23.4038H87.4085V7.82211H84.6706V12.3408ZM84.6706 20.2207C83.7802 21.0332 82.9455 21.4784 82.0662 21.4784C80.5526 21.4784 79.5843 20.4767 79.5843 18.1283C79.5843 15.5907 80.7863 14.2663 82.8787 14.2663C83.4908 14.2663 84.103 14.3887 84.6594 14.6113V20.2207H84.6706ZM71.5819 14.1661H71.4818V12.3408H68.9219V23.4038H71.671V16.815C72.528 15.19 73.5742 14.6558 75.3215 14.6558H75.5998V12.274C75.3521 12.2467 75.1032 12.2318 74.8541 12.2295C73.3627 12.2295 72.3387 12.8083 71.5819 14.1772V14.1661ZM164.115 12.0626C160.331 12.0626 158.539 14.5111 158.539 17.8835C158.539 21.2447 160.32 23.671 164.115 23.671C167.91 23.671 169.691 21.2447 169.691 17.8835C169.691 14.5111 167.877 12.0626 164.104 12.0626H164.115ZM164.115 21.4561C162.334 21.4561 161.377 20.2986 161.377 17.8835C161.377 15.4572 162.323 14.2997 164.115 14.2997C165.896 14.2997 166.831 15.4572 166.831 17.8835C166.831 20.2986 165.896 21.4561 164.104 21.4561H164.115ZM185.395 12.0626C184.216 12.0626 182.858 12.7081 181.633 13.5317L181.3 13.7432C180.732 12.5078 179.563 12.0737 178.283 12.0737C177.104 12.0737 175.757 12.6747 174.522 13.4872V12.3408H171.917V23.4038H174.677V15.4683C175.531 14.852 176.534 14.4754 177.582 14.3776C178.484 14.3776 179.051 14.8673 179.051 16.4255V23.4038H181.789V15.5017C182.813 14.8339 183.904 14.3887 184.683 14.3887C185.596 14.3887 186.152 14.8673 186.152 16.4366V23.4038H188.89V15.7688C188.89 13.6319 187.621 12.0737 185.384 12.0737L185.395 12.0626ZM61.1422 12.0626C57.358 12.0626 55.5773 14.5111 55.5773 17.8835C55.5773 21.2447 57.358 23.671 61.1422 23.671C64.9263 23.671 66.7293 21.2447 66.7293 17.8835C66.7293 14.5111 64.904 12.0626 61.131 12.0626H61.1422ZM61.1422 21.4561C59.3614 21.4561 58.4042 20.2986 58.4042 17.8835C58.4042 15.4572 59.3614 14.2997 61.1533 14.2997C62.9341 14.2997 63.869 15.4572 63.869 17.8835C63.869 20.2986 62.9229 21.4561 61.131 21.4561H61.1422ZM106.006 14.155H105.917V12.3408H103.346V23.4038H106.084V16.815C106.941 15.19 107.988 14.6558 109.735 14.6558H110.013V12.274C109.765 12.2467 109.517 12.2318 109.267 12.2295C107.787 12.2295 106.763 12.8083 105.995 14.1772H106.006V14.155ZM95.9006 7.82211H90.8031V23.4038H93.7414V17.9836H95.8894C99.2172 17.9836 101.632 16.1917 101.632 12.8417C101.632 9.50272 99.2172 7.82211 95.8894 7.82211H95.9006ZM95.9228 15.702H93.7414V10.126H95.9117C97.6924 10.126 98.5606 11.1054 98.5606 12.8417C98.5606 14.589 97.7481 15.702 95.9117 15.702H95.9228ZM136.012 15.446C136.012 14.6113 136.925 14.2885 137.904 14.2885C138.94 14.2997 139.975 14.4666 140.965 14.7671V12.4966C139.897 12.195 138.791 12.0525 137.682 12.0737C135.033 12.0737 133.174 13.3314 133.174 15.3793C133.174 19.3526 138.65 18.3287 138.65 20.2652C138.65 21.2113 137.793 21.4673 136.535 21.4673C135.645 21.4673 134.232 21.1334 133.208 20.7661V23.0254C134.235 23.4361 135.329 23.6586 136.435 23.6821C139.017 23.6821 141.477 22.9141 141.477 20.1539C141.511 16.3142 136.024 17.3047 136.024 15.446H136.012ZM116.535 12.0737C112.996 12.0737 111.16 14.8228 111.16 17.8167C111.16 21.9347 113.319 23.6821 116.836 23.6821C118.215 23.685 119.586 23.4709 120.898 23.0477V20.7661C119.752 21.189 118.706 21.445 117.593 21.445C115.545 21.445 114.176 20.8885 114.109 18.4733H121.187C121.254 17.928 121.288 17.3826 121.277 16.8484C121.277 14.5111 120.041 12.0737 116.524 12.0737H116.535ZM114.131 16.6592C114.298 15.1233 115.133 14.1438 116.502 14.1438C117.971 14.1438 118.416 15.3125 118.416 16.6592H114.131ZM126.04 15.446C126.04 14.6113 126.942 14.2885 127.921 14.2885C128.956 14.2997 129.991 14.4666 130.982 14.7671V12.4966C129.918 12.1961 128.815 12.0536 127.71 12.0737C125.061 12.0737 123.191 13.3314 123.191 15.3793C123.191 19.3526 128.678 18.3287 128.678 20.2652C128.678 21.2113 127.81 21.4673 126.563 21.4673C125.673 21.4673 124.259 21.1334 123.224 20.7661V23.0254C124.252 23.4364 125.345 23.6588 126.452 23.6821C129.034 23.6821 131.505 22.9141 131.505 20.1539C131.527 16.3142 126.04 17.3047 126.04 15.446ZM150.492 17.7833C150.492 15.19 151.906 14.3108 153.586 14.3108C154.633 14.3442 155.679 14.5556 156.658 14.9452V12.6079C155.659 12.2479 154.604 12.067 153.542 12.0737C149.891 12.0737 147.632 14.2997 147.632 17.9169C147.632 21.3337 149.257 23.6821 153.375 23.6821C154.677 23.6821 155.69 23.4261 156.803 23.0477V20.7772C155.545 21.2558 154.577 21.445 153.72 21.445C151.906 21.445 150.492 20.6103 150.492 17.7722V17.7833ZM143.325 23.4038H146.074V20.5657H143.325V23.4038ZM2.04287 14.5C2.04287 19.475 4.93662 23.76 9.12143 25.7968L3.13359 9.39142C2.41458 10.9986 2.0429 12.7394 2.04287 14.5ZM14.5973 27.0544C16.0553 27.0544 17.4577 26.7984 18.771 26.3421L18.6819 26.1752L14.8199 15.6019L11.058 26.5424C12.171 26.8763 13.3619 27.0544 14.5973 27.0544ZM16.3224 8.61233L20.8634 22.1128L22.121 17.928C22.6553 16.1917 23.0671 14.9452 23.0671 13.8656C23.0671 12.3074 22.5106 11.239 22.0431 10.4154C21.3976 9.36916 20.8077 8.4899 20.8077 7.46596C20.8077 6.30846 21.6758 5.24 22.9224 5.24H23.0782C20.7649 3.11633 17.7376 1.94035 14.5973 1.94558C12.518 1.94519 10.4713 2.46169 8.64119 3.44863C6.81109 4.43556 5.25504 5.86197 4.11301 7.59952L4.91436 7.62178C6.22768 7.62178 8.2533 7.45483 8.2533 7.45483C8.94335 7.42144 9.02126 8.41199 8.34234 8.4899C8.34234 8.4899 7.66342 8.57894 6.89546 8.61233L11.4809 22.213L14.23 13.9769L12.2712 8.61233C11.8324 8.58812 11.3944 8.551 10.9578 8.50103C10.2789 8.45651 10.3568 7.42144 11.0358 7.45483C11.0358 7.45483 13.1059 7.62178 14.3413 7.62178C15.6546 7.62178 17.6803 7.45483 17.6803 7.45483C18.3592 7.42144 18.4482 8.41199 17.7693 8.4899C17.7693 8.4899 17.0904 8.56781 16.3224 8.61233ZM20.9079 25.3516C22.8071 24.2472 24.3833 22.6639 25.479 20.7596C26.5747 18.8554 27.1514 16.697 27.1517 14.5C27.1517 12.3186 26.5952 10.2707 25.6158 8.47877C25.8147 10.4502 25.5162 12.44 24.7477 14.2663L20.9079 25.3516ZM14.5973 28.9688C10.7599 28.9687 7.07976 27.4444 4.36634 24.731C1.65292 22.0175 0.12854 18.3374 0.12854 14.5C0.12854 10.6626 1.65292 6.98247 4.36634 4.26905C7.07976 1.55563 10.7599 0.03125 14.5973 0.03125C18.4346 0.03125 22.1148 1.55563 24.8282 4.26905C27.5417 6.98247 29.066 10.6626 29.066 14.5C29.066 18.3374 27.5417 22.0175 24.8282 24.731C22.1148 27.4444 18.4346 28.9688 14.5973 28.9688Z" fill="#828282"/>
</svg>
