<svg width="24" height="17" viewBox="0 0 24 17" fill="none" xmlns="http://www.w3.org/2000/svg">
<path d="M22.54 3.42C22.4212 2.94541 22.1793 2.51057 21.8387 2.15941C21.498 1.80824 21.0708 1.55318 20.6 1.42C18.88 1 12 1 12 1C12 1 5.12002 1 3.40002 1.46C2.92927 1.59318 2.502 1.84824 2.16137 2.19941C1.82074 2.55057 1.57881 2.98541 1.46002 3.46C1.14524 5.20556 0.991258 6.97631 1.00002 8.75C0.988802 10.537 1.14279 12.3213 1.46002 14.08C1.59098 14.5398 1.83833 14.9581 2.17817 15.2945C2.518 15.6308 2.93884 15.8738 3.40002 16C5.12002 16.46 12 16.46 12 16.46C12 16.46 18.88 16.46 20.6 16C21.0708 15.8668 21.498 15.6118 21.8387 15.2606C22.1793 14.9094 22.4212 14.4746 22.54 14C22.8524 12.2676 23.0063 10.5103 23 8.75C23.0112 6.96295 22.8573 5.1787 22.54 3.42V3.42Z" stroke="white" stroke-linecap="round" stroke-linejoin="round"/>
</svg>
